%TF.GenerationSoftware,KiCad,Pcbnew,7.0.9-1.fc39*%
%TF.CreationDate,2023-11-27T00:10:33-03:00*%
%TF.ProjectId,TapBeerFlowControl_hardware,54617042-6565-4724-966c-6f77436f6e74,rev?*%
%TF.SameCoordinates,Original*%
%TF.FileFunction,Copper,L2,Bot*%
%TF.FilePolarity,Positive*%
%FSLAX46Y46*%
G04 Gerber Fmt 4.6, Leading zero omitted, Abs format (unit mm)*
G04 Created by KiCad (PCBNEW 7.0.9-1.fc39) date 2023-11-27 00:10:33*
%MOMM*%
%LPD*%
G01*
G04 APERTURE LIST*
G04 Aperture macros list*
%AMRoundRect*
0 Rectangle with rounded corners*
0 $1 Rounding radius*
0 $2 $3 $4 $5 $6 $7 $8 $9 X,Y pos of 4 corners*
0 Add a 4 corners polygon primitive as box body*
4,1,4,$2,$3,$4,$5,$6,$7,$8,$9,$2,$3,0*
0 Add four circle primitives for the rounded corners*
1,1,$1+$1,$2,$3*
1,1,$1+$1,$4,$5*
1,1,$1+$1,$6,$7*
1,1,$1+$1,$8,$9*
0 Add four rect primitives between the rounded corners*
20,1,$1+$1,$2,$3,$4,$5,0*
20,1,$1+$1,$4,$5,$6,$7,0*
20,1,$1+$1,$6,$7,$8,$9,0*
20,1,$1+$1,$8,$9,$2,$3,0*%
G04 Aperture macros list end*
%TA.AperFunction,ComponentPad*%
%ADD10R,1.950000X1.950000*%
%TD*%
%TA.AperFunction,ComponentPad*%
%ADD11C,1.950000*%
%TD*%
%TA.AperFunction,ComponentPad*%
%ADD12C,2.100000*%
%TD*%
%TA.AperFunction,ComponentPad*%
%ADD13RoundRect,0.250000X-0.725000X0.600000X-0.725000X-0.600000X0.725000X-0.600000X0.725000X0.600000X0*%
%TD*%
%TA.AperFunction,ComponentPad*%
%ADD14O,1.950000X1.700000*%
%TD*%
%TA.AperFunction,ComponentPad*%
%ADD15R,2.000000X1.905000*%
%TD*%
%TA.AperFunction,ComponentPad*%
%ADD16O,2.000000X1.905000*%
%TD*%
%TA.AperFunction,ComponentPad*%
%ADD17R,2.200000X2.200000*%
%TD*%
%TA.AperFunction,ComponentPad*%
%ADD18O,2.200000X2.200000*%
%TD*%
%TA.AperFunction,ComponentPad*%
%ADD19C,1.600000*%
%TD*%
%TA.AperFunction,ComponentPad*%
%ADD20O,1.600000X1.600000*%
%TD*%
%TA.AperFunction,ComponentPad*%
%ADD21R,1.500000X1.050000*%
%TD*%
%TA.AperFunction,ComponentPad*%
%ADD22O,1.500000X1.050000*%
%TD*%
%TA.AperFunction,ComponentPad*%
%ADD23C,2.000000*%
%TD*%
%TA.AperFunction,ComponentPad*%
%ADD24R,1.800000X1.800000*%
%TD*%
%TA.AperFunction,ComponentPad*%
%ADD25C,1.800000*%
%TD*%
%TA.AperFunction,ComponentPad*%
%ADD26RoundRect,0.250000X-0.600000X-0.750000X0.600000X-0.750000X0.600000X0.750000X-0.600000X0.750000X0*%
%TD*%
%TA.AperFunction,ComponentPad*%
%ADD27O,1.700000X2.000000*%
%TD*%
%TA.AperFunction,ComponentPad*%
%ADD28R,2.000000X1.200000*%
%TD*%
%TA.AperFunction,ComponentPad*%
%ADD29O,2.000000X1.200000*%
%TD*%
%TA.AperFunction,Conductor*%
%ADD30C,0.400000*%
%TD*%
%TA.AperFunction,Conductor*%
%ADD31C,0.500000*%
%TD*%
G04 APERTURE END LIST*
D10*
%TO.P,K1,1,COM*%
%TO.N,+12V*%
X158830000Y-70170000D03*
D11*
%TO.P,K1,2,COIL_1*%
%TO.N,+5V*%
X152830000Y-72170000D03*
%TO.P,K1,3,N/O*%
%TO.N,Net-(J6-Pin_2)*%
X152830000Y-84370000D03*
%TO.P,K1,4,NC*%
%TO.N,unconnected-(K1-NC-Pad4)*%
X164830000Y-84370000D03*
%TO.P,K1,5,COIL_2*%
%TO.N,Net-(D2-A)*%
X164830000Y-72170000D03*
%TD*%
D12*
%TO.P,J6,1,Pin_1*%
%TO.N,GND*%
X141450000Y-84710000D03*
%TO.P,J6,2,Pin_2*%
%TO.N,Net-(J6-Pin_2)*%
X146450000Y-84710000D03*
%TD*%
D13*
%TO.P,J2,1,Pin_1*%
%TO.N,GND*%
X113230000Y-57760000D03*
D14*
%TO.P,J2,2,Pin_2*%
%TO.N,Net-(J2-Pin_2)*%
X113230000Y-60260000D03*
%TO.P,J2,3,Pin_3*%
%TO.N,+5V*%
X113230000Y-62760000D03*
%TD*%
D15*
%TO.P,U1,1,VI*%
%TO.N,+12V*%
X127620000Y-84460000D03*
D16*
%TO.P,U1,2,GND*%
%TO.N,GND*%
X127620000Y-81920000D03*
%TO.P,U1,3,VO*%
%TO.N,+5V*%
X127620000Y-79380000D03*
%TD*%
D17*
%TO.P,D2,1,K*%
%TO.N,+5V*%
X152980000Y-64690000D03*
D18*
%TO.P,D2,2,A*%
%TO.N,Net-(D2-A)*%
X160600000Y-64690000D03*
%TD*%
D19*
%TO.P,R3,1*%
%TO.N,GND*%
X161150000Y-47170000D03*
D20*
%TO.P,R3,2*%
%TO.N,Net-(D1-K)*%
X153530000Y-47170000D03*
%TD*%
D19*
%TO.P,C2,1*%
%TO.N,+5V*%
X133710000Y-77670000D03*
%TO.P,C2,2*%
%TO.N,GND*%
X133710000Y-79670000D03*
%TD*%
D12*
%TO.P,J1,1,Pin_1*%
%TO.N,GND*%
X115030000Y-84710000D03*
%TO.P,J1,2,Pin_2*%
%TO.N,+12V*%
X120030000Y-84710000D03*
%TD*%
D21*
%TO.P,Q1,1,C*%
%TO.N,Net-(D2-A)*%
X154250000Y-60050000D03*
D22*
%TO.P,Q1,2,B*%
%TO.N,Net-(Q1-B)*%
X154250000Y-58780000D03*
%TO.P,Q1,3,E*%
%TO.N,GND*%
X154250000Y-57510000D03*
%TD*%
D23*
%TO.P,SW1,1*%
%TO.N,Net-(U2-GPIO5)*%
X152600000Y-43220000D03*
X152600000Y-36720000D03*
%TO.P,SW1,2*%
%TO.N,GND*%
X157100000Y-43220000D03*
X157100000Y-36720000D03*
%TD*%
D19*
%TO.P,C1,1*%
%TO.N,+12V*%
X133820000Y-86440000D03*
%TO.P,C1,2*%
%TO.N,GND*%
X133820000Y-83940000D03*
%TD*%
D24*
%TO.P,D1,1,K*%
%TO.N,Net-(D1-K)*%
X155900000Y-51220000D03*
D25*
%TO.P,D1,2,A*%
%TO.N,Net-(D1-A)*%
X155900000Y-53760000D03*
%TD*%
D26*
%TO.P,J5,1,Pin_1*%
%TO.N,GND*%
X113550000Y-49720000D03*
D27*
%TO.P,J5,2,Pin_2*%
%TO.N,/SEL3*%
X116050000Y-49720000D03*
%TD*%
D19*
%TO.P,R1,1*%
%TO.N,Net-(J2-Pin_2)*%
X119290000Y-67110000D03*
D20*
%TO.P,R1,2*%
%TO.N,GND*%
X119290000Y-59490000D03*
%TD*%
D26*
%TO.P,J4,1,Pin_1*%
%TO.N,GND*%
X113550000Y-44030000D03*
D27*
%TO.P,J4,2,Pin_2*%
%TO.N,/SEL2*%
X116050000Y-44030000D03*
%TD*%
D28*
%TO.P,U2,1,3V3*%
%TO.N,unconnected-(U2-3V3-Pad1)*%
X122990000Y-28386600D03*
D29*
%TO.P,U2,2,CHIP_PU*%
%TO.N,unconnected-(U2-CHIP_PU-Pad2)*%
X122990000Y-30926600D03*
%TO.P,U2,3,SENSOR_VP/GPIO36/ADC1_CH0*%
%TO.N,unconnected-(U2-SENSOR_VP{slash}GPIO36{slash}ADC1_CH0-Pad3)*%
X122990000Y-33466600D03*
%TO.P,U2,4,SENSOR_VN/GPIO39/ADC1_CH3*%
%TO.N,unconnected-(U2-SENSOR_VN{slash}GPIO39{slash}ADC1_CH3-Pad4)*%
X122990000Y-36006600D03*
%TO.P,U2,5,VDET_1/GPIO34/ADC1_CH6*%
%TO.N,unconnected-(U2-VDET_1{slash}GPIO34{slash}ADC1_CH6-Pad5)*%
X122990000Y-38546600D03*
%TO.P,U2,6,VDET_2/GPIO35/ADC1_CH7*%
%TO.N,unconnected-(U2-VDET_2{slash}GPIO35{slash}ADC1_CH7-Pad6)*%
X122990000Y-41086600D03*
%TO.P,U2,7,32K_XP/GPIO32/ADC1_CH4*%
%TO.N,/SEL1*%
X122990000Y-43626600D03*
%TO.P,U2,8,32K_XN/GPIO33/ADC1_CH5*%
%TO.N,/SEL2*%
X122990000Y-46166600D03*
%TO.P,U2,9,DAC_1/ADC2_CH8/GPIO25*%
%TO.N,/SEL3*%
X122990000Y-48706600D03*
%TO.P,U2,10,DAC_2/ADC2_CH9/GPIO26*%
%TO.N,unconnected-(U2-DAC_2{slash}ADC2_CH9{slash}GPIO26-Pad10)*%
X122990000Y-51246600D03*
%TO.P,U2,11,ADC2_CH7/GPIO27*%
%TO.N,Net-(J2-Pin_2)*%
X122990000Y-53786600D03*
%TO.P,U2,12,MTMS/GPIO14/ADC2_CH6*%
%TO.N,unconnected-(U2-MTMS{slash}GPIO14{slash}ADC2_CH6-Pad12)*%
X122990000Y-56326600D03*
%TO.P,U2,13,MTDI/GPIO12/ADC2_CH5*%
%TO.N,unconnected-(U2-MTDI{slash}GPIO12{slash}ADC2_CH5-Pad13)*%
X122990000Y-58866600D03*
%TO.P,U2,14,GND*%
%TO.N,GND*%
X122990000Y-61406600D03*
%TO.P,U2,15,MTCK/GPIO13/ADC2_CH4*%
%TO.N,unconnected-(U2-MTCK{slash}GPIO13{slash}ADC2_CH4-Pad15)*%
X122990000Y-63946600D03*
%TO.P,U2,16,SD_DATA2/GPIO9*%
%TO.N,unconnected-(U2-SD_DATA2{slash}GPIO9-Pad16)*%
X122990000Y-66486600D03*
%TO.P,U2,17,SD_DATA3/GPIO10*%
%TO.N,unconnected-(U2-SD_DATA3{slash}GPIO10-Pad17)*%
X122990000Y-69026600D03*
%TO.P,U2,18,CMD*%
%TO.N,unconnected-(U2-CMD-Pad18)*%
X122990000Y-71566600D03*
%TO.P,U2,19,5V*%
%TO.N,+5V*%
X122990000Y-74106600D03*
%TO.P,U2,20,SD_CLK/GPIO6*%
%TO.N,unconnected-(U2-SD_CLK{slash}GPIO6-Pad20)*%
X148386320Y-74103880D03*
%TO.P,U2,21,SD_DATA0/GPIO7*%
%TO.N,unconnected-(U2-SD_DATA0{slash}GPIO7-Pad21)*%
X148386320Y-71563880D03*
%TO.P,U2,22,SD_DATA1/GPIO8*%
%TO.N,unconnected-(U2-SD_DATA1{slash}GPIO8-Pad22)*%
X148390000Y-69026600D03*
%TO.P,U2,23,MTDO/GPIO15/ADC2_CH3*%
%TO.N,unconnected-(U2-MTDO{slash}GPIO15{slash}ADC2_CH3-Pad23)*%
X148390000Y-66486600D03*
%TO.P,U2,24,ADC2_CH2/GPIO2*%
%TO.N,unconnected-(U2-ADC2_CH2{slash}GPIO2-Pad24)*%
X148390000Y-63946600D03*
%TO.P,U2,25,GPIO0/BOOT/ADC2_CH1*%
%TO.N,unconnected-(U2-GPIO0{slash}BOOT{slash}ADC2_CH1-Pad25)*%
X148390000Y-61406600D03*
%TO.P,U2,26,ADC2_CH0/GPIO4*%
%TO.N,unconnected-(U2-ADC2_CH0{slash}GPIO4-Pad26)*%
X148390000Y-58866600D03*
%TO.P,U2,27,GPIO16*%
%TO.N,unconnected-(U2-GPIO16-Pad27)*%
X148390000Y-56326600D03*
%TO.P,U2,28,GPIO17*%
%TO.N,Net-(D1-A)*%
X148390000Y-53786600D03*
%TO.P,U2,29,GPIO5*%
%TO.N,Net-(U2-GPIO5)*%
X148390000Y-51246600D03*
%TO.P,U2,30,GPIO18*%
%TO.N,unconnected-(U2-GPIO18-Pad30)*%
X148390000Y-48706600D03*
%TO.P,U2,31,GPIO19*%
%TO.N,unconnected-(U2-GPIO19-Pad31)*%
X148390000Y-46166600D03*
%TO.P,U2,32,GND*%
%TO.N,GND*%
X148390000Y-43626600D03*
%TO.P,U2,33,GPIO21*%
%TO.N,unconnected-(U2-GPIO21-Pad33)*%
X148390000Y-41086600D03*
%TO.P,U2,34,U0RXD/GPIO3*%
%TO.N,unconnected-(U2-U0RXD{slash}GPIO3-Pad34)*%
X148390000Y-38546600D03*
%TO.P,U2,35,U0TXD/GPIO1*%
%TO.N,unconnected-(U2-U0TXD{slash}GPIO1-Pad35)*%
X148390000Y-36006600D03*
%TO.P,U2,36,GPIO22*%
%TO.N,unconnected-(U2-GPIO22-Pad36)*%
X148390000Y-33466600D03*
%TO.P,U2,37,GPIO23*%
%TO.N,Net-(U2-GPIO23)*%
X148390000Y-30926600D03*
%TO.P,U2,38,GND*%
%TO.N,GND*%
X148390000Y-28386600D03*
%TD*%
D26*
%TO.P,J3,1,Pin_1*%
%TO.N,GND*%
X113550000Y-38550000D03*
D27*
%TO.P,J3,2,Pin_2*%
%TO.N,/SEL1*%
X116050000Y-38550000D03*
%TD*%
D19*
%TO.P,R2,1*%
%TO.N,Net-(U2-GPIO23)*%
X164320000Y-38060000D03*
D20*
%TO.P,R2,2*%
%TO.N,Net-(Q1-B)*%
X164320000Y-45680000D03*
%TD*%
D30*
%TO.N,Net-(U2-GPIO23)*%
X148390000Y-30926600D02*
X151640000Y-30926600D01*
X164320000Y-38060000D02*
X161740000Y-38060000D01*
X161740000Y-38060000D02*
X154606600Y-30926600D01*
X154606600Y-30926600D02*
X151640000Y-30926600D01*
D31*
%TO.N,Net-(U2-GPIO5)*%
X152600000Y-36720000D02*
X152600000Y-43220000D01*
X148390000Y-51246600D02*
X149433400Y-51246600D01*
X149433400Y-51246600D02*
X151440000Y-49240000D01*
X151440000Y-49240000D02*
X151440000Y-44380000D01*
X151440000Y-44380000D02*
X152600000Y-43220000D01*
%TO.N,Net-(Q1-B)*%
X154250000Y-58780000D02*
X155500000Y-58780000D01*
X155500000Y-58780000D02*
X164320000Y-49960000D01*
X164320000Y-49960000D02*
X164320000Y-45680000D01*
%TO.N,Net-(D2-A)*%
X164830000Y-72170000D02*
X164830000Y-68920000D01*
X164830000Y-68920000D02*
X160600000Y-64690000D01*
%TO.N,+12V*%
X133820000Y-86440000D02*
X156960000Y-86440000D01*
X156960000Y-86440000D02*
X157150000Y-86440000D01*
X158830000Y-70170000D02*
X158830000Y-84570000D01*
X158830000Y-84570000D02*
X156960000Y-86440000D01*
%TO.N,+5V*%
X152980000Y-64690000D02*
X152980000Y-72020000D01*
X152980000Y-72020000D02*
X152830000Y-72170000D01*
X152830000Y-72170000D02*
X152830000Y-75260000D01*
X152830000Y-75260000D02*
X150420000Y-77670000D01*
X150420000Y-77670000D02*
X133710000Y-77670000D01*
%TO.N,Net-(J6-Pin_2)*%
X146450000Y-84710000D02*
X152490000Y-84710000D01*
X152490000Y-84710000D02*
X152830000Y-84370000D01*
%TO.N,+12V*%
X120030000Y-84710000D02*
X127370000Y-84710000D01*
X127370000Y-84710000D02*
X127620000Y-84460000D01*
%TO.N,Net-(J6-Pin_2)*%
X146760000Y-84400000D02*
X146450000Y-84710000D01*
%TO.N,Net-(J2-Pin_2)*%
X119290000Y-67110000D02*
X119290000Y-64870000D01*
X119290000Y-64870000D02*
X114680000Y-60260000D01*
X113230000Y-60260000D02*
X114680000Y-60260000D01*
X114680000Y-60260000D02*
X121153400Y-53786600D01*
X121153400Y-53786600D02*
X122990000Y-53786600D01*
%TO.N,+5V*%
X122990000Y-74106600D02*
X113230000Y-64346600D01*
X113230000Y-64346600D02*
X113230000Y-62760000D01*
%TO.N,/SEL3*%
X116050000Y-49720000D02*
X116560000Y-49720000D01*
X116560000Y-49720000D02*
X117573400Y-48706600D01*
%TO.N,/SEL2*%
X116050000Y-44030000D02*
X116570000Y-44030000D01*
X116570000Y-44030000D02*
X118706600Y-46166600D01*
%TO.N,/SEL1*%
X116050000Y-38550000D02*
X116570000Y-38550000D01*
X116570000Y-38550000D02*
X121646600Y-43626600D01*
%TO.N,+12V*%
X129600000Y-86440000D02*
X127620000Y-84460000D01*
X133820000Y-86440000D02*
X129600000Y-86440000D01*
%TO.N,+5V*%
X122990000Y-74106600D02*
X122990000Y-74750000D01*
X127620000Y-79380000D02*
X129330000Y-77670000D01*
X129330000Y-77670000D02*
X133710000Y-77670000D01*
X122990000Y-74750000D02*
X127620000Y-79380000D01*
X153770000Y-65480000D02*
X152980000Y-64690000D01*
%TO.N,Net-(D1-A)*%
X148416600Y-53760000D02*
X148390000Y-53786600D01*
X155900000Y-53760000D02*
X148416600Y-53760000D01*
%TO.N,Net-(D2-A)*%
X158890000Y-64690000D02*
X154250000Y-60050000D01*
X160090000Y-64180000D02*
X160600000Y-64690000D01*
X160600000Y-64690000D02*
X158890000Y-64690000D01*
%TO.N,/SEL1*%
X121646600Y-43626600D02*
X122990000Y-43626600D01*
%TO.N,/SEL2*%
X118706600Y-46166600D02*
X122990000Y-46166600D01*
%TO.N,/SEL3*%
X122990000Y-48706600D02*
X117573400Y-48706600D01*
%TO.N,Net-(J6-Pin_2)*%
X146610000Y-84400000D02*
X146460000Y-84250000D01*
D30*
%TO.N,Net-(U2-GPIO23)*%
X148483400Y-31020000D02*
X148390000Y-30926600D01*
D31*
%TO.N,Net-(D1-K)*%
X153530000Y-48850000D02*
X155900000Y-51220000D01*
X153530000Y-47170000D02*
X153530000Y-48850000D01*
%TD*%
%TA.AperFunction,Conductor*%
%TO.N,GND*%
G36*
X167792539Y-26760185D02*
G01*
X167838294Y-26812989D01*
X167849500Y-26864500D01*
X167849500Y-89195500D01*
X167829815Y-89262539D01*
X167777011Y-89308294D01*
X167725500Y-89319500D01*
X110584500Y-89319500D01*
X110517461Y-89299815D01*
X110471706Y-89247011D01*
X110460500Y-89195500D01*
X110460500Y-84710000D01*
X113475207Y-84710000D01*
X113494348Y-84953219D01*
X113551303Y-85190457D01*
X113644668Y-85415861D01*
X113768504Y-85617942D01*
X114389859Y-84996586D01*
X114449680Y-85110566D01*
X114562405Y-85237806D01*
X114702305Y-85334371D01*
X114743541Y-85350010D01*
X114122056Y-85971494D01*
X114324138Y-86095331D01*
X114549542Y-86188696D01*
X114786780Y-86245651D01*
X114786779Y-86245651D01*
X115030000Y-86264792D01*
X115273219Y-86245651D01*
X115510457Y-86188696D01*
X115735861Y-86095331D01*
X115937942Y-85971494D01*
X115316457Y-85350010D01*
X115357695Y-85334371D01*
X115497595Y-85237806D01*
X115610320Y-85110566D01*
X115670139Y-84996587D01*
X116291494Y-85617942D01*
X116415331Y-85415861D01*
X116508696Y-85190457D01*
X116565651Y-84953219D01*
X116584792Y-84710000D01*
X116565651Y-84466780D01*
X116508696Y-84229542D01*
X116415331Y-84004138D01*
X116291494Y-83802056D01*
X115670139Y-84423411D01*
X115610320Y-84309434D01*
X115497595Y-84182194D01*
X115357695Y-84085629D01*
X115316457Y-84069989D01*
X115937942Y-83448504D01*
X115735861Y-83324668D01*
X115510457Y-83231303D01*
X115273219Y-83174348D01*
X115273220Y-83174348D01*
X115030000Y-83155207D01*
X114786780Y-83174348D01*
X114549542Y-83231303D01*
X114324146Y-83324665D01*
X114324141Y-83324668D01*
X114122056Y-83448504D01*
X114743542Y-84069989D01*
X114702305Y-84085629D01*
X114562405Y-84182194D01*
X114449680Y-84309434D01*
X114389860Y-84423412D01*
X113768504Y-83802056D01*
X113644668Y-84004141D01*
X113644665Y-84004146D01*
X113551303Y-84229542D01*
X113494348Y-84466780D01*
X113475207Y-84710000D01*
X110460500Y-84710000D01*
X110460500Y-73690000D01*
X112844473Y-73690000D01*
X112864563Y-74022136D01*
X112864563Y-74022141D01*
X112864564Y-74022142D01*
X112924544Y-74349441D01*
X112924545Y-74349445D01*
X112924546Y-74349449D01*
X113023530Y-74667104D01*
X113023534Y-74667116D01*
X113023537Y-74667123D01*
X113160102Y-74970557D01*
X113309390Y-75217509D01*
X113332251Y-75255326D01*
X113537460Y-75517255D01*
X113772744Y-75752539D01*
X114034673Y-75957748D01*
X114034678Y-75957751D01*
X114034682Y-75957754D01*
X114319443Y-76129898D01*
X114622877Y-76266463D01*
X114622890Y-76266467D01*
X114622895Y-76266469D01*
X114834665Y-76332458D01*
X114940559Y-76365456D01*
X115267858Y-76425436D01*
X115445740Y-76436196D01*
X115516892Y-76440500D01*
X115516894Y-76440500D01*
X115683108Y-76440500D01*
X115745365Y-76436734D01*
X115932142Y-76425436D01*
X116259441Y-76365456D01*
X116577123Y-76266463D01*
X116880557Y-76129898D01*
X117165318Y-75957754D01*
X117427252Y-75752542D01*
X117662542Y-75517252D01*
X117867754Y-75255318D01*
X118039898Y-74970557D01*
X118176463Y-74667123D01*
X118275456Y-74349441D01*
X118335436Y-74022142D01*
X118355527Y-73690000D01*
X118335436Y-73357858D01*
X118275456Y-73030559D01*
X118228160Y-72878781D01*
X118176469Y-72712895D01*
X118176467Y-72712890D01*
X118176463Y-72712877D01*
X118039898Y-72409443D01*
X117867754Y-72124682D01*
X117867751Y-72124678D01*
X117867748Y-72124673D01*
X117662539Y-71862744D01*
X117427255Y-71627460D01*
X117165326Y-71422251D01*
X117139357Y-71406552D01*
X116880557Y-71250102D01*
X116577123Y-71113537D01*
X116577116Y-71113534D01*
X116577104Y-71113530D01*
X116259449Y-71014546D01*
X116259445Y-71014545D01*
X116259441Y-71014544D01*
X115932142Y-70954564D01*
X115932141Y-70954563D01*
X115932136Y-70954563D01*
X115683108Y-70939500D01*
X115683106Y-70939500D01*
X115516894Y-70939500D01*
X115516892Y-70939500D01*
X115267863Y-70954563D01*
X115267858Y-70954564D01*
X114940559Y-71014544D01*
X114940556Y-71014544D01*
X114940550Y-71014546D01*
X114622895Y-71113530D01*
X114622879Y-71113536D01*
X114622877Y-71113537D01*
X114319443Y-71250102D01*
X114302039Y-71260623D01*
X114034673Y-71422251D01*
X113772744Y-71627460D01*
X113537460Y-71862744D01*
X113332251Y-72124673D01*
X113160101Y-72409445D01*
X113160100Y-72409447D01*
X113149560Y-72432866D01*
X113043998Y-72667416D01*
X113023536Y-72712880D01*
X113023530Y-72712895D01*
X112924546Y-73030550D01*
X112924544Y-73030556D01*
X112924544Y-73030559D01*
X112898281Y-73173871D01*
X112864563Y-73357863D01*
X112844473Y-73690000D01*
X110460500Y-73690000D01*
X110460500Y-62760000D01*
X111749341Y-62760000D01*
X111769936Y-62995403D01*
X111769938Y-62995413D01*
X111831094Y-63223655D01*
X111831096Y-63223659D01*
X111831097Y-63223663D01*
X111835197Y-63232455D01*
X111930964Y-63437828D01*
X111930965Y-63437830D01*
X112066505Y-63631402D01*
X112233596Y-63798493D01*
X112233599Y-63798495D01*
X112426625Y-63933652D01*
X112470248Y-63988226D01*
X112479500Y-64035225D01*
X112479500Y-64282894D01*
X112478191Y-64300863D01*
X112474710Y-64324625D01*
X112479264Y-64376664D01*
X112479500Y-64382070D01*
X112479500Y-64390309D01*
X112483306Y-64422874D01*
X112490000Y-64499391D01*
X112491461Y-64506467D01*
X112491403Y-64506478D01*
X112493034Y-64513837D01*
X112493092Y-64513824D01*
X112494757Y-64520850D01*
X112521025Y-64593024D01*
X112545185Y-64665931D01*
X112548236Y-64672474D01*
X112548182Y-64672498D01*
X112551470Y-64679288D01*
X112551521Y-64679263D01*
X112554761Y-64685713D01*
X112554762Y-64685714D01*
X112554763Y-64685717D01*
X112594865Y-64746690D01*
X112596965Y-64749883D01*
X112637287Y-64815255D01*
X112641766Y-64820919D01*
X112641719Y-64820956D01*
X112646482Y-64826802D01*
X112646528Y-64826764D01*
X112651173Y-64832300D01*
X112707018Y-64884986D01*
X121499939Y-73677907D01*
X121533424Y-73739230D01*
X121529439Y-73806142D01*
X121515656Y-73845967D01*
X121490327Y-74022142D01*
X121485746Y-74054001D01*
X121495745Y-74263927D01*
X121545296Y-74468178D01*
X121545298Y-74468182D01*
X121632598Y-74659343D01*
X121632601Y-74659348D01*
X121632602Y-74659350D01*
X121632604Y-74659353D01*
X121752577Y-74827832D01*
X121754515Y-74830553D01*
X121754520Y-74830559D01*
X121906620Y-74975585D01*
X121906622Y-74975586D01*
X122083428Y-75089213D01*
X122278543Y-75167325D01*
X122325521Y-75176379D01*
X122387624Y-75208394D01*
X122393780Y-75215148D01*
X122396141Y-75217509D01*
X122397899Y-75219667D01*
X122399320Y-75221226D01*
X122401765Y-75224318D01*
X122401718Y-75224354D01*
X122406482Y-75230202D01*
X122406528Y-75230164D01*
X122411173Y-75235700D01*
X122467017Y-75288385D01*
X126119947Y-78941315D01*
X126153432Y-79002638D01*
X126154575Y-79049405D01*
X126119500Y-79259601D01*
X126119500Y-79500397D01*
X126159134Y-79737916D01*
X126237318Y-79965656D01*
X126237321Y-79965665D01*
X126351929Y-80177441D01*
X126395451Y-80233358D01*
X126499829Y-80367463D01*
X126624844Y-80482547D01*
X126676994Y-80530555D01*
X126701384Y-80546489D01*
X126746742Y-80599634D01*
X126756166Y-80668866D01*
X126726665Y-80732202D01*
X126701390Y-80754104D01*
X126677297Y-80769846D01*
X126677289Y-80769851D01*
X126500202Y-80932873D01*
X126500193Y-80932883D01*
X126352350Y-81122831D01*
X126352344Y-81122840D01*
X126237784Y-81334531D01*
X126237778Y-81334545D01*
X126159619Y-81562208D01*
X126141633Y-81669999D01*
X126141634Y-81670000D01*
X127125148Y-81670000D01*
X127076441Y-81807047D01*
X127066123Y-81957886D01*
X127096884Y-82105915D01*
X127130090Y-82170000D01*
X126141633Y-82170000D01*
X126159619Y-82277791D01*
X126237778Y-82505454D01*
X126237784Y-82505468D01*
X126352344Y-82717159D01*
X126352350Y-82717168D01*
X126463324Y-82859747D01*
X126488967Y-82924741D01*
X126475401Y-82993281D01*
X126426932Y-83043605D01*
X126408804Y-83052091D01*
X126377671Y-83063702D01*
X126377664Y-83063706D01*
X126262455Y-83149952D01*
X126262452Y-83149955D01*
X126176206Y-83265164D01*
X126176202Y-83265171D01*
X126125908Y-83400017D01*
X126120696Y-83448504D01*
X126119501Y-83459623D01*
X126119500Y-83459635D01*
X126119500Y-83835500D01*
X126099815Y-83902539D01*
X126047011Y-83948294D01*
X125995500Y-83959500D01*
X121458005Y-83959500D01*
X121390966Y-83939815D01*
X121352278Y-83900290D01*
X121288262Y-83795825D01*
X121288261Y-83795823D01*
X121217865Y-83713400D01*
X121129759Y-83610241D01*
X120954579Y-83460623D01*
X120944176Y-83451738D01*
X120944173Y-83451737D01*
X120736089Y-83324222D01*
X120510618Y-83230830D01*
X120510621Y-83230830D01*
X120404992Y-83205470D01*
X120273302Y-83173854D01*
X120273300Y-83173853D01*
X120273297Y-83173853D01*
X120030000Y-83154706D01*
X119786702Y-83173853D01*
X119786698Y-83173854D01*
X119617286Y-83214527D01*
X119549380Y-83230830D01*
X119323910Y-83324222D01*
X119115826Y-83451737D01*
X119115823Y-83451738D01*
X118930241Y-83610241D01*
X118771738Y-83795823D01*
X118771737Y-83795826D01*
X118644222Y-84003910D01*
X118550830Y-84229380D01*
X118493853Y-84466702D01*
X118474706Y-84710000D01*
X118493853Y-84953297D01*
X118493853Y-84953300D01*
X118493854Y-84953302D01*
X118537224Y-85133950D01*
X118550830Y-85190619D01*
X118644222Y-85416089D01*
X118771737Y-85624173D01*
X118771738Y-85624176D01*
X118810718Y-85669815D01*
X118930241Y-85809759D01*
X119043617Y-85906591D01*
X119115823Y-85968261D01*
X119115826Y-85968262D01*
X119323910Y-86095777D01*
X119549381Y-86189169D01*
X119549378Y-86189169D01*
X119549384Y-86189170D01*
X119549388Y-86189172D01*
X119786698Y-86246146D01*
X120030000Y-86265294D01*
X120273302Y-86246146D01*
X120510612Y-86189172D01*
X120736089Y-86095777D01*
X120944179Y-85968259D01*
X121129759Y-85809759D01*
X121288259Y-85624179D01*
X121352278Y-85519710D01*
X121404089Y-85472835D01*
X121458005Y-85460500D01*
X126017628Y-85460500D01*
X126084667Y-85480185D01*
X126130422Y-85532989D01*
X126133810Y-85541167D01*
X126176202Y-85654828D01*
X126176206Y-85654835D01*
X126262452Y-85770044D01*
X126262455Y-85770047D01*
X126377664Y-85856293D01*
X126377671Y-85856297D01*
X126512517Y-85906591D01*
X126512516Y-85906591D01*
X126519444Y-85907335D01*
X126572127Y-85913000D01*
X127960269Y-85912999D01*
X128027308Y-85932684D01*
X128047950Y-85949318D01*
X129024270Y-86925638D01*
X129036051Y-86939270D01*
X129050388Y-86958528D01*
X129090409Y-86992111D01*
X129094397Y-86995766D01*
X129100216Y-87001585D01*
X129100220Y-87001588D01*
X129100223Y-87001591D01*
X129125959Y-87021940D01*
X129184786Y-87071302D01*
X129184787Y-87071302D01*
X129184789Y-87071304D01*
X129190818Y-87075270D01*
X129190785Y-87075319D01*
X129197147Y-87079372D01*
X129197179Y-87079321D01*
X129203319Y-87083108D01*
X129203323Y-87083111D01*
X129238132Y-87099343D01*
X129272941Y-87115575D01*
X129341565Y-87150039D01*
X129341567Y-87150040D01*
X129341569Y-87150040D01*
X129348357Y-87152511D01*
X129348336Y-87152567D01*
X129355457Y-87155043D01*
X129355476Y-87154986D01*
X129362322Y-87157254D01*
X129362327Y-87157257D01*
X129362332Y-87157258D01*
X129362335Y-87157259D01*
X129437565Y-87172792D01*
X129512279Y-87190500D01*
X129512282Y-87190500D01*
X129512286Y-87190501D01*
X129519453Y-87191339D01*
X129519446Y-87191398D01*
X129526944Y-87192164D01*
X129526950Y-87192105D01*
X129534139Y-87192734D01*
X129534143Y-87192733D01*
X129534144Y-87192734D01*
X129610917Y-87190500D01*
X132693337Y-87190500D01*
X132760376Y-87210185D01*
X132794912Y-87243377D01*
X132819954Y-87279141D01*
X132980858Y-87440045D01*
X132980861Y-87440047D01*
X133167266Y-87570568D01*
X133373504Y-87666739D01*
X133593308Y-87725635D01*
X133755230Y-87739801D01*
X133819998Y-87745468D01*
X133820000Y-87745468D01*
X133820002Y-87745468D01*
X133876673Y-87740509D01*
X134046692Y-87725635D01*
X134266496Y-87666739D01*
X134472734Y-87570568D01*
X134659139Y-87440047D01*
X134820047Y-87279139D01*
X134845088Y-87243377D01*
X134899665Y-87199752D01*
X134946663Y-87190500D01*
X156872279Y-87190500D01*
X156896295Y-87190500D01*
X156914265Y-87191809D01*
X156938023Y-87195289D01*
X156990068Y-87190735D01*
X156995470Y-87190500D01*
X157193701Y-87190500D01*
X157193709Y-87190500D01*
X157324255Y-87175241D01*
X157489117Y-87115237D01*
X157630159Y-87022471D01*
X157635693Y-87018832D01*
X157635694Y-87018831D01*
X157635693Y-87018831D01*
X157635696Y-87018830D01*
X157756092Y-86891218D01*
X157843812Y-86739281D01*
X157886852Y-86595519D01*
X157917958Y-86543408D01*
X159315638Y-85145727D01*
X159329267Y-85133950D01*
X159348530Y-85119610D01*
X159348532Y-85119606D01*
X159348534Y-85119606D01*
X159366663Y-85097999D01*
X159382113Y-85079585D01*
X159385767Y-85075599D01*
X159391589Y-85069778D01*
X159411928Y-85044054D01*
X159432930Y-85019025D01*
X159461302Y-84985214D01*
X159461304Y-84985209D01*
X159465272Y-84979179D01*
X159465323Y-84979212D01*
X159469369Y-84972860D01*
X159469317Y-84972828D01*
X159473109Y-84966679D01*
X159473111Y-84966677D01*
X159505569Y-84897069D01*
X159540040Y-84828433D01*
X159540043Y-84828417D01*
X159542510Y-84821644D01*
X159542568Y-84821665D01*
X159545043Y-84814546D01*
X159544985Y-84814527D01*
X159547256Y-84807672D01*
X159549874Y-84794995D01*
X159562784Y-84732467D01*
X159580500Y-84657721D01*
X159580500Y-84657720D01*
X159581339Y-84650548D01*
X159581397Y-84650554D01*
X159582164Y-84643056D01*
X159582104Y-84643051D01*
X159582733Y-84635860D01*
X159580500Y-84559103D01*
X159580500Y-84370005D01*
X163349443Y-84370005D01*
X163369634Y-84613683D01*
X163369636Y-84613695D01*
X163429663Y-84850734D01*
X163527888Y-85074666D01*
X163661632Y-85279378D01*
X163827242Y-85459277D01*
X163827252Y-85459286D01*
X163941043Y-85547853D01*
X164020212Y-85609473D01*
X164235267Y-85725855D01*
X164235270Y-85725856D01*
X164466541Y-85805251D01*
X164466543Y-85805251D01*
X164466545Y-85805252D01*
X164707737Y-85845500D01*
X164707738Y-85845500D01*
X164952262Y-85845500D01*
X164952263Y-85845500D01*
X165193455Y-85805252D01*
X165424733Y-85725855D01*
X165639788Y-85609473D01*
X165832754Y-85459281D01*
X165998368Y-85279377D01*
X166132111Y-85074667D01*
X166230336Y-84850736D01*
X166290364Y-84613692D01*
X166290365Y-84613683D01*
X166310557Y-84370005D01*
X166310557Y-84369994D01*
X166290365Y-84126316D01*
X166290363Y-84126304D01*
X166274876Y-84065148D01*
X166230336Y-83889264D01*
X166132111Y-83665333D01*
X166080572Y-83586446D01*
X165998367Y-83460621D01*
X165832757Y-83280722D01*
X165832747Y-83280713D01*
X165639791Y-83130529D01*
X165639787Y-83130526D01*
X165424734Y-83014145D01*
X165424729Y-83014143D01*
X165193458Y-82934748D01*
X165012561Y-82904562D01*
X164952263Y-82894500D01*
X164707737Y-82894500D01*
X164659498Y-82902549D01*
X164466541Y-82934748D01*
X164235270Y-83014143D01*
X164235265Y-83014145D01*
X164020212Y-83130526D01*
X164020208Y-83130529D01*
X163827252Y-83280713D01*
X163827242Y-83280722D01*
X163661632Y-83460621D01*
X163527888Y-83665333D01*
X163429663Y-83889265D01*
X163369636Y-84126304D01*
X163369634Y-84126316D01*
X163349443Y-84369994D01*
X163349443Y-84370005D01*
X159580500Y-84370005D01*
X159580500Y-71769499D01*
X159600185Y-71702460D01*
X159652989Y-71656705D01*
X159704500Y-71645499D01*
X159852871Y-71645499D01*
X159852872Y-71645499D01*
X159912483Y-71639091D01*
X160047331Y-71588796D01*
X160162546Y-71502546D01*
X160248796Y-71387331D01*
X160299091Y-71252483D01*
X160305500Y-71192873D01*
X160305499Y-69147128D01*
X160299091Y-69087517D01*
X160295988Y-69079198D01*
X160248797Y-68952671D01*
X160248793Y-68952664D01*
X160162547Y-68837455D01*
X160162544Y-68837452D01*
X160047335Y-68751206D01*
X160047328Y-68751202D01*
X159912482Y-68700908D01*
X159912483Y-68700908D01*
X159852883Y-68694501D01*
X159852881Y-68694500D01*
X159852873Y-68694500D01*
X159852864Y-68694500D01*
X157807129Y-68694500D01*
X157807123Y-68694501D01*
X157747516Y-68700908D01*
X157612671Y-68751202D01*
X157612664Y-68751206D01*
X157497455Y-68837452D01*
X157497452Y-68837455D01*
X157411206Y-68952664D01*
X157411202Y-68952671D01*
X157360908Y-69087517D01*
X157354501Y-69147116D01*
X157354501Y-69147123D01*
X157354500Y-69147135D01*
X157354500Y-71192870D01*
X157354501Y-71192876D01*
X157360908Y-71252483D01*
X157411202Y-71387328D01*
X157411206Y-71387335D01*
X157497452Y-71502544D01*
X157497455Y-71502547D01*
X157612664Y-71588793D01*
X157612671Y-71588797D01*
X157657618Y-71605561D01*
X157747517Y-71639091D01*
X157807127Y-71645500D01*
X157955500Y-71645499D01*
X158022539Y-71665183D01*
X158068294Y-71717987D01*
X158079500Y-71769499D01*
X158079500Y-84207770D01*
X158059815Y-84274809D01*
X158043181Y-84295451D01*
X156685451Y-85653181D01*
X156624128Y-85686666D01*
X156597770Y-85689500D01*
X153898168Y-85689500D01*
X153831129Y-85669815D01*
X153785374Y-85617011D01*
X153775430Y-85547853D01*
X153804455Y-85484297D01*
X153822002Y-85467648D01*
X153832754Y-85459281D01*
X153998368Y-85279377D01*
X154132111Y-85074667D01*
X154230336Y-84850736D01*
X154290364Y-84613692D01*
X154290365Y-84613683D01*
X154310557Y-84370005D01*
X154310557Y-84369994D01*
X154290365Y-84126316D01*
X154290363Y-84126304D01*
X154274876Y-84065148D01*
X154230336Y-83889264D01*
X154132111Y-83665333D01*
X154080572Y-83586446D01*
X153998367Y-83460621D01*
X153832757Y-83280722D01*
X153832747Y-83280713D01*
X153639791Y-83130529D01*
X153639787Y-83130526D01*
X153424734Y-83014145D01*
X153424729Y-83014143D01*
X153193458Y-82934748D01*
X153012561Y-82904562D01*
X152952263Y-82894500D01*
X152707737Y-82894500D01*
X152659498Y-82902549D01*
X152466541Y-82934748D01*
X152235270Y-83014143D01*
X152235265Y-83014145D01*
X152020212Y-83130526D01*
X152020208Y-83130529D01*
X151827252Y-83280713D01*
X151827242Y-83280722D01*
X151661632Y-83460621D01*
X151527888Y-83665333D01*
X151470652Y-83795821D01*
X151431397Y-83885311D01*
X151386443Y-83938796D01*
X151319707Y-83959486D01*
X151317843Y-83959500D01*
X147878005Y-83959500D01*
X147810966Y-83939815D01*
X147772278Y-83900290D01*
X147708262Y-83795825D01*
X147708261Y-83795823D01*
X147637865Y-83713400D01*
X147549759Y-83610241D01*
X147374579Y-83460623D01*
X147364176Y-83451738D01*
X147364173Y-83451737D01*
X147156089Y-83324222D01*
X146930618Y-83230830D01*
X146930621Y-83230830D01*
X146824992Y-83205470D01*
X146693302Y-83173854D01*
X146693300Y-83173853D01*
X146693297Y-83173853D01*
X146450000Y-83154706D01*
X146206702Y-83173853D01*
X146206698Y-83173854D01*
X146037286Y-83214527D01*
X145969380Y-83230830D01*
X145743910Y-83324222D01*
X145535826Y-83451737D01*
X145535823Y-83451738D01*
X145350241Y-83610241D01*
X145191738Y-83795823D01*
X145191737Y-83795826D01*
X145064222Y-84003910D01*
X144970830Y-84229380D01*
X144913853Y-84466702D01*
X144894706Y-84710000D01*
X144913853Y-84953297D01*
X144913853Y-84953300D01*
X144913854Y-84953302D01*
X144957224Y-85133950D01*
X144970830Y-85190619D01*
X145064221Y-85416087D01*
X145116079Y-85500711D01*
X145134323Y-85568156D01*
X145113206Y-85634759D01*
X145059434Y-85679372D01*
X145010351Y-85689500D01*
X142889063Y-85689500D01*
X142822024Y-85669815D01*
X142776269Y-85617011D01*
X142766325Y-85547853D01*
X142783336Y-85500710D01*
X142835331Y-85415861D01*
X142928696Y-85190457D01*
X142985651Y-84953219D01*
X143004792Y-84710000D01*
X142985651Y-84466780D01*
X142928696Y-84229542D01*
X142835331Y-84004138D01*
X142711494Y-83802056D01*
X142090139Y-84423411D01*
X142030320Y-84309434D01*
X141917595Y-84182194D01*
X141777695Y-84085629D01*
X141736457Y-84069989D01*
X142357942Y-83448504D01*
X142155861Y-83324668D01*
X141930457Y-83231303D01*
X141693219Y-83174348D01*
X141693220Y-83174348D01*
X141450000Y-83155207D01*
X141206780Y-83174348D01*
X140969542Y-83231303D01*
X140744146Y-83324665D01*
X140744141Y-83324668D01*
X140542056Y-83448504D01*
X141163542Y-84069989D01*
X141122305Y-84085629D01*
X140982405Y-84182194D01*
X140869680Y-84309434D01*
X140809860Y-84423412D01*
X140188504Y-83802056D01*
X140064668Y-84004141D01*
X140064665Y-84004146D01*
X139971303Y-84229542D01*
X139914348Y-84466780D01*
X139895207Y-84710000D01*
X139914348Y-84953219D01*
X139971303Y-85190457D01*
X140064668Y-85415861D01*
X140116664Y-85500710D01*
X140134909Y-85568156D01*
X140113793Y-85634758D01*
X140060021Y-85679372D01*
X140010937Y-85689500D01*
X134946663Y-85689500D01*
X134879624Y-85669815D01*
X134845088Y-85636623D01*
X134820045Y-85600858D01*
X134659141Y-85439954D01*
X134472734Y-85309432D01*
X134472730Y-85309430D01*
X134457022Y-85302105D01*
X134404583Y-85255931D01*
X134385433Y-85188737D01*
X134405650Y-85121857D01*
X134457028Y-85077340D01*
X134472481Y-85070134D01*
X134545472Y-85019025D01*
X133864401Y-84337953D01*
X133945148Y-84325165D01*
X134058045Y-84267641D01*
X134147641Y-84178045D01*
X134205165Y-84065148D01*
X134217953Y-83984400D01*
X134899025Y-84665472D01*
X134950136Y-84592478D01*
X135046264Y-84386331D01*
X135046269Y-84386317D01*
X135105139Y-84166610D01*
X135105141Y-84166599D01*
X135124966Y-83940002D01*
X135124966Y-83939997D01*
X135105141Y-83713400D01*
X135105139Y-83713389D01*
X135046269Y-83493682D01*
X135046265Y-83493673D01*
X134950133Y-83287516D01*
X134950131Y-83287512D01*
X134899026Y-83214526D01*
X134899025Y-83214526D01*
X134217953Y-83895598D01*
X134205165Y-83814852D01*
X134147641Y-83701955D01*
X134058045Y-83612359D01*
X133945148Y-83554835D01*
X133864400Y-83542046D01*
X134545472Y-82860974D01*
X134545471Y-82860973D01*
X134472483Y-82809866D01*
X134472481Y-82809865D01*
X134266326Y-82713734D01*
X134266317Y-82713730D01*
X134046610Y-82654860D01*
X134046599Y-82654858D01*
X133820002Y-82635034D01*
X133819998Y-82635034D01*
X133593400Y-82654858D01*
X133593389Y-82654860D01*
X133373682Y-82713730D01*
X133373673Y-82713734D01*
X133167513Y-82809868D01*
X133094527Y-82860972D01*
X133094526Y-82860973D01*
X133775600Y-83542046D01*
X133694852Y-83554835D01*
X133581955Y-83612359D01*
X133492359Y-83701955D01*
X133434835Y-83814852D01*
X133422046Y-83895599D01*
X132740973Y-83214526D01*
X132740972Y-83214527D01*
X132689868Y-83287513D01*
X132593734Y-83493673D01*
X132593730Y-83493682D01*
X132534860Y-83713389D01*
X132534858Y-83713400D01*
X132515034Y-83939997D01*
X132515034Y-83940002D01*
X132534858Y-84166599D01*
X132534860Y-84166610D01*
X132593730Y-84386317D01*
X132593734Y-84386326D01*
X132689865Y-84592481D01*
X132689866Y-84592483D01*
X132740973Y-84665471D01*
X132740974Y-84665472D01*
X133422046Y-83984399D01*
X133434835Y-84065148D01*
X133492359Y-84178045D01*
X133581955Y-84267641D01*
X133694852Y-84325165D01*
X133775599Y-84337953D01*
X133094526Y-85019025D01*
X133094526Y-85019026D01*
X133167512Y-85070131D01*
X133167515Y-85070132D01*
X133182974Y-85077341D01*
X133235414Y-85123513D01*
X133254567Y-85190706D01*
X133234352Y-85257587D01*
X133182978Y-85302105D01*
X133167269Y-85309430D01*
X133167265Y-85309432D01*
X132980858Y-85439954D01*
X132819954Y-85600858D01*
X132794912Y-85636623D01*
X132740335Y-85680248D01*
X132693337Y-85689500D01*
X129962229Y-85689500D01*
X129895190Y-85669815D01*
X129874548Y-85653181D01*
X129156818Y-84935451D01*
X129123333Y-84874128D01*
X129120499Y-84847770D01*
X129120499Y-83459629D01*
X129120498Y-83459623D01*
X129120497Y-83459616D01*
X129114091Y-83400017D01*
X129085821Y-83324222D01*
X129063797Y-83265171D01*
X129063793Y-83265164D01*
X128977547Y-83149955D01*
X128977544Y-83149952D01*
X128862335Y-83063706D01*
X128862326Y-83063701D01*
X128831196Y-83052091D01*
X128775262Y-83010221D01*
X128750844Y-82944757D01*
X128765695Y-82876484D01*
X128776675Y-82859746D01*
X128887653Y-82717162D01*
X128887655Y-82717159D01*
X129002215Y-82505468D01*
X129002221Y-82505454D01*
X129080380Y-82277791D01*
X129098367Y-82170000D01*
X128114852Y-82170000D01*
X128163559Y-82032953D01*
X128173877Y-81882114D01*
X128143116Y-81734085D01*
X128109910Y-81670000D01*
X129098366Y-81670000D01*
X129098366Y-81669999D01*
X129080380Y-81562208D01*
X129002221Y-81334545D01*
X129002215Y-81334531D01*
X128887655Y-81122840D01*
X128887649Y-81122831D01*
X128739806Y-80932883D01*
X128739797Y-80932873D01*
X128562710Y-80769851D01*
X128562704Y-80769847D01*
X128538611Y-80754106D01*
X128493255Y-80700959D01*
X128483832Y-80631728D01*
X128513335Y-80568392D01*
X128538608Y-80546493D01*
X128563010Y-80530551D01*
X128740171Y-80367463D01*
X128888072Y-80177439D01*
X129002679Y-79965664D01*
X129080866Y-79737913D01*
X129120500Y-79500399D01*
X129120500Y-79259601D01*
X129085424Y-79049403D01*
X129093806Y-78980040D01*
X129120049Y-78941317D01*
X129604548Y-78456819D01*
X129665871Y-78423334D01*
X129692229Y-78420500D01*
X132583337Y-78420500D01*
X132650376Y-78440185D01*
X132684912Y-78473377D01*
X132709954Y-78509141D01*
X132870858Y-78670045D01*
X132870861Y-78670047D01*
X133057266Y-78800568D01*
X133263504Y-78896739D01*
X133263506Y-78896739D01*
X133263513Y-78896742D01*
X133268003Y-78897945D01*
X133323592Y-78930039D01*
X133665599Y-79272046D01*
X133584852Y-79284835D01*
X133471955Y-79342359D01*
X133382359Y-79431955D01*
X133324835Y-79544852D01*
X133312046Y-79625599D01*
X132630973Y-78944526D01*
X132630972Y-78944527D01*
X132579868Y-79017513D01*
X132483734Y-79223673D01*
X132483730Y-79223682D01*
X132424860Y-79443389D01*
X132424858Y-79443400D01*
X132405034Y-79669997D01*
X132405034Y-79670002D01*
X132424858Y-79896599D01*
X132424860Y-79896610D01*
X132483730Y-80116317D01*
X132483734Y-80116326D01*
X132579865Y-80322481D01*
X132579866Y-80322483D01*
X132630973Y-80395471D01*
X132630974Y-80395472D01*
X133312046Y-79714399D01*
X133324835Y-79795148D01*
X133382359Y-79908045D01*
X133471955Y-79997641D01*
X133584852Y-80055165D01*
X133665599Y-80067953D01*
X132984526Y-80749025D01*
X132984526Y-80749026D01*
X133057512Y-80800131D01*
X133057516Y-80800133D01*
X133263673Y-80896265D01*
X133263682Y-80896269D01*
X133483389Y-80955139D01*
X133483400Y-80955141D01*
X133709998Y-80974966D01*
X133710002Y-80974966D01*
X133936599Y-80955141D01*
X133936610Y-80955139D01*
X134156317Y-80896269D01*
X134156331Y-80896264D01*
X134362478Y-80800136D01*
X134435472Y-80749025D01*
X133754401Y-80067953D01*
X133835148Y-80055165D01*
X133948045Y-79997641D01*
X134037641Y-79908045D01*
X134095165Y-79795148D01*
X134107953Y-79714400D01*
X134789025Y-80395472D01*
X134840136Y-80322478D01*
X134936264Y-80116331D01*
X134936269Y-80116317D01*
X134995139Y-79896610D01*
X134995141Y-79896599D01*
X135014966Y-79670002D01*
X135014966Y-79669997D01*
X134995141Y-79443400D01*
X134995139Y-79443389D01*
X134936269Y-79223682D01*
X134936265Y-79223673D01*
X134840133Y-79017516D01*
X134840131Y-79017512D01*
X134789026Y-78944526D01*
X134789025Y-78944526D01*
X134107953Y-79625598D01*
X134095165Y-79544852D01*
X134037641Y-79431955D01*
X133948045Y-79342359D01*
X133835148Y-79284835D01*
X133754400Y-79272046D01*
X134096407Y-78930039D01*
X134151996Y-78897945D01*
X134153833Y-78897452D01*
X134156496Y-78896739D01*
X134362734Y-78800568D01*
X134549139Y-78670047D01*
X134710047Y-78509139D01*
X134735088Y-78473377D01*
X134789665Y-78429752D01*
X134836663Y-78420500D01*
X150356295Y-78420500D01*
X150374265Y-78421809D01*
X150398023Y-78425289D01*
X150450068Y-78420735D01*
X150455470Y-78420500D01*
X150463704Y-78420500D01*
X150463709Y-78420500D01*
X150475327Y-78419141D01*
X150496276Y-78416693D01*
X150509028Y-78415577D01*
X150572797Y-78409999D01*
X150572805Y-78409996D01*
X150579866Y-78408539D01*
X150579878Y-78408598D01*
X150587243Y-78406965D01*
X150587229Y-78406906D01*
X150594246Y-78405241D01*
X150594255Y-78405241D01*
X150666423Y-78378974D01*
X150739334Y-78354814D01*
X150739343Y-78354807D01*
X150745882Y-78351760D01*
X150745908Y-78351816D01*
X150752690Y-78348532D01*
X150752663Y-78348478D01*
X150759106Y-78345240D01*
X150759117Y-78345237D01*
X150823283Y-78303034D01*
X150888656Y-78262712D01*
X150888662Y-78262705D01*
X150894325Y-78258229D01*
X150894362Y-78258277D01*
X150900204Y-78253518D01*
X150900164Y-78253471D01*
X150905691Y-78248832D01*
X150905696Y-78248830D01*
X150958386Y-78192981D01*
X153315638Y-75835727D01*
X153329267Y-75823950D01*
X153348530Y-75809610D01*
X153348532Y-75809606D01*
X153348534Y-75809606D01*
X153366663Y-75787999D01*
X153382113Y-75769585D01*
X153385767Y-75765599D01*
X153391591Y-75759776D01*
X153411930Y-75734052D01*
X153461302Y-75675214D01*
X153461306Y-75675205D01*
X153465274Y-75669175D01*
X153465325Y-75669208D01*
X153469372Y-75662856D01*
X153469320Y-75662824D01*
X153473112Y-75656675D01*
X153505575Y-75587058D01*
X153540036Y-75518440D01*
X153540040Y-75518433D01*
X153540042Y-75518421D01*
X153542509Y-75511646D01*
X153542567Y-75511667D01*
X153545043Y-75504546D01*
X153544986Y-75504527D01*
X153547255Y-75497680D01*
X153547256Y-75497675D01*
X153547257Y-75497673D01*
X153562791Y-75422437D01*
X153580500Y-75347721D01*
X153580500Y-75347719D01*
X153581339Y-75340548D01*
X153581398Y-75340554D01*
X153582164Y-75333054D01*
X153582105Y-75333049D01*
X153582734Y-75325859D01*
X153580500Y-75249082D01*
X153580500Y-73515313D01*
X153600185Y-73448274D01*
X153636675Y-73411507D01*
X153639779Y-73409477D01*
X153639788Y-73409473D01*
X153832754Y-73259281D01*
X153998368Y-73079377D01*
X154132111Y-72874667D01*
X154230336Y-72650736D01*
X154290364Y-72413692D01*
X154290716Y-72409443D01*
X154310557Y-72170005D01*
X154310557Y-72169994D01*
X154290365Y-71926316D01*
X154290363Y-71926304D01*
X154238425Y-71721207D01*
X154230336Y-71689264D01*
X154132111Y-71465333D01*
X154026216Y-71303248D01*
X153998367Y-71260621D01*
X153832757Y-71080722D01*
X153832752Y-71080717D01*
X153778337Y-71038364D01*
X153737524Y-70981653D01*
X153730500Y-70940511D01*
X153730500Y-66414499D01*
X153750185Y-66347460D01*
X153802989Y-66301705D01*
X153854500Y-66290499D01*
X154127871Y-66290499D01*
X154127872Y-66290499D01*
X154187483Y-66284091D01*
X154322331Y-66233796D01*
X154437546Y-66147546D01*
X154523796Y-66032331D01*
X154574091Y-65897483D01*
X154580500Y-65837873D01*
X154580499Y-63542128D01*
X154574091Y-63482517D01*
X154557425Y-63437834D01*
X154523797Y-63347671D01*
X154523793Y-63347664D01*
X154437547Y-63232455D01*
X154437544Y-63232452D01*
X154322335Y-63146206D01*
X154322328Y-63146202D01*
X154187482Y-63095908D01*
X154187483Y-63095908D01*
X154127883Y-63089501D01*
X154127881Y-63089500D01*
X154127873Y-63089500D01*
X154127864Y-63089500D01*
X151832129Y-63089500D01*
X151832123Y-63089501D01*
X151772516Y-63095908D01*
X151637671Y-63146202D01*
X151637664Y-63146206D01*
X151522455Y-63232452D01*
X151522452Y-63232455D01*
X151436206Y-63347664D01*
X151436202Y-63347671D01*
X151385908Y-63482517D01*
X151379501Y-63542116D01*
X151379501Y-63542123D01*
X151379500Y-63542135D01*
X151379500Y-65837870D01*
X151379501Y-65837876D01*
X151385908Y-65897483D01*
X151436202Y-66032328D01*
X151436206Y-66032335D01*
X151522452Y-66147544D01*
X151522455Y-66147547D01*
X151637664Y-66233793D01*
X151637671Y-66233797D01*
X151651643Y-66239008D01*
X151772517Y-66284091D01*
X151832127Y-66290500D01*
X152105501Y-66290499D01*
X152172539Y-66310183D01*
X152218294Y-66362987D01*
X152229500Y-66414499D01*
X152229500Y-70743376D01*
X152209815Y-70810415D01*
X152164519Y-70852430D01*
X152020217Y-70930523D01*
X152020208Y-70930529D01*
X151827252Y-71080713D01*
X151827242Y-71080722D01*
X151661632Y-71260621D01*
X151527888Y-71465333D01*
X151429663Y-71689265D01*
X151369636Y-71926304D01*
X151369634Y-71926316D01*
X151349443Y-72169994D01*
X151349443Y-72170005D01*
X151369634Y-72413683D01*
X151369636Y-72413695D01*
X151429663Y-72650734D01*
X151527888Y-72874666D01*
X151661632Y-73079378D01*
X151827242Y-73259277D01*
X151827252Y-73259286D01*
X151942677Y-73349125D01*
X152020212Y-73409473D01*
X152020215Y-73409474D01*
X152023325Y-73411507D01*
X152068680Y-73464655D01*
X152079500Y-73515313D01*
X152079500Y-74897770D01*
X152059815Y-74964809D01*
X152043181Y-74985451D01*
X150145451Y-76883181D01*
X150084128Y-76916666D01*
X150057770Y-76919500D01*
X134836663Y-76919500D01*
X134769624Y-76899815D01*
X134735088Y-76866623D01*
X134710045Y-76830858D01*
X134549141Y-76669954D01*
X134362734Y-76539432D01*
X134362732Y-76539431D01*
X134156497Y-76443261D01*
X134156488Y-76443258D01*
X133936697Y-76384366D01*
X133936693Y-76384365D01*
X133936692Y-76384365D01*
X133936691Y-76384364D01*
X133936686Y-76384364D01*
X133710002Y-76364532D01*
X133709998Y-76364532D01*
X133483313Y-76384364D01*
X133483302Y-76384366D01*
X133263511Y-76443258D01*
X133263502Y-76443261D01*
X133057267Y-76539431D01*
X133057265Y-76539432D01*
X132870858Y-76669954D01*
X132709954Y-76830858D01*
X132684912Y-76866623D01*
X132630335Y-76910248D01*
X132583337Y-76919500D01*
X129393705Y-76919500D01*
X129375735Y-76918191D01*
X129351972Y-76914710D01*
X129306890Y-76918655D01*
X129299933Y-76919264D01*
X129294532Y-76919500D01*
X129286287Y-76919500D01*
X129260222Y-76922546D01*
X129253705Y-76923308D01*
X129248403Y-76923771D01*
X129177201Y-76930001D01*
X129170134Y-76931461D01*
X129170122Y-76931404D01*
X129162753Y-76933038D01*
X129162767Y-76933095D01*
X129155739Y-76934760D01*
X129083568Y-76961028D01*
X129010665Y-76985186D01*
X129010663Y-76985186D01*
X129010660Y-76985188D01*
X129004123Y-76988236D01*
X129004098Y-76988184D01*
X128997310Y-76991470D01*
X128997336Y-76991521D01*
X128990885Y-76994761D01*
X128926723Y-77036961D01*
X128861346Y-77077285D01*
X128855682Y-77081765D01*
X128855646Y-77081719D01*
X128849798Y-77086484D01*
X128849835Y-77086528D01*
X128844310Y-77091164D01*
X128791614Y-77147017D01*
X128028512Y-77910118D01*
X127967189Y-77943603D01*
X127912548Y-77942680D01*
X127912537Y-77942749D01*
X127912078Y-77942672D01*
X127910395Y-77942644D01*
X127907473Y-77941904D01*
X127760101Y-77929693D01*
X127727600Y-77927000D01*
X127512400Y-77927000D01*
X127472730Y-77930287D01*
X127332529Y-77941904D01*
X127332512Y-77941906D01*
X127329588Y-77942647D01*
X127328355Y-77942600D01*
X127327466Y-77942749D01*
X127327435Y-77942565D01*
X127259768Y-77940012D01*
X127211485Y-77910118D01*
X124260133Y-74958766D01*
X124226648Y-74897443D01*
X124231632Y-74827751D01*
X124254099Y-74789885D01*
X124290519Y-74747856D01*
X124292090Y-74745136D01*
X124395601Y-74565849D01*
X124395600Y-74565849D01*
X124395604Y-74565844D01*
X124464344Y-74367233D01*
X124494254Y-74159202D01*
X124489113Y-74051281D01*
X146882066Y-74051281D01*
X146892065Y-74261207D01*
X146941616Y-74465458D01*
X146941618Y-74465462D01*
X147028918Y-74656623D01*
X147028921Y-74656628D01*
X147028922Y-74656630D01*
X147028924Y-74656633D01*
X147150834Y-74827832D01*
X147150835Y-74827833D01*
X147150840Y-74827839D01*
X147302940Y-74972865D01*
X147397898Y-75033891D01*
X147479748Y-75086493D01*
X147674863Y-75164605D01*
X147778049Y-75184492D01*
X147881234Y-75204380D01*
X147881235Y-75204380D01*
X148838739Y-75204380D01*
X148838745Y-75204380D01*
X148995538Y-75189408D01*
X149197195Y-75130196D01*
X149384002Y-75033891D01*
X149549206Y-74903972D01*
X149686839Y-74745136D01*
X149791924Y-74563124D01*
X149860664Y-74364513D01*
X149890574Y-74156482D01*
X149880574Y-73946550D01*
X149831024Y-73742304D01*
X149829620Y-73739230D01*
X149743721Y-73551136D01*
X149743718Y-73551131D01*
X149743717Y-73551130D01*
X149743716Y-73551127D01*
X149621806Y-73379928D01*
X149621804Y-73379926D01*
X149621799Y-73379920D01*
X149469699Y-73234894D01*
X149292894Y-73121268D01*
X149097775Y-73043154D01*
X148891406Y-73003380D01*
X148891405Y-73003380D01*
X147933895Y-73003380D01*
X147777102Y-73018352D01*
X147777098Y-73018353D01*
X147575447Y-73077563D01*
X147388633Y-73173871D01*
X147223436Y-73303785D01*
X147223432Y-73303789D01*
X147085798Y-73462626D01*
X146980718Y-73644630D01*
X146911976Y-73843245D01*
X146911976Y-73843247D01*
X146896733Y-73949270D01*
X146882066Y-74051281D01*
X124489113Y-74051281D01*
X124484254Y-73949270D01*
X124434704Y-73745024D01*
X124433462Y-73742304D01*
X124347401Y-73553856D01*
X124347398Y-73553851D01*
X124347397Y-73553850D01*
X124347396Y-73553847D01*
X124225486Y-73382648D01*
X124225484Y-73382646D01*
X124225479Y-73382640D01*
X124073379Y-73237614D01*
X123896574Y-73123988D01*
X123889777Y-73121267D01*
X123701457Y-73045875D01*
X123701455Y-73045874D01*
X123495086Y-73006100D01*
X123495085Y-73006100D01*
X123002229Y-73006100D01*
X122935190Y-72986415D01*
X122914548Y-72969781D01*
X122823548Y-72878781D01*
X122790063Y-72817458D01*
X122795047Y-72747766D01*
X122836919Y-72691833D01*
X122902383Y-72667416D01*
X122911229Y-72667100D01*
X123442419Y-72667100D01*
X123442425Y-72667100D01*
X123599218Y-72652128D01*
X123800875Y-72592916D01*
X123987682Y-72496611D01*
X124152886Y-72366692D01*
X124290519Y-72207856D01*
X124292090Y-72205136D01*
X124395601Y-72025849D01*
X124395600Y-72025849D01*
X124395604Y-72025844D01*
X124464344Y-71827233D01*
X124494254Y-71619202D01*
X124489113Y-71511281D01*
X146882066Y-71511281D01*
X146892065Y-71721207D01*
X146941616Y-71925458D01*
X146941618Y-71925462D01*
X147028918Y-72116623D01*
X147028921Y-72116628D01*
X147028922Y-72116630D01*
X147028924Y-72116633D01*
X147150834Y-72287832D01*
X147150835Y-72287833D01*
X147150840Y-72287839D01*
X147302940Y-72432865D01*
X147444117Y-72523594D01*
X147479748Y-72546493D01*
X147674863Y-72624605D01*
X147778049Y-72644492D01*
X147881234Y-72664380D01*
X147881235Y-72664380D01*
X148838739Y-72664380D01*
X148838745Y-72664380D01*
X148995538Y-72649408D01*
X149197195Y-72590196D01*
X149384002Y-72493891D01*
X149549206Y-72363972D01*
X149686839Y-72205136D01*
X149733295Y-72124673D01*
X149790351Y-72025849D01*
X149791924Y-72023124D01*
X149860664Y-71824513D01*
X149890574Y-71616482D01*
X149880574Y-71406550D01*
X149831024Y-71202304D01*
X149826722Y-71192883D01*
X149743721Y-71011136D01*
X149743718Y-71011131D01*
X149743717Y-71011130D01*
X149743716Y-71011127D01*
X149621806Y-70839928D01*
X149621804Y-70839926D01*
X149621799Y-70839920D01*
X149469699Y-70694894D01*
X149292894Y-70581268D01*
X149097775Y-70503154D01*
X148891406Y-70463380D01*
X148891405Y-70463380D01*
X147933895Y-70463380D01*
X147777102Y-70478352D01*
X147777098Y-70478353D01*
X147575447Y-70537563D01*
X147388633Y-70633871D01*
X147223436Y-70763785D01*
X147223432Y-70763789D01*
X147085798Y-70922626D01*
X146980718Y-71104630D01*
X146911976Y-71303245D01*
X146911976Y-71303247D01*
X146883322Y-71502547D01*
X146882066Y-71511281D01*
X124489113Y-71511281D01*
X124484254Y-71409270D01*
X124434704Y-71205024D01*
X124433462Y-71202304D01*
X124347401Y-71013856D01*
X124347398Y-71013851D01*
X124347397Y-71013850D01*
X124347396Y-71013847D01*
X124225486Y-70842648D01*
X124225484Y-70842646D01*
X124225479Y-70842640D01*
X124073379Y-70697614D01*
X123896574Y-70583988D01*
X123889777Y-70581267D01*
X123701457Y-70505875D01*
X123701455Y-70505874D01*
X123495086Y-70466100D01*
X123495085Y-70466100D01*
X122537575Y-70466100D01*
X122380782Y-70481072D01*
X122380778Y-70481073D01*
X122179127Y-70540283D01*
X121992313Y-70636591D01*
X121827116Y-70766505D01*
X121827112Y-70766509D01*
X121689478Y-70925346D01*
X121584398Y-71107350D01*
X121584396Y-71107356D01*
X121516598Y-71303247D01*
X121513724Y-71311550D01*
X121512266Y-71311045D01*
X121481044Y-71365109D01*
X121418938Y-71397118D01*
X121349385Y-71390468D01*
X121307804Y-71363037D01*
X118918768Y-68974001D01*
X121485746Y-68974001D01*
X121495745Y-69183927D01*
X121545296Y-69388178D01*
X121545298Y-69388182D01*
X121632598Y-69579343D01*
X121632601Y-69579348D01*
X121632602Y-69579350D01*
X121632604Y-69579353D01*
X121695627Y-69667856D01*
X121754515Y-69750553D01*
X121754520Y-69750559D01*
X121906620Y-69895585D01*
X122001578Y-69956611D01*
X122083428Y-70009213D01*
X122278543Y-70087325D01*
X122381729Y-70107212D01*
X122484914Y-70127100D01*
X122484915Y-70127100D01*
X123442419Y-70127100D01*
X123442425Y-70127100D01*
X123599218Y-70112128D01*
X123800875Y-70052916D01*
X123987682Y-69956611D01*
X124152886Y-69826692D01*
X124290519Y-69667856D01*
X124395604Y-69485844D01*
X124464344Y-69287233D01*
X124494254Y-69079202D01*
X124489243Y-68974001D01*
X146885746Y-68974001D01*
X146895745Y-69183927D01*
X146945296Y-69388178D01*
X146945298Y-69388182D01*
X147032598Y-69579343D01*
X147032601Y-69579348D01*
X147032602Y-69579350D01*
X147032604Y-69579353D01*
X147095627Y-69667856D01*
X147154515Y-69750553D01*
X147154520Y-69750559D01*
X147306620Y-69895585D01*
X147401578Y-69956611D01*
X147483428Y-70009213D01*
X147678543Y-70087325D01*
X147781729Y-70107212D01*
X147884914Y-70127100D01*
X147884915Y-70127100D01*
X148842419Y-70127100D01*
X148842425Y-70127100D01*
X148999218Y-70112128D01*
X149200875Y-70052916D01*
X149387682Y-69956611D01*
X149552886Y-69826692D01*
X149690519Y-69667856D01*
X149795604Y-69485844D01*
X149864344Y-69287233D01*
X149894254Y-69079202D01*
X149884254Y-68869270D01*
X149834704Y-68665024D01*
X149805313Y-68600666D01*
X149747401Y-68473856D01*
X149747398Y-68473851D01*
X149747397Y-68473850D01*
X149747396Y-68473847D01*
X149625486Y-68302648D01*
X149625484Y-68302646D01*
X149625479Y-68302640D01*
X149473379Y-68157614D01*
X149296574Y-68043988D01*
X149101455Y-67965874D01*
X148895086Y-67926100D01*
X148895085Y-67926100D01*
X147937575Y-67926100D01*
X147780782Y-67941072D01*
X147780778Y-67941073D01*
X147579127Y-68000283D01*
X147392313Y-68096591D01*
X147227116Y-68226505D01*
X147227112Y-68226509D01*
X147089478Y-68385346D01*
X146984398Y-68567350D01*
X146915656Y-68765965D01*
X146915656Y-68765967D01*
X146888813Y-68952671D01*
X146885746Y-68974001D01*
X124489243Y-68974001D01*
X124484254Y-68869270D01*
X124434704Y-68665024D01*
X124405313Y-68600666D01*
X124347401Y-68473856D01*
X124347398Y-68473851D01*
X124347397Y-68473850D01*
X124347396Y-68473847D01*
X124225486Y-68302648D01*
X124225484Y-68302646D01*
X124225479Y-68302640D01*
X124073379Y-68157614D01*
X123896574Y-68043988D01*
X123701455Y-67965874D01*
X123495086Y-67926100D01*
X123495085Y-67926100D01*
X122537575Y-67926100D01*
X122380782Y-67941072D01*
X122380778Y-67941073D01*
X122179127Y-68000283D01*
X121992313Y-68096591D01*
X121827116Y-68226505D01*
X121827112Y-68226509D01*
X121689478Y-68385346D01*
X121584398Y-68567350D01*
X121515656Y-68765965D01*
X121515656Y-68765967D01*
X121488813Y-68952671D01*
X121485746Y-68974001D01*
X118918768Y-68974001D01*
X117707501Y-67762734D01*
X114046730Y-64101962D01*
X114013245Y-64040639D01*
X114018229Y-63970947D01*
X114060101Y-63915014D01*
X114063186Y-63912778D01*
X114226401Y-63798495D01*
X114393495Y-63631401D01*
X114529035Y-63437830D01*
X114628903Y-63223663D01*
X114690063Y-62995408D01*
X114710659Y-62760000D01*
X114690063Y-62524592D01*
X114628903Y-62296337D01*
X114529035Y-62082171D01*
X114529034Y-62082169D01*
X114393494Y-61888597D01*
X114226403Y-61721506D01*
X114170187Y-61682144D01*
X114069401Y-61611573D01*
X114025778Y-61556999D01*
X114018584Y-61487500D01*
X114050106Y-61425145D01*
X114069398Y-61408428D01*
X114226401Y-61298495D01*
X114354084Y-61170811D01*
X114415405Y-61137328D01*
X114485097Y-61142312D01*
X114529445Y-61170813D01*
X118503181Y-65144548D01*
X118536666Y-65205871D01*
X118539500Y-65232229D01*
X118539500Y-65983336D01*
X118519815Y-66050375D01*
X118486625Y-66084910D01*
X118450863Y-66109951D01*
X118289951Y-66270862D01*
X118159432Y-66457265D01*
X118159431Y-66457267D01*
X118063261Y-66663502D01*
X118063258Y-66663511D01*
X118004366Y-66883302D01*
X118004364Y-66883313D01*
X117984532Y-67109998D01*
X117984532Y-67110001D01*
X118004364Y-67336686D01*
X118004366Y-67336697D01*
X118063258Y-67556488D01*
X118063261Y-67556497D01*
X118159431Y-67762732D01*
X118159432Y-67762734D01*
X118289954Y-67949141D01*
X118450858Y-68110045D01*
X118450861Y-68110047D01*
X118637266Y-68240568D01*
X118843504Y-68336739D01*
X119063308Y-68395635D01*
X119225230Y-68409801D01*
X119289998Y-68415468D01*
X119290000Y-68415468D01*
X119290002Y-68415468D01*
X119346673Y-68410509D01*
X119516692Y-68395635D01*
X119736496Y-68336739D01*
X119942734Y-68240568D01*
X120129139Y-68110047D01*
X120290047Y-67949139D01*
X120420568Y-67762734D01*
X120516739Y-67556496D01*
X120575635Y-67336692D01*
X120595468Y-67110000D01*
X120575635Y-66883308D01*
X120516739Y-66663504D01*
X120420568Y-66457266D01*
X120404278Y-66434001D01*
X121485746Y-66434001D01*
X121495745Y-66643927D01*
X121545296Y-66848178D01*
X121545298Y-66848182D01*
X121632598Y-67039343D01*
X121632601Y-67039348D01*
X121632602Y-67039350D01*
X121632604Y-67039353D01*
X121695627Y-67127856D01*
X121754515Y-67210553D01*
X121754520Y-67210559D01*
X121906620Y-67355585D01*
X122001578Y-67416611D01*
X122083428Y-67469213D01*
X122278543Y-67547325D01*
X122326127Y-67556496D01*
X122484914Y-67587100D01*
X122484915Y-67587100D01*
X123442419Y-67587100D01*
X123442425Y-67587100D01*
X123599218Y-67572128D01*
X123800875Y-67512916D01*
X123987682Y-67416611D01*
X124152886Y-67286692D01*
X124290519Y-67127856D01*
X124300830Y-67109998D01*
X124395601Y-66945849D01*
X124395600Y-66945849D01*
X124395604Y-66945844D01*
X124464344Y-66747233D01*
X124494254Y-66539202D01*
X124489243Y-66434001D01*
X146885746Y-66434001D01*
X146895745Y-66643927D01*
X146945296Y-66848178D01*
X146945298Y-66848182D01*
X147032598Y-67039343D01*
X147032601Y-67039348D01*
X147032602Y-67039350D01*
X147032604Y-67039353D01*
X147095627Y-67127856D01*
X147154515Y-67210553D01*
X147154520Y-67210559D01*
X147306620Y-67355585D01*
X147401578Y-67416611D01*
X147483428Y-67469213D01*
X147678543Y-67547325D01*
X147726127Y-67556496D01*
X147884914Y-67587100D01*
X147884915Y-67587100D01*
X148842419Y-67587100D01*
X148842425Y-67587100D01*
X148999218Y-67572128D01*
X149200875Y-67512916D01*
X149387682Y-67416611D01*
X149552886Y-67286692D01*
X149690519Y-67127856D01*
X149700830Y-67109998D01*
X149795601Y-66945849D01*
X149795600Y-66945849D01*
X149795604Y-66945844D01*
X149864344Y-66747233D01*
X149894254Y-66539202D01*
X149884254Y-66329270D01*
X149834704Y-66125024D01*
X149834701Y-66125017D01*
X149747401Y-65933856D01*
X149747398Y-65933851D01*
X149747397Y-65933850D01*
X149747396Y-65933847D01*
X149625486Y-65762648D01*
X149625484Y-65762646D01*
X149625479Y-65762640D01*
X149473379Y-65617614D01*
X149296574Y-65503988D01*
X149101455Y-65425874D01*
X148895086Y-65386100D01*
X148895085Y-65386100D01*
X147937575Y-65386100D01*
X147791600Y-65400039D01*
X147780782Y-65401072D01*
X147780778Y-65401073D01*
X147579127Y-65460283D01*
X147392313Y-65556591D01*
X147227116Y-65686505D01*
X147227112Y-65686509D01*
X147089478Y-65845346D01*
X146984398Y-66027350D01*
X146915656Y-66225965D01*
X146915656Y-66225967D01*
X146900804Y-66329270D01*
X146885746Y-66434001D01*
X124489243Y-66434001D01*
X124484254Y-66329270D01*
X124434704Y-66125024D01*
X124434701Y-66125017D01*
X124347401Y-65933856D01*
X124347398Y-65933851D01*
X124347397Y-65933850D01*
X124347396Y-65933847D01*
X124225486Y-65762648D01*
X124225484Y-65762646D01*
X124225479Y-65762640D01*
X124073379Y-65617614D01*
X123896574Y-65503988D01*
X123701455Y-65425874D01*
X123495086Y-65386100D01*
X123495085Y-65386100D01*
X122537575Y-65386100D01*
X122391600Y-65400039D01*
X122380782Y-65401072D01*
X122380778Y-65401073D01*
X122179127Y-65460283D01*
X121992313Y-65556591D01*
X121827116Y-65686505D01*
X121827112Y-65686509D01*
X121689478Y-65845346D01*
X121584398Y-66027350D01*
X121515656Y-66225965D01*
X121515656Y-66225967D01*
X121500804Y-66329270D01*
X121485746Y-66434001D01*
X120404278Y-66434001D01*
X120343682Y-66347460D01*
X120290048Y-66270862D01*
X120236059Y-66216873D01*
X120129139Y-66109953D01*
X120124373Y-66106615D01*
X120093375Y-66084910D01*
X120049751Y-66030332D01*
X120040500Y-65983336D01*
X120040500Y-64933705D01*
X120041809Y-64915736D01*
X120045289Y-64891974D01*
X120040736Y-64839934D01*
X120040500Y-64834528D01*
X120040500Y-64826297D01*
X120040500Y-64826291D01*
X120036693Y-64793724D01*
X120029999Y-64717203D01*
X120029999Y-64717201D01*
X120028539Y-64710129D01*
X120028597Y-64710116D01*
X120026965Y-64702757D01*
X120026906Y-64702772D01*
X120025242Y-64695753D01*
X120025241Y-64695745D01*
X119998974Y-64623576D01*
X119974814Y-64550666D01*
X119974809Y-64550659D01*
X119971760Y-64544118D01*
X119971815Y-64544091D01*
X119968533Y-64537313D01*
X119968480Y-64537340D01*
X119965235Y-64530880D01*
X119923028Y-64466708D01*
X119882710Y-64401342D01*
X119878234Y-64395682D01*
X119878281Y-64395644D01*
X119873519Y-64389799D01*
X119873474Y-64389838D01*
X119868834Y-64384308D01*
X119812964Y-64331596D01*
X119375369Y-63894001D01*
X121485746Y-63894001D01*
X121495745Y-64103927D01*
X121545296Y-64308178D01*
X121545298Y-64308182D01*
X121632598Y-64499343D01*
X121632601Y-64499348D01*
X121632602Y-64499350D01*
X121632604Y-64499353D01*
X121751226Y-64665934D01*
X121754515Y-64670553D01*
X121754520Y-64670559D01*
X121906620Y-64815585D01*
X122001578Y-64876611D01*
X122083428Y-64929213D01*
X122278543Y-65007325D01*
X122381729Y-65027212D01*
X122484914Y-65047100D01*
X122484915Y-65047100D01*
X123442419Y-65047100D01*
X123442425Y-65047100D01*
X123599218Y-65032128D01*
X123800875Y-64972916D01*
X123987682Y-64876611D01*
X124152886Y-64746692D01*
X124290519Y-64587856D01*
X124323413Y-64530883D01*
X124395601Y-64405849D01*
X124395600Y-64405849D01*
X124395604Y-64405844D01*
X124464344Y-64207233D01*
X124494254Y-63999202D01*
X124489243Y-63894001D01*
X146885746Y-63894001D01*
X146895745Y-64103927D01*
X146945296Y-64308178D01*
X146945298Y-64308182D01*
X147032598Y-64499343D01*
X147032601Y-64499348D01*
X147032602Y-64499350D01*
X147032604Y-64499353D01*
X147151226Y-64665934D01*
X147154515Y-64670553D01*
X147154520Y-64670559D01*
X147306620Y-64815585D01*
X147401578Y-64876611D01*
X147483428Y-64929213D01*
X147678543Y-65007325D01*
X147781729Y-65027212D01*
X147884914Y-65047100D01*
X147884915Y-65047100D01*
X148842419Y-65047100D01*
X148842425Y-65047100D01*
X148999218Y-65032128D01*
X149200875Y-64972916D01*
X149387682Y-64876611D01*
X149552886Y-64746692D01*
X149690519Y-64587856D01*
X149723413Y-64530883D01*
X149795601Y-64405849D01*
X149795600Y-64405849D01*
X149795604Y-64405844D01*
X149864344Y-64207233D01*
X149894254Y-63999202D01*
X149884254Y-63789270D01*
X149834704Y-63585024D01*
X149820890Y-63554776D01*
X149747401Y-63393856D01*
X149747398Y-63393851D01*
X149747397Y-63393850D01*
X149747396Y-63393847D01*
X149625486Y-63222648D01*
X149625484Y-63222646D01*
X149625479Y-63222640D01*
X149473379Y-63077614D01*
X149296574Y-62963988D01*
X149101455Y-62885874D01*
X148895086Y-62846100D01*
X148895085Y-62846100D01*
X147937575Y-62846100D01*
X147780782Y-62861072D01*
X147780778Y-62861073D01*
X147579127Y-62920283D01*
X147392313Y-63016591D01*
X147227116Y-63146505D01*
X147227112Y-63146509D01*
X147089478Y-63305346D01*
X146984398Y-63487350D01*
X146915656Y-63685965D01*
X146915656Y-63685967D01*
X146891716Y-63852479D01*
X146885746Y-63894001D01*
X124489243Y-63894001D01*
X124484254Y-63789270D01*
X124434704Y-63585024D01*
X124420890Y-63554776D01*
X124347401Y-63393856D01*
X124347398Y-63393851D01*
X124347397Y-63393850D01*
X124347396Y-63393847D01*
X124225486Y-63222648D01*
X124225484Y-63222646D01*
X124225479Y-63222640D01*
X124073379Y-63077614D01*
X123896574Y-62963988D01*
X123701455Y-62885874D01*
X123495086Y-62846100D01*
X123495085Y-62846100D01*
X122537575Y-62846100D01*
X122380782Y-62861072D01*
X122380778Y-62861073D01*
X122179127Y-62920283D01*
X121992313Y-63016591D01*
X121827116Y-63146505D01*
X121827112Y-63146509D01*
X121689478Y-63305346D01*
X121584398Y-63487350D01*
X121515656Y-63685965D01*
X121515656Y-63685967D01*
X121491716Y-63852479D01*
X121485746Y-63894001D01*
X119375369Y-63894001D01*
X116637968Y-61156600D01*
X121514632Y-61156600D01*
X122674314Y-61156600D01*
X122662359Y-61168555D01*
X122604835Y-61281452D01*
X122585014Y-61406600D01*
X122604835Y-61531748D01*
X122662359Y-61644645D01*
X122674314Y-61656600D01*
X121518742Y-61656600D01*
X121545770Y-61768009D01*
X121633040Y-61959107D01*
X121754889Y-62130219D01*
X121754895Y-62130225D01*
X121906932Y-62275192D01*
X122083657Y-62388766D01*
X122278685Y-62466844D01*
X122484962Y-62506600D01*
X122740000Y-62506600D01*
X122740000Y-61722286D01*
X122751955Y-61734241D01*
X122864852Y-61791765D01*
X122958519Y-61806600D01*
X123021481Y-61806600D01*
X123115148Y-61791765D01*
X123228045Y-61734241D01*
X123240000Y-61722286D01*
X123240000Y-62506600D01*
X123442398Y-62506600D01*
X123599122Y-62491634D01*
X123599126Y-62491633D01*
X123800686Y-62432450D01*
X123987414Y-62336186D01*
X124152537Y-62206331D01*
X124152540Y-62206328D01*
X124290105Y-62047569D01*
X124290114Y-62047558D01*
X124395144Y-61865639D01*
X124395147Y-61865632D01*
X124463855Y-61667117D01*
X124463855Y-61667115D01*
X124465368Y-61656600D01*
X123305686Y-61656600D01*
X123317641Y-61644645D01*
X123375165Y-61531748D01*
X123394986Y-61406600D01*
X123386655Y-61354001D01*
X146885746Y-61354001D01*
X146895745Y-61563927D01*
X146945296Y-61768178D01*
X146945298Y-61768182D01*
X147032598Y-61959343D01*
X147032601Y-61959348D01*
X147032602Y-61959350D01*
X147032604Y-61959353D01*
X147120062Y-62082171D01*
X147154515Y-62130553D01*
X147154520Y-62130559D01*
X147306620Y-62275585D01*
X147401578Y-62336611D01*
X147483428Y-62389213D01*
X147678543Y-62467325D01*
X147781729Y-62487212D01*
X147884914Y-62507100D01*
X147884915Y-62507100D01*
X148842419Y-62507100D01*
X148842425Y-62507100D01*
X148999218Y-62492128D01*
X149200875Y-62432916D01*
X149387682Y-62336611D01*
X149388223Y-62336186D01*
X149552883Y-62206694D01*
X149552886Y-62206692D01*
X149690519Y-62047856D01*
X149795604Y-61865844D01*
X149864344Y-61667233D01*
X149894254Y-61459202D01*
X149884254Y-61249270D01*
X149834704Y-61045024D01*
X149823931Y-61021435D01*
X149747401Y-60853856D01*
X149747398Y-60853851D01*
X149747397Y-60853850D01*
X149747396Y-60853847D01*
X149625486Y-60682648D01*
X149625484Y-60682646D01*
X149625479Y-60682640D01*
X149473379Y-60537614D01*
X149296574Y-60423988D01*
X149287861Y-60420500D01*
X149101457Y-60345875D01*
X149101455Y-60345874D01*
X148895086Y-60306100D01*
X148895085Y-60306100D01*
X147937575Y-60306100D01*
X147780782Y-60321072D01*
X147780778Y-60321073D01*
X147579127Y-60380283D01*
X147392313Y-60476591D01*
X147227116Y-60606505D01*
X147227112Y-60606509D01*
X147089478Y-60765346D01*
X146984398Y-60947350D01*
X146915656Y-61145965D01*
X146915656Y-61145967D01*
X146893727Y-61298494D01*
X146885746Y-61354001D01*
X123386655Y-61354001D01*
X123375165Y-61281452D01*
X123317641Y-61168555D01*
X123305686Y-61156600D01*
X124461257Y-61156600D01*
X124434229Y-61045190D01*
X124346959Y-60854092D01*
X124225110Y-60682980D01*
X124225104Y-60682974D01*
X124073067Y-60538007D01*
X123896342Y-60424433D01*
X123701314Y-60346355D01*
X123495038Y-60306600D01*
X123240000Y-60306600D01*
X123240000Y-61090914D01*
X123228045Y-61078959D01*
X123115148Y-61021435D01*
X123021481Y-61006600D01*
X122958519Y-61006600D01*
X122864852Y-61021435D01*
X122751955Y-61078959D01*
X122740000Y-61090914D01*
X122740000Y-60306600D01*
X122537602Y-60306600D01*
X122380877Y-60321565D01*
X122380873Y-60321566D01*
X122179313Y-60380749D01*
X121992585Y-60477013D01*
X121827462Y-60606868D01*
X121827459Y-60606871D01*
X121689894Y-60765630D01*
X121689885Y-60765641D01*
X121584855Y-60947560D01*
X121584852Y-60947567D01*
X121516144Y-61146082D01*
X121516144Y-61146084D01*
X121514632Y-61156600D01*
X116637968Y-61156600D01*
X115829048Y-60347680D01*
X115795563Y-60286357D01*
X115800547Y-60216665D01*
X115829046Y-60172320D01*
X116761367Y-59239999D01*
X118011127Y-59239999D01*
X118011128Y-59240000D01*
X118974314Y-59240000D01*
X118962359Y-59251955D01*
X118904835Y-59364852D01*
X118885014Y-59490000D01*
X118904835Y-59615148D01*
X118962359Y-59728045D01*
X118974314Y-59740000D01*
X118011128Y-59740000D01*
X118063730Y-59936317D01*
X118063734Y-59936326D01*
X118159865Y-60142482D01*
X118290342Y-60328820D01*
X118451179Y-60489657D01*
X118637517Y-60620134D01*
X118843673Y-60716265D01*
X118843682Y-60716269D01*
X119039999Y-60768872D01*
X119040000Y-60768871D01*
X119040000Y-59805686D01*
X119051955Y-59817641D01*
X119164852Y-59875165D01*
X119258519Y-59890000D01*
X119321481Y-59890000D01*
X119415148Y-59875165D01*
X119528045Y-59817641D01*
X119540000Y-59805686D01*
X119540000Y-60768872D01*
X119736317Y-60716269D01*
X119736326Y-60716265D01*
X119942482Y-60620134D01*
X120128820Y-60489657D01*
X120289657Y-60328820D01*
X120420134Y-60142482D01*
X120516265Y-59936326D01*
X120516269Y-59936317D01*
X120568872Y-59740000D01*
X119605686Y-59740000D01*
X119617641Y-59728045D01*
X119675165Y-59615148D01*
X119694986Y-59490000D01*
X119675165Y-59364852D01*
X119617641Y-59251955D01*
X119605686Y-59240000D01*
X120568872Y-59240000D01*
X120568872Y-59239999D01*
X120516269Y-59043682D01*
X120516265Y-59043673D01*
X120420134Y-58837517D01*
X120403668Y-58814001D01*
X121485746Y-58814001D01*
X121495745Y-59023927D01*
X121545296Y-59228178D01*
X121545298Y-59228182D01*
X121632598Y-59419343D01*
X121632601Y-59419348D01*
X121632602Y-59419350D01*
X121632604Y-59419353D01*
X121754514Y-59590552D01*
X121754515Y-59590553D01*
X121754520Y-59590559D01*
X121906620Y-59735585D01*
X122001578Y-59796611D01*
X122083428Y-59849213D01*
X122278543Y-59927325D01*
X122325198Y-59936317D01*
X122484914Y-59967100D01*
X122484915Y-59967100D01*
X123442419Y-59967100D01*
X123442425Y-59967100D01*
X123599218Y-59952128D01*
X123800875Y-59892916D01*
X123987682Y-59796611D01*
X123988031Y-59796337D01*
X124152883Y-59666694D01*
X124152886Y-59666692D01*
X124290519Y-59507856D01*
X124308261Y-59477127D01*
X124395601Y-59325849D01*
X124395600Y-59325849D01*
X124395604Y-59325844D01*
X124464344Y-59127233D01*
X124494254Y-58919202D01*
X124489243Y-58814001D01*
X146885746Y-58814001D01*
X146895745Y-59023927D01*
X146945296Y-59228178D01*
X146945298Y-59228182D01*
X147032598Y-59419343D01*
X147032601Y-59419348D01*
X147032602Y-59419350D01*
X147032604Y-59419353D01*
X147154514Y-59590552D01*
X147154515Y-59590553D01*
X147154520Y-59590559D01*
X147306620Y-59735585D01*
X147401578Y-59796611D01*
X147483428Y-59849213D01*
X147678543Y-59927325D01*
X147725198Y-59936317D01*
X147884914Y-59967100D01*
X147884915Y-59967100D01*
X148842419Y-59967100D01*
X148842425Y-59967100D01*
X148999218Y-59952128D01*
X149200875Y-59892916D01*
X149387682Y-59796611D01*
X149388031Y-59796337D01*
X149552883Y-59666694D01*
X149552886Y-59666692D01*
X149690519Y-59507856D01*
X149708261Y-59477127D01*
X149795601Y-59325849D01*
X149795600Y-59325849D01*
X149795604Y-59325844D01*
X149864344Y-59127233D01*
X149894254Y-58919202D01*
X149887623Y-58780000D01*
X152994538Y-58780000D01*
X153014337Y-58981031D01*
X153040972Y-59068835D01*
X153069342Y-59162359D01*
X153073306Y-59175424D01*
X153073929Y-59245291D01*
X153059530Y-59274386D01*
X153060452Y-59274890D01*
X153056202Y-59282671D01*
X153005908Y-59417517D01*
X152999501Y-59477116D01*
X152999500Y-59477135D01*
X152999500Y-60622870D01*
X152999501Y-60622876D01*
X153005908Y-60682483D01*
X153056202Y-60817328D01*
X153056206Y-60817335D01*
X153142452Y-60932544D01*
X153142455Y-60932547D01*
X153257664Y-61018793D01*
X153257671Y-61018797D01*
X153302618Y-61035561D01*
X153392517Y-61069091D01*
X153452127Y-61075500D01*
X154162769Y-61075499D01*
X154229808Y-61095183D01*
X154250450Y-61111818D01*
X158314270Y-65175638D01*
X158326051Y-65189270D01*
X158340388Y-65208528D01*
X158380409Y-65242111D01*
X158384397Y-65245766D01*
X158390216Y-65251585D01*
X158390220Y-65251588D01*
X158390223Y-65251591D01*
X158415959Y-65271940D01*
X158474786Y-65321302D01*
X158474787Y-65321302D01*
X158474789Y-65321304D01*
X158480818Y-65325270D01*
X158480785Y-65325319D01*
X158487147Y-65329372D01*
X158487179Y-65329321D01*
X158493319Y-65333108D01*
X158493323Y-65333111D01*
X158528132Y-65349343D01*
X158562941Y-65365575D01*
X158603810Y-65386100D01*
X158631567Y-65400040D01*
X158631569Y-65400040D01*
X158638357Y-65402511D01*
X158638336Y-65402567D01*
X158645457Y-65405043D01*
X158645476Y-65404986D01*
X158652322Y-65407254D01*
X158652327Y-65407257D01*
X158652332Y-65407258D01*
X158652335Y-65407259D01*
X158727565Y-65422792D01*
X158802279Y-65440500D01*
X158802282Y-65440500D01*
X158802286Y-65440501D01*
X158809453Y-65441339D01*
X158809446Y-65441398D01*
X158816944Y-65442164D01*
X158816950Y-65442105D01*
X158824139Y-65442734D01*
X158824143Y-65442733D01*
X158824144Y-65442734D01*
X158900917Y-65440500D01*
X159113353Y-65440500D01*
X159180392Y-65460185D01*
X159219079Y-65499709D01*
X159301164Y-65633659D01*
X159464776Y-65825224D01*
X159591957Y-65933847D01*
X159656343Y-65988838D01*
X159656346Y-65988839D01*
X159871140Y-66120466D01*
X160103889Y-66216873D01*
X160348852Y-66275683D01*
X160600000Y-66295449D01*
X160851148Y-66275683D01*
X161003909Y-66239008D01*
X161073688Y-66242499D01*
X161120531Y-66271899D01*
X162611365Y-67762732D01*
X164043181Y-69194548D01*
X164076666Y-69255871D01*
X164079500Y-69282229D01*
X164079500Y-70824686D01*
X164059815Y-70891725D01*
X164023329Y-70928490D01*
X164020213Y-70930525D01*
X163827247Y-71080718D01*
X163827242Y-71080722D01*
X163661632Y-71260621D01*
X163527888Y-71465333D01*
X163429663Y-71689265D01*
X163369636Y-71926304D01*
X163369634Y-71926316D01*
X163349443Y-72169994D01*
X163349443Y-72170005D01*
X163369634Y-72413683D01*
X163369636Y-72413695D01*
X163429663Y-72650734D01*
X163527888Y-72874666D01*
X163661632Y-73079378D01*
X163827242Y-73259277D01*
X163827252Y-73259286D01*
X164020208Y-73409470D01*
X164020212Y-73409473D01*
X164023970Y-73411507D01*
X164235267Y-73525855D01*
X164235270Y-73525856D01*
X164466541Y-73605251D01*
X164466543Y-73605251D01*
X164466545Y-73605252D01*
X164707737Y-73645500D01*
X164707738Y-73645500D01*
X164952262Y-73645500D01*
X164952263Y-73645500D01*
X165193455Y-73605252D01*
X165424733Y-73525855D01*
X165639788Y-73409473D01*
X165832754Y-73259281D01*
X165998368Y-73079377D01*
X166132111Y-72874667D01*
X166230336Y-72650736D01*
X166290364Y-72413692D01*
X166290716Y-72409443D01*
X166310557Y-72170005D01*
X166310557Y-72169994D01*
X166290365Y-71926316D01*
X166290363Y-71926304D01*
X166238425Y-71721207D01*
X166230336Y-71689264D01*
X166132111Y-71465333D01*
X166026216Y-71303248D01*
X165998367Y-71260621D01*
X165832757Y-71080722D01*
X165832756Y-71080721D01*
X165832754Y-71080719D01*
X165725334Y-70997110D01*
X165639786Y-70930525D01*
X165636671Y-70928490D01*
X165591318Y-70875341D01*
X165580500Y-70824686D01*
X165580500Y-68983705D01*
X165581809Y-68965735D01*
X165582223Y-68962905D01*
X165585289Y-68941977D01*
X165580735Y-68889933D01*
X165580500Y-68884532D01*
X165580500Y-68876297D01*
X165580500Y-68876291D01*
X165576691Y-68843707D01*
X165569998Y-68767202D01*
X165569996Y-68767197D01*
X165568538Y-68760133D01*
X165568597Y-68760120D01*
X165566967Y-68752764D01*
X165566908Y-68752779D01*
X165565242Y-68745753D01*
X165565241Y-68745745D01*
X165538973Y-68673573D01*
X165536138Y-68665017D01*
X165514815Y-68600666D01*
X165511763Y-68594121D01*
X165511817Y-68594095D01*
X165508533Y-68587312D01*
X165508480Y-68587340D01*
X165505238Y-68580885D01*
X165496336Y-68567350D01*
X165463029Y-68516709D01*
X165422711Y-68451344D01*
X165422710Y-68451343D01*
X165422709Y-68451341D01*
X165418233Y-68445681D01*
X165418280Y-68445643D01*
X165413519Y-68439799D01*
X165413474Y-68439838D01*
X165408834Y-68434308D01*
X165352964Y-68381596D01*
X162181901Y-65210533D01*
X162148416Y-65149210D01*
X162149007Y-65093910D01*
X162185683Y-64941148D01*
X162205449Y-64690000D01*
X162185683Y-64438852D01*
X162126873Y-64193889D01*
X162063395Y-64040639D01*
X162030466Y-63961140D01*
X161898839Y-63746346D01*
X161898838Y-63746343D01*
X161861875Y-63703066D01*
X161735224Y-63554776D01*
X161546811Y-63393856D01*
X161543656Y-63391161D01*
X161543653Y-63391160D01*
X161328859Y-63259533D01*
X161096110Y-63163126D01*
X160851151Y-63104317D01*
X160600000Y-63084551D01*
X160348848Y-63104317D01*
X160103889Y-63163126D01*
X159871140Y-63259533D01*
X159656346Y-63391160D01*
X159656343Y-63391161D01*
X159464776Y-63554776D01*
X159301161Y-63746343D01*
X159301160Y-63746346D01*
X159271847Y-63794181D01*
X159220035Y-63841056D01*
X159151106Y-63852479D01*
X159086943Y-63824822D01*
X159078439Y-63817072D01*
X157343538Y-62082171D01*
X155536818Y-60275450D01*
X155503333Y-60214127D01*
X155500499Y-60187769D01*
X155500499Y-59646948D01*
X155520184Y-59579909D01*
X155572988Y-59534154D01*
X155613694Y-59523420D01*
X155630890Y-59521915D01*
X155652797Y-59519999D01*
X155652805Y-59519996D01*
X155659866Y-59518539D01*
X155659878Y-59518598D01*
X155667243Y-59516965D01*
X155667229Y-59516906D01*
X155674246Y-59515241D01*
X155674255Y-59515241D01*
X155746423Y-59488974D01*
X155819334Y-59464814D01*
X155819343Y-59464807D01*
X155825882Y-59461760D01*
X155825908Y-59461816D01*
X155832690Y-59458532D01*
X155832663Y-59458478D01*
X155839106Y-59455240D01*
X155839117Y-59455237D01*
X155903283Y-59413034D01*
X155968656Y-59372712D01*
X155968662Y-59372705D01*
X155974325Y-59368229D01*
X155974362Y-59368277D01*
X155980204Y-59363518D01*
X155980164Y-59363471D01*
X155985691Y-59358832D01*
X155985696Y-59358830D01*
X156016812Y-59325849D01*
X156038386Y-59302981D01*
X157671367Y-57670000D01*
X159944473Y-57670000D01*
X159964563Y-58002136D01*
X159964563Y-58002141D01*
X159964564Y-58002142D01*
X160024544Y-58329441D01*
X160024545Y-58329445D01*
X160024546Y-58329449D01*
X160123530Y-58647104D01*
X160123534Y-58647116D01*
X160123537Y-58647123D01*
X160260102Y-58950557D01*
X160366907Y-59127234D01*
X160432251Y-59235326D01*
X160637460Y-59497255D01*
X160872744Y-59732539D01*
X161134673Y-59937748D01*
X161134678Y-59937751D01*
X161134682Y-59937754D01*
X161419443Y-60109898D01*
X161722877Y-60246463D01*
X161722890Y-60246467D01*
X161722895Y-60246469D01*
X161815900Y-60275450D01*
X162040559Y-60345456D01*
X162367858Y-60405436D01*
X162545740Y-60416196D01*
X162616892Y-60420500D01*
X162616894Y-60420500D01*
X162783108Y-60420500D01*
X162845365Y-60416734D01*
X163032142Y-60405436D01*
X163359441Y-60345456D01*
X163677123Y-60246463D01*
X163980557Y-60109898D01*
X164265318Y-59937754D01*
X164267153Y-59936317D01*
X164418631Y-59817641D01*
X164527252Y-59732542D01*
X164762542Y-59497252D01*
X164907881Y-59311740D01*
X164967748Y-59235326D01*
X164967748Y-59235324D01*
X164967754Y-59235318D01*
X165139898Y-58950557D01*
X165276463Y-58647123D01*
X165375456Y-58329441D01*
X165435436Y-58002142D01*
X165455527Y-57670000D01*
X165435436Y-57337858D01*
X165375456Y-57010559D01*
X165305434Y-56785849D01*
X165276469Y-56692895D01*
X165276467Y-56692890D01*
X165276463Y-56692877D01*
X165139898Y-56389443D01*
X164967754Y-56104682D01*
X164967751Y-56104678D01*
X164967748Y-56104673D01*
X164762539Y-55842744D01*
X164527255Y-55607460D01*
X164265326Y-55402251D01*
X164168947Y-55343988D01*
X163980557Y-55230102D01*
X163677123Y-55093537D01*
X163677116Y-55093534D01*
X163677104Y-55093530D01*
X163359449Y-54994546D01*
X163359445Y-54994545D01*
X163359441Y-54994544D01*
X163032142Y-54934564D01*
X163032141Y-54934563D01*
X163032136Y-54934563D01*
X162783108Y-54919500D01*
X162783106Y-54919500D01*
X162616894Y-54919500D01*
X162616892Y-54919500D01*
X162367863Y-54934563D01*
X162367858Y-54934564D01*
X162040559Y-54994544D01*
X162040556Y-54994544D01*
X162040550Y-54994546D01*
X161722895Y-55093530D01*
X161722879Y-55093536D01*
X161722877Y-55093537D01*
X161419443Y-55230102D01*
X161401295Y-55241073D01*
X161134673Y-55402251D01*
X160872744Y-55607460D01*
X160637460Y-55842744D01*
X160432251Y-56104673D01*
X160432246Y-56104682D01*
X160266296Y-56379198D01*
X160260101Y-56389445D01*
X160260100Y-56389447D01*
X160246127Y-56420493D01*
X160124088Y-56691654D01*
X160123536Y-56692880D01*
X160123530Y-56692895D01*
X160024546Y-57010550D01*
X160024544Y-57010556D01*
X160024544Y-57010559D01*
X159980205Y-57252508D01*
X159964563Y-57337863D01*
X159944473Y-57670000D01*
X157671367Y-57670000D01*
X158225521Y-57115846D01*
X164805638Y-50535727D01*
X164819267Y-50523950D01*
X164821027Y-50522640D01*
X164838530Y-50509610D01*
X164838532Y-50509606D01*
X164838534Y-50509606D01*
X164856663Y-50487999D01*
X164872113Y-50469585D01*
X164875767Y-50465599D01*
X164881591Y-50459776D01*
X164901930Y-50434052D01*
X164951302Y-50375214D01*
X164951306Y-50375205D01*
X164955274Y-50369175D01*
X164955325Y-50369208D01*
X164959369Y-50362860D01*
X164959317Y-50362828D01*
X164963104Y-50356685D01*
X164963111Y-50356677D01*
X164995572Y-50287063D01*
X165030040Y-50218433D01*
X165030041Y-50218427D01*
X165032508Y-50211650D01*
X165032566Y-50211671D01*
X165035043Y-50204544D01*
X165034986Y-50204526D01*
X165037255Y-50197679D01*
X165037256Y-50197674D01*
X165037257Y-50197672D01*
X165052790Y-50122441D01*
X165070500Y-50047721D01*
X165070500Y-50047719D01*
X165071339Y-50040548D01*
X165071398Y-50040554D01*
X165072164Y-50033054D01*
X165072105Y-50033049D01*
X165072734Y-50025859D01*
X165070500Y-49949082D01*
X165070500Y-46806662D01*
X165090185Y-46739623D01*
X165123379Y-46705086D01*
X165159139Y-46680047D01*
X165320047Y-46519139D01*
X165450568Y-46332734D01*
X165546739Y-46126496D01*
X165605635Y-45906692D01*
X165625468Y-45680000D01*
X165605635Y-45453308D01*
X165546739Y-45233504D01*
X165450568Y-45027266D01*
X165320047Y-44840861D01*
X165320045Y-44840858D01*
X165159141Y-44679954D01*
X164972734Y-44549432D01*
X164972732Y-44549431D01*
X164766497Y-44453261D01*
X164766488Y-44453258D01*
X164546697Y-44394366D01*
X164546693Y-44394365D01*
X164546692Y-44394365D01*
X164546691Y-44394364D01*
X164546686Y-44394364D01*
X164320002Y-44374532D01*
X164319998Y-44374532D01*
X164093313Y-44394364D01*
X164093302Y-44394366D01*
X163873511Y-44453258D01*
X163873502Y-44453261D01*
X163667267Y-44549431D01*
X163667265Y-44549432D01*
X163480858Y-44679954D01*
X163319954Y-44840858D01*
X163189432Y-45027265D01*
X163189431Y-45027267D01*
X163093261Y-45233502D01*
X163093258Y-45233511D01*
X163034366Y-45453302D01*
X163034364Y-45453313D01*
X163014532Y-45679998D01*
X163014532Y-45680001D01*
X163034364Y-45906686D01*
X163034366Y-45906697D01*
X163093258Y-46126488D01*
X163093261Y-46126497D01*
X163189431Y-46332732D01*
X163189432Y-46332734D01*
X163319954Y-46519141D01*
X163480859Y-46680046D01*
X163516621Y-46705086D01*
X163560247Y-46759662D01*
X163569500Y-46806662D01*
X163569500Y-49597770D01*
X163549815Y-49664809D01*
X163533181Y-49685451D01*
X155494951Y-57723681D01*
X155433628Y-57757166D01*
X155407270Y-57760000D01*
X154584271Y-57760000D01*
X154578191Y-57759701D01*
X154542223Y-57756158D01*
X154533854Y-57755334D01*
X154568278Y-57717941D01*
X154618551Y-57603330D01*
X154628886Y-57478605D01*
X154598163Y-57357281D01*
X154534606Y-57260000D01*
X155470285Y-57260000D01*
X155426557Y-57115846D01*
X155331384Y-56937790D01*
X155331379Y-56937784D01*
X155203292Y-56781707D01*
X155047215Y-56653620D01*
X155047209Y-56653615D01*
X154869154Y-56558443D01*
X154675932Y-56499829D01*
X154525358Y-56485000D01*
X154500000Y-56485000D01*
X154500000Y-57229382D01*
X154430948Y-57175637D01*
X154312576Y-57135000D01*
X154218927Y-57135000D01*
X154126554Y-57150414D01*
X154016486Y-57209981D01*
X154000000Y-57227889D01*
X154000000Y-56485000D01*
X153974642Y-56485000D01*
X153824067Y-56499829D01*
X153630845Y-56558443D01*
X153452790Y-56653615D01*
X153452784Y-56653620D01*
X153296707Y-56781707D01*
X153168620Y-56937784D01*
X153168615Y-56937790D01*
X153073442Y-57115846D01*
X153029715Y-57260000D01*
X153970440Y-57260000D01*
X153931722Y-57302059D01*
X153881449Y-57416670D01*
X153871114Y-57541395D01*
X153901837Y-57662719D01*
X153962575Y-57755686D01*
X153957776Y-57756158D01*
X153921809Y-57759701D01*
X153915729Y-57760000D01*
X153029715Y-57760000D01*
X153073442Y-57904153D01*
X153170651Y-58086016D01*
X153184893Y-58154418D01*
X153170651Y-58202922D01*
X153072978Y-58385654D01*
X153014337Y-58578968D01*
X152994538Y-58780000D01*
X149887623Y-58780000D01*
X149884254Y-58709270D01*
X149834704Y-58505024D01*
X149827999Y-58490342D01*
X149747401Y-58313856D01*
X149747398Y-58313851D01*
X149747397Y-58313850D01*
X149747396Y-58313847D01*
X149625486Y-58142648D01*
X149625484Y-58142646D01*
X149625479Y-58142640D01*
X149473379Y-57997614D01*
X149296574Y-57883988D01*
X149101455Y-57805874D01*
X148895086Y-57766100D01*
X148895085Y-57766100D01*
X147937575Y-57766100D01*
X147780782Y-57781072D01*
X147780778Y-57781073D01*
X147579127Y-57840283D01*
X147392313Y-57936591D01*
X147227116Y-58066505D01*
X147227112Y-58066509D01*
X147089478Y-58225346D01*
X146984398Y-58407350D01*
X146915656Y-58605965D01*
X146915656Y-58605967D01*
X146890635Y-58780000D01*
X146885746Y-58814001D01*
X124489243Y-58814001D01*
X124484254Y-58709270D01*
X124434704Y-58505024D01*
X124427999Y-58490342D01*
X124347401Y-58313856D01*
X124347398Y-58313851D01*
X124347397Y-58313850D01*
X124347396Y-58313847D01*
X124225486Y-58142648D01*
X124225484Y-58142646D01*
X124225479Y-58142640D01*
X124073379Y-57997614D01*
X123896574Y-57883988D01*
X123701455Y-57805874D01*
X123495086Y-57766100D01*
X123495085Y-57766100D01*
X122537575Y-57766100D01*
X122380782Y-57781072D01*
X122380778Y-57781073D01*
X122179127Y-57840283D01*
X121992313Y-57936591D01*
X121827116Y-58066505D01*
X121827112Y-58066509D01*
X121689478Y-58225346D01*
X121584398Y-58407350D01*
X121515656Y-58605965D01*
X121515656Y-58605967D01*
X121490635Y-58780000D01*
X121485746Y-58814001D01*
X120403668Y-58814001D01*
X120289657Y-58651179D01*
X120128820Y-58490342D01*
X119942482Y-58359865D01*
X119736328Y-58263734D01*
X119540000Y-58211127D01*
X119540000Y-59174314D01*
X119528045Y-59162359D01*
X119415148Y-59104835D01*
X119321481Y-59090000D01*
X119258519Y-59090000D01*
X119164852Y-59104835D01*
X119051955Y-59162359D01*
X119040000Y-59174314D01*
X119040000Y-58211127D01*
X118843671Y-58263734D01*
X118637517Y-58359865D01*
X118451179Y-58490342D01*
X118290342Y-58651179D01*
X118159865Y-58837517D01*
X118063734Y-59043673D01*
X118063730Y-59043682D01*
X118011127Y-59239999D01*
X116761367Y-59239999D01*
X119727366Y-56274001D01*
X121485746Y-56274001D01*
X121495745Y-56483927D01*
X121545296Y-56688178D01*
X121545298Y-56688182D01*
X121632598Y-56879343D01*
X121632601Y-56879348D01*
X121632602Y-56879350D01*
X121632604Y-56879353D01*
X121754514Y-57050552D01*
X121754515Y-57050553D01*
X121754520Y-57050559D01*
X121906620Y-57195585D01*
X122045752Y-57285000D01*
X122083428Y-57309213D01*
X122278543Y-57387325D01*
X122381729Y-57407212D01*
X122484914Y-57427100D01*
X122484915Y-57427100D01*
X123442419Y-57427100D01*
X123442425Y-57427100D01*
X123599218Y-57412128D01*
X123800875Y-57352916D01*
X123987682Y-57256611D01*
X123992900Y-57252508D01*
X124122721Y-57150414D01*
X124152886Y-57126692D01*
X124290519Y-56967856D01*
X124395604Y-56785844D01*
X124464344Y-56587233D01*
X124494254Y-56379202D01*
X124489243Y-56274001D01*
X146885746Y-56274001D01*
X146895745Y-56483927D01*
X146945296Y-56688178D01*
X146945298Y-56688182D01*
X147032598Y-56879343D01*
X147032601Y-56879348D01*
X147032602Y-56879350D01*
X147032604Y-56879353D01*
X147154514Y-57050552D01*
X147154515Y-57050553D01*
X147154520Y-57050559D01*
X147306620Y-57195585D01*
X147445752Y-57285000D01*
X147483428Y-57309213D01*
X147678543Y-57387325D01*
X147781729Y-57407212D01*
X147884914Y-57427100D01*
X147884915Y-57427100D01*
X148842419Y-57427100D01*
X148842425Y-57427100D01*
X148999218Y-57412128D01*
X149200875Y-57352916D01*
X149387682Y-57256611D01*
X149392900Y-57252508D01*
X149522721Y-57150414D01*
X149552886Y-57126692D01*
X149690519Y-56967856D01*
X149795604Y-56785844D01*
X149864344Y-56587233D01*
X149894254Y-56379202D01*
X149884254Y-56169270D01*
X149834704Y-55965024D01*
X149834701Y-55965017D01*
X149747401Y-55773856D01*
X149747398Y-55773851D01*
X149747397Y-55773850D01*
X149747396Y-55773847D01*
X149625486Y-55602648D01*
X149625484Y-55602646D01*
X149625479Y-55602640D01*
X149473379Y-55457614D01*
X149296574Y-55343988D01*
X149101455Y-55265874D01*
X148895086Y-55226100D01*
X148895085Y-55226100D01*
X147937575Y-55226100D01*
X147780782Y-55241072D01*
X147780778Y-55241073D01*
X147579127Y-55300283D01*
X147392313Y-55396591D01*
X147227116Y-55526505D01*
X147227112Y-55526509D01*
X147089478Y-55685346D01*
X146984398Y-55867350D01*
X146915656Y-56065965D01*
X146915656Y-56065967D01*
X146900804Y-56169270D01*
X146885746Y-56274001D01*
X124489243Y-56274001D01*
X124484254Y-56169270D01*
X124434704Y-55965024D01*
X124434701Y-55965017D01*
X124347401Y-55773856D01*
X124347398Y-55773851D01*
X124347397Y-55773850D01*
X124347396Y-55773847D01*
X124225486Y-55602648D01*
X124225484Y-55602646D01*
X124225479Y-55602640D01*
X124073379Y-55457614D01*
X123896574Y-55343988D01*
X123701455Y-55265874D01*
X123495086Y-55226100D01*
X123495085Y-55226100D01*
X122537575Y-55226100D01*
X122380782Y-55241072D01*
X122380778Y-55241073D01*
X122179127Y-55300283D01*
X121992313Y-55396591D01*
X121827116Y-55526505D01*
X121827112Y-55526509D01*
X121689478Y-55685346D01*
X121584398Y-55867350D01*
X121515656Y-56065965D01*
X121515656Y-56065967D01*
X121500804Y-56169270D01*
X121485746Y-56274001D01*
X119727366Y-56274001D01*
X121427949Y-54573419D01*
X121489272Y-54539934D01*
X121515630Y-54537100D01*
X121732715Y-54537100D01*
X121799754Y-54556785D01*
X121818284Y-54571356D01*
X121834366Y-54586690D01*
X121906623Y-54655587D01*
X122001578Y-54716611D01*
X122083428Y-54769213D01*
X122278543Y-54847325D01*
X122381729Y-54867212D01*
X122484914Y-54887100D01*
X122484915Y-54887100D01*
X123442419Y-54887100D01*
X123442425Y-54887100D01*
X123599218Y-54872128D01*
X123800875Y-54812916D01*
X123987682Y-54716611D01*
X124152886Y-54586692D01*
X124290519Y-54427856D01*
X124395604Y-54245844D01*
X124464344Y-54047233D01*
X124494254Y-53839202D01*
X124489243Y-53734001D01*
X146885746Y-53734001D01*
X146895745Y-53943927D01*
X146945296Y-54148178D01*
X146945298Y-54148182D01*
X147032598Y-54339343D01*
X147032601Y-54339348D01*
X147032602Y-54339350D01*
X147032604Y-54339353D01*
X147095627Y-54427856D01*
X147154515Y-54510553D01*
X147154520Y-54510559D01*
X147306620Y-54655585D01*
X147401578Y-54716611D01*
X147483428Y-54769213D01*
X147678543Y-54847325D01*
X147781729Y-54867212D01*
X147884914Y-54887100D01*
X147884915Y-54887100D01*
X148842419Y-54887100D01*
X148842425Y-54887100D01*
X148999218Y-54872128D01*
X149200875Y-54812916D01*
X149387682Y-54716611D01*
X149552886Y-54586692D01*
X149581823Y-54553296D01*
X149640601Y-54515523D01*
X149675536Y-54510500D01*
X154650315Y-54510500D01*
X154717354Y-54530185D01*
X154754123Y-54566678D01*
X154791015Y-54623145D01*
X154791017Y-54623147D01*
X154791021Y-54623153D01*
X154948216Y-54793913D01*
X154948219Y-54793915D01*
X154948222Y-54793918D01*
X155131365Y-54936464D01*
X155131371Y-54936468D01*
X155131374Y-54936470D01*
X155335497Y-55046936D01*
X155449487Y-55086068D01*
X155555015Y-55122297D01*
X155555017Y-55122297D01*
X155555019Y-55122298D01*
X155783951Y-55160500D01*
X155783952Y-55160500D01*
X156016048Y-55160500D01*
X156016049Y-55160500D01*
X156244981Y-55122298D01*
X156464503Y-55046936D01*
X156668626Y-54936470D01*
X156851784Y-54793913D01*
X157008979Y-54623153D01*
X157135924Y-54428849D01*
X157229157Y-54216300D01*
X157286134Y-53991305D01*
X157290060Y-53943927D01*
X157305300Y-53760006D01*
X157305300Y-53759993D01*
X157286135Y-53528702D01*
X157286133Y-53528691D01*
X157229157Y-53303699D01*
X157135924Y-53091151D01*
X157008983Y-52896852D01*
X157008980Y-52896849D01*
X157008979Y-52896847D01*
X156914195Y-52793884D01*
X156883275Y-52731232D01*
X156891135Y-52661806D01*
X156935283Y-52607651D01*
X156962095Y-52593722D01*
X157042326Y-52563798D01*
X157042326Y-52563797D01*
X157042331Y-52563796D01*
X157157546Y-52477546D01*
X157243796Y-52362331D01*
X157294091Y-52227483D01*
X157300500Y-52167873D01*
X157300499Y-50272128D01*
X157294091Y-50212517D01*
X157293775Y-50211671D01*
X157243797Y-50077671D01*
X157243793Y-50077664D01*
X157157547Y-49962455D01*
X157157544Y-49962452D01*
X157042335Y-49876206D01*
X157042328Y-49876202D01*
X156907482Y-49825908D01*
X156907483Y-49825908D01*
X156847883Y-49819501D01*
X156847881Y-49819500D01*
X156847873Y-49819500D01*
X156847865Y-49819500D01*
X155612230Y-49819500D01*
X155545191Y-49799815D01*
X155524549Y-49783181D01*
X154316819Y-48575451D01*
X154283334Y-48514128D01*
X154280500Y-48487770D01*
X154280500Y-48296662D01*
X154300185Y-48229623D01*
X154333379Y-48195086D01*
X154369140Y-48170046D01*
X154530045Y-48009141D01*
X154530047Y-48009139D01*
X154660568Y-47822734D01*
X154756739Y-47616496D01*
X154815635Y-47396692D01*
X154835468Y-47170002D01*
X159845034Y-47170002D01*
X159864858Y-47396599D01*
X159864860Y-47396610D01*
X159923730Y-47616317D01*
X159923734Y-47616326D01*
X160019865Y-47822481D01*
X160019866Y-47822483D01*
X160070973Y-47895471D01*
X160070974Y-47895472D01*
X160752046Y-47214399D01*
X160764835Y-47295148D01*
X160822359Y-47408045D01*
X160911955Y-47497641D01*
X161024852Y-47555165D01*
X161105599Y-47567953D01*
X160424526Y-48249025D01*
X160424526Y-48249026D01*
X160497512Y-48300131D01*
X160497516Y-48300133D01*
X160703673Y-48396265D01*
X160703682Y-48396269D01*
X160923389Y-48455139D01*
X160923400Y-48455141D01*
X161149998Y-48474966D01*
X161150002Y-48474966D01*
X161376599Y-48455141D01*
X161376610Y-48455139D01*
X161596317Y-48396269D01*
X161596331Y-48396264D01*
X161802478Y-48300136D01*
X161875472Y-48249025D01*
X161194401Y-47567953D01*
X161275148Y-47555165D01*
X161388045Y-47497641D01*
X161477641Y-47408045D01*
X161535165Y-47295148D01*
X161547953Y-47214400D01*
X162229025Y-47895472D01*
X162280136Y-47822478D01*
X162376264Y-47616331D01*
X162376269Y-47616317D01*
X162435139Y-47396610D01*
X162435141Y-47396599D01*
X162454966Y-47170002D01*
X162454966Y-47169997D01*
X162435141Y-46943400D01*
X162435139Y-46943389D01*
X162376269Y-46723682D01*
X162376265Y-46723673D01*
X162280133Y-46517516D01*
X162280131Y-46517512D01*
X162229026Y-46444526D01*
X162229025Y-46444526D01*
X161547953Y-47125598D01*
X161535165Y-47044852D01*
X161477641Y-46931955D01*
X161388045Y-46842359D01*
X161275148Y-46784835D01*
X161194400Y-46772046D01*
X161875472Y-46090974D01*
X161875471Y-46090973D01*
X161802483Y-46039866D01*
X161802481Y-46039865D01*
X161596326Y-45943734D01*
X161596317Y-45943730D01*
X161376610Y-45884860D01*
X161376599Y-45884858D01*
X161150002Y-45865034D01*
X161149998Y-45865034D01*
X160923400Y-45884858D01*
X160923389Y-45884860D01*
X160703682Y-45943730D01*
X160703673Y-45943734D01*
X160497513Y-46039868D01*
X160424527Y-46090972D01*
X160424526Y-46090973D01*
X161105600Y-46772046D01*
X161024852Y-46784835D01*
X160911955Y-46842359D01*
X160822359Y-46931955D01*
X160764835Y-47044852D01*
X160752046Y-47125599D01*
X160070973Y-46444526D01*
X160070972Y-46444527D01*
X160019868Y-46517513D01*
X159923734Y-46723673D01*
X159923730Y-46723682D01*
X159864860Y-46943389D01*
X159864858Y-46943400D01*
X159845034Y-47169997D01*
X159845034Y-47170002D01*
X154835468Y-47170002D01*
X154835468Y-47170000D01*
X154815635Y-46943308D01*
X154756739Y-46723504D01*
X154660568Y-46517266D01*
X154562839Y-46377693D01*
X154530045Y-46330858D01*
X154369141Y-46169954D01*
X154182734Y-46039432D01*
X154182732Y-46039431D01*
X153976497Y-45943261D01*
X153976488Y-45943258D01*
X153756697Y-45884366D01*
X153756693Y-45884365D01*
X153756692Y-45884365D01*
X153756691Y-45884364D01*
X153756686Y-45884364D01*
X153530002Y-45864532D01*
X153529998Y-45864532D01*
X153303313Y-45884364D01*
X153303302Y-45884366D01*
X153083511Y-45943258D01*
X153083502Y-45943261D01*
X152877267Y-46039431D01*
X152877265Y-46039432D01*
X152690858Y-46169954D01*
X152529954Y-46330858D01*
X152416075Y-46493497D01*
X152361499Y-46537122D01*
X152292000Y-46544316D01*
X152229645Y-46512794D01*
X152194231Y-46452564D01*
X152190500Y-46422374D01*
X152190500Y-44819321D01*
X152210185Y-44752282D01*
X152262989Y-44706527D01*
X152332147Y-44696583D01*
X152334856Y-44697003D01*
X152475665Y-44720500D01*
X152475666Y-44720500D01*
X152724335Y-44720500D01*
X152969614Y-44679571D01*
X153204810Y-44598828D01*
X153423509Y-44480474D01*
X153619744Y-44327738D01*
X153788164Y-44144785D01*
X153924173Y-43936607D01*
X154024063Y-43708881D01*
X154085108Y-43467821D01*
X154085116Y-43467729D01*
X154105643Y-43220005D01*
X155594859Y-43220005D01*
X155615385Y-43467729D01*
X155615387Y-43467738D01*
X155676412Y-43708717D01*
X155776266Y-43936364D01*
X155876564Y-44089882D01*
X156574070Y-43392376D01*
X156576884Y-43405915D01*
X156646442Y-43540156D01*
X156749638Y-43650652D01*
X156878819Y-43729209D01*
X156930002Y-43743549D01*
X156229942Y-44443609D01*
X156276768Y-44480055D01*
X156276770Y-44480056D01*
X156495385Y-44598364D01*
X156495396Y-44598369D01*
X156730506Y-44679083D01*
X156975707Y-44720000D01*
X157224293Y-44720000D01*
X157469493Y-44679083D01*
X157704603Y-44598369D01*
X157704614Y-44598364D01*
X157923228Y-44480057D01*
X157923231Y-44480055D01*
X157970056Y-44443609D01*
X157271568Y-43745121D01*
X157388458Y-43694349D01*
X157505739Y-43598934D01*
X157592928Y-43475415D01*
X157623354Y-43389802D01*
X158323434Y-44089882D01*
X158423731Y-43936369D01*
X158523587Y-43708717D01*
X158584612Y-43467738D01*
X158584614Y-43467729D01*
X158605141Y-43220005D01*
X158605141Y-43219994D01*
X158584614Y-42972270D01*
X158584612Y-42972261D01*
X158523587Y-42731282D01*
X158423731Y-42503630D01*
X158323434Y-42350116D01*
X157625929Y-43047622D01*
X157623116Y-43034085D01*
X157553558Y-42899844D01*
X157450362Y-42789348D01*
X157321181Y-42710791D01*
X157269997Y-42696450D01*
X157970057Y-41996390D01*
X157970056Y-41996389D01*
X157923229Y-41959943D01*
X157704614Y-41841635D01*
X157704603Y-41841630D01*
X157469493Y-41760916D01*
X157224293Y-41720000D01*
X156975707Y-41720000D01*
X156730506Y-41760916D01*
X156495396Y-41841630D01*
X156495390Y-41841632D01*
X156276761Y-41959949D01*
X156229942Y-41996388D01*
X156229942Y-41996390D01*
X156928431Y-42694878D01*
X156811542Y-42745651D01*
X156694261Y-42841066D01*
X156607072Y-42964585D01*
X156576645Y-43050197D01*
X155876564Y-42350116D01*
X155776267Y-42503632D01*
X155676412Y-42731282D01*
X155615387Y-42972261D01*
X155615385Y-42972270D01*
X155594859Y-43219994D01*
X155594859Y-43220005D01*
X154105643Y-43220005D01*
X154105643Y-43219994D01*
X154085109Y-42972187D01*
X154085107Y-42972175D01*
X154024063Y-42731118D01*
X153924173Y-42503393D01*
X153788166Y-42295217D01*
X153688637Y-42187100D01*
X153619744Y-42112262D01*
X153423509Y-41959526D01*
X153415477Y-41955179D01*
X153365891Y-41905961D01*
X153350500Y-41846128D01*
X153350500Y-38093872D01*
X153370185Y-38026833D01*
X153415487Y-37984815D01*
X153423509Y-37980474D01*
X153619744Y-37827738D01*
X153788164Y-37644785D01*
X153924173Y-37436607D01*
X154024063Y-37208881D01*
X154085108Y-36967821D01*
X154087694Y-36936611D01*
X154105643Y-36720005D01*
X154105643Y-36719994D01*
X154085109Y-36472187D01*
X154085107Y-36472175D01*
X154024063Y-36231118D01*
X153924173Y-36003393D01*
X153788166Y-35795217D01*
X153742826Y-35745965D01*
X153619744Y-35612262D01*
X153423509Y-35459526D01*
X153423507Y-35459525D01*
X153423506Y-35459524D01*
X153204811Y-35341172D01*
X153204802Y-35341169D01*
X152969616Y-35260429D01*
X152724335Y-35219500D01*
X152475665Y-35219500D01*
X152230383Y-35260429D01*
X151995197Y-35341169D01*
X151995188Y-35341172D01*
X151776493Y-35459524D01*
X151580257Y-35612261D01*
X151411833Y-35795217D01*
X151275826Y-36003393D01*
X151175936Y-36231118D01*
X151114892Y-36472175D01*
X151114890Y-36472187D01*
X151094357Y-36719994D01*
X151094357Y-36720005D01*
X151114890Y-36967812D01*
X151114892Y-36967824D01*
X151175936Y-37208881D01*
X151275826Y-37436606D01*
X151411833Y-37644782D01*
X151442057Y-37677614D01*
X151580256Y-37827738D01*
X151587419Y-37833313D01*
X151775952Y-37980055D01*
X151776491Y-37980474D01*
X151784513Y-37984815D01*
X151834106Y-38034032D01*
X151849500Y-38093872D01*
X151849500Y-41846128D01*
X151829815Y-41913167D01*
X151784522Y-41955179D01*
X151776491Y-41959526D01*
X151645667Y-42061350D01*
X151580257Y-42112261D01*
X151411833Y-42295217D01*
X151275826Y-42503393D01*
X151175936Y-42731118D01*
X151114892Y-42972175D01*
X151114890Y-42972187D01*
X151094357Y-43219994D01*
X151094357Y-43220005D01*
X151114891Y-43467817D01*
X151133143Y-43539892D01*
X151130518Y-43609712D01*
X151100618Y-43658013D01*
X151006883Y-43751748D01*
X150954358Y-43804273D01*
X150940729Y-43816051D01*
X150921468Y-43830390D01*
X150887898Y-43870397D01*
X150884253Y-43874376D01*
X150878409Y-43880222D01*
X150858059Y-43905959D01*
X150808695Y-43964789D01*
X150804729Y-43970819D01*
X150804682Y-43970788D01*
X150800630Y-43977147D01*
X150800679Y-43977177D01*
X150796889Y-43983321D01*
X150764424Y-44052941D01*
X150729960Y-44121566D01*
X150727488Y-44128357D01*
X150727432Y-44128336D01*
X150724960Y-44135450D01*
X150725015Y-44135469D01*
X150722742Y-44142327D01*
X150715230Y-44178711D01*
X150707207Y-44217565D01*
X150695359Y-44267558D01*
X150689498Y-44292286D01*
X150688661Y-44299454D01*
X150688601Y-44299447D01*
X150687835Y-44306945D01*
X150687895Y-44306951D01*
X150687265Y-44314140D01*
X150689500Y-44390916D01*
X150689500Y-48877770D01*
X150669815Y-48944809D01*
X150653181Y-48965451D01*
X149395877Y-50222754D01*
X149334554Y-50256239D01*
X149264862Y-50251255D01*
X149262143Y-50250203D01*
X149101457Y-50185875D01*
X149101455Y-50185874D01*
X148895086Y-50146100D01*
X148895085Y-50146100D01*
X147937575Y-50146100D01*
X147780782Y-50161072D01*
X147780778Y-50161073D01*
X147579127Y-50220283D01*
X147392313Y-50316591D01*
X147227116Y-50446505D01*
X147227112Y-50446509D01*
X147089478Y-50605346D01*
X146984398Y-50787350D01*
X146915656Y-50985965D01*
X146915656Y-50985967D01*
X146891446Y-51154358D01*
X146885746Y-51194001D01*
X146895745Y-51403927D01*
X146945296Y-51608178D01*
X146945298Y-51608182D01*
X147032598Y-51799343D01*
X147032601Y-51799348D01*
X147032602Y-51799350D01*
X147032604Y-51799353D01*
X147154514Y-51970552D01*
X147154515Y-51970553D01*
X147154520Y-51970559D01*
X147306620Y-52115585D01*
X147401578Y-52176611D01*
X147483428Y-52229213D01*
X147678543Y-52307325D01*
X147781729Y-52327212D01*
X147884914Y-52347100D01*
X147884915Y-52347100D01*
X148842419Y-52347100D01*
X148842425Y-52347100D01*
X148999218Y-52332128D01*
X149200875Y-52272916D01*
X149387682Y-52176611D01*
X149398781Y-52167883D01*
X149552881Y-52046696D01*
X149552883Y-52046694D01*
X149552886Y-52046692D01*
X149588668Y-52005395D01*
X149639966Y-51970080D01*
X149668990Y-51959516D01*
X149679824Y-51955574D01*
X149698050Y-51949534D01*
X149752734Y-51931414D01*
X149752743Y-51931408D01*
X149759282Y-51928360D01*
X149759308Y-51928416D01*
X149766090Y-51925132D01*
X149766063Y-51925078D01*
X149772506Y-51921840D01*
X149772517Y-51921837D01*
X149836683Y-51879634D01*
X149902056Y-51839312D01*
X149902062Y-51839305D01*
X149907725Y-51834829D01*
X149907763Y-51834877D01*
X149913600Y-51830122D01*
X149913561Y-51830075D01*
X149919096Y-51825430D01*
X149971785Y-51769583D01*
X151424778Y-50316589D01*
X151925642Y-49815724D01*
X151939271Y-49803947D01*
X151958530Y-49789610D01*
X151992101Y-49749601D01*
X151995761Y-49745606D01*
X152001590Y-49739778D01*
X152021941Y-49714039D01*
X152027948Y-49706879D01*
X152071302Y-49655214D01*
X152071306Y-49655205D01*
X152075274Y-49649175D01*
X152075325Y-49649208D01*
X152079372Y-49642856D01*
X152079320Y-49642824D01*
X152083112Y-49636675D01*
X152115575Y-49567058D01*
X152150036Y-49498440D01*
X152150040Y-49498433D01*
X152150042Y-49498421D01*
X152152509Y-49491646D01*
X152152567Y-49491667D01*
X152155043Y-49484546D01*
X152154986Y-49484528D01*
X152157257Y-49477673D01*
X152172792Y-49402434D01*
X152176122Y-49388386D01*
X152190500Y-49327721D01*
X152190500Y-49327710D01*
X152191338Y-49320548D01*
X152191398Y-49320555D01*
X152192164Y-49313055D01*
X152192105Y-49313050D01*
X152192734Y-49305860D01*
X152192419Y-49295048D01*
X152190500Y-49229082D01*
X152190500Y-47917625D01*
X152210185Y-47850586D01*
X152262989Y-47804831D01*
X152332147Y-47794887D01*
X152395703Y-47823912D01*
X152416072Y-47846498D01*
X152462849Y-47913303D01*
X152529954Y-48009141D01*
X152690859Y-48170046D01*
X152726621Y-48195086D01*
X152770247Y-48249662D01*
X152779500Y-48296662D01*
X152779500Y-48786294D01*
X152778191Y-48804263D01*
X152774710Y-48828025D01*
X152779264Y-48880064D01*
X152779500Y-48885470D01*
X152779500Y-48893709D01*
X152783306Y-48926274D01*
X152790000Y-49002791D01*
X152791461Y-49009867D01*
X152791403Y-49009878D01*
X152793034Y-49017237D01*
X152793092Y-49017224D01*
X152794757Y-49024250D01*
X152821025Y-49096424D01*
X152845185Y-49169331D01*
X152848236Y-49175874D01*
X152848182Y-49175898D01*
X152851470Y-49182688D01*
X152851521Y-49182663D01*
X152854761Y-49189113D01*
X152854762Y-49189114D01*
X152854763Y-49189117D01*
X152875075Y-49220000D01*
X152896965Y-49253283D01*
X152937287Y-49318655D01*
X152941766Y-49324319D01*
X152941719Y-49324356D01*
X152946482Y-49330202D01*
X152946528Y-49330164D01*
X152951173Y-49335700D01*
X153007018Y-49388386D01*
X153741073Y-50122441D01*
X154463181Y-50844548D01*
X154496666Y-50905871D01*
X154499500Y-50932229D01*
X154499500Y-52167870D01*
X154499501Y-52167876D01*
X154505908Y-52227483D01*
X154556202Y-52362328D01*
X154556206Y-52362335D01*
X154642452Y-52477544D01*
X154642455Y-52477547D01*
X154757664Y-52563793D01*
X154757673Y-52563798D01*
X154837904Y-52593722D01*
X154893838Y-52635593D01*
X154918256Y-52701057D01*
X154903405Y-52769330D01*
X154885802Y-52793886D01*
X154791017Y-52896850D01*
X154754123Y-52953322D01*
X154700977Y-52998678D01*
X154650315Y-53009500D01*
X149619387Y-53009500D01*
X149552348Y-52989815D01*
X149533822Y-52975247D01*
X149473378Y-52917614D01*
X149473376Y-52917612D01*
X149296574Y-52803988D01*
X149271340Y-52793886D01*
X149187404Y-52760283D01*
X149101455Y-52725874D01*
X148895086Y-52686100D01*
X148895085Y-52686100D01*
X147937575Y-52686100D01*
X147780939Y-52701057D01*
X147780782Y-52701072D01*
X147780778Y-52701073D01*
X147579127Y-52760283D01*
X147392313Y-52856591D01*
X147227116Y-52986505D01*
X147227112Y-52986509D01*
X147089478Y-53145346D01*
X146984398Y-53327350D01*
X146915656Y-53525965D01*
X146915656Y-53525967D01*
X146900804Y-53629270D01*
X146885746Y-53734001D01*
X124489243Y-53734001D01*
X124484254Y-53629270D01*
X124434704Y-53425024D01*
X124434701Y-53425017D01*
X124347401Y-53233856D01*
X124347398Y-53233851D01*
X124347397Y-53233850D01*
X124347396Y-53233847D01*
X124225486Y-53062648D01*
X124225484Y-53062646D01*
X124225479Y-53062640D01*
X124073379Y-52917614D01*
X123896574Y-52803988D01*
X123871340Y-52793886D01*
X123787404Y-52760283D01*
X123701455Y-52725874D01*
X123495086Y-52686100D01*
X123495085Y-52686100D01*
X122537575Y-52686100D01*
X122380939Y-52701057D01*
X122380782Y-52701072D01*
X122380778Y-52701073D01*
X122179127Y-52760283D01*
X121992313Y-52856591D01*
X121827116Y-52986505D01*
X121827113Y-52986509D01*
X121821226Y-52993303D01*
X121762448Y-53031077D01*
X121727513Y-53036100D01*
X121217105Y-53036100D01*
X121199135Y-53034791D01*
X121175372Y-53031310D01*
X121129933Y-53035286D01*
X121123331Y-53035864D01*
X121117930Y-53036100D01*
X121109689Y-53036100D01*
X121087979Y-53038637D01*
X121077124Y-53039906D01*
X121061819Y-53041245D01*
X121000599Y-53046601D01*
X120993532Y-53048060D01*
X120993520Y-53048004D01*
X120986163Y-53049635D01*
X120986177Y-53049692D01*
X120979143Y-53051359D01*
X120906975Y-53077625D01*
X120834065Y-53101785D01*
X120827526Y-53104835D01*
X120827501Y-53104783D01*
X120820708Y-53108071D01*
X120820734Y-53108122D01*
X120814284Y-53111361D01*
X120750116Y-53153564D01*
X120684747Y-53193885D01*
X120679077Y-53198369D01*
X120679041Y-53198323D01*
X120673198Y-53203084D01*
X120673235Y-53203128D01*
X120667710Y-53207764D01*
X120667704Y-53207769D01*
X120667704Y-53207770D01*
X120643093Y-53233856D01*
X120615014Y-53263617D01*
X114529445Y-59349186D01*
X114468122Y-59382671D01*
X114398430Y-59377687D01*
X114354083Y-59349186D01*
X114245932Y-59241035D01*
X114212447Y-59179712D01*
X114217431Y-59110020D01*
X114259303Y-59054087D01*
X114268516Y-59047815D01*
X114423345Y-58952315D01*
X114547315Y-58828345D01*
X114639356Y-58679124D01*
X114639358Y-58679119D01*
X114694505Y-58512697D01*
X114694506Y-58512690D01*
X114704999Y-58409986D01*
X114705000Y-58409973D01*
X114705000Y-58010000D01*
X113633969Y-58010000D01*
X113666519Y-57959351D01*
X113705000Y-57828295D01*
X113705000Y-57691705D01*
X113666519Y-57560649D01*
X113633969Y-57510000D01*
X114704999Y-57510000D01*
X114704999Y-57110021D01*
X114704998Y-57110013D01*
X114694505Y-57007302D01*
X114639358Y-56840880D01*
X114639356Y-56840875D01*
X114547315Y-56691654D01*
X114423345Y-56567684D01*
X114274124Y-56475643D01*
X114274119Y-56475641D01*
X114107697Y-56420494D01*
X114107690Y-56420493D01*
X114004986Y-56410000D01*
X113480000Y-56410000D01*
X113480000Y-57351981D01*
X113365199Y-57299554D01*
X113263975Y-57285000D01*
X113196025Y-57285000D01*
X113094801Y-57299554D01*
X112980000Y-57351981D01*
X112980000Y-56410000D01*
X112455028Y-56410000D01*
X112455012Y-56410001D01*
X112352302Y-56420494D01*
X112185880Y-56475641D01*
X112185875Y-56475643D01*
X112036654Y-56567684D01*
X111912684Y-56691654D01*
X111820643Y-56840875D01*
X111820641Y-56840880D01*
X111765494Y-57007302D01*
X111765493Y-57007309D01*
X111755000Y-57110013D01*
X111755000Y-57510000D01*
X112826031Y-57510000D01*
X112793481Y-57560649D01*
X112755000Y-57691705D01*
X112755000Y-57828295D01*
X112793481Y-57959351D01*
X112826031Y-58010000D01*
X111755001Y-58010000D01*
X111755001Y-58409986D01*
X111765494Y-58512697D01*
X111820641Y-58679119D01*
X111820643Y-58679124D01*
X111912684Y-58828345D01*
X112036654Y-58952315D01*
X112191484Y-59047815D01*
X112238208Y-59099763D01*
X112249431Y-59168726D01*
X112221587Y-59232808D01*
X112214069Y-59241035D01*
X112066501Y-59388603D01*
X112066501Y-59388604D01*
X111930967Y-59582165D01*
X111930965Y-59582169D01*
X111831098Y-59796335D01*
X111831094Y-59796344D01*
X111769938Y-60024586D01*
X111769936Y-60024596D01*
X111749341Y-60259999D01*
X111749341Y-60260000D01*
X111769936Y-60495403D01*
X111769938Y-60495413D01*
X111831094Y-60723655D01*
X111831096Y-60723659D01*
X111831097Y-60723663D01*
X111874777Y-60817335D01*
X111930964Y-60937828D01*
X111930965Y-60937830D01*
X112066505Y-61131402D01*
X112233597Y-61298494D01*
X112390595Y-61408425D01*
X112434220Y-61463002D01*
X112441414Y-61532500D01*
X112409891Y-61594855D01*
X112390595Y-61611575D01*
X112233597Y-61721505D01*
X112066506Y-61888597D01*
X112066501Y-61888604D01*
X111930967Y-62082165D01*
X111930965Y-62082169D01*
X111831098Y-62296335D01*
X111831094Y-62296344D01*
X111769938Y-62524586D01*
X111769936Y-62524596D01*
X111749341Y-62759999D01*
X111749341Y-62760000D01*
X110460500Y-62760000D01*
X110460500Y-49470000D01*
X112200000Y-49470000D01*
X113116314Y-49470000D01*
X113090507Y-49510156D01*
X113050000Y-49648111D01*
X113050000Y-49791889D01*
X113090507Y-49929844D01*
X113116314Y-49970000D01*
X112200001Y-49970000D01*
X112200001Y-50519986D01*
X112210494Y-50622697D01*
X112265641Y-50789119D01*
X112265643Y-50789124D01*
X112357684Y-50938345D01*
X112481654Y-51062315D01*
X112630875Y-51154356D01*
X112630880Y-51154358D01*
X112797302Y-51209505D01*
X112797309Y-51209506D01*
X112900019Y-51219999D01*
X113299999Y-51219999D01*
X113300000Y-51219998D01*
X113300000Y-50155501D01*
X113407685Y-50204680D01*
X113514237Y-50220000D01*
X113585763Y-50220000D01*
X113692315Y-50204680D01*
X113800000Y-50155501D01*
X113800000Y-51219999D01*
X114199972Y-51219999D01*
X114199986Y-51219998D01*
X114302697Y-51209505D01*
X114469119Y-51154358D01*
X114469124Y-51154356D01*
X114618345Y-51062315D01*
X114742315Y-50938345D01*
X114837815Y-50783516D01*
X114889763Y-50736792D01*
X114958726Y-50725569D01*
X115022808Y-50753413D01*
X115031035Y-50760931D01*
X115178599Y-50908495D01*
X115178602Y-50908497D01*
X115178603Y-50908498D01*
X115372165Y-51044032D01*
X115372167Y-51044033D01*
X115372170Y-51044035D01*
X115586337Y-51143903D01*
X115586343Y-51143904D01*
X115586344Y-51143905D01*
X115625356Y-51154358D01*
X115814592Y-51205063D01*
X116002918Y-51221539D01*
X116049999Y-51225659D01*
X116050000Y-51225659D01*
X116050001Y-51225659D01*
X116089234Y-51222226D01*
X116285408Y-51205063D01*
X116326692Y-51194001D01*
X121485746Y-51194001D01*
X121495745Y-51403927D01*
X121545296Y-51608178D01*
X121545298Y-51608182D01*
X121632598Y-51799343D01*
X121632601Y-51799348D01*
X121632602Y-51799350D01*
X121632604Y-51799353D01*
X121754514Y-51970552D01*
X121754515Y-51970553D01*
X121754520Y-51970559D01*
X121906620Y-52115585D01*
X122001578Y-52176611D01*
X122083428Y-52229213D01*
X122278543Y-52307325D01*
X122381729Y-52327212D01*
X122484914Y-52347100D01*
X122484915Y-52347100D01*
X123442419Y-52347100D01*
X123442425Y-52347100D01*
X123599218Y-52332128D01*
X123800875Y-52272916D01*
X123987682Y-52176611D01*
X123998781Y-52167883D01*
X124065282Y-52115585D01*
X124152886Y-52046692D01*
X124290519Y-51887856D01*
X124318546Y-51839313D01*
X124395601Y-51705849D01*
X124395600Y-51705849D01*
X124395604Y-51705844D01*
X124464344Y-51507233D01*
X124494254Y-51299202D01*
X124484254Y-51089270D01*
X124434704Y-50885024D01*
X124390908Y-50789124D01*
X124347401Y-50693856D01*
X124347398Y-50693851D01*
X124347397Y-50693850D01*
X124347396Y-50693847D01*
X124225486Y-50522648D01*
X124225484Y-50522646D01*
X124225479Y-50522640D01*
X124073379Y-50377614D01*
X123896574Y-50263988D01*
X123701455Y-50185874D01*
X123495086Y-50146100D01*
X123495085Y-50146100D01*
X122537575Y-50146100D01*
X122380782Y-50161072D01*
X122380778Y-50161073D01*
X122179127Y-50220283D01*
X121992313Y-50316591D01*
X121827116Y-50446505D01*
X121827112Y-50446509D01*
X121689478Y-50605346D01*
X121584398Y-50787350D01*
X121515656Y-50985965D01*
X121515656Y-50985967D01*
X121491446Y-51154358D01*
X121485746Y-51194001D01*
X116326692Y-51194001D01*
X116513663Y-51143903D01*
X116727829Y-51044035D01*
X116921401Y-50908495D01*
X117088495Y-50741401D01*
X117224035Y-50547829D01*
X117323903Y-50333663D01*
X117385063Y-50105408D01*
X117395424Y-49986968D01*
X117420876Y-49921901D01*
X117431263Y-49910103D01*
X117847949Y-49493419D01*
X117909272Y-49459934D01*
X117935630Y-49457100D01*
X121732715Y-49457100D01*
X121799754Y-49476785D01*
X121818284Y-49491356D01*
X121825706Y-49498433D01*
X121906623Y-49575587D01*
X122015162Y-49645341D01*
X122083428Y-49689213D01*
X122278543Y-49767325D01*
X122360812Y-49783181D01*
X122484914Y-49807100D01*
X122484915Y-49807100D01*
X123442419Y-49807100D01*
X123442425Y-49807100D01*
X123599218Y-49792128D01*
X123800875Y-49732916D01*
X123987682Y-49636611D01*
X124152886Y-49506692D01*
X124290519Y-49347856D01*
X124297538Y-49335700D01*
X124385879Y-49182688D01*
X124395604Y-49165844D01*
X124464344Y-48967233D01*
X124494254Y-48759202D01*
X124489243Y-48654001D01*
X146885746Y-48654001D01*
X146895745Y-48863927D01*
X146945296Y-49068178D01*
X146945298Y-49068182D01*
X147032598Y-49259343D01*
X147032601Y-49259348D01*
X147032602Y-49259350D01*
X147032604Y-49259353D01*
X147154514Y-49430552D01*
X147154515Y-49430553D01*
X147154520Y-49430559D01*
X147306620Y-49575585D01*
X147415162Y-49645341D01*
X147483428Y-49689213D01*
X147678543Y-49767325D01*
X147760812Y-49783181D01*
X147884914Y-49807100D01*
X147884915Y-49807100D01*
X148842419Y-49807100D01*
X148842425Y-49807100D01*
X148999218Y-49792128D01*
X149200875Y-49732916D01*
X149387682Y-49636611D01*
X149552886Y-49506692D01*
X149690519Y-49347856D01*
X149697538Y-49335700D01*
X149785879Y-49182688D01*
X149795604Y-49165844D01*
X149864344Y-48967233D01*
X149894254Y-48759202D01*
X149884254Y-48549270D01*
X149834704Y-48345024D01*
X149834701Y-48345017D01*
X149747401Y-48153856D01*
X149747398Y-48153851D01*
X149747397Y-48153850D01*
X149747396Y-48153847D01*
X149625486Y-47982648D01*
X149625484Y-47982646D01*
X149625479Y-47982640D01*
X149473379Y-47837614D01*
X149296574Y-47723988D01*
X149101455Y-47645874D01*
X148895086Y-47606100D01*
X148895085Y-47606100D01*
X147937575Y-47606100D01*
X147780782Y-47621072D01*
X147780778Y-47621073D01*
X147579127Y-47680283D01*
X147392313Y-47776591D01*
X147227116Y-47906505D01*
X147227112Y-47906509D01*
X147089478Y-48065346D01*
X146984398Y-48247350D01*
X146915656Y-48445965D01*
X146915656Y-48445967D01*
X146886195Y-48650880D01*
X146885746Y-48654001D01*
X124489243Y-48654001D01*
X124484254Y-48549270D01*
X124434704Y-48345024D01*
X124434701Y-48345017D01*
X124347401Y-48153856D01*
X124347398Y-48153851D01*
X124347397Y-48153850D01*
X124347396Y-48153847D01*
X124225486Y-47982648D01*
X124225484Y-47982646D01*
X124225479Y-47982640D01*
X124073379Y-47837614D01*
X123896574Y-47723988D01*
X123701455Y-47645874D01*
X123495086Y-47606100D01*
X123495085Y-47606100D01*
X122537575Y-47606100D01*
X122380782Y-47621072D01*
X122380778Y-47621073D01*
X122179127Y-47680283D01*
X121992313Y-47776591D01*
X121827116Y-47906505D01*
X121827113Y-47906509D01*
X121821226Y-47913303D01*
X121762448Y-47951077D01*
X121727513Y-47956100D01*
X117637105Y-47956100D01*
X117619135Y-47954791D01*
X117595372Y-47951310D01*
X117549933Y-47955286D01*
X117543331Y-47955864D01*
X117537930Y-47956100D01*
X117529689Y-47956100D01*
X117507979Y-47958637D01*
X117497124Y-47959906D01*
X117481819Y-47961245D01*
X117420599Y-47966601D01*
X117413532Y-47968060D01*
X117413520Y-47968004D01*
X117406163Y-47969635D01*
X117406177Y-47969692D01*
X117399143Y-47971359D01*
X117326975Y-47997625D01*
X117254065Y-48021785D01*
X117247526Y-48024835D01*
X117247501Y-48024783D01*
X117240708Y-48028071D01*
X117240734Y-48028122D01*
X117234284Y-48031361D01*
X117170116Y-48073564D01*
X117104747Y-48113885D01*
X117099077Y-48118369D01*
X117099041Y-48118323D01*
X117093198Y-48123084D01*
X117093235Y-48123128D01*
X117087710Y-48127764D01*
X117087704Y-48127769D01*
X117087704Y-48127770D01*
X117063093Y-48153856D01*
X117035014Y-48183617D01*
X116853902Y-48364728D01*
X116792579Y-48398213D01*
X116722887Y-48393229D01*
X116713817Y-48389429D01*
X116513669Y-48296099D01*
X116513655Y-48296094D01*
X116285413Y-48234938D01*
X116285403Y-48234936D01*
X116050001Y-48214341D01*
X116049999Y-48214341D01*
X115814596Y-48234936D01*
X115814586Y-48234938D01*
X115586344Y-48296094D01*
X115586335Y-48296098D01*
X115372171Y-48395964D01*
X115372169Y-48395965D01*
X115178597Y-48531505D01*
X115031035Y-48679068D01*
X114969712Y-48712553D01*
X114900020Y-48707569D01*
X114844087Y-48665697D01*
X114837815Y-48656484D01*
X114742315Y-48501654D01*
X114618345Y-48377684D01*
X114469124Y-48285643D01*
X114469119Y-48285641D01*
X114302697Y-48230494D01*
X114302690Y-48230493D01*
X114199986Y-48220000D01*
X113800000Y-48220000D01*
X113800000Y-49284498D01*
X113692315Y-49235320D01*
X113585763Y-49220000D01*
X113514237Y-49220000D01*
X113407685Y-49235320D01*
X113300000Y-49284498D01*
X113300000Y-48220000D01*
X112900028Y-48220000D01*
X112900012Y-48220001D01*
X112797302Y-48230494D01*
X112630880Y-48285641D01*
X112630875Y-48285643D01*
X112481654Y-48377684D01*
X112357684Y-48501654D01*
X112265643Y-48650875D01*
X112265641Y-48650880D01*
X112210494Y-48817302D01*
X112210493Y-48817309D01*
X112200000Y-48920013D01*
X112200000Y-49470000D01*
X110460500Y-49470000D01*
X110460500Y-43780000D01*
X112200000Y-43780000D01*
X113116314Y-43780000D01*
X113090507Y-43820156D01*
X113050000Y-43958111D01*
X113050000Y-44101889D01*
X113090507Y-44239844D01*
X113116314Y-44280000D01*
X112200001Y-44280000D01*
X112200001Y-44829986D01*
X112210494Y-44932697D01*
X112265641Y-45099119D01*
X112265643Y-45099124D01*
X112357684Y-45248345D01*
X112481654Y-45372315D01*
X112630875Y-45464356D01*
X112630880Y-45464358D01*
X112797302Y-45519505D01*
X112797309Y-45519506D01*
X112900019Y-45529999D01*
X113299999Y-45529999D01*
X113300000Y-45529998D01*
X113300000Y-44465501D01*
X113407685Y-44514680D01*
X113514237Y-44530000D01*
X113585763Y-44530000D01*
X113692315Y-44514680D01*
X113800000Y-44465501D01*
X113800000Y-45529999D01*
X114199972Y-45529999D01*
X114199986Y-45529998D01*
X114302697Y-45519505D01*
X114469119Y-45464358D01*
X114469124Y-45464356D01*
X114618345Y-45372315D01*
X114742315Y-45248345D01*
X114837815Y-45093516D01*
X114889763Y-45046792D01*
X114958726Y-45035569D01*
X115022808Y-45063413D01*
X115031035Y-45070931D01*
X115178599Y-45218495D01*
X115178602Y-45218497D01*
X115178603Y-45218498D01*
X115372165Y-45354032D01*
X115372167Y-45354033D01*
X115372170Y-45354035D01*
X115586337Y-45453903D01*
X115586343Y-45453904D01*
X115586344Y-45453905D01*
X115625356Y-45464358D01*
X115814592Y-45515063D01*
X116002918Y-45531539D01*
X116049999Y-45535659D01*
X116050000Y-45535659D01*
X116050001Y-45535659D01*
X116089234Y-45532226D01*
X116285408Y-45515063D01*
X116513663Y-45453903D01*
X116720639Y-45357387D01*
X116789713Y-45346896D01*
X116853497Y-45375415D01*
X116860722Y-45382089D01*
X118130867Y-46652234D01*
X118142648Y-46665866D01*
X118156990Y-46685130D01*
X118197020Y-46718719D01*
X118200992Y-46722359D01*
X118206824Y-46728191D01*
X118206827Y-46728194D01*
X118232547Y-46748531D01*
X118291388Y-46797904D01*
X118297418Y-46801870D01*
X118297385Y-46801919D01*
X118303747Y-46805972D01*
X118303779Y-46805921D01*
X118309919Y-46809708D01*
X118309923Y-46809711D01*
X118344732Y-46825943D01*
X118379541Y-46842175D01*
X118448165Y-46876639D01*
X118448167Y-46876640D01*
X118448169Y-46876640D01*
X118454957Y-46879111D01*
X118454936Y-46879167D01*
X118462055Y-46881642D01*
X118462074Y-46881586D01*
X118468929Y-46883858D01*
X118544162Y-46899391D01*
X118618879Y-46917100D01*
X118618889Y-46917100D01*
X118626052Y-46917938D01*
X118626044Y-46917997D01*
X118633545Y-46918764D01*
X118633551Y-46918705D01*
X118640740Y-46919334D01*
X118640744Y-46919333D01*
X118640745Y-46919334D01*
X118717518Y-46917100D01*
X121732715Y-46917100D01*
X121799754Y-46936785D01*
X121818285Y-46951357D01*
X121906623Y-47035587D01*
X122001578Y-47096611D01*
X122083428Y-47149213D01*
X122278543Y-47227325D01*
X122381729Y-47247212D01*
X122484914Y-47267100D01*
X122484915Y-47267100D01*
X123442419Y-47267100D01*
X123442425Y-47267100D01*
X123599218Y-47252128D01*
X123800875Y-47192916D01*
X123987682Y-47096611D01*
X124152886Y-46966692D01*
X124290519Y-46807856D01*
X124291209Y-46806662D01*
X124395601Y-46625849D01*
X124395600Y-46625849D01*
X124395604Y-46625844D01*
X124464344Y-46427233D01*
X124494254Y-46219202D01*
X124489243Y-46114001D01*
X146885746Y-46114001D01*
X146895745Y-46323927D01*
X146945296Y-46528178D01*
X146945298Y-46528182D01*
X147032598Y-46719343D01*
X147032601Y-46719348D01*
X147032602Y-46719350D01*
X147032604Y-46719353D01*
X147154514Y-46890552D01*
X147154515Y-46890553D01*
X147154520Y-46890559D01*
X147306620Y-47035585D01*
X147401578Y-47096611D01*
X147483428Y-47149213D01*
X147678543Y-47227325D01*
X147781729Y-47247212D01*
X147884914Y-47267100D01*
X147884915Y-47267100D01*
X148842419Y-47267100D01*
X148842425Y-47267100D01*
X148999218Y-47252128D01*
X149200875Y-47192916D01*
X149387682Y-47096611D01*
X149552886Y-46966692D01*
X149690519Y-46807856D01*
X149691209Y-46806662D01*
X149795601Y-46625849D01*
X149795600Y-46625849D01*
X149795604Y-46625844D01*
X149864344Y-46427233D01*
X149894254Y-46219202D01*
X149884254Y-46009270D01*
X149834704Y-45805024D01*
X149834701Y-45805017D01*
X149747401Y-45613856D01*
X149747398Y-45613851D01*
X149747397Y-45613850D01*
X149747396Y-45613847D01*
X149625486Y-45442648D01*
X149625484Y-45442646D01*
X149625479Y-45442640D01*
X149473379Y-45297614D01*
X149296574Y-45183988D01*
X149101455Y-45105874D01*
X148895086Y-45066100D01*
X148895085Y-45066100D01*
X147937575Y-45066100D01*
X147780782Y-45081072D01*
X147780778Y-45081073D01*
X147579127Y-45140283D01*
X147392313Y-45236591D01*
X147227116Y-45366505D01*
X147227112Y-45366509D01*
X147089478Y-45525346D01*
X146984398Y-45707350D01*
X146915656Y-45905965D01*
X146915656Y-45905967D01*
X146889057Y-46090974D01*
X146885746Y-46114001D01*
X124489243Y-46114001D01*
X124484254Y-46009270D01*
X124434704Y-45805024D01*
X124434701Y-45805017D01*
X124347401Y-45613856D01*
X124347398Y-45613851D01*
X124347397Y-45613850D01*
X124347396Y-45613847D01*
X124225486Y-45442648D01*
X124225484Y-45442646D01*
X124225479Y-45442640D01*
X124073379Y-45297614D01*
X123896574Y-45183988D01*
X123701455Y-45105874D01*
X123495086Y-45066100D01*
X123495085Y-45066100D01*
X122537575Y-45066100D01*
X122380782Y-45081072D01*
X122380778Y-45081073D01*
X122179127Y-45140283D01*
X121992313Y-45236591D01*
X121827116Y-45366505D01*
X121827113Y-45366509D01*
X121821226Y-45373303D01*
X121762448Y-45411077D01*
X121727513Y-45416100D01*
X119068829Y-45416100D01*
X119001790Y-45396415D01*
X118981148Y-45379781D01*
X117430313Y-43828945D01*
X117396828Y-43767622D01*
X117394466Y-43752071D01*
X117392466Y-43729209D01*
X117385063Y-43644592D01*
X117323903Y-43416337D01*
X117224035Y-43202171D01*
X117199806Y-43167567D01*
X117088494Y-43008597D01*
X116921402Y-42841506D01*
X116921395Y-42841501D01*
X116900501Y-42826871D01*
X116802154Y-42758007D01*
X116727834Y-42705967D01*
X116727830Y-42705965D01*
X116688626Y-42687684D01*
X116513663Y-42606097D01*
X116513659Y-42606096D01*
X116513655Y-42606094D01*
X116285413Y-42544938D01*
X116285403Y-42544936D01*
X116050001Y-42524341D01*
X116049999Y-42524341D01*
X115814596Y-42544936D01*
X115814586Y-42544938D01*
X115586344Y-42606094D01*
X115586335Y-42606098D01*
X115372171Y-42705964D01*
X115372169Y-42705965D01*
X115178597Y-42841505D01*
X115031035Y-42989068D01*
X114969712Y-43022553D01*
X114900020Y-43017569D01*
X114844087Y-42975697D01*
X114837815Y-42966484D01*
X114742315Y-42811654D01*
X114618345Y-42687684D01*
X114469124Y-42595643D01*
X114469119Y-42595641D01*
X114302697Y-42540494D01*
X114302690Y-42540493D01*
X114199986Y-42530000D01*
X113800000Y-42530000D01*
X113800000Y-43594498D01*
X113692315Y-43545320D01*
X113585763Y-43530000D01*
X113514237Y-43530000D01*
X113407685Y-43545320D01*
X113300000Y-43594498D01*
X113300000Y-42530000D01*
X112900028Y-42530000D01*
X112900012Y-42530001D01*
X112797302Y-42540494D01*
X112630880Y-42595641D01*
X112630875Y-42595643D01*
X112481654Y-42687684D01*
X112357684Y-42811654D01*
X112265643Y-42960875D01*
X112265641Y-42960880D01*
X112210494Y-43127302D01*
X112210493Y-43127309D01*
X112200000Y-43230013D01*
X112200000Y-43780000D01*
X110460500Y-43780000D01*
X110460500Y-38300000D01*
X112200000Y-38300000D01*
X113116314Y-38300000D01*
X113090507Y-38340156D01*
X113050000Y-38478111D01*
X113050000Y-38621889D01*
X113090507Y-38759844D01*
X113116314Y-38800000D01*
X112200001Y-38800000D01*
X112200001Y-39349986D01*
X112210494Y-39452697D01*
X112265641Y-39619119D01*
X112265643Y-39619124D01*
X112357684Y-39768345D01*
X112481654Y-39892315D01*
X112630875Y-39984356D01*
X112630880Y-39984358D01*
X112797302Y-40039505D01*
X112797309Y-40039506D01*
X112900019Y-40049999D01*
X113299999Y-40049999D01*
X113300000Y-40049998D01*
X113300000Y-38985501D01*
X113407685Y-39034680D01*
X113514237Y-39050000D01*
X113585763Y-39050000D01*
X113692315Y-39034680D01*
X113800000Y-38985501D01*
X113800000Y-40049999D01*
X114199972Y-40049999D01*
X114199986Y-40049998D01*
X114302697Y-40039505D01*
X114469119Y-39984358D01*
X114469124Y-39984356D01*
X114618345Y-39892315D01*
X114742315Y-39768345D01*
X114837815Y-39613516D01*
X114889763Y-39566792D01*
X114958726Y-39555569D01*
X115022808Y-39583413D01*
X115031035Y-39590931D01*
X115178599Y-39738495D01*
X115178602Y-39738497D01*
X115178603Y-39738498D01*
X115372165Y-39874032D01*
X115372167Y-39874033D01*
X115372170Y-39874035D01*
X115586337Y-39973903D01*
X115586343Y-39973904D01*
X115586344Y-39973905D01*
X115625356Y-39984358D01*
X115814592Y-40035063D01*
X116002918Y-40051539D01*
X116049999Y-40055659D01*
X116050000Y-40055659D01*
X116050001Y-40055659D01*
X116089234Y-40052226D01*
X116285408Y-40035063D01*
X116513663Y-39973903D01*
X116720639Y-39877387D01*
X116789713Y-39866896D01*
X116853497Y-39895415D01*
X116860722Y-39902089D01*
X121070867Y-44112234D01*
X121082648Y-44125866D01*
X121096990Y-44145130D01*
X121137020Y-44178719D01*
X121140992Y-44182359D01*
X121146824Y-44188191D01*
X121146827Y-44188194D01*
X121172547Y-44208531D01*
X121231388Y-44257904D01*
X121237418Y-44261870D01*
X121237385Y-44261919D01*
X121243743Y-44265969D01*
X121243775Y-44265919D01*
X121249920Y-44269709D01*
X121249923Y-44269711D01*
X121319536Y-44302172D01*
X121388167Y-44336640D01*
X121388172Y-44336641D01*
X121394961Y-44339113D01*
X121394940Y-44339170D01*
X121402055Y-44341643D01*
X121402075Y-44341586D01*
X121408930Y-44343858D01*
X121484158Y-44359390D01*
X121558879Y-44377100D01*
X121558889Y-44377100D01*
X121566052Y-44377938D01*
X121566044Y-44377997D01*
X121573545Y-44378764D01*
X121573551Y-44378705D01*
X121580740Y-44379334D01*
X121580744Y-44379333D01*
X121580745Y-44379334D01*
X121657518Y-44377100D01*
X121732715Y-44377100D01*
X121799754Y-44396785D01*
X121818284Y-44411356D01*
X121833986Y-44426328D01*
X121906623Y-44495587D01*
X122001578Y-44556611D01*
X122083428Y-44609213D01*
X122278543Y-44687325D01*
X122328804Y-44697012D01*
X122484914Y-44727100D01*
X122484915Y-44727100D01*
X123442419Y-44727100D01*
X123442425Y-44727100D01*
X123599218Y-44712128D01*
X123800875Y-44652916D01*
X123987682Y-44556611D01*
X123988223Y-44556186D01*
X124085030Y-44480055D01*
X124152886Y-44426692D01*
X124290519Y-44267856D01*
X124291609Y-44265969D01*
X124395601Y-44085849D01*
X124395600Y-44085849D01*
X124395604Y-44085844D01*
X124464344Y-43887233D01*
X124494254Y-43679202D01*
X124484254Y-43469270D01*
X124461772Y-43376600D01*
X146914632Y-43376600D01*
X148074314Y-43376600D01*
X148062359Y-43388555D01*
X148004835Y-43501452D01*
X147985014Y-43626600D01*
X148004835Y-43751748D01*
X148062359Y-43864645D01*
X148074314Y-43876600D01*
X146918742Y-43876600D01*
X146945770Y-43988009D01*
X147033040Y-44179107D01*
X147154889Y-44350219D01*
X147154895Y-44350225D01*
X147306932Y-44495192D01*
X147483657Y-44608766D01*
X147678685Y-44686844D01*
X147884962Y-44726600D01*
X148140000Y-44726600D01*
X148140000Y-43942286D01*
X148151955Y-43954241D01*
X148264852Y-44011765D01*
X148358519Y-44026600D01*
X148421481Y-44026600D01*
X148515148Y-44011765D01*
X148628045Y-43954241D01*
X148640000Y-43942286D01*
X148640000Y-44726600D01*
X148842398Y-44726600D01*
X148999122Y-44711634D01*
X148999126Y-44711633D01*
X149200686Y-44652450D01*
X149387414Y-44556186D01*
X149552537Y-44426331D01*
X149552540Y-44426328D01*
X149690105Y-44267569D01*
X149690114Y-44267558D01*
X149795144Y-44085639D01*
X149795147Y-44085632D01*
X149863855Y-43887117D01*
X149863855Y-43887115D01*
X149865368Y-43876600D01*
X148705686Y-43876600D01*
X148717641Y-43864645D01*
X148775165Y-43751748D01*
X148794986Y-43626600D01*
X148775165Y-43501452D01*
X148717641Y-43388555D01*
X148705686Y-43376600D01*
X149861257Y-43376600D01*
X149834229Y-43265190D01*
X149746959Y-43074092D01*
X149625110Y-42902980D01*
X149625104Y-42902974D01*
X149473067Y-42758007D01*
X149296342Y-42644433D01*
X149101314Y-42566355D01*
X148895038Y-42526600D01*
X148640000Y-42526600D01*
X148640000Y-43310914D01*
X148628045Y-43298959D01*
X148515148Y-43241435D01*
X148421481Y-43226600D01*
X148358519Y-43226600D01*
X148264852Y-43241435D01*
X148151955Y-43298959D01*
X148140000Y-43310914D01*
X148140000Y-42526600D01*
X147937602Y-42526600D01*
X147780877Y-42541565D01*
X147780873Y-42541566D01*
X147579313Y-42600749D01*
X147392585Y-42697013D01*
X147227462Y-42826868D01*
X147227459Y-42826871D01*
X147089894Y-42985630D01*
X147089885Y-42985641D01*
X146984855Y-43167560D01*
X146984852Y-43167567D01*
X146916144Y-43366082D01*
X146916144Y-43366084D01*
X146914632Y-43376600D01*
X124461772Y-43376600D01*
X124434704Y-43265024D01*
X124418715Y-43230013D01*
X124347401Y-43073856D01*
X124347398Y-43073851D01*
X124347397Y-43073850D01*
X124347396Y-43073847D01*
X124225486Y-42902648D01*
X124225484Y-42902646D01*
X124225479Y-42902640D01*
X124073379Y-42757614D01*
X123896574Y-42643988D01*
X123701455Y-42565874D01*
X123495086Y-42526100D01*
X123495085Y-42526100D01*
X122537575Y-42526100D01*
X122386846Y-42540493D01*
X122380782Y-42541072D01*
X122380778Y-42541073D01*
X122179127Y-42600283D01*
X121992314Y-42696591D01*
X121958830Y-42722923D01*
X121893965Y-42748890D01*
X121825358Y-42735666D01*
X121794499Y-42713132D01*
X120115368Y-41034001D01*
X121485746Y-41034001D01*
X121495745Y-41243927D01*
X121545296Y-41448178D01*
X121545298Y-41448182D01*
X121632598Y-41639343D01*
X121632601Y-41639348D01*
X121632602Y-41639350D01*
X121632604Y-41639353D01*
X121754514Y-41810552D01*
X121754515Y-41810553D01*
X121754520Y-41810559D01*
X121906620Y-41955585D01*
X122001578Y-42016611D01*
X122083428Y-42069213D01*
X122278543Y-42147325D01*
X122381729Y-42167212D01*
X122484914Y-42187100D01*
X122484915Y-42187100D01*
X123442419Y-42187100D01*
X123442425Y-42187100D01*
X123599218Y-42172128D01*
X123800875Y-42112916D01*
X123987682Y-42016611D01*
X124152886Y-41886692D01*
X124290519Y-41727856D01*
X124395604Y-41545844D01*
X124464344Y-41347233D01*
X124494254Y-41139202D01*
X124489243Y-41034001D01*
X146885746Y-41034001D01*
X146895745Y-41243927D01*
X146945296Y-41448178D01*
X146945298Y-41448182D01*
X147032598Y-41639343D01*
X147032601Y-41639348D01*
X147032602Y-41639350D01*
X147032604Y-41639353D01*
X147154514Y-41810552D01*
X147154515Y-41810553D01*
X147154520Y-41810559D01*
X147306620Y-41955585D01*
X147401578Y-42016611D01*
X147483428Y-42069213D01*
X147678543Y-42147325D01*
X147781729Y-42167212D01*
X147884914Y-42187100D01*
X147884915Y-42187100D01*
X148842419Y-42187100D01*
X148842425Y-42187100D01*
X148999218Y-42172128D01*
X149200875Y-42112916D01*
X149387682Y-42016611D01*
X149552886Y-41886692D01*
X149690519Y-41727856D01*
X149795604Y-41545844D01*
X149864344Y-41347233D01*
X149894254Y-41139202D01*
X149884254Y-40929270D01*
X149834704Y-40725024D01*
X149834701Y-40725017D01*
X149747401Y-40533856D01*
X149747398Y-40533851D01*
X149747397Y-40533850D01*
X149747396Y-40533847D01*
X149625486Y-40362648D01*
X149625484Y-40362646D01*
X149625479Y-40362640D01*
X149473379Y-40217614D01*
X149296574Y-40103988D01*
X149101455Y-40025874D01*
X148895086Y-39986100D01*
X148895085Y-39986100D01*
X147937575Y-39986100D01*
X147780782Y-40001072D01*
X147780778Y-40001073D01*
X147579127Y-40060283D01*
X147392313Y-40156591D01*
X147227116Y-40286505D01*
X147227112Y-40286509D01*
X147089478Y-40445346D01*
X146984398Y-40627350D01*
X146915656Y-40825965D01*
X146915656Y-40825967D01*
X146900804Y-40929270D01*
X146885746Y-41034001D01*
X124489243Y-41034001D01*
X124484254Y-40929270D01*
X124434704Y-40725024D01*
X124434701Y-40725017D01*
X124347401Y-40533856D01*
X124347398Y-40533851D01*
X124347397Y-40533850D01*
X124347396Y-40533847D01*
X124225486Y-40362648D01*
X124225484Y-40362646D01*
X124225479Y-40362640D01*
X124073379Y-40217614D01*
X123896574Y-40103988D01*
X123701455Y-40025874D01*
X123495086Y-39986100D01*
X123495085Y-39986100D01*
X122537575Y-39986100D01*
X122380782Y-40001072D01*
X122380778Y-40001073D01*
X122179127Y-40060283D01*
X121992313Y-40156591D01*
X121827116Y-40286505D01*
X121827112Y-40286509D01*
X121689478Y-40445346D01*
X121584398Y-40627350D01*
X121515656Y-40825965D01*
X121515656Y-40825967D01*
X121500804Y-40929270D01*
X121485746Y-41034001D01*
X120115368Y-41034001D01*
X119615223Y-40533856D01*
X117575369Y-38494001D01*
X121485746Y-38494001D01*
X121495745Y-38703927D01*
X121545296Y-38908178D01*
X121545298Y-38908182D01*
X121632598Y-39099343D01*
X121632601Y-39099348D01*
X121632602Y-39099350D01*
X121632604Y-39099353D01*
X121695627Y-39187856D01*
X121754515Y-39270553D01*
X121754520Y-39270559D01*
X121906620Y-39415585D01*
X122001578Y-39476611D01*
X122083428Y-39529213D01*
X122278543Y-39607325D01*
X122339736Y-39619119D01*
X122484914Y-39647100D01*
X122484915Y-39647100D01*
X123442419Y-39647100D01*
X123442425Y-39647100D01*
X123599218Y-39632128D01*
X123800875Y-39572916D01*
X123987682Y-39476611D01*
X124152886Y-39346692D01*
X124290519Y-39187856D01*
X124395604Y-39005844D01*
X124464344Y-38807233D01*
X124494254Y-38599202D01*
X124489243Y-38494001D01*
X146885746Y-38494001D01*
X146895745Y-38703927D01*
X146945296Y-38908178D01*
X146945298Y-38908182D01*
X147032598Y-39099343D01*
X147032601Y-39099348D01*
X147032602Y-39099350D01*
X147032604Y-39099353D01*
X147095627Y-39187856D01*
X147154515Y-39270553D01*
X147154520Y-39270559D01*
X147306620Y-39415585D01*
X147401578Y-39476611D01*
X147483428Y-39529213D01*
X147678543Y-39607325D01*
X147739736Y-39619119D01*
X147884914Y-39647100D01*
X147884915Y-39647100D01*
X148842419Y-39647100D01*
X148842425Y-39647100D01*
X148999218Y-39632128D01*
X149200875Y-39572916D01*
X149387682Y-39476611D01*
X149552886Y-39346692D01*
X149690519Y-39187856D01*
X149795604Y-39005844D01*
X149864344Y-38807233D01*
X149894254Y-38599202D01*
X149884254Y-38389270D01*
X149834704Y-38185024D01*
X149831991Y-38179083D01*
X149747401Y-37993856D01*
X149747398Y-37993851D01*
X149747397Y-37993850D01*
X149747396Y-37993847D01*
X149625486Y-37822648D01*
X149625484Y-37822646D01*
X149625479Y-37822640D01*
X149473379Y-37677614D01*
X149296574Y-37563988D01*
X149101455Y-37485874D01*
X148895086Y-37446100D01*
X148895085Y-37446100D01*
X147937575Y-37446100D01*
X147780782Y-37461072D01*
X147780778Y-37461073D01*
X147579127Y-37520283D01*
X147392313Y-37616591D01*
X147227116Y-37746505D01*
X147227112Y-37746509D01*
X147089478Y-37905346D01*
X146984398Y-38087350D01*
X146915656Y-38285965D01*
X146915656Y-38285967D01*
X146888031Y-38478111D01*
X146885746Y-38494001D01*
X124489243Y-38494001D01*
X124484254Y-38389270D01*
X124434704Y-38185024D01*
X124431991Y-38179083D01*
X124347401Y-37993856D01*
X124347398Y-37993851D01*
X124347397Y-37993850D01*
X124347396Y-37993847D01*
X124225486Y-37822648D01*
X124225484Y-37822646D01*
X124225479Y-37822640D01*
X124073379Y-37677614D01*
X123896574Y-37563988D01*
X123701455Y-37485874D01*
X123495086Y-37446100D01*
X123495085Y-37446100D01*
X122537575Y-37446100D01*
X122380782Y-37461072D01*
X122380778Y-37461073D01*
X122179127Y-37520283D01*
X121992313Y-37616591D01*
X121827116Y-37746505D01*
X121827112Y-37746509D01*
X121689478Y-37905346D01*
X121584398Y-38087350D01*
X121515656Y-38285965D01*
X121515656Y-38285967D01*
X121488031Y-38478111D01*
X121485746Y-38494001D01*
X117575369Y-38494001D01*
X117430313Y-38348945D01*
X117396828Y-38287622D01*
X117394466Y-38272071D01*
X117385063Y-38164592D01*
X117323903Y-37936337D01*
X117224035Y-37722171D01*
X117171617Y-37647309D01*
X117088494Y-37528597D01*
X116921402Y-37361506D01*
X116921395Y-37361501D01*
X116918537Y-37359500D01*
X116866669Y-37323181D01*
X116727834Y-37225967D01*
X116727830Y-37225965D01*
X116691193Y-37208881D01*
X116513663Y-37126097D01*
X116513659Y-37126096D01*
X116513655Y-37126094D01*
X116285413Y-37064938D01*
X116285403Y-37064936D01*
X116050001Y-37044341D01*
X116049999Y-37044341D01*
X115814596Y-37064936D01*
X115814586Y-37064938D01*
X115586344Y-37126094D01*
X115586335Y-37126098D01*
X115372171Y-37225964D01*
X115372169Y-37225965D01*
X115178597Y-37361505D01*
X115031035Y-37509068D01*
X114969712Y-37542553D01*
X114900020Y-37537569D01*
X114844087Y-37495697D01*
X114837815Y-37486484D01*
X114742315Y-37331654D01*
X114618345Y-37207684D01*
X114469124Y-37115643D01*
X114469119Y-37115641D01*
X114302697Y-37060494D01*
X114302690Y-37060493D01*
X114199986Y-37050000D01*
X113800000Y-37050000D01*
X113800000Y-38114498D01*
X113692315Y-38065320D01*
X113585763Y-38050000D01*
X113514237Y-38050000D01*
X113407685Y-38065320D01*
X113300000Y-38114498D01*
X113300000Y-37050000D01*
X112900028Y-37050000D01*
X112900012Y-37050001D01*
X112797302Y-37060494D01*
X112630880Y-37115641D01*
X112630875Y-37115643D01*
X112481654Y-37207684D01*
X112357684Y-37331654D01*
X112265643Y-37480875D01*
X112265641Y-37480880D01*
X112210494Y-37647302D01*
X112210493Y-37647309D01*
X112200000Y-37750013D01*
X112200000Y-38300000D01*
X110460500Y-38300000D01*
X110460500Y-35954001D01*
X121485746Y-35954001D01*
X121495745Y-36163927D01*
X121545296Y-36368178D01*
X121545298Y-36368182D01*
X121632598Y-36559343D01*
X121632601Y-36559348D01*
X121632602Y-36559350D01*
X121632604Y-36559353D01*
X121747000Y-36720000D01*
X121754515Y-36730553D01*
X121754520Y-36730559D01*
X121906620Y-36875585D01*
X122001578Y-36936611D01*
X122083428Y-36989213D01*
X122278543Y-37067325D01*
X122381729Y-37087212D01*
X122484914Y-37107100D01*
X122484915Y-37107100D01*
X123442419Y-37107100D01*
X123442425Y-37107100D01*
X123599218Y-37092128D01*
X123800875Y-37032916D01*
X123987682Y-36936611D01*
X124152886Y-36806692D01*
X124290519Y-36647856D01*
X124395604Y-36465844D01*
X124464344Y-36267233D01*
X124494254Y-36059202D01*
X124489243Y-35954001D01*
X146885746Y-35954001D01*
X146895745Y-36163927D01*
X146945296Y-36368178D01*
X146945298Y-36368182D01*
X147032598Y-36559343D01*
X147032601Y-36559348D01*
X147032602Y-36559350D01*
X147032604Y-36559353D01*
X147147000Y-36720000D01*
X147154515Y-36730553D01*
X147154520Y-36730559D01*
X147306620Y-36875585D01*
X147401578Y-36936611D01*
X147483428Y-36989213D01*
X147678543Y-37067325D01*
X147781729Y-37087212D01*
X147884914Y-37107100D01*
X147884915Y-37107100D01*
X148842419Y-37107100D01*
X148842425Y-37107100D01*
X148999218Y-37092128D01*
X149200875Y-37032916D01*
X149387682Y-36936611D01*
X149552886Y-36806692D01*
X149690519Y-36647856D01*
X149795604Y-36465844D01*
X149864344Y-36267233D01*
X149894254Y-36059202D01*
X149884254Y-35849270D01*
X149834704Y-35645024D01*
X149819742Y-35612261D01*
X149747401Y-35453856D01*
X149747398Y-35453851D01*
X149747397Y-35453850D01*
X149747396Y-35453847D01*
X149625486Y-35282648D01*
X149625484Y-35282646D01*
X149625479Y-35282640D01*
X149473379Y-35137614D01*
X149296574Y-35023988D01*
X149101455Y-34945874D01*
X148895086Y-34906100D01*
X148895085Y-34906100D01*
X147937575Y-34906100D01*
X147780782Y-34921072D01*
X147780778Y-34921073D01*
X147579127Y-34980283D01*
X147392313Y-35076591D01*
X147227116Y-35206505D01*
X147227112Y-35206509D01*
X147089478Y-35365346D01*
X146984398Y-35547350D01*
X146915656Y-35745965D01*
X146915656Y-35745967D01*
X146900804Y-35849270D01*
X146885746Y-35954001D01*
X124489243Y-35954001D01*
X124484254Y-35849270D01*
X124434704Y-35645024D01*
X124419742Y-35612261D01*
X124347401Y-35453856D01*
X124347398Y-35453851D01*
X124347397Y-35453850D01*
X124347396Y-35453847D01*
X124225486Y-35282648D01*
X124225484Y-35282646D01*
X124225479Y-35282640D01*
X124073379Y-35137614D01*
X123896574Y-35023988D01*
X123701455Y-34945874D01*
X123495086Y-34906100D01*
X123495085Y-34906100D01*
X122537575Y-34906100D01*
X122380782Y-34921072D01*
X122380778Y-34921073D01*
X122179127Y-34980283D01*
X121992313Y-35076591D01*
X121827116Y-35206505D01*
X121827112Y-35206509D01*
X121689478Y-35365346D01*
X121584398Y-35547350D01*
X121515656Y-35745965D01*
X121515656Y-35745967D01*
X121500804Y-35849270D01*
X121485746Y-35954001D01*
X110460500Y-35954001D01*
X110460500Y-31120000D01*
X113274473Y-31120000D01*
X113294563Y-31452136D01*
X113294563Y-31452141D01*
X113294564Y-31452142D01*
X113354544Y-31779441D01*
X113354545Y-31779445D01*
X113354546Y-31779449D01*
X113453530Y-32097104D01*
X113453534Y-32097116D01*
X113453537Y-32097123D01*
X113590102Y-32400557D01*
X113750873Y-32666505D01*
X113762251Y-32685326D01*
X113967460Y-32947255D01*
X114202744Y-33182539D01*
X114464673Y-33387748D01*
X114464678Y-33387751D01*
X114464682Y-33387754D01*
X114749443Y-33559898D01*
X115052877Y-33696463D01*
X115052890Y-33696467D01*
X115052895Y-33696469D01*
X115168659Y-33732542D01*
X115370559Y-33795456D01*
X115697858Y-33855436D01*
X115875740Y-33866196D01*
X115946892Y-33870500D01*
X115946894Y-33870500D01*
X116113108Y-33870500D01*
X116175365Y-33866734D01*
X116362142Y-33855436D01*
X116689441Y-33795456D01*
X117007123Y-33696463D01*
X117310557Y-33559898D01*
X117551900Y-33414001D01*
X121485746Y-33414001D01*
X121495745Y-33623927D01*
X121545296Y-33828178D01*
X121545298Y-33828182D01*
X121632598Y-34019343D01*
X121632601Y-34019348D01*
X121632602Y-34019350D01*
X121632604Y-34019353D01*
X121754514Y-34190552D01*
X121754515Y-34190553D01*
X121754520Y-34190559D01*
X121906620Y-34335585D01*
X122001578Y-34396611D01*
X122083428Y-34449213D01*
X122278543Y-34527325D01*
X122381729Y-34547212D01*
X122484914Y-34567100D01*
X122484915Y-34567100D01*
X123442419Y-34567100D01*
X123442425Y-34567100D01*
X123599218Y-34552128D01*
X123800875Y-34492916D01*
X123987682Y-34396611D01*
X124152886Y-34266692D01*
X124290519Y-34107856D01*
X124395604Y-33925844D01*
X124464344Y-33727233D01*
X124494254Y-33519202D01*
X124489243Y-33414001D01*
X146885746Y-33414001D01*
X146895745Y-33623927D01*
X146945296Y-33828178D01*
X146945298Y-33828182D01*
X147032598Y-34019343D01*
X147032601Y-34019348D01*
X147032602Y-34019350D01*
X147032604Y-34019353D01*
X147154514Y-34190552D01*
X147154515Y-34190553D01*
X147154520Y-34190559D01*
X147306620Y-34335585D01*
X147401578Y-34396611D01*
X147483428Y-34449213D01*
X147678543Y-34527325D01*
X147781729Y-34547212D01*
X147884914Y-34567100D01*
X147884915Y-34567100D01*
X148842419Y-34567100D01*
X148842425Y-34567100D01*
X148999218Y-34552128D01*
X149200875Y-34492916D01*
X149387682Y-34396611D01*
X149552886Y-34266692D01*
X149690519Y-34107856D01*
X149795604Y-33925844D01*
X149864344Y-33727233D01*
X149894254Y-33519202D01*
X149884254Y-33309270D01*
X149834704Y-33105024D01*
X149834701Y-33105017D01*
X149747401Y-32913856D01*
X149747398Y-32913851D01*
X149747397Y-32913850D01*
X149747396Y-32913847D01*
X149625486Y-32742648D01*
X149625484Y-32742646D01*
X149625479Y-32742640D01*
X149473379Y-32597614D01*
X149296574Y-32483988D01*
X149101455Y-32405874D01*
X148895086Y-32366100D01*
X148895085Y-32366100D01*
X147937575Y-32366100D01*
X147780782Y-32381072D01*
X147780778Y-32381073D01*
X147579127Y-32440283D01*
X147392313Y-32536591D01*
X147227116Y-32666505D01*
X147227112Y-32666509D01*
X147089478Y-32825346D01*
X146984398Y-33007350D01*
X146915656Y-33205965D01*
X146915656Y-33205967D01*
X146889520Y-33387754D01*
X146885746Y-33414001D01*
X124489243Y-33414001D01*
X124484254Y-33309270D01*
X124434704Y-33105024D01*
X124434701Y-33105017D01*
X124347401Y-32913856D01*
X124347398Y-32913851D01*
X124347397Y-32913850D01*
X124347396Y-32913847D01*
X124225486Y-32742648D01*
X124225484Y-32742646D01*
X124225479Y-32742640D01*
X124073379Y-32597614D01*
X123896574Y-32483988D01*
X123701455Y-32405874D01*
X123495086Y-32366100D01*
X123495085Y-32366100D01*
X122537575Y-32366100D01*
X122380782Y-32381072D01*
X122380778Y-32381073D01*
X122179127Y-32440283D01*
X121992313Y-32536591D01*
X121827116Y-32666505D01*
X121827112Y-32666509D01*
X121689478Y-32825346D01*
X121584398Y-33007350D01*
X121515656Y-33205965D01*
X121515656Y-33205967D01*
X121489520Y-33387754D01*
X121485746Y-33414001D01*
X117551900Y-33414001D01*
X117595318Y-33387754D01*
X117857252Y-33182542D01*
X118092542Y-32947252D01*
X118297754Y-32685318D01*
X118469898Y-32400557D01*
X118606463Y-32097123D01*
X118705456Y-31779441D01*
X118765436Y-31452142D01*
X118785527Y-31120000D01*
X118770647Y-30874001D01*
X121485746Y-30874001D01*
X121495745Y-31083927D01*
X121545296Y-31288178D01*
X121545298Y-31288182D01*
X121632598Y-31479343D01*
X121632601Y-31479348D01*
X121632602Y-31479350D01*
X121632604Y-31479353D01*
X121695627Y-31567856D01*
X121754515Y-31650553D01*
X121754520Y-31650559D01*
X121906620Y-31795585D01*
X122001578Y-31856611D01*
X122083428Y-31909213D01*
X122278543Y-31987325D01*
X122355390Y-32002136D01*
X122484914Y-32027100D01*
X122484915Y-32027100D01*
X123442419Y-32027100D01*
X123442425Y-32027100D01*
X123599218Y-32012128D01*
X123800875Y-31952916D01*
X123987682Y-31856611D01*
X124152886Y-31726692D01*
X124290519Y-31567856D01*
X124395604Y-31385844D01*
X124464344Y-31187233D01*
X124494254Y-30979202D01*
X124489243Y-30874001D01*
X146885746Y-30874001D01*
X146895745Y-31083927D01*
X146945296Y-31288178D01*
X146945298Y-31288182D01*
X147032598Y-31479343D01*
X147032601Y-31479348D01*
X147032602Y-31479350D01*
X147032604Y-31479353D01*
X147095627Y-31567856D01*
X147154515Y-31650553D01*
X147154520Y-31650559D01*
X147306620Y-31795585D01*
X147401578Y-31856611D01*
X147483428Y-31909213D01*
X147678543Y-31987325D01*
X147755390Y-32002136D01*
X147884914Y-32027100D01*
X147884915Y-32027100D01*
X148842419Y-32027100D01*
X148842425Y-32027100D01*
X148999218Y-32012128D01*
X149200875Y-31952916D01*
X149387682Y-31856611D01*
X149552886Y-31726692D01*
X149602099Y-31669896D01*
X149660877Y-31632123D01*
X149695812Y-31627100D01*
X151597628Y-31627100D01*
X154265081Y-31627100D01*
X154332120Y-31646785D01*
X154352762Y-31663419D01*
X157822594Y-35133251D01*
X157856079Y-35194574D01*
X157851095Y-35264266D01*
X157809223Y-35320199D01*
X157743759Y-35344616D01*
X157694650Y-35338213D01*
X157469493Y-35260916D01*
X157224293Y-35220000D01*
X156975707Y-35220000D01*
X156730506Y-35260916D01*
X156495396Y-35341630D01*
X156495390Y-35341632D01*
X156276761Y-35459949D01*
X156229942Y-35496388D01*
X156229942Y-35496390D01*
X156928431Y-36194878D01*
X156811542Y-36245651D01*
X156694261Y-36341066D01*
X156607072Y-36464585D01*
X156576645Y-36550197D01*
X155876564Y-35850116D01*
X155776267Y-36003632D01*
X155676412Y-36231282D01*
X155615387Y-36472261D01*
X155615385Y-36472270D01*
X155594859Y-36719994D01*
X155594859Y-36720005D01*
X155615385Y-36967729D01*
X155615387Y-36967738D01*
X155676412Y-37208717D01*
X155776266Y-37436364D01*
X155876564Y-37589882D01*
X156574070Y-36892376D01*
X156576884Y-36905915D01*
X156646442Y-37040156D01*
X156749638Y-37150652D01*
X156878819Y-37229209D01*
X156930002Y-37243549D01*
X156229942Y-37943609D01*
X156276768Y-37980055D01*
X156276770Y-37980056D01*
X156495385Y-38098364D01*
X156495396Y-38098369D01*
X156730506Y-38179083D01*
X156975707Y-38220000D01*
X157224293Y-38220000D01*
X157469493Y-38179083D01*
X157704603Y-38098369D01*
X157704614Y-38098364D01*
X157923228Y-37980057D01*
X157923231Y-37980055D01*
X157970056Y-37943609D01*
X157271568Y-37245121D01*
X157388458Y-37194349D01*
X157505739Y-37098934D01*
X157592928Y-36975415D01*
X157623354Y-36889802D01*
X158323434Y-37589882D01*
X158423731Y-37436369D01*
X158523587Y-37208717D01*
X158584612Y-36967738D01*
X158584614Y-36967729D01*
X158605141Y-36720005D01*
X158605141Y-36719994D01*
X158584614Y-36472270D01*
X158584612Y-36472261D01*
X158523588Y-36231282D01*
X158478026Y-36127411D01*
X158469123Y-36058111D01*
X158499100Y-35994999D01*
X158558440Y-35958112D01*
X158628302Y-35959163D01*
X158679263Y-35989920D01*
X161228399Y-38539056D01*
X161230935Y-38541750D01*
X161267610Y-38583148D01*
X161272070Y-38588182D01*
X161323106Y-38623410D01*
X161326122Y-38625630D01*
X161352490Y-38646287D01*
X161374943Y-38663878D01*
X161381845Y-38666984D01*
X161384182Y-38668036D01*
X161403733Y-38679063D01*
X161412070Y-38684818D01*
X161470058Y-38706809D01*
X161473496Y-38708234D01*
X161530068Y-38733695D01*
X161540042Y-38735522D01*
X161561656Y-38741548D01*
X161571127Y-38745140D01*
X161632673Y-38752613D01*
X161636370Y-38753175D01*
X161697394Y-38764358D01*
X161752377Y-38761031D01*
X161759303Y-38760613D01*
X161763048Y-38760500D01*
X163158327Y-38760500D01*
X163225366Y-38780185D01*
X163259902Y-38813377D01*
X163319954Y-38899141D01*
X163480858Y-39060045D01*
X163480861Y-39060047D01*
X163667266Y-39190568D01*
X163873504Y-39286739D01*
X164093308Y-39345635D01*
X164255230Y-39359801D01*
X164319998Y-39365468D01*
X164320000Y-39365468D01*
X164320002Y-39365468D01*
X164376673Y-39360509D01*
X164546692Y-39345635D01*
X164766496Y-39286739D01*
X164972734Y-39190568D01*
X165159139Y-39060047D01*
X165320047Y-38899139D01*
X165450568Y-38712734D01*
X165546739Y-38506496D01*
X165605635Y-38286692D01*
X165625468Y-38060000D01*
X165605635Y-37833308D01*
X165546739Y-37613504D01*
X165450568Y-37407266D01*
X165320047Y-37220861D01*
X165320045Y-37220858D01*
X165159141Y-37059954D01*
X164972734Y-36929432D01*
X164972732Y-36929431D01*
X164766497Y-36833261D01*
X164766488Y-36833258D01*
X164546697Y-36774366D01*
X164546693Y-36774365D01*
X164546692Y-36774365D01*
X164546691Y-36774364D01*
X164546686Y-36774364D01*
X164320002Y-36754532D01*
X164319998Y-36754532D01*
X164093313Y-36774364D01*
X164093302Y-36774366D01*
X163873511Y-36833258D01*
X163873502Y-36833261D01*
X163667267Y-36929431D01*
X163667265Y-36929432D01*
X163480858Y-37059954D01*
X163319954Y-37220858D01*
X163259902Y-37306623D01*
X163205325Y-37350248D01*
X163158327Y-37359500D01*
X162081519Y-37359500D01*
X162014480Y-37339815D01*
X161993838Y-37323181D01*
X158596501Y-33925844D01*
X156340657Y-31670000D01*
X159804473Y-31670000D01*
X159824563Y-32002136D01*
X159824563Y-32002141D01*
X159824564Y-32002142D01*
X159884544Y-32329441D01*
X159884545Y-32329445D01*
X159884546Y-32329449D01*
X159983530Y-32647104D01*
X159983534Y-32647116D01*
X159983537Y-32647123D01*
X160120102Y-32950557D01*
X160292246Y-33235318D01*
X160292251Y-33235326D01*
X160497460Y-33497255D01*
X160732744Y-33732539D01*
X160994673Y-33937748D01*
X160994678Y-33937751D01*
X160994682Y-33937754D01*
X161279443Y-34109898D01*
X161582877Y-34246463D01*
X161582890Y-34246467D01*
X161582895Y-34246469D01*
X161794665Y-34312458D01*
X161900559Y-34345456D01*
X162227858Y-34405436D01*
X162405740Y-34416196D01*
X162476892Y-34420500D01*
X162476894Y-34420500D01*
X162643108Y-34420500D01*
X162705365Y-34416734D01*
X162892142Y-34405436D01*
X163219441Y-34345456D01*
X163537123Y-34246463D01*
X163840557Y-34109898D01*
X164125318Y-33937754D01*
X164387252Y-33732542D01*
X164622542Y-33497252D01*
X164827754Y-33235318D01*
X164999898Y-32950557D01*
X165136463Y-32647123D01*
X165235456Y-32329441D01*
X165295436Y-32002142D01*
X165315527Y-31670000D01*
X165295436Y-31337858D01*
X165235456Y-31010559D01*
X165166060Y-30787858D01*
X165136469Y-30692895D01*
X165136467Y-30692890D01*
X165136463Y-30692877D01*
X164999898Y-30389443D01*
X164827754Y-30104682D01*
X164827751Y-30104678D01*
X164827748Y-30104673D01*
X164622539Y-29842744D01*
X164387255Y-29607460D01*
X164125326Y-29402251D01*
X164069935Y-29368766D01*
X163840557Y-29230102D01*
X163537123Y-29093537D01*
X163537116Y-29093534D01*
X163537104Y-29093530D01*
X163219449Y-28994546D01*
X163219445Y-28994545D01*
X163219441Y-28994544D01*
X162892142Y-28934564D01*
X162892141Y-28934563D01*
X162892136Y-28934563D01*
X162643108Y-28919500D01*
X162643106Y-28919500D01*
X162476894Y-28919500D01*
X162476892Y-28919500D01*
X162227863Y-28934563D01*
X162164786Y-28946122D01*
X161900559Y-28994544D01*
X161900556Y-28994544D01*
X161900550Y-28994546D01*
X161582895Y-29093530D01*
X161582879Y-29093536D01*
X161582877Y-29093537D01*
X161389656Y-29180498D01*
X161279447Y-29230100D01*
X161279445Y-29230101D01*
X160994673Y-29402251D01*
X160732744Y-29607460D01*
X160497460Y-29842744D01*
X160292251Y-30104673D01*
X160214080Y-30233984D01*
X160160438Y-30322720D01*
X160120101Y-30389445D01*
X160120100Y-30389447D01*
X160116063Y-30398417D01*
X159995649Y-30665967D01*
X159983536Y-30692880D01*
X159983530Y-30692895D01*
X159884546Y-31010550D01*
X159824563Y-31337863D01*
X159804473Y-31670000D01*
X156340657Y-31670000D01*
X155118198Y-30447541D01*
X155115664Y-30444850D01*
X155074529Y-30398417D01*
X155074528Y-30398416D01*
X155074524Y-30398412D01*
X155023496Y-30363191D01*
X155020487Y-30360977D01*
X154971660Y-30322724D01*
X154971655Y-30322720D01*
X154962413Y-30318561D01*
X154942866Y-30307536D01*
X154934531Y-30301783D01*
X154934532Y-30301783D01*
X154934530Y-30301782D01*
X154876541Y-30279789D01*
X154873090Y-30278359D01*
X154816530Y-30252904D01*
X154806546Y-30251074D01*
X154784943Y-30245051D01*
X154775474Y-30241460D01*
X154775470Y-30241459D01*
X154713913Y-30233984D01*
X154710212Y-30233421D01*
X154649208Y-30222242D01*
X154649203Y-30222242D01*
X154587297Y-30225987D01*
X154583552Y-30226100D01*
X149699724Y-30226100D01*
X149632685Y-30206415D01*
X149614154Y-30191843D01*
X149473376Y-30057612D01*
X149296574Y-29943988D01*
X149101455Y-29865874D01*
X148895086Y-29826100D01*
X148895085Y-29826100D01*
X147937575Y-29826100D01*
X147797842Y-29839443D01*
X147780782Y-29841072D01*
X147780778Y-29841073D01*
X147579127Y-29900283D01*
X147392313Y-29996591D01*
X147227116Y-30126505D01*
X147227112Y-30126509D01*
X147089478Y-30285346D01*
X146984398Y-30467350D01*
X146915656Y-30665965D01*
X146915656Y-30665967D01*
X146898131Y-30787863D01*
X146885746Y-30874001D01*
X124489243Y-30874001D01*
X124484254Y-30769270D01*
X124434704Y-30565024D01*
X124434701Y-30565017D01*
X124347401Y-30373856D01*
X124347398Y-30373851D01*
X124347397Y-30373850D01*
X124347396Y-30373847D01*
X124225486Y-30202648D01*
X124225484Y-30202646D01*
X124225479Y-30202640D01*
X124073379Y-30057614D01*
X123896574Y-29943988D01*
X123701455Y-29865874D01*
X123495086Y-29826100D01*
X123495085Y-29826100D01*
X122537575Y-29826100D01*
X122397842Y-29839443D01*
X122380782Y-29841072D01*
X122380778Y-29841073D01*
X122179127Y-29900283D01*
X121992313Y-29996591D01*
X121827116Y-30126505D01*
X121827112Y-30126509D01*
X121689478Y-30285346D01*
X121584398Y-30467350D01*
X121515656Y-30665965D01*
X121515656Y-30665967D01*
X121498131Y-30787863D01*
X121485746Y-30874001D01*
X118770647Y-30874001D01*
X118765436Y-30787858D01*
X118705456Y-30460559D01*
X118659768Y-30313939D01*
X118606469Y-30142895D01*
X118606467Y-30142890D01*
X118606463Y-30142877D01*
X118469898Y-29839443D01*
X118297754Y-29554682D01*
X118297751Y-29554678D01*
X118297748Y-29554673D01*
X118092539Y-29292744D01*
X117857255Y-29057460D01*
X117827911Y-29034470D01*
X121489500Y-29034470D01*
X121489501Y-29034476D01*
X121495908Y-29094083D01*
X121546202Y-29228928D01*
X121546206Y-29228935D01*
X121632452Y-29344144D01*
X121632455Y-29344147D01*
X121747664Y-29430393D01*
X121747671Y-29430397D01*
X121882517Y-29480691D01*
X121882516Y-29480691D01*
X121889444Y-29481435D01*
X121942127Y-29487100D01*
X124037872Y-29487099D01*
X124097483Y-29480691D01*
X124232331Y-29430396D01*
X124347546Y-29344146D01*
X124433796Y-29228931D01*
X124484091Y-29094083D01*
X124490500Y-29034473D01*
X124490499Y-28136600D01*
X146914632Y-28136600D01*
X148074314Y-28136600D01*
X148062359Y-28148555D01*
X148004835Y-28261452D01*
X147985014Y-28386600D01*
X148004835Y-28511748D01*
X148062359Y-28624645D01*
X148074314Y-28636600D01*
X146918742Y-28636600D01*
X146945770Y-28748009D01*
X147033040Y-28939107D01*
X147154889Y-29110219D01*
X147154895Y-29110225D01*
X147306932Y-29255192D01*
X147483657Y-29368766D01*
X147678685Y-29446844D01*
X147884962Y-29486600D01*
X148140000Y-29486600D01*
X148140000Y-28702286D01*
X148151955Y-28714241D01*
X148264852Y-28771765D01*
X148358519Y-28786600D01*
X148421481Y-28786600D01*
X148515148Y-28771765D01*
X148628045Y-28714241D01*
X148640000Y-28702286D01*
X148640000Y-29486600D01*
X148842398Y-29486600D01*
X148999122Y-29471634D01*
X148999126Y-29471633D01*
X149200686Y-29412450D01*
X149387414Y-29316186D01*
X149552537Y-29186331D01*
X149552540Y-29186328D01*
X149690105Y-29027569D01*
X149690114Y-29027558D01*
X149795144Y-28845639D01*
X149795147Y-28845632D01*
X149863855Y-28647117D01*
X149863855Y-28647115D01*
X149865368Y-28636600D01*
X148705686Y-28636600D01*
X148717641Y-28624645D01*
X148775165Y-28511748D01*
X148794986Y-28386600D01*
X148775165Y-28261452D01*
X148717641Y-28148555D01*
X148705686Y-28136600D01*
X149861257Y-28136600D01*
X149834229Y-28025190D01*
X149746959Y-27834092D01*
X149625110Y-27662980D01*
X149625104Y-27662974D01*
X149473067Y-27518007D01*
X149296342Y-27404433D01*
X149101314Y-27326355D01*
X148895038Y-27286600D01*
X148640000Y-27286600D01*
X148640000Y-28070914D01*
X148628045Y-28058959D01*
X148515148Y-28001435D01*
X148421481Y-27986600D01*
X148358519Y-27986600D01*
X148264852Y-28001435D01*
X148151955Y-28058959D01*
X148140000Y-28070914D01*
X148140000Y-27286600D01*
X147937602Y-27286600D01*
X147780877Y-27301565D01*
X147780873Y-27301566D01*
X147579313Y-27360749D01*
X147392585Y-27457013D01*
X147227462Y-27586868D01*
X147227459Y-27586871D01*
X147089894Y-27745630D01*
X147089885Y-27745641D01*
X146984855Y-27927560D01*
X146984852Y-27927567D01*
X146916144Y-28126082D01*
X146916144Y-28126084D01*
X146914632Y-28136600D01*
X124490499Y-28136600D01*
X124490499Y-27738728D01*
X124484091Y-27679117D01*
X124478072Y-27662980D01*
X124433797Y-27544271D01*
X124433793Y-27544264D01*
X124347547Y-27429055D01*
X124347544Y-27429052D01*
X124232335Y-27342806D01*
X124232328Y-27342802D01*
X124097482Y-27292508D01*
X124097483Y-27292508D01*
X124037883Y-27286101D01*
X124037881Y-27286100D01*
X124037873Y-27286100D01*
X124037864Y-27286100D01*
X121942129Y-27286100D01*
X121942123Y-27286101D01*
X121882516Y-27292508D01*
X121747671Y-27342802D01*
X121747664Y-27342806D01*
X121632455Y-27429052D01*
X121632452Y-27429055D01*
X121546206Y-27544264D01*
X121546202Y-27544271D01*
X121495908Y-27679117D01*
X121489501Y-27738716D01*
X121489501Y-27738723D01*
X121489500Y-27738735D01*
X121489500Y-29034470D01*
X117827911Y-29034470D01*
X117595326Y-28852251D01*
X117595318Y-28852246D01*
X117310557Y-28680102D01*
X117007123Y-28543537D01*
X117007116Y-28543534D01*
X117007104Y-28543530D01*
X116689449Y-28444546D01*
X116689445Y-28444545D01*
X116689441Y-28444544D01*
X116362142Y-28384564D01*
X116362141Y-28384563D01*
X116362136Y-28384563D01*
X116113108Y-28369500D01*
X116113106Y-28369500D01*
X115946894Y-28369500D01*
X115946892Y-28369500D01*
X115697863Y-28384563D01*
X115697858Y-28384564D01*
X115370559Y-28444544D01*
X115370556Y-28444544D01*
X115370550Y-28444546D01*
X115052895Y-28543530D01*
X115052879Y-28543536D01*
X115052877Y-28543537D01*
X114872663Y-28624645D01*
X114749447Y-28680100D01*
X114749445Y-28680101D01*
X114464673Y-28852251D01*
X114202744Y-29057460D01*
X113967460Y-29292744D01*
X113762251Y-29554673D01*
X113590101Y-29839445D01*
X113590100Y-29839447D01*
X113578206Y-29865874D01*
X113460906Y-30126505D01*
X113453536Y-30142880D01*
X113453530Y-30142895D01*
X113354546Y-30460550D01*
X113354544Y-30460556D01*
X113354544Y-30460559D01*
X113316901Y-30665968D01*
X113294563Y-30787863D01*
X113274473Y-31120000D01*
X110460500Y-31120000D01*
X110460500Y-26864500D01*
X110480185Y-26797461D01*
X110532989Y-26751706D01*
X110584500Y-26740500D01*
X167725500Y-26740500D01*
X167792539Y-26760185D01*
G37*
%TD.AperFunction*%
%TD*%
M02*
