M48
; DRILL file {KiCad 7.0.9-1.fc39} date Mon 27 Nov 2023 12:10:36 AM -03
; FORMAT={-:-/ absolute / inch / decimal}
; #@! TF.CreationDate,2023-11-27T00:10:36-03:00
; #@! TF.GenerationSoftware,Kicad,Pcbnew,7.0.9-1.fc39
; #@! TF.FileFunction,Plated,1,2,PTH
FMAT,2
INCH
; #@! TA.AperFunction,Plated,PTH,ComponentDrill
T1C0.0295
; #@! TA.AperFunction,Plated,PTH,ComponentDrill
T2C0.0315
; #@! TA.AperFunction,Plated,PTH,ComponentDrill
T3C0.0354
; #@! TA.AperFunction,Plated,PTH,ComponentDrill
T4C0.0374
; #@! TA.AperFunction,Plated,PTH,ComponentDrill
T5C0.0394
; #@! TA.AperFunction,Plated,PTH,ComponentDrill
T6C0.0433
; #@! TA.AperFunction,Plated,PTH,ComponentDrill
T7C0.0512
; #@! TA.AperFunction,Plated,PTH,ComponentDrill
T8C0.0551
%
G90
G05
T1
X6.0728Y-2.2642
X6.0728Y-2.3142
X6.0728Y-2.3642
T2
X4.6965Y-2.3421
X4.6965Y-2.6421
X4.8421Y-1.1176
X4.8421Y-1.2176
X4.8421Y-1.3176
X4.8421Y-1.4176
X4.8421Y-1.5176
X4.8421Y-1.6176
X4.8421Y-1.7176
X4.8421Y-1.8176
X4.8421Y-1.9176
X4.8421Y-2.0176
X4.8421Y-2.1176
X4.8421Y-2.2176
X4.8421Y-2.3176
X4.8421Y-2.4176
X4.8421Y-2.5176
X4.8421Y-2.6176
X4.8421Y-2.7176
X4.8421Y-2.8176
X4.8421Y-2.9176
X5.2642Y-3.0579
X5.2642Y-3.1366
X5.2685Y-3.3047
X5.2685Y-3.4031
X5.842Y-2.8175
X5.842Y-2.9175
X5.8421Y-1.1176
X5.8421Y-1.2176
X5.8421Y-1.3176
X5.8421Y-1.4176
X5.8421Y-1.5176
X5.8421Y-1.6176
X5.8421Y-1.7176
X5.8421Y-1.8176
X5.8421Y-1.9176
X5.8421Y-2.0176
X5.8421Y-2.1176
X5.8421Y-2.2176
X5.8421Y-2.3176
X5.8421Y-2.4176
X5.8421Y-2.5176
X5.8421Y-2.6176
X5.8421Y-2.7176
X6.0445Y-1.8571
X6.3445Y-1.8571
X6.4693Y-1.4984
X6.4693Y-1.7984
T3
X6.1378Y-2.0165
X6.1378Y-2.1165
T4
X4.4579Y-2.274
X4.4579Y-2.3724
X4.4579Y-2.4709
T5
X4.4705Y-1.5177
X4.4705Y-1.7335
X4.4705Y-1.9575
X4.5689Y-1.5177
X4.5689Y-1.7335
X4.5689Y-1.9575
T6
X5.0244Y-3.1252
X5.0244Y-3.2252
X5.0244Y-3.3252
X6.0079Y-1.4457
X6.0079Y-1.7016
X6.0228Y-2.5469
X6.185Y-1.4457
X6.185Y-1.7016
X6.3228Y-2.5469
T7
X6.0169Y-2.8413
X6.0169Y-3.3217
X6.2531Y-2.7626
X6.4894Y-2.8413
X6.4894Y-3.3217
T8
X4.5287Y-3.335
X4.7256Y-3.335
X5.5689Y-3.335
X5.7657Y-3.335
T0
M30
