%TF.GenerationSoftware,KiCad,Pcbnew,7.0.9-1.fc39*%
%TF.CreationDate,2023-11-27T01:07:48-03:00*%
%TF.ProjectId,TapBeerFlowControl_hardware,54617042-6565-4724-966c-6f77436f6e74,rev?*%
%TF.SameCoordinates,Original*%
%TF.FileFunction,Copper,L1,Top*%
%TF.FilePolarity,Positive*%
%FSLAX46Y46*%
G04 Gerber Fmt 4.6, Leading zero omitted, Abs format (unit mm)*
G04 Created by KiCad (PCBNEW 7.0.9-1.fc39) date 2023-11-27 01:07:48*
%MOMM*%
%LPD*%
G01*
G04 APERTURE LIST*
G04 Aperture macros list*
%AMRoundRect*
0 Rectangle with rounded corners*
0 $1 Rounding radius*
0 $2 $3 $4 $5 $6 $7 $8 $9 X,Y pos of 4 corners*
0 Add a 4 corners polygon primitive as box body*
4,1,4,$2,$3,$4,$5,$6,$7,$8,$9,$2,$3,0*
0 Add four circle primitives for the rounded corners*
1,1,$1+$1,$2,$3*
1,1,$1+$1,$4,$5*
1,1,$1+$1,$6,$7*
1,1,$1+$1,$8,$9*
0 Add four rect primitives between the rounded corners*
20,1,$1+$1,$2,$3,$4,$5,0*
20,1,$1+$1,$4,$5,$6,$7,0*
20,1,$1+$1,$6,$7,$8,$9,0*
20,1,$1+$1,$8,$9,$2,$3,0*%
G04 Aperture macros list end*
%TA.AperFunction,ComponentPad*%
%ADD10R,1.950000X1.950000*%
%TD*%
%TA.AperFunction,ComponentPad*%
%ADD11C,1.950000*%
%TD*%
%TA.AperFunction,ComponentPad*%
%ADD12C,2.100000*%
%TD*%
%TA.AperFunction,ComponentPad*%
%ADD13RoundRect,0.250000X-0.725000X0.600000X-0.725000X-0.600000X0.725000X-0.600000X0.725000X0.600000X0*%
%TD*%
%TA.AperFunction,ComponentPad*%
%ADD14O,1.950000X1.700000*%
%TD*%
%TA.AperFunction,ComponentPad*%
%ADD15R,1.905000X2.000000*%
%TD*%
%TA.AperFunction,ComponentPad*%
%ADD16O,1.905000X2.000000*%
%TD*%
%TA.AperFunction,ComponentPad*%
%ADD17R,2.200000X2.200000*%
%TD*%
%TA.AperFunction,ComponentPad*%
%ADD18O,2.200000X2.200000*%
%TD*%
%TA.AperFunction,ComponentPad*%
%ADD19C,1.600000*%
%TD*%
%TA.AperFunction,ComponentPad*%
%ADD20O,1.600000X1.600000*%
%TD*%
%TA.AperFunction,ComponentPad*%
%ADD21R,1.500000X1.050000*%
%TD*%
%TA.AperFunction,ComponentPad*%
%ADD22O,1.500000X1.050000*%
%TD*%
%TA.AperFunction,ComponentPad*%
%ADD23C,2.000000*%
%TD*%
%TA.AperFunction,ComponentPad*%
%ADD24R,1.800000X1.800000*%
%TD*%
%TA.AperFunction,ComponentPad*%
%ADD25C,1.800000*%
%TD*%
%TA.AperFunction,ComponentPad*%
%ADD26RoundRect,0.250000X-0.600000X-0.750000X0.600000X-0.750000X0.600000X0.750000X-0.600000X0.750000X0*%
%TD*%
%TA.AperFunction,ComponentPad*%
%ADD27O,1.700000X2.000000*%
%TD*%
%TA.AperFunction,ComponentPad*%
%ADD28R,2.000000X1.200000*%
%TD*%
%TA.AperFunction,ComponentPad*%
%ADD29O,2.000000X1.200000*%
%TD*%
G04 APERTURE END LIST*
D10*
%TO.P,K1,1,COM*%
%TO.N,+12V*%
X160610000Y-70700000D03*
D11*
%TO.P,K1,2,COIL_1*%
%TO.N,+5V*%
X154610000Y-72700000D03*
%TO.P,K1,3,N/O*%
%TO.N,Net-(J6-Pin_2)*%
X154610000Y-84900000D03*
%TO.P,K1,4,NC*%
%TO.N,unconnected-(K1-NC-Pad4)*%
X166610000Y-84900000D03*
%TO.P,K1,5,COIL_2*%
%TO.N,Net-(D2-A)*%
X166610000Y-72700000D03*
%TD*%
D12*
%TO.P,J6,1,Pin_1*%
%TO.N,GND*%
X143550000Y-84710000D03*
%TO.P,J6,2,Pin_2*%
%TO.N,Net-(J6-Pin_2)*%
X148550000Y-84710000D03*
%TD*%
D13*
%TO.P,J2,1,Pin_1*%
%TO.N,GND*%
X113300000Y-55100000D03*
D14*
%TO.P,J2,2,Pin_2*%
%TO.N,Net-(J2-Pin_2)*%
X113300000Y-57600000D03*
%TO.P,J2,3,Pin_3*%
%TO.N,+5V*%
X113300000Y-60100000D03*
%TD*%
D15*
%TO.P,U1,1,VI*%
%TO.N,+12V*%
X113180000Y-77610000D03*
D16*
%TO.P,U1,2,GND*%
%TO.N,GND*%
X115720000Y-77610000D03*
%TO.P,U1,3,VO*%
%TO.N,+5V*%
X118260000Y-77610000D03*
%TD*%
D17*
%TO.P,D2,1,K*%
%TO.N,+5V*%
X152980000Y-64690000D03*
D18*
%TO.P,D2,2,A*%
%TO.N,Net-(D2-A)*%
X160600000Y-64690000D03*
%TD*%
D19*
%TO.P,R3,1*%
%TO.N,GND*%
X161150000Y-47170000D03*
D20*
%TO.P,R3,2*%
%TO.N,Net-(D1-K)*%
X153530000Y-47170000D03*
%TD*%
D19*
%TO.P,C2,1*%
%TO.N,+5V*%
X124840000Y-76980000D03*
%TO.P,C2,2*%
%TO.N,GND*%
X124840000Y-78980000D03*
%TD*%
D12*
%TO.P,J1,1,Pin_1*%
%TO.N,GND*%
X114020000Y-84670000D03*
%TO.P,J1,2,Pin_2*%
%TO.N,+12V*%
X119020000Y-84670000D03*
%TD*%
D21*
%TO.P,Q1,1,C*%
%TO.N,Net-(D2-A)*%
X154250000Y-60050000D03*
D22*
%TO.P,Q1,2,B*%
%TO.N,Net-(Q1-B)*%
X154250000Y-58780000D03*
%TO.P,Q1,3,E*%
%TO.N,GND*%
X154250000Y-57510000D03*
%TD*%
D23*
%TO.P,SW1,1*%
%TO.N,Net-(U2-GPIO5)*%
X152600000Y-43220000D03*
X152600000Y-36720000D03*
%TO.P,SW1,2*%
%TO.N,GND*%
X157100000Y-43220000D03*
X157100000Y-36720000D03*
%TD*%
D19*
%TO.P,C1,1*%
%TO.N,+12V*%
X125940000Y-86480000D03*
%TO.P,C1,2*%
%TO.N,GND*%
X125940000Y-83980000D03*
%TD*%
D24*
%TO.P,D1,1,K*%
%TO.N,Net-(D1-K)*%
X155900000Y-51220000D03*
D25*
%TO.P,D1,2,A*%
%TO.N,Net-(D1-A)*%
X155900000Y-53760000D03*
%TD*%
D26*
%TO.P,J5,1,Pin_1*%
%TO.N,GND*%
X113500000Y-48780000D03*
D27*
%TO.P,J5,2,Pin_2*%
%TO.N,/SEL3*%
X116000000Y-48780000D03*
%TD*%
D19*
%TO.P,R1,1*%
%TO.N,Net-(J2-Pin_2)*%
X118430000Y-54080000D03*
D20*
%TO.P,R1,2*%
%TO.N,GND*%
X118430000Y-61700000D03*
%TD*%
D26*
%TO.P,J4,1,Pin_1*%
%TO.N,GND*%
X113520000Y-43560000D03*
D27*
%TO.P,J4,2,Pin_2*%
%TO.N,/SEL2*%
X116020000Y-43560000D03*
%TD*%
D28*
%TO.P,U2,1,3V3*%
%TO.N,unconnected-(U2-3V3-Pad1)*%
X122290000Y-28020000D03*
D29*
%TO.P,U2,2,CHIP_PU*%
%TO.N,unconnected-(U2-CHIP_PU-Pad2)*%
X122290000Y-30560000D03*
%TO.P,U2,3,SENSOR_VP/GPIO36/ADC1_CH0*%
%TO.N,unconnected-(U2-SENSOR_VP{slash}GPIO36{slash}ADC1_CH0-Pad3)*%
X122290000Y-33100000D03*
%TO.P,U2,4,SENSOR_VN/GPIO39/ADC1_CH3*%
%TO.N,unconnected-(U2-SENSOR_VN{slash}GPIO39{slash}ADC1_CH3-Pad4)*%
X122290000Y-35640000D03*
%TO.P,U2,5,VDET_1/GPIO34/ADC1_CH6*%
%TO.N,unconnected-(U2-VDET_1{slash}GPIO34{slash}ADC1_CH6-Pad5)*%
X122290000Y-38180000D03*
%TO.P,U2,6,VDET_2/GPIO35/ADC1_CH7*%
%TO.N,unconnected-(U2-VDET_2{slash}GPIO35{slash}ADC1_CH7-Pad6)*%
X122290000Y-40720000D03*
%TO.P,U2,7,32K_XP/GPIO32/ADC1_CH4*%
%TO.N,/SEL1*%
X122290000Y-43260000D03*
%TO.P,U2,8,32K_XN/GPIO33/ADC1_CH5*%
%TO.N,/SEL2*%
X122290000Y-45800000D03*
%TO.P,U2,9,DAC_1/ADC2_CH8/GPIO25*%
%TO.N,/SEL3*%
X122290000Y-48340000D03*
%TO.P,U2,10,DAC_2/ADC2_CH9/GPIO26*%
%TO.N,unconnected-(U2-DAC_2{slash}ADC2_CH9{slash}GPIO26-Pad10)*%
X122290000Y-50880000D03*
%TO.P,U2,11,ADC2_CH7/GPIO27*%
%TO.N,Net-(J2-Pin_2)*%
X122290000Y-53420000D03*
%TO.P,U2,12,MTMS/GPIO14/ADC2_CH6*%
%TO.N,unconnected-(U2-MTMS{slash}GPIO14{slash}ADC2_CH6-Pad12)*%
X122290000Y-55960000D03*
%TO.P,U2,13,MTDI/GPIO12/ADC2_CH5*%
%TO.N,unconnected-(U2-MTDI{slash}GPIO12{slash}ADC2_CH5-Pad13)*%
X122290000Y-58500000D03*
%TO.P,U2,14,GND*%
%TO.N,GND*%
X122290000Y-61040000D03*
%TO.P,U2,15,MTCK/GPIO13/ADC2_CH4*%
%TO.N,unconnected-(U2-MTCK{slash}GPIO13{slash}ADC2_CH4-Pad15)*%
X122290000Y-63580000D03*
%TO.P,U2,16,SD_DATA2/GPIO9*%
%TO.N,unconnected-(U2-SD_DATA2{slash}GPIO9-Pad16)*%
X122290000Y-66120000D03*
%TO.P,U2,17,SD_DATA3/GPIO10*%
%TO.N,unconnected-(U2-SD_DATA3{slash}GPIO10-Pad17)*%
X122290000Y-68660000D03*
%TO.P,U2,18,CMD*%
%TO.N,unconnected-(U2-CMD-Pad18)*%
X122290000Y-71200000D03*
%TO.P,U2,19,5V*%
%TO.N,+5V*%
X122290000Y-73740000D03*
%TO.P,U2,20,SD_CLK/GPIO6*%
%TO.N,unconnected-(U2-SD_CLK{slash}GPIO6-Pad20)*%
X147686320Y-73737280D03*
%TO.P,U2,21,SD_DATA0/GPIO7*%
%TO.N,unconnected-(U2-SD_DATA0{slash}GPIO7-Pad21)*%
X147686320Y-71197280D03*
%TO.P,U2,22,SD_DATA1/GPIO8*%
%TO.N,unconnected-(U2-SD_DATA1{slash}GPIO8-Pad22)*%
X147690000Y-68660000D03*
%TO.P,U2,23,MTDO/GPIO15/ADC2_CH3*%
%TO.N,unconnected-(U2-MTDO{slash}GPIO15{slash}ADC2_CH3-Pad23)*%
X147690000Y-66120000D03*
%TO.P,U2,24,ADC2_CH2/GPIO2*%
%TO.N,unconnected-(U2-ADC2_CH2{slash}GPIO2-Pad24)*%
X147690000Y-63580000D03*
%TO.P,U2,25,GPIO0/BOOT/ADC2_CH1*%
%TO.N,unconnected-(U2-GPIO0{slash}BOOT{slash}ADC2_CH1-Pad25)*%
X147690000Y-61040000D03*
%TO.P,U2,26,ADC2_CH0/GPIO4*%
%TO.N,unconnected-(U2-ADC2_CH0{slash}GPIO4-Pad26)*%
X147690000Y-58500000D03*
%TO.P,U2,27,GPIO16*%
%TO.N,unconnected-(U2-GPIO16-Pad27)*%
X147690000Y-55960000D03*
%TO.P,U2,28,GPIO17*%
%TO.N,Net-(D1-A)*%
X147690000Y-53420000D03*
%TO.P,U2,29,GPIO5*%
%TO.N,Net-(U2-GPIO5)*%
X147690000Y-50880000D03*
%TO.P,U2,30,GPIO18*%
%TO.N,unconnected-(U2-GPIO18-Pad30)*%
X147690000Y-48340000D03*
%TO.P,U2,31,GPIO19*%
%TO.N,unconnected-(U2-GPIO19-Pad31)*%
X147690000Y-45800000D03*
%TO.P,U2,32,GND*%
%TO.N,GND*%
X147690000Y-43260000D03*
%TO.P,U2,33,GPIO21*%
%TO.N,unconnected-(U2-GPIO21-Pad33)*%
X147690000Y-40720000D03*
%TO.P,U2,34,U0RXD/GPIO3*%
%TO.N,unconnected-(U2-U0RXD{slash}GPIO3-Pad34)*%
X147690000Y-38180000D03*
%TO.P,U2,35,U0TXD/GPIO1*%
%TO.N,unconnected-(U2-U0TXD{slash}GPIO1-Pad35)*%
X147690000Y-35640000D03*
%TO.P,U2,36,GPIO22*%
%TO.N,unconnected-(U2-GPIO22-Pad36)*%
X147690000Y-33100000D03*
%TO.P,U2,37,GPIO23*%
%TO.N,Net-(U2-GPIO23)*%
X147690000Y-30560000D03*
%TO.P,U2,38,GND*%
%TO.N,GND*%
X147690000Y-28020000D03*
%TD*%
D26*
%TO.P,J3,1,Pin_1*%
%TO.N,GND*%
X113550000Y-38550000D03*
D27*
%TO.P,J3,2,Pin_2*%
%TO.N,/SEL1*%
X116050000Y-38550000D03*
%TD*%
D19*
%TO.P,R2,1*%
%TO.N,Net-(U2-GPIO23)*%
X164320000Y-38060000D03*
D20*
%TO.P,R2,2*%
%TO.N,Net-(Q1-B)*%
X164320000Y-45680000D03*
%TD*%
M02*
