%TF.GenerationSoftware,KiCad,Pcbnew,7.0.9-1.fc39*%
%TF.CreationDate,2023-11-27T01:07:48-03:00*%
%TF.ProjectId,TapBeerFlowControl_hardware,54617042-6565-4724-966c-6f77436f6e74,rev?*%
%TF.SameCoordinates,Original*%
%TF.FileFunction,Copper,L2,Bot*%
%TF.FilePolarity,Positive*%
%FSLAX46Y46*%
G04 Gerber Fmt 4.6, Leading zero omitted, Abs format (unit mm)*
G04 Created by KiCad (PCBNEW 7.0.9-1.fc39) date 2023-11-27 01:07:48*
%MOMM*%
%LPD*%
G01*
G04 APERTURE LIST*
G04 Aperture macros list*
%AMRoundRect*
0 Rectangle with rounded corners*
0 $1 Rounding radius*
0 $2 $3 $4 $5 $6 $7 $8 $9 X,Y pos of 4 corners*
0 Add a 4 corners polygon primitive as box body*
4,1,4,$2,$3,$4,$5,$6,$7,$8,$9,$2,$3,0*
0 Add four circle primitives for the rounded corners*
1,1,$1+$1,$2,$3*
1,1,$1+$1,$4,$5*
1,1,$1+$1,$6,$7*
1,1,$1+$1,$8,$9*
0 Add four rect primitives between the rounded corners*
20,1,$1+$1,$2,$3,$4,$5,0*
20,1,$1+$1,$4,$5,$6,$7,0*
20,1,$1+$1,$6,$7,$8,$9,0*
20,1,$1+$1,$8,$9,$2,$3,0*%
G04 Aperture macros list end*
%TA.AperFunction,ComponentPad*%
%ADD10R,1.950000X1.950000*%
%TD*%
%TA.AperFunction,ComponentPad*%
%ADD11C,1.950000*%
%TD*%
%TA.AperFunction,ComponentPad*%
%ADD12C,2.100000*%
%TD*%
%TA.AperFunction,ComponentPad*%
%ADD13RoundRect,0.250000X-0.725000X0.600000X-0.725000X-0.600000X0.725000X-0.600000X0.725000X0.600000X0*%
%TD*%
%TA.AperFunction,ComponentPad*%
%ADD14O,1.950000X1.700000*%
%TD*%
%TA.AperFunction,ComponentPad*%
%ADD15R,1.905000X2.000000*%
%TD*%
%TA.AperFunction,ComponentPad*%
%ADD16O,1.905000X2.000000*%
%TD*%
%TA.AperFunction,ComponentPad*%
%ADD17R,2.200000X2.200000*%
%TD*%
%TA.AperFunction,ComponentPad*%
%ADD18O,2.200000X2.200000*%
%TD*%
%TA.AperFunction,ComponentPad*%
%ADD19C,1.600000*%
%TD*%
%TA.AperFunction,ComponentPad*%
%ADD20O,1.600000X1.600000*%
%TD*%
%TA.AperFunction,ComponentPad*%
%ADD21R,1.500000X1.050000*%
%TD*%
%TA.AperFunction,ComponentPad*%
%ADD22O,1.500000X1.050000*%
%TD*%
%TA.AperFunction,ComponentPad*%
%ADD23C,2.000000*%
%TD*%
%TA.AperFunction,ComponentPad*%
%ADD24R,1.800000X1.800000*%
%TD*%
%TA.AperFunction,ComponentPad*%
%ADD25C,1.800000*%
%TD*%
%TA.AperFunction,ComponentPad*%
%ADD26RoundRect,0.250000X-0.600000X-0.750000X0.600000X-0.750000X0.600000X0.750000X-0.600000X0.750000X0*%
%TD*%
%TA.AperFunction,ComponentPad*%
%ADD27O,1.700000X2.000000*%
%TD*%
%TA.AperFunction,ComponentPad*%
%ADD28R,2.000000X1.200000*%
%TD*%
%TA.AperFunction,ComponentPad*%
%ADD29O,2.000000X1.200000*%
%TD*%
%TA.AperFunction,Conductor*%
%ADD30C,0.500000*%
%TD*%
G04 APERTURE END LIST*
D10*
%TO.P,K1,1,COM*%
%TO.N,+12V*%
X160610000Y-70700000D03*
D11*
%TO.P,K1,2,COIL_1*%
%TO.N,+5V*%
X154610000Y-72700000D03*
%TO.P,K1,3,N/O*%
%TO.N,Net-(J6-Pin_2)*%
X154610000Y-84900000D03*
%TO.P,K1,4,NC*%
%TO.N,unconnected-(K1-NC-Pad4)*%
X166610000Y-84900000D03*
%TO.P,K1,5,COIL_2*%
%TO.N,Net-(D2-A)*%
X166610000Y-72700000D03*
%TD*%
D12*
%TO.P,J6,1,Pin_1*%
%TO.N,GND*%
X143550000Y-84710000D03*
%TO.P,J6,2,Pin_2*%
%TO.N,Net-(J6-Pin_2)*%
X148550000Y-84710000D03*
%TD*%
D13*
%TO.P,J2,1,Pin_1*%
%TO.N,GND*%
X113300000Y-55100000D03*
D14*
%TO.P,J2,2,Pin_2*%
%TO.N,Net-(J2-Pin_2)*%
X113300000Y-57600000D03*
%TO.P,J2,3,Pin_3*%
%TO.N,+5V*%
X113300000Y-60100000D03*
%TD*%
D15*
%TO.P,U1,1,VI*%
%TO.N,+12V*%
X113180000Y-77610000D03*
D16*
%TO.P,U1,2,GND*%
%TO.N,GND*%
X115720000Y-77610000D03*
%TO.P,U1,3,VO*%
%TO.N,+5V*%
X118260000Y-77610000D03*
%TD*%
D17*
%TO.P,D2,1,K*%
%TO.N,+5V*%
X152980000Y-64690000D03*
D18*
%TO.P,D2,2,A*%
%TO.N,Net-(D2-A)*%
X160600000Y-64690000D03*
%TD*%
D19*
%TO.P,R3,1*%
%TO.N,GND*%
X161150000Y-47170000D03*
D20*
%TO.P,R3,2*%
%TO.N,Net-(D1-K)*%
X153530000Y-47170000D03*
%TD*%
D19*
%TO.P,C2,1*%
%TO.N,+5V*%
X124840000Y-76980000D03*
%TO.P,C2,2*%
%TO.N,GND*%
X124840000Y-78980000D03*
%TD*%
D12*
%TO.P,J1,1,Pin_1*%
%TO.N,GND*%
X114020000Y-84670000D03*
%TO.P,J1,2,Pin_2*%
%TO.N,+12V*%
X119020000Y-84670000D03*
%TD*%
D21*
%TO.P,Q1,1,C*%
%TO.N,Net-(D2-A)*%
X154250000Y-60050000D03*
D22*
%TO.P,Q1,2,B*%
%TO.N,Net-(Q1-B)*%
X154250000Y-58780000D03*
%TO.P,Q1,3,E*%
%TO.N,GND*%
X154250000Y-57510000D03*
%TD*%
D23*
%TO.P,SW1,1*%
%TO.N,Net-(U2-GPIO5)*%
X152600000Y-43220000D03*
X152600000Y-36720000D03*
%TO.P,SW1,2*%
%TO.N,GND*%
X157100000Y-43220000D03*
X157100000Y-36720000D03*
%TD*%
D19*
%TO.P,C1,1*%
%TO.N,+12V*%
X125940000Y-86480000D03*
%TO.P,C1,2*%
%TO.N,GND*%
X125940000Y-83980000D03*
%TD*%
D24*
%TO.P,D1,1,K*%
%TO.N,Net-(D1-K)*%
X155900000Y-51220000D03*
D25*
%TO.P,D1,2,A*%
%TO.N,Net-(D1-A)*%
X155900000Y-53760000D03*
%TD*%
D26*
%TO.P,J5,1,Pin_1*%
%TO.N,GND*%
X113500000Y-48780000D03*
D27*
%TO.P,J5,2,Pin_2*%
%TO.N,/SEL3*%
X116000000Y-48780000D03*
%TD*%
D19*
%TO.P,R1,1*%
%TO.N,Net-(J2-Pin_2)*%
X118430000Y-54080000D03*
D20*
%TO.P,R1,2*%
%TO.N,GND*%
X118430000Y-61700000D03*
%TD*%
D26*
%TO.P,J4,1,Pin_1*%
%TO.N,GND*%
X113520000Y-43560000D03*
D27*
%TO.P,J4,2,Pin_2*%
%TO.N,/SEL2*%
X116020000Y-43560000D03*
%TD*%
D28*
%TO.P,U2,1,3V3*%
%TO.N,unconnected-(U2-3V3-Pad1)*%
X122290000Y-28020000D03*
D29*
%TO.P,U2,2,CHIP_PU*%
%TO.N,unconnected-(U2-CHIP_PU-Pad2)*%
X122290000Y-30560000D03*
%TO.P,U2,3,SENSOR_VP/GPIO36/ADC1_CH0*%
%TO.N,unconnected-(U2-SENSOR_VP{slash}GPIO36{slash}ADC1_CH0-Pad3)*%
X122290000Y-33100000D03*
%TO.P,U2,4,SENSOR_VN/GPIO39/ADC1_CH3*%
%TO.N,unconnected-(U2-SENSOR_VN{slash}GPIO39{slash}ADC1_CH3-Pad4)*%
X122290000Y-35640000D03*
%TO.P,U2,5,VDET_1/GPIO34/ADC1_CH6*%
%TO.N,unconnected-(U2-VDET_1{slash}GPIO34{slash}ADC1_CH6-Pad5)*%
X122290000Y-38180000D03*
%TO.P,U2,6,VDET_2/GPIO35/ADC1_CH7*%
%TO.N,unconnected-(U2-VDET_2{slash}GPIO35{slash}ADC1_CH7-Pad6)*%
X122290000Y-40720000D03*
%TO.P,U2,7,32K_XP/GPIO32/ADC1_CH4*%
%TO.N,/SEL1*%
X122290000Y-43260000D03*
%TO.P,U2,8,32K_XN/GPIO33/ADC1_CH5*%
%TO.N,/SEL2*%
X122290000Y-45800000D03*
%TO.P,U2,9,DAC_1/ADC2_CH8/GPIO25*%
%TO.N,/SEL3*%
X122290000Y-48340000D03*
%TO.P,U2,10,DAC_2/ADC2_CH9/GPIO26*%
%TO.N,unconnected-(U2-DAC_2{slash}ADC2_CH9{slash}GPIO26-Pad10)*%
X122290000Y-50880000D03*
%TO.P,U2,11,ADC2_CH7/GPIO27*%
%TO.N,Net-(J2-Pin_2)*%
X122290000Y-53420000D03*
%TO.P,U2,12,MTMS/GPIO14/ADC2_CH6*%
%TO.N,unconnected-(U2-MTMS{slash}GPIO14{slash}ADC2_CH6-Pad12)*%
X122290000Y-55960000D03*
%TO.P,U2,13,MTDI/GPIO12/ADC2_CH5*%
%TO.N,unconnected-(U2-MTDI{slash}GPIO12{slash}ADC2_CH5-Pad13)*%
X122290000Y-58500000D03*
%TO.P,U2,14,GND*%
%TO.N,GND*%
X122290000Y-61040000D03*
%TO.P,U2,15,MTCK/GPIO13/ADC2_CH4*%
%TO.N,unconnected-(U2-MTCK{slash}GPIO13{slash}ADC2_CH4-Pad15)*%
X122290000Y-63580000D03*
%TO.P,U2,16,SD_DATA2/GPIO9*%
%TO.N,unconnected-(U2-SD_DATA2{slash}GPIO9-Pad16)*%
X122290000Y-66120000D03*
%TO.P,U2,17,SD_DATA3/GPIO10*%
%TO.N,unconnected-(U2-SD_DATA3{slash}GPIO10-Pad17)*%
X122290000Y-68660000D03*
%TO.P,U2,18,CMD*%
%TO.N,unconnected-(U2-CMD-Pad18)*%
X122290000Y-71200000D03*
%TO.P,U2,19,5V*%
%TO.N,+5V*%
X122290000Y-73740000D03*
%TO.P,U2,20,SD_CLK/GPIO6*%
%TO.N,unconnected-(U2-SD_CLK{slash}GPIO6-Pad20)*%
X147686320Y-73737280D03*
%TO.P,U2,21,SD_DATA0/GPIO7*%
%TO.N,unconnected-(U2-SD_DATA0{slash}GPIO7-Pad21)*%
X147686320Y-71197280D03*
%TO.P,U2,22,SD_DATA1/GPIO8*%
%TO.N,unconnected-(U2-SD_DATA1{slash}GPIO8-Pad22)*%
X147690000Y-68660000D03*
%TO.P,U2,23,MTDO/GPIO15/ADC2_CH3*%
%TO.N,unconnected-(U2-MTDO{slash}GPIO15{slash}ADC2_CH3-Pad23)*%
X147690000Y-66120000D03*
%TO.P,U2,24,ADC2_CH2/GPIO2*%
%TO.N,unconnected-(U2-ADC2_CH2{slash}GPIO2-Pad24)*%
X147690000Y-63580000D03*
%TO.P,U2,25,GPIO0/BOOT/ADC2_CH1*%
%TO.N,unconnected-(U2-GPIO0{slash}BOOT{slash}ADC2_CH1-Pad25)*%
X147690000Y-61040000D03*
%TO.P,U2,26,ADC2_CH0/GPIO4*%
%TO.N,unconnected-(U2-ADC2_CH0{slash}GPIO4-Pad26)*%
X147690000Y-58500000D03*
%TO.P,U2,27,GPIO16*%
%TO.N,unconnected-(U2-GPIO16-Pad27)*%
X147690000Y-55960000D03*
%TO.P,U2,28,GPIO17*%
%TO.N,Net-(D1-A)*%
X147690000Y-53420000D03*
%TO.P,U2,29,GPIO5*%
%TO.N,Net-(U2-GPIO5)*%
X147690000Y-50880000D03*
%TO.P,U2,30,GPIO18*%
%TO.N,unconnected-(U2-GPIO18-Pad30)*%
X147690000Y-48340000D03*
%TO.P,U2,31,GPIO19*%
%TO.N,unconnected-(U2-GPIO19-Pad31)*%
X147690000Y-45800000D03*
%TO.P,U2,32,GND*%
%TO.N,GND*%
X147690000Y-43260000D03*
%TO.P,U2,33,GPIO21*%
%TO.N,unconnected-(U2-GPIO21-Pad33)*%
X147690000Y-40720000D03*
%TO.P,U2,34,U0RXD/GPIO3*%
%TO.N,unconnected-(U2-U0RXD{slash}GPIO3-Pad34)*%
X147690000Y-38180000D03*
%TO.P,U2,35,U0TXD/GPIO1*%
%TO.N,unconnected-(U2-U0TXD{slash}GPIO1-Pad35)*%
X147690000Y-35640000D03*
%TO.P,U2,36,GPIO22*%
%TO.N,unconnected-(U2-GPIO22-Pad36)*%
X147690000Y-33100000D03*
%TO.P,U2,37,GPIO23*%
%TO.N,Net-(U2-GPIO23)*%
X147690000Y-30560000D03*
%TO.P,U2,38,GND*%
%TO.N,GND*%
X147690000Y-28020000D03*
%TD*%
D26*
%TO.P,J3,1,Pin_1*%
%TO.N,GND*%
X113550000Y-38550000D03*
D27*
%TO.P,J3,2,Pin_2*%
%TO.N,/SEL1*%
X116050000Y-38550000D03*
%TD*%
D19*
%TO.P,R2,1*%
%TO.N,Net-(U2-GPIO23)*%
X164320000Y-38060000D03*
D20*
%TO.P,R2,2*%
%TO.N,Net-(Q1-B)*%
X164320000Y-45680000D03*
%TD*%
D30*
%TO.N,Net-(U2-GPIO23)*%
X164320000Y-38060000D02*
X163100000Y-38060000D01*
X163100000Y-38060000D02*
X155600000Y-30560000D01*
X155600000Y-30560000D02*
X147690000Y-30560000D01*
%TO.N,Net-(U2-GPIO5)*%
X152600000Y-36720000D02*
X152600000Y-43220000D01*
X148800000Y-50880000D02*
X150560000Y-49120000D01*
X147690000Y-50880000D02*
X148800000Y-50880000D01*
X150560000Y-49120000D02*
X150560000Y-45260000D01*
X150560000Y-45260000D02*
X152600000Y-43220000D01*
%TO.N,Net-(D1-K)*%
X155900000Y-51220000D02*
X155900000Y-49540000D01*
X155900000Y-49540000D02*
X153530000Y-47170000D01*
%TO.N,Net-(D1-A)*%
X155900000Y-53760000D02*
X148030000Y-53760000D01*
X148030000Y-53760000D02*
X147690000Y-53420000D01*
%TO.N,Net-(Q1-B)*%
X154250000Y-58780000D02*
X155500000Y-58780000D01*
X155500000Y-58780000D02*
X164320000Y-49960000D01*
X164320000Y-49960000D02*
X164320000Y-45680000D01*
%TO.N,Net-(D2-A)*%
X154250000Y-60050000D02*
X155960000Y-60050000D01*
X155960000Y-60050000D02*
X160600000Y-64690000D01*
X166610000Y-72700000D02*
X166610000Y-70700000D01*
X166610000Y-70700000D02*
X160600000Y-64690000D01*
%TO.N,+5V*%
X154610000Y-72700000D02*
X154610000Y-66320000D01*
X154610000Y-66320000D02*
X152980000Y-64690000D01*
%TO.N,Net-(J6-Pin_2)*%
X148550000Y-84710000D02*
X154420000Y-84710000D01*
X154420000Y-84710000D02*
X154610000Y-84900000D01*
%TO.N,+12V*%
X127040000Y-87580000D02*
X157960000Y-87580000D01*
X157960000Y-87580000D02*
X160610000Y-84930000D01*
X125940000Y-86480000D02*
X127040000Y-87580000D01*
X160610000Y-84930000D02*
X160610000Y-70700000D01*
%TO.N,+5V*%
X124840000Y-76980000D02*
X150330000Y-76980000D01*
X150330000Y-76980000D02*
X154610000Y-72700000D01*
X122290000Y-73740000D02*
X122290000Y-74430000D01*
X122290000Y-74430000D02*
X124840000Y-76980000D01*
%TO.N,+12V*%
X125940000Y-86480000D02*
X120830000Y-86480000D01*
X120830000Y-86480000D02*
X119020000Y-84670000D01*
X113180000Y-77610000D02*
X113180000Y-78830000D01*
X113180000Y-78830000D02*
X119020000Y-84670000D01*
%TO.N,+5V*%
X119450000Y-72090000D02*
X120385000Y-73025000D01*
X120385000Y-73025000D02*
X121100000Y-73740000D01*
X118260000Y-77610000D02*
X118260000Y-75150000D01*
X118260000Y-75150000D02*
X120385000Y-73025000D01*
X113300000Y-60100000D02*
X119450000Y-66250000D01*
X119450000Y-66250000D02*
X119450000Y-72090000D01*
X121100000Y-73740000D02*
X122290000Y-73740000D01*
%TO.N,Net-(J2-Pin_2)*%
X113300000Y-57600000D02*
X114910000Y-57600000D01*
X114910000Y-57600000D02*
X118430000Y-54080000D01*
X118430000Y-54080000D02*
X121630000Y-54080000D01*
X121630000Y-54080000D02*
X122290000Y-53420000D01*
%TO.N,/SEL3*%
X122290000Y-48340000D02*
X116440000Y-48340000D01*
X116440000Y-48340000D02*
X116000000Y-48780000D01*
%TO.N,/SEL2*%
X122290000Y-45800000D02*
X118260000Y-45800000D01*
X118260000Y-45800000D02*
X116020000Y-43560000D01*
%TO.N,/SEL1*%
X116050000Y-38550000D02*
X116320000Y-38550000D01*
X116320000Y-38550000D02*
X121030000Y-43260000D01*
X121030000Y-43260000D02*
X122290000Y-43260000D01*
%TD*%
%TA.AperFunction,Conductor*%
%TO.N,GND*%
G36*
X121060540Y-26760185D02*
G01*
X121106295Y-26812989D01*
X121116239Y-26882147D01*
X121087214Y-26945703D01*
X121052928Y-26973332D01*
X121047666Y-26976205D01*
X120932455Y-27062452D01*
X120932452Y-27062455D01*
X120846206Y-27177664D01*
X120846202Y-27177671D01*
X120795908Y-27312517D01*
X120789501Y-27372116D01*
X120789501Y-27372123D01*
X120789500Y-27372135D01*
X120789500Y-28667870D01*
X120789501Y-28667876D01*
X120795908Y-28727483D01*
X120846202Y-28862328D01*
X120846206Y-28862335D01*
X120932452Y-28977544D01*
X120932455Y-28977547D01*
X121047664Y-29063793D01*
X121047671Y-29063797D01*
X121182517Y-29114091D01*
X121182516Y-29114091D01*
X121189444Y-29114835D01*
X121242127Y-29120500D01*
X123337872Y-29120499D01*
X123397483Y-29114091D01*
X123532331Y-29063796D01*
X123647546Y-28977546D01*
X123733796Y-28862331D01*
X123784091Y-28727483D01*
X123790500Y-28667873D01*
X123790499Y-27372128D01*
X123784091Y-27312517D01*
X123778072Y-27296380D01*
X123733797Y-27177671D01*
X123733793Y-27177664D01*
X123647547Y-27062455D01*
X123647544Y-27062452D01*
X123532333Y-26976205D01*
X123527072Y-26973332D01*
X123477667Y-26923927D01*
X123462815Y-26855654D01*
X123487232Y-26790190D01*
X123543165Y-26748318D01*
X123586499Y-26740500D01*
X146880725Y-26740500D01*
X146947764Y-26760185D01*
X146993519Y-26812989D01*
X147003463Y-26882147D01*
X146974438Y-26945703D01*
X146915660Y-26983477D01*
X146879313Y-26994149D01*
X146692585Y-27090413D01*
X146527462Y-27220268D01*
X146527459Y-27220271D01*
X146389894Y-27379030D01*
X146389885Y-27379041D01*
X146284855Y-27560960D01*
X146284852Y-27560967D01*
X146216144Y-27759482D01*
X146216144Y-27759484D01*
X146214632Y-27770000D01*
X147374314Y-27770000D01*
X147362359Y-27781955D01*
X147304835Y-27894852D01*
X147285014Y-28020000D01*
X147304835Y-28145148D01*
X147362359Y-28258045D01*
X147374314Y-28270000D01*
X146218742Y-28270000D01*
X146245770Y-28381409D01*
X146333040Y-28572507D01*
X146454889Y-28743619D01*
X146454895Y-28743625D01*
X146606932Y-28888592D01*
X146783657Y-29002166D01*
X146978685Y-29080244D01*
X147184962Y-29120000D01*
X147440000Y-29120000D01*
X147440000Y-28335686D01*
X147451955Y-28347641D01*
X147564852Y-28405165D01*
X147658519Y-28420000D01*
X147721481Y-28420000D01*
X147815148Y-28405165D01*
X147928045Y-28347641D01*
X147940000Y-28335686D01*
X147940000Y-29120000D01*
X148142398Y-29120000D01*
X148299122Y-29105034D01*
X148299126Y-29105033D01*
X148500686Y-29045850D01*
X148687414Y-28949586D01*
X148852537Y-28819731D01*
X148852540Y-28819728D01*
X148990105Y-28660969D01*
X148990114Y-28660958D01*
X149095144Y-28479039D01*
X149095147Y-28479032D01*
X149163855Y-28280517D01*
X149163855Y-28280515D01*
X149165368Y-28270000D01*
X148005686Y-28270000D01*
X148017641Y-28258045D01*
X148075165Y-28145148D01*
X148094986Y-28020000D01*
X148075165Y-27894852D01*
X148017641Y-27781955D01*
X148005686Y-27770000D01*
X149161257Y-27770000D01*
X149134229Y-27658590D01*
X149046959Y-27467492D01*
X148925110Y-27296380D01*
X148925104Y-27296374D01*
X148773067Y-27151407D01*
X148596342Y-27037833D01*
X148450927Y-26979618D01*
X148396006Y-26936427D01*
X148373153Y-26870400D01*
X148389626Y-26802500D01*
X148440193Y-26754284D01*
X148497013Y-26740500D01*
X168525500Y-26740500D01*
X168592539Y-26760185D01*
X168638294Y-26812989D01*
X168649500Y-26864500D01*
X168649500Y-89176109D01*
X168629815Y-89243148D01*
X168577011Y-89288903D01*
X168525564Y-89300109D01*
X130857984Y-89319500D01*
X110584500Y-89319500D01*
X110517461Y-89299815D01*
X110471706Y-89247011D01*
X110460500Y-89195500D01*
X110460500Y-84670000D01*
X112465207Y-84670000D01*
X112484348Y-84913219D01*
X112541303Y-85150457D01*
X112634668Y-85375861D01*
X112758504Y-85577942D01*
X113379859Y-84956586D01*
X113439680Y-85070566D01*
X113552405Y-85197806D01*
X113692305Y-85294371D01*
X113733541Y-85310010D01*
X113112056Y-85931494D01*
X113314138Y-86055331D01*
X113539542Y-86148696D01*
X113776780Y-86205651D01*
X113776779Y-86205651D01*
X114020000Y-86224792D01*
X114263219Y-86205651D01*
X114500457Y-86148696D01*
X114725861Y-86055331D01*
X114927942Y-85931494D01*
X114306457Y-85310010D01*
X114347695Y-85294371D01*
X114487595Y-85197806D01*
X114600320Y-85070566D01*
X114660139Y-84956587D01*
X115281494Y-85577942D01*
X115405331Y-85375861D01*
X115498696Y-85150457D01*
X115555651Y-84913219D01*
X115574792Y-84670000D01*
X115555651Y-84426780D01*
X115498696Y-84189542D01*
X115405331Y-83964138D01*
X115281494Y-83762056D01*
X114660139Y-84383411D01*
X114600320Y-84269434D01*
X114487595Y-84142194D01*
X114347695Y-84045629D01*
X114306457Y-84029989D01*
X114927942Y-83408504D01*
X114725861Y-83284668D01*
X114500457Y-83191303D01*
X114263219Y-83134348D01*
X114263220Y-83134348D01*
X114020000Y-83115207D01*
X113776780Y-83134348D01*
X113539542Y-83191303D01*
X113314146Y-83284665D01*
X113314141Y-83284668D01*
X113112056Y-83408504D01*
X113733542Y-84029989D01*
X113692305Y-84045629D01*
X113552405Y-84142194D01*
X113439680Y-84269434D01*
X113379860Y-84383412D01*
X112758504Y-83762056D01*
X112634668Y-83964141D01*
X112634665Y-83964146D01*
X112541303Y-84189542D01*
X112484348Y-84426780D01*
X112465207Y-84670000D01*
X110460500Y-84670000D01*
X110460500Y-78657870D01*
X111727000Y-78657870D01*
X111727001Y-78657876D01*
X111733408Y-78717483D01*
X111783702Y-78852328D01*
X111783706Y-78852335D01*
X111869952Y-78967544D01*
X111869955Y-78967547D01*
X111985164Y-79053793D01*
X111985171Y-79053797D01*
X112029630Y-79070379D01*
X112120017Y-79104091D01*
X112179627Y-79110500D01*
X112399348Y-79110499D01*
X112466388Y-79130183D01*
X112502950Y-79166361D01*
X112546965Y-79233283D01*
X112587287Y-79298655D01*
X112591766Y-79304319D01*
X112591719Y-79304356D01*
X112596482Y-79310202D01*
X112596528Y-79310164D01*
X112601173Y-79315700D01*
X112657018Y-79368386D01*
X117479563Y-84190930D01*
X117513048Y-84252253D01*
X117512456Y-84307557D01*
X117483853Y-84426698D01*
X117483853Y-84426700D01*
X117464706Y-84670000D01*
X117483853Y-84913297D01*
X117483853Y-84913300D01*
X117483854Y-84913302D01*
X117540457Y-85149068D01*
X117540830Y-85150619D01*
X117634222Y-85376089D01*
X117761737Y-85584173D01*
X117761738Y-85584176D01*
X117795904Y-85624179D01*
X117920241Y-85769759D01*
X118063897Y-85892453D01*
X118105823Y-85928261D01*
X118105826Y-85928262D01*
X118313910Y-86055777D01*
X118539381Y-86149169D01*
X118539378Y-86149169D01*
X118539384Y-86149170D01*
X118539388Y-86149172D01*
X118776698Y-86206146D01*
X119020000Y-86225294D01*
X119263302Y-86206146D01*
X119382441Y-86177542D01*
X119452221Y-86181032D01*
X119499068Y-86210435D01*
X120254267Y-86965634D01*
X120266048Y-86979266D01*
X120280390Y-86998530D01*
X120320420Y-87032119D01*
X120324392Y-87035759D01*
X120330224Y-87041591D01*
X120330227Y-87041594D01*
X120355947Y-87061931D01*
X120414788Y-87111304D01*
X120420818Y-87115270D01*
X120420785Y-87115319D01*
X120427143Y-87119369D01*
X120427175Y-87119319D01*
X120433320Y-87123109D01*
X120433323Y-87123111D01*
X120502936Y-87155572D01*
X120571567Y-87190040D01*
X120571572Y-87190041D01*
X120578361Y-87192513D01*
X120578340Y-87192570D01*
X120585455Y-87195043D01*
X120585475Y-87194986D01*
X120592330Y-87197258D01*
X120667558Y-87212790D01*
X120742279Y-87230500D01*
X120742289Y-87230500D01*
X120749452Y-87231338D01*
X120749444Y-87231397D01*
X120756945Y-87232164D01*
X120756951Y-87232105D01*
X120764140Y-87232734D01*
X120764144Y-87232733D01*
X120764145Y-87232734D01*
X120840918Y-87230500D01*
X124813337Y-87230500D01*
X124880376Y-87250185D01*
X124914912Y-87283377D01*
X124939954Y-87319141D01*
X125100858Y-87480045D01*
X125100861Y-87480047D01*
X125287266Y-87610568D01*
X125493504Y-87706739D01*
X125713308Y-87765635D01*
X125875230Y-87779801D01*
X125939998Y-87785468D01*
X125940000Y-87785468D01*
X125940001Y-87785468D01*
X125960062Y-87783712D01*
X126106861Y-87770869D01*
X126175359Y-87784635D01*
X126205348Y-87806716D01*
X126464270Y-88065638D01*
X126476051Y-88079270D01*
X126490388Y-88098528D01*
X126530409Y-88132111D01*
X126534397Y-88135766D01*
X126540216Y-88141585D01*
X126540220Y-88141588D01*
X126540223Y-88141591D01*
X126565959Y-88161940D01*
X126624786Y-88211302D01*
X126624787Y-88211302D01*
X126624789Y-88211304D01*
X126630818Y-88215270D01*
X126630785Y-88215319D01*
X126637147Y-88219372D01*
X126637179Y-88219321D01*
X126643319Y-88223108D01*
X126643323Y-88223111D01*
X126678132Y-88239343D01*
X126712941Y-88255575D01*
X126731336Y-88264813D01*
X126781567Y-88290040D01*
X126781569Y-88290040D01*
X126788357Y-88292511D01*
X126788336Y-88292567D01*
X126795457Y-88295043D01*
X126795476Y-88294986D01*
X126802322Y-88297254D01*
X126802327Y-88297257D01*
X126802332Y-88297258D01*
X126802335Y-88297259D01*
X126877565Y-88312792D01*
X126952279Y-88330500D01*
X126952282Y-88330500D01*
X126952286Y-88330501D01*
X126959453Y-88331339D01*
X126959446Y-88331398D01*
X126966944Y-88332164D01*
X126966950Y-88332105D01*
X126974139Y-88332734D01*
X126974143Y-88332733D01*
X126974144Y-88332734D01*
X127050917Y-88330500D01*
X157896295Y-88330500D01*
X157914265Y-88331809D01*
X157938023Y-88335289D01*
X157990068Y-88330735D01*
X157995470Y-88330500D01*
X158003704Y-88330500D01*
X158003709Y-88330500D01*
X158015327Y-88329141D01*
X158036276Y-88326693D01*
X158049028Y-88325577D01*
X158112797Y-88319999D01*
X158112805Y-88319996D01*
X158119866Y-88318539D01*
X158119878Y-88318598D01*
X158127243Y-88316965D01*
X158127229Y-88316906D01*
X158134246Y-88315241D01*
X158134255Y-88315241D01*
X158206423Y-88288974D01*
X158279334Y-88264814D01*
X158279343Y-88264807D01*
X158285882Y-88261760D01*
X158285908Y-88261816D01*
X158292690Y-88258532D01*
X158292663Y-88258478D01*
X158299106Y-88255240D01*
X158299117Y-88255237D01*
X158363283Y-88213034D01*
X158428656Y-88172712D01*
X158428662Y-88172705D01*
X158434325Y-88168229D01*
X158434363Y-88168277D01*
X158440200Y-88163522D01*
X158440161Y-88163475D01*
X158445696Y-88158830D01*
X158498385Y-88102983D01*
X160440036Y-86161331D01*
X161095642Y-85505724D01*
X161109271Y-85493947D01*
X161128530Y-85479610D01*
X161162101Y-85439601D01*
X161165761Y-85435606D01*
X161171590Y-85429778D01*
X161191941Y-85404039D01*
X161199818Y-85394651D01*
X161241302Y-85345214D01*
X161241306Y-85345205D01*
X161245274Y-85339175D01*
X161245325Y-85339208D01*
X161249372Y-85332856D01*
X161249320Y-85332824D01*
X161253112Y-85326675D01*
X161285575Y-85257058D01*
X161303116Y-85222128D01*
X161320040Y-85188433D01*
X161320042Y-85188421D01*
X161322509Y-85181646D01*
X161322567Y-85181667D01*
X161325043Y-85174546D01*
X161324986Y-85174528D01*
X161327257Y-85167673D01*
X161342792Y-85092434D01*
X161350710Y-85059025D01*
X161360500Y-85017721D01*
X161360500Y-85017710D01*
X161361338Y-85010548D01*
X161361398Y-85010555D01*
X161362164Y-85003055D01*
X161362105Y-85003050D01*
X161362734Y-84995860D01*
X161360500Y-84919083D01*
X161360500Y-84900005D01*
X165129443Y-84900005D01*
X165149634Y-85143683D01*
X165149636Y-85143695D01*
X165209663Y-85380734D01*
X165307888Y-85604666D01*
X165441632Y-85809378D01*
X165607242Y-85989277D01*
X165607252Y-85989286D01*
X165800208Y-86139470D01*
X165800212Y-86139473D01*
X166010560Y-86253308D01*
X166015267Y-86255855D01*
X166015270Y-86255856D01*
X166246541Y-86335251D01*
X166246543Y-86335251D01*
X166246545Y-86335252D01*
X166487737Y-86375500D01*
X166487738Y-86375500D01*
X166732262Y-86375500D01*
X166732263Y-86375500D01*
X166973455Y-86335252D01*
X167204733Y-86255855D01*
X167419788Y-86139473D01*
X167612754Y-85989281D01*
X167778368Y-85809377D01*
X167912111Y-85604667D01*
X168010336Y-85380736D01*
X168070364Y-85143692D01*
X168073145Y-85110131D01*
X168090557Y-84900005D01*
X168090557Y-84899994D01*
X168070365Y-84656316D01*
X168070363Y-84656304D01*
X168060950Y-84619132D01*
X168010336Y-84419264D01*
X167912111Y-84195333D01*
X167787198Y-84004138D01*
X167778367Y-83990621D01*
X167612757Y-83810722D01*
X167612747Y-83810713D01*
X167419791Y-83660529D01*
X167419787Y-83660526D01*
X167204734Y-83544145D01*
X167204729Y-83544143D01*
X166973458Y-83464748D01*
X166792561Y-83434562D01*
X166732263Y-83424500D01*
X166487737Y-83424500D01*
X166439498Y-83432549D01*
X166246541Y-83464748D01*
X166015270Y-83544143D01*
X166015265Y-83544145D01*
X165800212Y-83660526D01*
X165800208Y-83660529D01*
X165607252Y-83810713D01*
X165607242Y-83810722D01*
X165441632Y-83990621D01*
X165307888Y-84195333D01*
X165209663Y-84419265D01*
X165149636Y-84656304D01*
X165149634Y-84656316D01*
X165129443Y-84899994D01*
X165129443Y-84900005D01*
X161360500Y-84900005D01*
X161360500Y-72299499D01*
X161380185Y-72232460D01*
X161432989Y-72186705D01*
X161484500Y-72175499D01*
X161632871Y-72175499D01*
X161632872Y-72175499D01*
X161692483Y-72169091D01*
X161827331Y-72118796D01*
X161942546Y-72032546D01*
X162028796Y-71917331D01*
X162079091Y-71782483D01*
X162085500Y-71722873D01*
X162085499Y-69677128D01*
X162079091Y-69617517D01*
X162028796Y-69482669D01*
X162028795Y-69482668D01*
X162028793Y-69482664D01*
X161942547Y-69367455D01*
X161942544Y-69367452D01*
X161827335Y-69281206D01*
X161827328Y-69281202D01*
X161692482Y-69230908D01*
X161692483Y-69230908D01*
X161632883Y-69224501D01*
X161632881Y-69224500D01*
X161632873Y-69224500D01*
X161632864Y-69224500D01*
X159587129Y-69224500D01*
X159587123Y-69224501D01*
X159527516Y-69230908D01*
X159392671Y-69281202D01*
X159392664Y-69281206D01*
X159277455Y-69367452D01*
X159277452Y-69367455D01*
X159191206Y-69482664D01*
X159191202Y-69482671D01*
X159140908Y-69617517D01*
X159134501Y-69677116D01*
X159134501Y-69677123D01*
X159134500Y-69677135D01*
X159134500Y-71722870D01*
X159134501Y-71722876D01*
X159140908Y-71782483D01*
X159191202Y-71917328D01*
X159191206Y-71917335D01*
X159277452Y-72032544D01*
X159277455Y-72032547D01*
X159392664Y-72118793D01*
X159392671Y-72118797D01*
X159410563Y-72125470D01*
X159527517Y-72169091D01*
X159587127Y-72175500D01*
X159735500Y-72175499D01*
X159802539Y-72195183D01*
X159848294Y-72247987D01*
X159859500Y-72299499D01*
X159859500Y-84567770D01*
X159839815Y-84634809D01*
X159823181Y-84655451D01*
X157685451Y-86793181D01*
X157624128Y-86826666D01*
X157597770Y-86829500D01*
X127402230Y-86829500D01*
X127335191Y-86809815D01*
X127314548Y-86793180D01*
X127266715Y-86745346D01*
X127233231Y-86684023D01*
X127230869Y-86646862D01*
X127245468Y-86480000D01*
X127225635Y-86253308D01*
X127172707Y-86055777D01*
X127166741Y-86033511D01*
X127166738Y-86033502D01*
X127136315Y-85968261D01*
X127070568Y-85827266D01*
X126940047Y-85640861D01*
X126940045Y-85640858D01*
X126779141Y-85479954D01*
X126592734Y-85349432D01*
X126592730Y-85349430D01*
X126577022Y-85342105D01*
X126524583Y-85295931D01*
X126505433Y-85228737D01*
X126525650Y-85161857D01*
X126577028Y-85117340D01*
X126592481Y-85110134D01*
X126665472Y-85059025D01*
X126316448Y-84710000D01*
X141995207Y-84710000D01*
X142014348Y-84953219D01*
X142071303Y-85190457D01*
X142164668Y-85415861D01*
X142288504Y-85617942D01*
X142909859Y-84996586D01*
X142969680Y-85110566D01*
X143082405Y-85237806D01*
X143222305Y-85334371D01*
X143263541Y-85350010D01*
X142642056Y-85971494D01*
X142844138Y-86095331D01*
X143069542Y-86188696D01*
X143306780Y-86245651D01*
X143306779Y-86245651D01*
X143550000Y-86264792D01*
X143793219Y-86245651D01*
X144030457Y-86188696D01*
X144255861Y-86095331D01*
X144457942Y-85971494D01*
X143836457Y-85350010D01*
X143877695Y-85334371D01*
X144017595Y-85237806D01*
X144130320Y-85110566D01*
X144190139Y-84996587D01*
X144811494Y-85617942D01*
X144935331Y-85415861D01*
X145028696Y-85190457D01*
X145085651Y-84953219D01*
X145104792Y-84710000D01*
X146994706Y-84710000D01*
X147013853Y-84953297D01*
X147013853Y-84953300D01*
X147013854Y-84953302D01*
X147068680Y-85181667D01*
X147070830Y-85190619D01*
X147164222Y-85416089D01*
X147291737Y-85624173D01*
X147291738Y-85624176D01*
X147336532Y-85676623D01*
X147450241Y-85809759D01*
X147588987Y-85928259D01*
X147635823Y-85968261D01*
X147635826Y-85968262D01*
X147843910Y-86095777D01*
X148069381Y-86189169D01*
X148069378Y-86189169D01*
X148069384Y-86189170D01*
X148069388Y-86189172D01*
X148306698Y-86246146D01*
X148550000Y-86265294D01*
X148793302Y-86246146D01*
X149030612Y-86189172D01*
X149256089Y-86095777D01*
X149464179Y-85968259D01*
X149649759Y-85809759D01*
X149808259Y-85624179D01*
X149872278Y-85519710D01*
X149924089Y-85472835D01*
X149978005Y-85460500D01*
X153163638Y-85460500D01*
X153230677Y-85480185D01*
X153276432Y-85532989D01*
X153277194Y-85534690D01*
X153307888Y-85604666D01*
X153441632Y-85809378D01*
X153607242Y-85989277D01*
X153607252Y-85989286D01*
X153800208Y-86139470D01*
X153800212Y-86139473D01*
X154010560Y-86253308D01*
X154015267Y-86255855D01*
X154015270Y-86255856D01*
X154246541Y-86335251D01*
X154246543Y-86335251D01*
X154246545Y-86335252D01*
X154487737Y-86375500D01*
X154487738Y-86375500D01*
X154732262Y-86375500D01*
X154732263Y-86375500D01*
X154973455Y-86335252D01*
X155204733Y-86255855D01*
X155419788Y-86139473D01*
X155612754Y-85989281D01*
X155778368Y-85809377D01*
X155912111Y-85604667D01*
X156010336Y-85380736D01*
X156070364Y-85143692D01*
X156073145Y-85110131D01*
X156090557Y-84900005D01*
X156090557Y-84899994D01*
X156070365Y-84656316D01*
X156070363Y-84656304D01*
X156060950Y-84619132D01*
X156010336Y-84419264D01*
X155912111Y-84195333D01*
X155787198Y-84004138D01*
X155778367Y-83990621D01*
X155612757Y-83810722D01*
X155612747Y-83810713D01*
X155419791Y-83660529D01*
X155419787Y-83660526D01*
X155204734Y-83544145D01*
X155204729Y-83544143D01*
X154973458Y-83464748D01*
X154792561Y-83434562D01*
X154732263Y-83424500D01*
X154487737Y-83424500D01*
X154439498Y-83432549D01*
X154246541Y-83464748D01*
X154015270Y-83544143D01*
X154015265Y-83544145D01*
X153800212Y-83660526D01*
X153800208Y-83660529D01*
X153607252Y-83810713D01*
X153607248Y-83810716D01*
X153552751Y-83869915D01*
X153507120Y-83919483D01*
X153447235Y-83955474D01*
X153415892Y-83959500D01*
X149978005Y-83959500D01*
X149910966Y-83939815D01*
X149872278Y-83900290D01*
X149808262Y-83795825D01*
X149808261Y-83795823D01*
X149762253Y-83741955D01*
X149649759Y-83610241D01*
X149527063Y-83505449D01*
X149464176Y-83451738D01*
X149464173Y-83451737D01*
X149256089Y-83324222D01*
X149030618Y-83230830D01*
X149030621Y-83230830D01*
X148864011Y-83190830D01*
X148793302Y-83173854D01*
X148793300Y-83173853D01*
X148793297Y-83173853D01*
X148550000Y-83154706D01*
X148306702Y-83173853D01*
X148069380Y-83230830D01*
X147843910Y-83324222D01*
X147635826Y-83451737D01*
X147635823Y-83451738D01*
X147450241Y-83610241D01*
X147291738Y-83795823D01*
X147291737Y-83795826D01*
X147164222Y-84003910D01*
X147070830Y-84229380D01*
X147013853Y-84466702D01*
X146994706Y-84710000D01*
X145104792Y-84710000D01*
X145085651Y-84466780D01*
X145028696Y-84229542D01*
X144935331Y-84004138D01*
X144811494Y-83802056D01*
X144190139Y-84423411D01*
X144130320Y-84309434D01*
X144017595Y-84182194D01*
X143877695Y-84085629D01*
X143836457Y-84069989D01*
X144457942Y-83448504D01*
X144255861Y-83324668D01*
X144030457Y-83231303D01*
X143793219Y-83174348D01*
X143793220Y-83174348D01*
X143550000Y-83155207D01*
X143306780Y-83174348D01*
X143069542Y-83231303D01*
X142844146Y-83324665D01*
X142844141Y-83324668D01*
X142642056Y-83448504D01*
X143263542Y-84069989D01*
X143222305Y-84085629D01*
X143082405Y-84182194D01*
X142969680Y-84309434D01*
X142909860Y-84423412D01*
X142288504Y-83802056D01*
X142164668Y-84004141D01*
X142164665Y-84004146D01*
X142071303Y-84229542D01*
X142014348Y-84466780D01*
X141995207Y-84710000D01*
X126316448Y-84710000D01*
X125984401Y-84377953D01*
X126065148Y-84365165D01*
X126178045Y-84307641D01*
X126267641Y-84218045D01*
X126325165Y-84105148D01*
X126337953Y-84024400D01*
X127019025Y-84705472D01*
X127070136Y-84632478D01*
X127166264Y-84426331D01*
X127166269Y-84426317D01*
X127225139Y-84206610D01*
X127225141Y-84206599D01*
X127244966Y-83980002D01*
X127244966Y-83979997D01*
X127225141Y-83753400D01*
X127225139Y-83753389D01*
X127166269Y-83533682D01*
X127166265Y-83533673D01*
X127070133Y-83327516D01*
X127070131Y-83327512D01*
X127019026Y-83254526D01*
X127019025Y-83254526D01*
X126337953Y-83935598D01*
X126325165Y-83854852D01*
X126267641Y-83741955D01*
X126178045Y-83652359D01*
X126065148Y-83594835D01*
X125984400Y-83582046D01*
X126665472Y-82900974D01*
X126665471Y-82900973D01*
X126592483Y-82849866D01*
X126592481Y-82849865D01*
X126386326Y-82753734D01*
X126386317Y-82753730D01*
X126166610Y-82694860D01*
X126166599Y-82694858D01*
X125940002Y-82675034D01*
X125939998Y-82675034D01*
X125713400Y-82694858D01*
X125713389Y-82694860D01*
X125493682Y-82753730D01*
X125493673Y-82753734D01*
X125287513Y-82849868D01*
X125214527Y-82900972D01*
X125214526Y-82900973D01*
X125895600Y-83582046D01*
X125814852Y-83594835D01*
X125701955Y-83652359D01*
X125612359Y-83741955D01*
X125554835Y-83854852D01*
X125542046Y-83935599D01*
X124860973Y-83254526D01*
X124860972Y-83254527D01*
X124809868Y-83327513D01*
X124713734Y-83533673D01*
X124713730Y-83533682D01*
X124654860Y-83753389D01*
X124654858Y-83753400D01*
X124635034Y-83979997D01*
X124635034Y-83980002D01*
X124654858Y-84206599D01*
X124654860Y-84206610D01*
X124713730Y-84426317D01*
X124713734Y-84426326D01*
X124809865Y-84632481D01*
X124809866Y-84632483D01*
X124860973Y-84705471D01*
X124860974Y-84705472D01*
X125542046Y-84024399D01*
X125554835Y-84105148D01*
X125612359Y-84218045D01*
X125701955Y-84307641D01*
X125814852Y-84365165D01*
X125895599Y-84377953D01*
X125214526Y-85059025D01*
X125214526Y-85059026D01*
X125287512Y-85110131D01*
X125287515Y-85110132D01*
X125302974Y-85117341D01*
X125355414Y-85163513D01*
X125374567Y-85230706D01*
X125354352Y-85297587D01*
X125302978Y-85342105D01*
X125287269Y-85349430D01*
X125287265Y-85349432D01*
X125100858Y-85479954D01*
X124939954Y-85640858D01*
X124914912Y-85676623D01*
X124860335Y-85720248D01*
X124813337Y-85729500D01*
X121192229Y-85729500D01*
X121125190Y-85709815D01*
X121104548Y-85693181D01*
X120560435Y-85149068D01*
X120526950Y-85087745D01*
X120527541Y-85032442D01*
X120556146Y-84913302D01*
X120575294Y-84670000D01*
X120556146Y-84426698D01*
X120499172Y-84189388D01*
X120456194Y-84085629D01*
X120405777Y-83963910D01*
X120278262Y-83755826D01*
X120278261Y-83755823D01*
X120196870Y-83660527D01*
X120119759Y-83570241D01*
X119981010Y-83451738D01*
X119934176Y-83411738D01*
X119934173Y-83411737D01*
X119726089Y-83284222D01*
X119500618Y-83190830D01*
X119500621Y-83190830D01*
X119350155Y-83154706D01*
X119263302Y-83133854D01*
X119263300Y-83133853D01*
X119263297Y-83133853D01*
X119020000Y-83114706D01*
X118776700Y-83133853D01*
X118776698Y-83133853D01*
X118657558Y-83162456D01*
X118587776Y-83158965D01*
X118540931Y-83129563D01*
X114518445Y-79107077D01*
X114484960Y-79045754D01*
X114489944Y-78976062D01*
X114506857Y-78945089D01*
X114576296Y-78852331D01*
X114576296Y-78852328D01*
X114576298Y-78852327D01*
X114587907Y-78821199D01*
X114629776Y-78765264D01*
X114695240Y-78740844D01*
X114763513Y-78755694D01*
X114780252Y-78766675D01*
X114922831Y-78877649D01*
X114922840Y-78877655D01*
X115134531Y-78992215D01*
X115134545Y-78992221D01*
X115362207Y-79070379D01*
X115470000Y-79088366D01*
X115470000Y-78101683D01*
X115498819Y-78119209D01*
X115644404Y-78160000D01*
X115757622Y-78160000D01*
X115869783Y-78144584D01*
X115970000Y-78101053D01*
X115970000Y-79088365D01*
X116077792Y-79070379D01*
X116305454Y-78992221D01*
X116305468Y-78992215D01*
X116517159Y-78877655D01*
X116517168Y-78877649D01*
X116707116Y-78729806D01*
X116707126Y-78729797D01*
X116870154Y-78552702D01*
X116870155Y-78552701D01*
X116885891Y-78528616D01*
X116939036Y-78483258D01*
X117008267Y-78473833D01*
X117071604Y-78503333D01*
X117093510Y-78528614D01*
X117109446Y-78553007D01*
X117109448Y-78553009D01*
X117109449Y-78553010D01*
X117272537Y-78730171D01*
X117428908Y-78851879D01*
X117462017Y-78877649D01*
X117462561Y-78878072D01*
X117586388Y-78945084D01*
X117673478Y-78992215D01*
X117674336Y-78992679D01*
X117792598Y-79033278D01*
X117902083Y-79070865D01*
X117902085Y-79070865D01*
X117902087Y-79070866D01*
X118139601Y-79110500D01*
X118139602Y-79110500D01*
X118380398Y-79110500D01*
X118380399Y-79110500D01*
X118617913Y-79070866D01*
X118845664Y-78992679D01*
X119057439Y-78878072D01*
X119247463Y-78730171D01*
X119410551Y-78553010D01*
X119542255Y-78351422D01*
X119638983Y-78130905D01*
X119698095Y-77897476D01*
X119713000Y-77717600D01*
X119713000Y-77502400D01*
X119698095Y-77322524D01*
X119638983Y-77089095D01*
X119542255Y-76868578D01*
X119410551Y-76666990D01*
X119247463Y-76489829D01*
X119090514Y-76367671D01*
X119058338Y-76342627D01*
X119017525Y-76285917D01*
X119010500Y-76244774D01*
X119010500Y-75512229D01*
X119030185Y-75445190D01*
X119046814Y-75424553D01*
X120297319Y-74174047D01*
X120358642Y-74140563D01*
X120428334Y-74145547D01*
X120472681Y-74174048D01*
X120524268Y-74225635D01*
X120536049Y-74239267D01*
X120550390Y-74258530D01*
X120590420Y-74292119D01*
X120594392Y-74295759D01*
X120600224Y-74301591D01*
X120600227Y-74301594D01*
X120625947Y-74321931D01*
X120684788Y-74371304D01*
X120690818Y-74375270D01*
X120690785Y-74375319D01*
X120697147Y-74379372D01*
X120697179Y-74379321D01*
X120703319Y-74383108D01*
X120703323Y-74383111D01*
X120738132Y-74399343D01*
X120772941Y-74415575D01*
X120837997Y-74448247D01*
X120841567Y-74450040D01*
X120841569Y-74450040D01*
X120848357Y-74452511D01*
X120848336Y-74452567D01*
X120855455Y-74455042D01*
X120855474Y-74454986D01*
X120862329Y-74457258D01*
X120937562Y-74472791D01*
X121012279Y-74490500D01*
X121012289Y-74490500D01*
X121019452Y-74491338D01*
X121019444Y-74491397D01*
X121026945Y-74492164D01*
X121026951Y-74492105D01*
X121041341Y-74493364D01*
X121041166Y-74495356D01*
X121099048Y-74510530D01*
X121120654Y-74527016D01*
X121206623Y-74608987D01*
X121297341Y-74667288D01*
X121383428Y-74722613D01*
X121578543Y-74800725D01*
X121591274Y-74803178D01*
X121653374Y-74835191D01*
X121673345Y-74859839D01*
X121697287Y-74898655D01*
X121701766Y-74904319D01*
X121701719Y-74904356D01*
X121706482Y-74910202D01*
X121706528Y-74910164D01*
X121711173Y-74915700D01*
X121767018Y-74968386D01*
X123513282Y-76714650D01*
X123546767Y-76775973D01*
X123549129Y-76813137D01*
X123534532Y-76979996D01*
X123534532Y-76980001D01*
X123554364Y-77206686D01*
X123554366Y-77206697D01*
X123613258Y-77426488D01*
X123613261Y-77426497D01*
X123709431Y-77632732D01*
X123709432Y-77632734D01*
X123839954Y-77819141D01*
X124000858Y-77980045D01*
X124000861Y-77980047D01*
X124187266Y-78110568D01*
X124393504Y-78206739D01*
X124393506Y-78206739D01*
X124393513Y-78206742D01*
X124398003Y-78207945D01*
X124453592Y-78240039D01*
X124795599Y-78582046D01*
X124714852Y-78594835D01*
X124601955Y-78652359D01*
X124512359Y-78741955D01*
X124454835Y-78854852D01*
X124442046Y-78935599D01*
X123760973Y-78254526D01*
X123760972Y-78254527D01*
X123709868Y-78327513D01*
X123613734Y-78533673D01*
X123613730Y-78533682D01*
X123554860Y-78753389D01*
X123554858Y-78753400D01*
X123535034Y-78979997D01*
X123535034Y-78980002D01*
X123554858Y-79206599D01*
X123554860Y-79206610D01*
X123613730Y-79426317D01*
X123613734Y-79426326D01*
X123709865Y-79632481D01*
X123709866Y-79632483D01*
X123760973Y-79705471D01*
X123760974Y-79705472D01*
X124442046Y-79024399D01*
X124454835Y-79105148D01*
X124512359Y-79218045D01*
X124601955Y-79307641D01*
X124714852Y-79365165D01*
X124795599Y-79377953D01*
X124114526Y-80059025D01*
X124114526Y-80059026D01*
X124187512Y-80110131D01*
X124187516Y-80110133D01*
X124393673Y-80206265D01*
X124393682Y-80206269D01*
X124613389Y-80265139D01*
X124613400Y-80265141D01*
X124839998Y-80284966D01*
X124840002Y-80284966D01*
X125066599Y-80265141D01*
X125066610Y-80265139D01*
X125286317Y-80206269D01*
X125286331Y-80206264D01*
X125492478Y-80110136D01*
X125565472Y-80059025D01*
X124884401Y-79377953D01*
X124965148Y-79365165D01*
X125078045Y-79307641D01*
X125167641Y-79218045D01*
X125225165Y-79105148D01*
X125237953Y-79024400D01*
X125919025Y-79705472D01*
X125970136Y-79632478D01*
X126066264Y-79426331D01*
X126066269Y-79426317D01*
X126125139Y-79206610D01*
X126125141Y-79206599D01*
X126144966Y-78980002D01*
X126144966Y-78979997D01*
X126125141Y-78753400D01*
X126125139Y-78753389D01*
X126066269Y-78533682D01*
X126066265Y-78533673D01*
X125970133Y-78327516D01*
X125970131Y-78327512D01*
X125919026Y-78254526D01*
X125919025Y-78254526D01*
X125237953Y-78935598D01*
X125225165Y-78854852D01*
X125167641Y-78741955D01*
X125078045Y-78652359D01*
X124965148Y-78594835D01*
X124884400Y-78582046D01*
X125226407Y-78240039D01*
X125281996Y-78207945D01*
X125283833Y-78207452D01*
X125286496Y-78206739D01*
X125492734Y-78110568D01*
X125679139Y-77980047D01*
X125840047Y-77819139D01*
X125854232Y-77798880D01*
X125865088Y-77783377D01*
X125919665Y-77739752D01*
X125966663Y-77730500D01*
X150266295Y-77730500D01*
X150284265Y-77731809D01*
X150308023Y-77735289D01*
X150360068Y-77730735D01*
X150365470Y-77730500D01*
X150373704Y-77730500D01*
X150373709Y-77730500D01*
X150385327Y-77729141D01*
X150406276Y-77726693D01*
X150419028Y-77725577D01*
X150482797Y-77719999D01*
X150482805Y-77719996D01*
X150489866Y-77718539D01*
X150489878Y-77718598D01*
X150497243Y-77716965D01*
X150497229Y-77716906D01*
X150504246Y-77715241D01*
X150504255Y-77715241D01*
X150576423Y-77688974D01*
X150649334Y-77664814D01*
X150649343Y-77664807D01*
X150655882Y-77661760D01*
X150655908Y-77661816D01*
X150662690Y-77658532D01*
X150662663Y-77658478D01*
X150669106Y-77655240D01*
X150669117Y-77655237D01*
X150733283Y-77613034D01*
X150798656Y-77572712D01*
X150798662Y-77572705D01*
X150804325Y-77568229D01*
X150804363Y-77568277D01*
X150810200Y-77563522D01*
X150810161Y-77563475D01*
X150815696Y-77558830D01*
X150868385Y-77502983D01*
X153309088Y-75062279D01*
X154192475Y-74178891D01*
X154253796Y-74145408D01*
X154300557Y-74144265D01*
X154487737Y-74175500D01*
X154487738Y-74175500D01*
X154732262Y-74175500D01*
X154732263Y-74175500D01*
X154973455Y-74135252D01*
X155204733Y-74055855D01*
X155419788Y-73939473D01*
X155612754Y-73789281D01*
X155778368Y-73609377D01*
X155912111Y-73404667D01*
X156010336Y-73180736D01*
X156070364Y-72943692D01*
X156070903Y-72937185D01*
X156090557Y-72700005D01*
X156090557Y-72699994D01*
X156070365Y-72456316D01*
X156070363Y-72456304D01*
X156060125Y-72415874D01*
X156010336Y-72219264D01*
X155912111Y-71995333D01*
X155778368Y-71790623D01*
X155778367Y-71790621D01*
X155612757Y-71610722D01*
X155612756Y-71610721D01*
X155612754Y-71610719D01*
X155505334Y-71527110D01*
X155419786Y-71460525D01*
X155416671Y-71458490D01*
X155371318Y-71405341D01*
X155360500Y-71354686D01*
X155360500Y-66383705D01*
X155361809Y-66365735D01*
X155365289Y-66341974D01*
X155360736Y-66289939D01*
X155360500Y-66284532D01*
X155360500Y-66276296D01*
X155360500Y-66276291D01*
X155356691Y-66243705D01*
X155349998Y-66167203D01*
X155349995Y-66167194D01*
X155348538Y-66160135D01*
X155348598Y-66160122D01*
X155346966Y-66152764D01*
X155346908Y-66152778D01*
X155345241Y-66145747D01*
X155345241Y-66145745D01*
X155318969Y-66073563D01*
X155305308Y-66032335D01*
X155294815Y-66000668D01*
X155291762Y-65994121D01*
X155291815Y-65994095D01*
X155288531Y-65987311D01*
X155288479Y-65987338D01*
X155285236Y-65980882D01*
X155273259Y-65962672D01*
X155243034Y-65916716D01*
X155207661Y-65859367D01*
X155202714Y-65851347D01*
X155198234Y-65845681D01*
X155198280Y-65845643D01*
X155193519Y-65839799D01*
X155193474Y-65839838D01*
X155188834Y-65834308D01*
X155132982Y-65781613D01*
X154616818Y-65265449D01*
X154583333Y-65204126D01*
X154580499Y-65177768D01*
X154580499Y-63542129D01*
X154580498Y-63542123D01*
X154580497Y-63542116D01*
X154574091Y-63482517D01*
X154551770Y-63422672D01*
X154523797Y-63347671D01*
X154523793Y-63347664D01*
X154437547Y-63232455D01*
X154437544Y-63232452D01*
X154322335Y-63146206D01*
X154322328Y-63146202D01*
X154187482Y-63095908D01*
X154187483Y-63095908D01*
X154127883Y-63089501D01*
X154127881Y-63089500D01*
X154127873Y-63089500D01*
X154127864Y-63089500D01*
X151832129Y-63089500D01*
X151832123Y-63089501D01*
X151772516Y-63095908D01*
X151637671Y-63146202D01*
X151637664Y-63146206D01*
X151522455Y-63232452D01*
X151522452Y-63232455D01*
X151436206Y-63347664D01*
X151436202Y-63347671D01*
X151385908Y-63482517D01*
X151381083Y-63527401D01*
X151379501Y-63542123D01*
X151379500Y-63542135D01*
X151379500Y-65837870D01*
X151379501Y-65837876D01*
X151385908Y-65897483D01*
X151436202Y-66032328D01*
X151436206Y-66032335D01*
X151522452Y-66147544D01*
X151522455Y-66147547D01*
X151637664Y-66233793D01*
X151637671Y-66233797D01*
X151772517Y-66284091D01*
X151772516Y-66284091D01*
X151779444Y-66284835D01*
X151832127Y-66290500D01*
X153467769Y-66290499D01*
X153534808Y-66310184D01*
X153555450Y-66326818D01*
X153823181Y-66594548D01*
X153856666Y-66655871D01*
X153859500Y-66682229D01*
X153859500Y-71354686D01*
X153839815Y-71421725D01*
X153803329Y-71458490D01*
X153800213Y-71460525D01*
X153607247Y-71610718D01*
X153607242Y-71610722D01*
X153441632Y-71790621D01*
X153307888Y-71995333D01*
X153209663Y-72219265D01*
X153149636Y-72456304D01*
X153149634Y-72456316D01*
X153129443Y-72699994D01*
X153129443Y-72700005D01*
X153149635Y-72943688D01*
X153163721Y-72999313D01*
X153161095Y-73069134D01*
X153131196Y-73117434D01*
X150055451Y-76193181D01*
X149994128Y-76226666D01*
X149967770Y-76229500D01*
X125966663Y-76229500D01*
X125899624Y-76209815D01*
X125865088Y-76176623D01*
X125840045Y-76140858D01*
X125679141Y-75979954D01*
X125492734Y-75849432D01*
X125492732Y-75849431D01*
X125286497Y-75753261D01*
X125286488Y-75753258D01*
X125066697Y-75694366D01*
X125066693Y-75694365D01*
X125066692Y-75694365D01*
X125066691Y-75694364D01*
X125066686Y-75694364D01*
X124840002Y-75674532D01*
X124839997Y-75674532D01*
X124673137Y-75689129D01*
X124604637Y-75675362D01*
X124574650Y-75653282D01*
X123538500Y-74617132D01*
X123505015Y-74555809D01*
X123509999Y-74486117D01*
X123532466Y-74448251D01*
X123590519Y-74381256D01*
X123592090Y-74378536D01*
X123695601Y-74199249D01*
X123695600Y-74199249D01*
X123695604Y-74199244D01*
X123764344Y-74000633D01*
X123794254Y-73792602D01*
X123789113Y-73684681D01*
X146182066Y-73684681D01*
X146192065Y-73894607D01*
X146241616Y-74098858D01*
X146241618Y-74098862D01*
X146328918Y-74290023D01*
X146328921Y-74290028D01*
X146328922Y-74290030D01*
X146328924Y-74290033D01*
X146448004Y-74457258D01*
X146450835Y-74461233D01*
X146450840Y-74461239D01*
X146602940Y-74606265D01*
X146697898Y-74667291D01*
X146779748Y-74719893D01*
X146974863Y-74798005D01*
X147054257Y-74813307D01*
X147181234Y-74837780D01*
X147181235Y-74837780D01*
X148138739Y-74837780D01*
X148138745Y-74837780D01*
X148295538Y-74822808D01*
X148497195Y-74763596D01*
X148684002Y-74667291D01*
X148849206Y-74537372D01*
X148986839Y-74378536D01*
X148988697Y-74375319D01*
X149090351Y-74199249D01*
X149091924Y-74196524D01*
X149160664Y-73997913D01*
X149190574Y-73789882D01*
X149180574Y-73579950D01*
X149131024Y-73375704D01*
X149131021Y-73375697D01*
X149043721Y-73184536D01*
X149043718Y-73184531D01*
X149043717Y-73184530D01*
X149043716Y-73184527D01*
X148921806Y-73013328D01*
X148921804Y-73013326D01*
X148921799Y-73013320D01*
X148769699Y-72868294D01*
X148592894Y-72754668D01*
X148397775Y-72676554D01*
X148191406Y-72636780D01*
X148191405Y-72636780D01*
X147233895Y-72636780D01*
X147077102Y-72651752D01*
X147077098Y-72651753D01*
X146875447Y-72710963D01*
X146688633Y-72807271D01*
X146523436Y-72937185D01*
X146523432Y-72937189D01*
X146385798Y-73096026D01*
X146280718Y-73278030D01*
X146211976Y-73476645D01*
X146211976Y-73476647D01*
X146192893Y-73609378D01*
X146182066Y-73684681D01*
X123789113Y-73684681D01*
X123784254Y-73582670D01*
X123734704Y-73378424D01*
X123733462Y-73375704D01*
X123647401Y-73187256D01*
X123647398Y-73187251D01*
X123647397Y-73187250D01*
X123647396Y-73187247D01*
X123525486Y-73016048D01*
X123525484Y-73016046D01*
X123525479Y-73016040D01*
X123373379Y-72871014D01*
X123196574Y-72757388D01*
X123189777Y-72754667D01*
X123001457Y-72679275D01*
X123001455Y-72679274D01*
X122795086Y-72639500D01*
X122795085Y-72639500D01*
X121837575Y-72639500D01*
X121680782Y-72654472D01*
X121680778Y-72654473D01*
X121479124Y-72713684D01*
X121332569Y-72789237D01*
X121263962Y-72802459D01*
X121199097Y-72776491D01*
X121188069Y-72766702D01*
X121097921Y-72676554D01*
X120932368Y-72511000D01*
X120929940Y-72508426D01*
X120887326Y-72460541D01*
X120878139Y-72454108D01*
X120861581Y-72440214D01*
X120236819Y-71815451D01*
X120203334Y-71754128D01*
X120200500Y-71727770D01*
X120200500Y-71147401D01*
X120785746Y-71147401D01*
X120795745Y-71357327D01*
X120845296Y-71561578D01*
X120845298Y-71561582D01*
X120932598Y-71752743D01*
X120932601Y-71752748D01*
X120932602Y-71752750D01*
X120932604Y-71752753D01*
X121049802Y-71917335D01*
X121054515Y-71923953D01*
X121054520Y-71923959D01*
X121206620Y-72068985D01*
X121301578Y-72130011D01*
X121383428Y-72182613D01*
X121578543Y-72260725D01*
X121681729Y-72280612D01*
X121784914Y-72300500D01*
X121784915Y-72300500D01*
X122742419Y-72300500D01*
X122742425Y-72300500D01*
X122899218Y-72285528D01*
X123100875Y-72226316D01*
X123287682Y-72130011D01*
X123452886Y-72000092D01*
X123590519Y-71841256D01*
X123592090Y-71838536D01*
X123695601Y-71659249D01*
X123695600Y-71659249D01*
X123695604Y-71659244D01*
X123764344Y-71460633D01*
X123794254Y-71252602D01*
X123789113Y-71144681D01*
X146182066Y-71144681D01*
X146192065Y-71354607D01*
X146241616Y-71558858D01*
X146241618Y-71558862D01*
X146328918Y-71750023D01*
X146328921Y-71750028D01*
X146328922Y-71750030D01*
X146328924Y-71750033D01*
X146448054Y-71917328D01*
X146450835Y-71921233D01*
X146450840Y-71921239D01*
X146602940Y-72066265D01*
X146707885Y-72133709D01*
X146779748Y-72179893D01*
X146974863Y-72258005D01*
X147078049Y-72277892D01*
X147181234Y-72297780D01*
X147181235Y-72297780D01*
X148138739Y-72297780D01*
X148138745Y-72297780D01*
X148295538Y-72282808D01*
X148497195Y-72223596D01*
X148684002Y-72127291D01*
X148689759Y-72122764D01*
X148800941Y-72035328D01*
X148849206Y-71997372D01*
X148986839Y-71838536D01*
X149053612Y-71722883D01*
X149090351Y-71659249D01*
X149091924Y-71656524D01*
X149160664Y-71457913D01*
X149190574Y-71249882D01*
X149180574Y-71039950D01*
X149131024Y-70835704D01*
X149131021Y-70835697D01*
X149043721Y-70644536D01*
X149043718Y-70644531D01*
X149043717Y-70644530D01*
X149043716Y-70644527D01*
X148921806Y-70473328D01*
X148921804Y-70473326D01*
X148921799Y-70473320D01*
X148769699Y-70328294D01*
X148592894Y-70214668D01*
X148397775Y-70136554D01*
X148191406Y-70096780D01*
X148191405Y-70096780D01*
X147233895Y-70096780D01*
X147077102Y-70111752D01*
X147077098Y-70111753D01*
X146875447Y-70170963D01*
X146688633Y-70267271D01*
X146523436Y-70397185D01*
X146523432Y-70397189D01*
X146385798Y-70556026D01*
X146280718Y-70738030D01*
X146211976Y-70936645D01*
X146211976Y-70936647D01*
X146183247Y-71136469D01*
X146182066Y-71144681D01*
X123789113Y-71144681D01*
X123784254Y-71042670D01*
X123734704Y-70838424D01*
X123733462Y-70835704D01*
X123647401Y-70647256D01*
X123647398Y-70647251D01*
X123647397Y-70647250D01*
X123647396Y-70647247D01*
X123525486Y-70476048D01*
X123525484Y-70476046D01*
X123525479Y-70476040D01*
X123373379Y-70331014D01*
X123196574Y-70217388D01*
X123189777Y-70214667D01*
X123057215Y-70161597D01*
X123001455Y-70139274D01*
X122795086Y-70099500D01*
X122795085Y-70099500D01*
X121837575Y-70099500D01*
X121680782Y-70114472D01*
X121680778Y-70114473D01*
X121479127Y-70173683D01*
X121292313Y-70269991D01*
X121127116Y-70399905D01*
X121127112Y-70399909D01*
X120989478Y-70558746D01*
X120884398Y-70740750D01*
X120815656Y-70939365D01*
X120815656Y-70939367D01*
X120786138Y-71144678D01*
X120785746Y-71147401D01*
X120200500Y-71147401D01*
X120200500Y-68607401D01*
X120785746Y-68607401D01*
X120795745Y-68817327D01*
X120845296Y-69021578D01*
X120845298Y-69021582D01*
X120932598Y-69212743D01*
X120932601Y-69212748D01*
X120932602Y-69212750D01*
X120932604Y-69212753D01*
X121042766Y-69367454D01*
X121054515Y-69383953D01*
X121054520Y-69383959D01*
X121206620Y-69528985D01*
X121301578Y-69590011D01*
X121383428Y-69642613D01*
X121578543Y-69720725D01*
X121681729Y-69740612D01*
X121784914Y-69760500D01*
X121784915Y-69760500D01*
X122742419Y-69760500D01*
X122742425Y-69760500D01*
X122899218Y-69745528D01*
X123100875Y-69686316D01*
X123287682Y-69590011D01*
X123452886Y-69460092D01*
X123590519Y-69301256D01*
X123637751Y-69219449D01*
X123695601Y-69119249D01*
X123695600Y-69119249D01*
X123695604Y-69119244D01*
X123764344Y-68920633D01*
X123794254Y-68712602D01*
X123789243Y-68607401D01*
X146185746Y-68607401D01*
X146195745Y-68817327D01*
X146245296Y-69021578D01*
X146245298Y-69021582D01*
X146332598Y-69212743D01*
X146332601Y-69212748D01*
X146332602Y-69212750D01*
X146332604Y-69212753D01*
X146442766Y-69367454D01*
X146454515Y-69383953D01*
X146454520Y-69383959D01*
X146606620Y-69528985D01*
X146701578Y-69590011D01*
X146783428Y-69642613D01*
X146978543Y-69720725D01*
X147081729Y-69740612D01*
X147184914Y-69760500D01*
X147184915Y-69760500D01*
X148142419Y-69760500D01*
X148142425Y-69760500D01*
X148299218Y-69745528D01*
X148500875Y-69686316D01*
X148687682Y-69590011D01*
X148852886Y-69460092D01*
X148990519Y-69301256D01*
X149037751Y-69219449D01*
X149095601Y-69119249D01*
X149095600Y-69119249D01*
X149095604Y-69119244D01*
X149164344Y-68920633D01*
X149194254Y-68712602D01*
X149184254Y-68502670D01*
X149134704Y-68298424D01*
X149102480Y-68227863D01*
X149047401Y-68107256D01*
X149047398Y-68107251D01*
X149047397Y-68107250D01*
X149047396Y-68107247D01*
X148925486Y-67936048D01*
X148925484Y-67936046D01*
X148925479Y-67936040D01*
X148773379Y-67791014D01*
X148596574Y-67677388D01*
X148401455Y-67599274D01*
X148195086Y-67559500D01*
X148195085Y-67559500D01*
X147237575Y-67559500D01*
X147080782Y-67574472D01*
X147080778Y-67574473D01*
X146879127Y-67633683D01*
X146692313Y-67729991D01*
X146527116Y-67859905D01*
X146527112Y-67859909D01*
X146389478Y-68018746D01*
X146284398Y-68200750D01*
X146215656Y-68399365D01*
X146215656Y-68399367D01*
X146200804Y-68502670D01*
X146185746Y-68607401D01*
X123789243Y-68607401D01*
X123784254Y-68502670D01*
X123734704Y-68298424D01*
X123702480Y-68227863D01*
X123647401Y-68107256D01*
X123647398Y-68107251D01*
X123647397Y-68107250D01*
X123647396Y-68107247D01*
X123525486Y-67936048D01*
X123525484Y-67936046D01*
X123525479Y-67936040D01*
X123373379Y-67791014D01*
X123196574Y-67677388D01*
X123001455Y-67599274D01*
X122795086Y-67559500D01*
X122795085Y-67559500D01*
X121837575Y-67559500D01*
X121680782Y-67574472D01*
X121680778Y-67574473D01*
X121479127Y-67633683D01*
X121292313Y-67729991D01*
X121127116Y-67859905D01*
X121127112Y-67859909D01*
X120989478Y-68018746D01*
X120884398Y-68200750D01*
X120815656Y-68399365D01*
X120815656Y-68399367D01*
X120800804Y-68502670D01*
X120785746Y-68607401D01*
X120200500Y-68607401D01*
X120200500Y-66313705D01*
X120201809Y-66295735D01*
X120203450Y-66284532D01*
X120205289Y-66271977D01*
X120205282Y-66271901D01*
X120201949Y-66233797D01*
X120200735Y-66219933D01*
X120200500Y-66214532D01*
X120200500Y-66206297D01*
X120200500Y-66206291D01*
X120196691Y-66173707D01*
X120189998Y-66097202D01*
X120189996Y-66097197D01*
X120188538Y-66090133D01*
X120188597Y-66090120D01*
X120186967Y-66082764D01*
X120186908Y-66082779D01*
X120185242Y-66075753D01*
X120185241Y-66075745D01*
X120182204Y-66067401D01*
X120785746Y-66067401D01*
X120795745Y-66277327D01*
X120845296Y-66481578D01*
X120845298Y-66481582D01*
X120932598Y-66672743D01*
X120932601Y-66672748D01*
X120932602Y-66672750D01*
X120932604Y-66672753D01*
X120995627Y-66761256D01*
X121054515Y-66843953D01*
X121054520Y-66843959D01*
X121206620Y-66988985D01*
X121301578Y-67050011D01*
X121383428Y-67102613D01*
X121578543Y-67180725D01*
X121681729Y-67200612D01*
X121784914Y-67220500D01*
X121784915Y-67220500D01*
X122742419Y-67220500D01*
X122742425Y-67220500D01*
X122899218Y-67205528D01*
X123100875Y-67146316D01*
X123287682Y-67050011D01*
X123452886Y-66920092D01*
X123590519Y-66761256D01*
X123606981Y-66732744D01*
X123695601Y-66579249D01*
X123695600Y-66579249D01*
X123695604Y-66579244D01*
X123764344Y-66380633D01*
X123794254Y-66172602D01*
X123789243Y-66067401D01*
X146185746Y-66067401D01*
X146195745Y-66277327D01*
X146245296Y-66481578D01*
X146245298Y-66481582D01*
X146332598Y-66672743D01*
X146332601Y-66672748D01*
X146332602Y-66672750D01*
X146332604Y-66672753D01*
X146395627Y-66761256D01*
X146454515Y-66843953D01*
X146454520Y-66843959D01*
X146606620Y-66988985D01*
X146701578Y-67050011D01*
X146783428Y-67102613D01*
X146978543Y-67180725D01*
X147081729Y-67200612D01*
X147184914Y-67220500D01*
X147184915Y-67220500D01*
X148142419Y-67220500D01*
X148142425Y-67220500D01*
X148299218Y-67205528D01*
X148500875Y-67146316D01*
X148687682Y-67050011D01*
X148852886Y-66920092D01*
X148990519Y-66761256D01*
X149006981Y-66732744D01*
X149095601Y-66579249D01*
X149095600Y-66579249D01*
X149095604Y-66579244D01*
X149164344Y-66380633D01*
X149194254Y-66172602D01*
X149184254Y-65962670D01*
X149134704Y-65758424D01*
X149113319Y-65711597D01*
X149047401Y-65567256D01*
X149047398Y-65567251D01*
X149047397Y-65567250D01*
X149047396Y-65567247D01*
X148925486Y-65396048D01*
X148925484Y-65396046D01*
X148925479Y-65396040D01*
X148773379Y-65251014D01*
X148596574Y-65137388D01*
X148401455Y-65059274D01*
X148195086Y-65019500D01*
X148195085Y-65019500D01*
X147237575Y-65019500D01*
X147080782Y-65034472D01*
X147080778Y-65034473D01*
X146879127Y-65093683D01*
X146692313Y-65189991D01*
X146527116Y-65319905D01*
X146527112Y-65319909D01*
X146389478Y-65478746D01*
X146284398Y-65660750D01*
X146215656Y-65859365D01*
X146215656Y-65859367D01*
X146190788Y-66032335D01*
X146185746Y-66067401D01*
X123789243Y-66067401D01*
X123784254Y-65962670D01*
X123734704Y-65758424D01*
X123713319Y-65711597D01*
X123647401Y-65567256D01*
X123647398Y-65567251D01*
X123647397Y-65567250D01*
X123647396Y-65567247D01*
X123525486Y-65396048D01*
X123525484Y-65396046D01*
X123525479Y-65396040D01*
X123373379Y-65251014D01*
X123196574Y-65137388D01*
X123001455Y-65059274D01*
X122795086Y-65019500D01*
X122795085Y-65019500D01*
X121837575Y-65019500D01*
X121680782Y-65034472D01*
X121680778Y-65034473D01*
X121479127Y-65093683D01*
X121292313Y-65189991D01*
X121127116Y-65319905D01*
X121127112Y-65319909D01*
X120989478Y-65478746D01*
X120884398Y-65660750D01*
X120815656Y-65859365D01*
X120815656Y-65859367D01*
X120790788Y-66032335D01*
X120785746Y-66067401D01*
X120182204Y-66067401D01*
X120158973Y-66003573D01*
X120154091Y-65988839D01*
X120134815Y-65930666D01*
X120131763Y-65924121D01*
X120131817Y-65924095D01*
X120128533Y-65917312D01*
X120128480Y-65917340D01*
X120125238Y-65910885D01*
X120125237Y-65910883D01*
X120083029Y-65846709D01*
X120042711Y-65781344D01*
X120042710Y-65781343D01*
X120042709Y-65781341D01*
X120038233Y-65775681D01*
X120038280Y-65775643D01*
X120033519Y-65769799D01*
X120033474Y-65769838D01*
X120028834Y-65764308D01*
X120022597Y-65758424D01*
X120018528Y-65754584D01*
X119972964Y-65711596D01*
X117788769Y-63527401D01*
X120785746Y-63527401D01*
X120795745Y-63737327D01*
X120845296Y-63941578D01*
X120845298Y-63941582D01*
X120932598Y-64132743D01*
X120932601Y-64132748D01*
X120932602Y-64132750D01*
X120932604Y-64132753D01*
X121041796Y-64286092D01*
X121054515Y-64303953D01*
X121054520Y-64303959D01*
X121206620Y-64448985D01*
X121301578Y-64510011D01*
X121383428Y-64562613D01*
X121578543Y-64640725D01*
X121681729Y-64660612D01*
X121784914Y-64680500D01*
X121784915Y-64680500D01*
X122742419Y-64680500D01*
X122742425Y-64680500D01*
X122899218Y-64665528D01*
X123100875Y-64606316D01*
X123287682Y-64510011D01*
X123452886Y-64380092D01*
X123590519Y-64221256D01*
X123592071Y-64218569D01*
X123695601Y-64039249D01*
X123695600Y-64039249D01*
X123695604Y-64039244D01*
X123764344Y-63840633D01*
X123794254Y-63632602D01*
X123789243Y-63527401D01*
X146185746Y-63527401D01*
X146195745Y-63737327D01*
X146245296Y-63941578D01*
X146245298Y-63941582D01*
X146332598Y-64132743D01*
X146332601Y-64132748D01*
X146332602Y-64132750D01*
X146332604Y-64132753D01*
X146441796Y-64286092D01*
X146454515Y-64303953D01*
X146454520Y-64303959D01*
X146606620Y-64448985D01*
X146701578Y-64510011D01*
X146783428Y-64562613D01*
X146978543Y-64640725D01*
X147081729Y-64660612D01*
X147184914Y-64680500D01*
X147184915Y-64680500D01*
X148142419Y-64680500D01*
X148142425Y-64680500D01*
X148299218Y-64665528D01*
X148500875Y-64606316D01*
X148687682Y-64510011D01*
X148852886Y-64380092D01*
X148990519Y-64221256D01*
X148992071Y-64218569D01*
X149095601Y-64039249D01*
X149095600Y-64039249D01*
X149095604Y-64039244D01*
X149164344Y-63840633D01*
X149194254Y-63632602D01*
X149184254Y-63422670D01*
X149134704Y-63218424D01*
X149109451Y-63163127D01*
X149047401Y-63027256D01*
X149047398Y-63027251D01*
X149047397Y-63027250D01*
X149047396Y-63027247D01*
X148925486Y-62856048D01*
X148925484Y-62856046D01*
X148925479Y-62856040D01*
X148773379Y-62711014D01*
X148596574Y-62597388D01*
X148401455Y-62519274D01*
X148195086Y-62479500D01*
X148195085Y-62479500D01*
X147237575Y-62479500D01*
X147080782Y-62494472D01*
X147080778Y-62494473D01*
X146879127Y-62553683D01*
X146692313Y-62649991D01*
X146527116Y-62779905D01*
X146527112Y-62779909D01*
X146389478Y-62938746D01*
X146284398Y-63120750D01*
X146215656Y-63319365D01*
X146215656Y-63319367D01*
X146200804Y-63422670D01*
X146185746Y-63527401D01*
X123789243Y-63527401D01*
X123784254Y-63422670D01*
X123734704Y-63218424D01*
X123709451Y-63163127D01*
X123647401Y-63027256D01*
X123647398Y-63027251D01*
X123647397Y-63027250D01*
X123647396Y-63027247D01*
X123525486Y-62856048D01*
X123525484Y-62856046D01*
X123525479Y-62856040D01*
X123373379Y-62711014D01*
X123196574Y-62597388D01*
X123001455Y-62519274D01*
X122795086Y-62479500D01*
X122795085Y-62479500D01*
X121837575Y-62479500D01*
X121680782Y-62494472D01*
X121680778Y-62494473D01*
X121479127Y-62553683D01*
X121292313Y-62649991D01*
X121127116Y-62779905D01*
X121127112Y-62779909D01*
X120989478Y-62938746D01*
X120884398Y-63120750D01*
X120815656Y-63319365D01*
X120815656Y-63319367D01*
X120800804Y-63422670D01*
X120785746Y-63527401D01*
X117788769Y-63527401D01*
X115711367Y-61449999D01*
X117151127Y-61449999D01*
X117151128Y-61450000D01*
X118114314Y-61450000D01*
X118102359Y-61461955D01*
X118044835Y-61574852D01*
X118025014Y-61700000D01*
X118044835Y-61825148D01*
X118102359Y-61938045D01*
X118114314Y-61950000D01*
X117151128Y-61950000D01*
X117203730Y-62146317D01*
X117203734Y-62146326D01*
X117299865Y-62352482D01*
X117430342Y-62538820D01*
X117591179Y-62699657D01*
X117777517Y-62830134D01*
X117983673Y-62926265D01*
X117983682Y-62926269D01*
X118179999Y-62978872D01*
X118180000Y-62978871D01*
X118180000Y-62015686D01*
X118191955Y-62027641D01*
X118304852Y-62085165D01*
X118398519Y-62100000D01*
X118461481Y-62100000D01*
X118555148Y-62085165D01*
X118668045Y-62027641D01*
X118680000Y-62015686D01*
X118680000Y-62978872D01*
X118876317Y-62926269D01*
X118876326Y-62926265D01*
X119082482Y-62830134D01*
X119268820Y-62699657D01*
X119429657Y-62538820D01*
X119560134Y-62352482D01*
X119656265Y-62146326D01*
X119656269Y-62146317D01*
X119708872Y-61950000D01*
X118745686Y-61950000D01*
X118757641Y-61938045D01*
X118815165Y-61825148D01*
X118834986Y-61700000D01*
X118815165Y-61574852D01*
X118757641Y-61461955D01*
X118745686Y-61450000D01*
X119708872Y-61450000D01*
X119708872Y-61449999D01*
X119656269Y-61253681D01*
X119656265Y-61253673D01*
X119560134Y-61047517D01*
X119429657Y-60861179D01*
X119358478Y-60790000D01*
X120814632Y-60790000D01*
X121974314Y-60790000D01*
X121962359Y-60801955D01*
X121904835Y-60914852D01*
X121885014Y-61040000D01*
X121904835Y-61165148D01*
X121962359Y-61278045D01*
X121974314Y-61290000D01*
X120818742Y-61290000D01*
X120845770Y-61401409D01*
X120933040Y-61592507D01*
X121054889Y-61763619D01*
X121054895Y-61763625D01*
X121206932Y-61908592D01*
X121383657Y-62022166D01*
X121578685Y-62100244D01*
X121784962Y-62140000D01*
X122040000Y-62140000D01*
X122040000Y-61355686D01*
X122051955Y-61367641D01*
X122164852Y-61425165D01*
X122258519Y-61440000D01*
X122321481Y-61440000D01*
X122415148Y-61425165D01*
X122528045Y-61367641D01*
X122540000Y-61355686D01*
X122540000Y-62140000D01*
X122742398Y-62140000D01*
X122899122Y-62125034D01*
X122899126Y-62125033D01*
X123100686Y-62065850D01*
X123287414Y-61969586D01*
X123452537Y-61839731D01*
X123452540Y-61839728D01*
X123590105Y-61680969D01*
X123590114Y-61680958D01*
X123695144Y-61499039D01*
X123695147Y-61499032D01*
X123763855Y-61300517D01*
X123763855Y-61300515D01*
X123765368Y-61290000D01*
X122605686Y-61290000D01*
X122617641Y-61278045D01*
X122675165Y-61165148D01*
X122694986Y-61040000D01*
X122686655Y-60987401D01*
X146185746Y-60987401D01*
X146195745Y-61197327D01*
X146245296Y-61401578D01*
X146245298Y-61401582D01*
X146332598Y-61592743D01*
X146332601Y-61592748D01*
X146332602Y-61592750D01*
X146332604Y-61592753D01*
X146395627Y-61681256D01*
X146454515Y-61763953D01*
X146454520Y-61763959D01*
X146606620Y-61908985D01*
X146701578Y-61970011D01*
X146783428Y-62022613D01*
X146978543Y-62100725D01*
X147081729Y-62120612D01*
X147184914Y-62140500D01*
X147184915Y-62140500D01*
X148142419Y-62140500D01*
X148142425Y-62140500D01*
X148299218Y-62125528D01*
X148500875Y-62066316D01*
X148687682Y-61970011D01*
X148688223Y-61969586D01*
X148852883Y-61840094D01*
X148852886Y-61840092D01*
X148990519Y-61681256D01*
X149095604Y-61499244D01*
X149164344Y-61300633D01*
X149194254Y-61092602D01*
X149184254Y-60882670D01*
X149134704Y-60678424D01*
X149123931Y-60654835D01*
X149047401Y-60487256D01*
X149047398Y-60487251D01*
X149047397Y-60487250D01*
X149047396Y-60487247D01*
X148925486Y-60316048D01*
X148925484Y-60316046D01*
X148925479Y-60316040D01*
X148773379Y-60171014D01*
X148596574Y-60057388D01*
X148401455Y-59979274D01*
X148195086Y-59939500D01*
X148195085Y-59939500D01*
X147237575Y-59939500D01*
X147080782Y-59954472D01*
X147080778Y-59954473D01*
X146879127Y-60013683D01*
X146692313Y-60109991D01*
X146527116Y-60239905D01*
X146527112Y-60239909D01*
X146389478Y-60398746D01*
X146284398Y-60580750D01*
X146215656Y-60779365D01*
X146215656Y-60779367D01*
X146193633Y-60932547D01*
X146185746Y-60987401D01*
X122686655Y-60987401D01*
X122675165Y-60914852D01*
X122617641Y-60801955D01*
X122605686Y-60790000D01*
X123761257Y-60790000D01*
X123734229Y-60678590D01*
X123646959Y-60487492D01*
X123525110Y-60316380D01*
X123525104Y-60316374D01*
X123373067Y-60171407D01*
X123196342Y-60057833D01*
X123001314Y-59979755D01*
X122795038Y-59940000D01*
X122540000Y-59940000D01*
X122540000Y-60724314D01*
X122528045Y-60712359D01*
X122415148Y-60654835D01*
X122321481Y-60640000D01*
X122258519Y-60640000D01*
X122164852Y-60654835D01*
X122051955Y-60712359D01*
X122040000Y-60724314D01*
X122040000Y-59940000D01*
X121837602Y-59940000D01*
X121680877Y-59954965D01*
X121680873Y-59954966D01*
X121479313Y-60014149D01*
X121292585Y-60110413D01*
X121127462Y-60240268D01*
X121127459Y-60240271D01*
X120989894Y-60399030D01*
X120989885Y-60399041D01*
X120884855Y-60580960D01*
X120884852Y-60580967D01*
X120816144Y-60779482D01*
X120816144Y-60779484D01*
X120814632Y-60790000D01*
X119358478Y-60790000D01*
X119268820Y-60700342D01*
X119082482Y-60569865D01*
X118876328Y-60473734D01*
X118680000Y-60421127D01*
X118680000Y-61384314D01*
X118668045Y-61372359D01*
X118555148Y-61314835D01*
X118461481Y-61300000D01*
X118398519Y-61300000D01*
X118304852Y-61314835D01*
X118191955Y-61372359D01*
X118180000Y-61384314D01*
X118180000Y-60421127D01*
X117983671Y-60473734D01*
X117777517Y-60569865D01*
X117591179Y-60700342D01*
X117430342Y-60861179D01*
X117299865Y-61047517D01*
X117203734Y-61253673D01*
X117203731Y-61253681D01*
X117151127Y-61449999D01*
X115711367Y-61449999D01*
X114776179Y-60514811D01*
X114742694Y-60453488D01*
X114744085Y-60395036D01*
X114760063Y-60335408D01*
X114780659Y-60100000D01*
X114760063Y-59864592D01*
X114698903Y-59636337D01*
X114599035Y-59422171D01*
X114599034Y-59422169D01*
X114463494Y-59228597D01*
X114296403Y-59061506D01*
X114240187Y-59022144D01*
X114139401Y-58951573D01*
X114095778Y-58896999D01*
X114088584Y-58827500D01*
X114120106Y-58765145D01*
X114139398Y-58748428D01*
X114296401Y-58638495D01*
X114463495Y-58471401D01*
X114480300Y-58447401D01*
X120785746Y-58447401D01*
X120795745Y-58657327D01*
X120845296Y-58861578D01*
X120845298Y-58861582D01*
X120932598Y-59052743D01*
X120932601Y-59052748D01*
X120932602Y-59052750D01*
X120932604Y-59052753D01*
X121054514Y-59223952D01*
X121054515Y-59223953D01*
X121054520Y-59223959D01*
X121206620Y-59368985D01*
X121301578Y-59430011D01*
X121383428Y-59482613D01*
X121578543Y-59560725D01*
X121681729Y-59580612D01*
X121784914Y-59600500D01*
X121784915Y-59600500D01*
X122742419Y-59600500D01*
X122742425Y-59600500D01*
X122899218Y-59585528D01*
X123100875Y-59526316D01*
X123287682Y-59430011D01*
X123307115Y-59414729D01*
X123365282Y-59368985D01*
X123452886Y-59300092D01*
X123590519Y-59141256D01*
X123636564Y-59061505D01*
X123695601Y-58959249D01*
X123695600Y-58959249D01*
X123695604Y-58959244D01*
X123764344Y-58760633D01*
X123794254Y-58552602D01*
X123789243Y-58447401D01*
X146185746Y-58447401D01*
X146195745Y-58657327D01*
X146245296Y-58861578D01*
X146245298Y-58861582D01*
X146332598Y-59052743D01*
X146332601Y-59052748D01*
X146332602Y-59052750D01*
X146332604Y-59052753D01*
X146454514Y-59223952D01*
X146454515Y-59223953D01*
X146454520Y-59223959D01*
X146606620Y-59368985D01*
X146701578Y-59430011D01*
X146783428Y-59482613D01*
X146978543Y-59560725D01*
X147081729Y-59580612D01*
X147184914Y-59600500D01*
X147184915Y-59600500D01*
X148142419Y-59600500D01*
X148142425Y-59600500D01*
X148299218Y-59585528D01*
X148500875Y-59526316D01*
X148687682Y-59430011D01*
X148707115Y-59414729D01*
X148765282Y-59368985D01*
X148852886Y-59300092D01*
X148990519Y-59141256D01*
X149036564Y-59061505D01*
X149095601Y-58959249D01*
X149095600Y-58959249D01*
X149095604Y-58959244D01*
X149157641Y-58780000D01*
X152994538Y-58780000D01*
X153014337Y-58981031D01*
X153014338Y-58981033D01*
X153069478Y-59162807D01*
X153073306Y-59175424D01*
X153073929Y-59245291D01*
X153059530Y-59274386D01*
X153060452Y-59274890D01*
X153056202Y-59282671D01*
X153005908Y-59417517D01*
X152999501Y-59477116D01*
X152999500Y-59477135D01*
X152999500Y-60622870D01*
X152999501Y-60622876D01*
X153005908Y-60682483D01*
X153056202Y-60817328D01*
X153056206Y-60817335D01*
X153142452Y-60932544D01*
X153142455Y-60932547D01*
X153257664Y-61018793D01*
X153257671Y-61018797D01*
X153392517Y-61069091D01*
X153392516Y-61069091D01*
X153399444Y-61069835D01*
X153452127Y-61075500D01*
X155047872Y-61075499D01*
X155107483Y-61069091D01*
X155242331Y-61018796D01*
X155357546Y-60932546D01*
X155419199Y-60850188D01*
X155475132Y-60808318D01*
X155518465Y-60800500D01*
X155597770Y-60800500D01*
X155664809Y-60820185D01*
X155685451Y-60836819D01*
X159018097Y-64169465D01*
X159051582Y-64230788D01*
X159050990Y-64286092D01*
X159014317Y-64438850D01*
X159014316Y-64438859D01*
X158994551Y-64689999D01*
X159014317Y-64941151D01*
X159073126Y-65186110D01*
X159169533Y-65418859D01*
X159301160Y-65633653D01*
X159301161Y-65633656D01*
X159301164Y-65633659D01*
X159464776Y-65825224D01*
X159588232Y-65930665D01*
X159656343Y-65988838D01*
X159656346Y-65988839D01*
X159871140Y-66120466D01*
X160078342Y-66206291D01*
X160103889Y-66216873D01*
X160348852Y-66275683D01*
X160600000Y-66295449D01*
X160851148Y-66275683D01*
X161003909Y-66239008D01*
X161073688Y-66242499D01*
X161120531Y-66271899D01*
X163561231Y-68712598D01*
X165823181Y-70974548D01*
X165856666Y-71035871D01*
X165859500Y-71062229D01*
X165859500Y-71354686D01*
X165839815Y-71421725D01*
X165803329Y-71458490D01*
X165800213Y-71460525D01*
X165607247Y-71610718D01*
X165607242Y-71610722D01*
X165441632Y-71790621D01*
X165307888Y-71995333D01*
X165209663Y-72219265D01*
X165149636Y-72456304D01*
X165149634Y-72456316D01*
X165129443Y-72699994D01*
X165129443Y-72700005D01*
X165149634Y-72943683D01*
X165149636Y-72943695D01*
X165209663Y-73180734D01*
X165307888Y-73404666D01*
X165441632Y-73609378D01*
X165607242Y-73789277D01*
X165607252Y-73789286D01*
X165800208Y-73939470D01*
X165800212Y-73939473D01*
X165913227Y-74000634D01*
X166015267Y-74055855D01*
X166015270Y-74055856D01*
X166246541Y-74135251D01*
X166246543Y-74135251D01*
X166246545Y-74135252D01*
X166487737Y-74175500D01*
X166487738Y-74175500D01*
X166732262Y-74175500D01*
X166732263Y-74175500D01*
X166973455Y-74135252D01*
X167204733Y-74055855D01*
X167419788Y-73939473D01*
X167612754Y-73789281D01*
X167778368Y-73609377D01*
X167912111Y-73404667D01*
X168010336Y-73180736D01*
X168070364Y-72943692D01*
X168070903Y-72937185D01*
X168090557Y-72700005D01*
X168090557Y-72699994D01*
X168070365Y-72456316D01*
X168070363Y-72456304D01*
X168060125Y-72415874D01*
X168010336Y-72219264D01*
X167912111Y-71995333D01*
X167778368Y-71790623D01*
X167778367Y-71790621D01*
X167612757Y-71610722D01*
X167612756Y-71610721D01*
X167612754Y-71610719D01*
X167505334Y-71527110D01*
X167419786Y-71460525D01*
X167416671Y-71458490D01*
X167371318Y-71405341D01*
X167360500Y-71354686D01*
X167360500Y-70763705D01*
X167361809Y-70745736D01*
X167365289Y-70721974D01*
X167360736Y-70669934D01*
X167360500Y-70664528D01*
X167360500Y-70656297D01*
X167360500Y-70656291D01*
X167356693Y-70623724D01*
X167349999Y-70547203D01*
X167349999Y-70547201D01*
X167348539Y-70540129D01*
X167348597Y-70540116D01*
X167346965Y-70532757D01*
X167346906Y-70532772D01*
X167345242Y-70525753D01*
X167345241Y-70525745D01*
X167318974Y-70453576D01*
X167294814Y-70380666D01*
X167294809Y-70380659D01*
X167291760Y-70374118D01*
X167291815Y-70374091D01*
X167288533Y-70367313D01*
X167288480Y-70367340D01*
X167285235Y-70360880D01*
X167243028Y-70296708D01*
X167202710Y-70231342D01*
X167198234Y-70225682D01*
X167198281Y-70225644D01*
X167193519Y-70219799D01*
X167193474Y-70219838D01*
X167188834Y-70214308D01*
X167132964Y-70161596D01*
X162181901Y-65210533D01*
X162148416Y-65149210D01*
X162149007Y-65093910D01*
X162185683Y-64941148D01*
X162205449Y-64690000D01*
X162185683Y-64438852D01*
X162126873Y-64193889D01*
X162101546Y-64132743D01*
X162030466Y-63961140D01*
X161898839Y-63746346D01*
X161898838Y-63746343D01*
X161861875Y-63703066D01*
X161735224Y-63554776D01*
X161580548Y-63422670D01*
X161543656Y-63391161D01*
X161543653Y-63391160D01*
X161328859Y-63259533D01*
X161096110Y-63163126D01*
X160851151Y-63104317D01*
X160662787Y-63089492D01*
X160600000Y-63084551D01*
X160599999Y-63084551D01*
X160348859Y-63104316D01*
X160348850Y-63104317D01*
X160196092Y-63140990D01*
X160126310Y-63137499D01*
X160079465Y-63108097D01*
X156535729Y-59564361D01*
X156523949Y-59550730D01*
X156516482Y-59540701D01*
X156509612Y-59531472D01*
X156509610Y-59531470D01*
X156469587Y-59497886D01*
X156465612Y-59494244D01*
X156462690Y-59491322D01*
X156459780Y-59488411D01*
X156434040Y-59468059D01*
X156379352Y-59422170D01*
X156375214Y-59418698D01*
X156375213Y-59418697D01*
X156375209Y-59418694D01*
X156369180Y-59414729D01*
X156369212Y-59414680D01*
X156362853Y-59410628D01*
X156362822Y-59410679D01*
X156356680Y-59406891D01*
X156356678Y-59406890D01*
X156356677Y-59406889D01*
X156287057Y-59374424D01*
X156227416Y-59344471D01*
X156176343Y-59296794D01*
X156159153Y-59229072D01*
X156181305Y-59162807D01*
X156195382Y-59145985D01*
X157671367Y-57670000D01*
X159944473Y-57670000D01*
X159964563Y-58002136D01*
X159964563Y-58002141D01*
X159964564Y-58002142D01*
X160024544Y-58329441D01*
X160024545Y-58329445D01*
X160024546Y-58329449D01*
X160123530Y-58647104D01*
X160123534Y-58647116D01*
X160123537Y-58647123D01*
X160260102Y-58950557D01*
X160388412Y-59162807D01*
X160432251Y-59235326D01*
X160637460Y-59497255D01*
X160872744Y-59732539D01*
X161134673Y-59937748D01*
X161134678Y-59937751D01*
X161134682Y-59937754D01*
X161419443Y-60109898D01*
X161722877Y-60246463D01*
X161722890Y-60246467D01*
X161722895Y-60246469D01*
X161934665Y-60312458D01*
X162040559Y-60345456D01*
X162367858Y-60405436D01*
X162545740Y-60416196D01*
X162616892Y-60420500D01*
X162616894Y-60420500D01*
X162783108Y-60420500D01*
X162845365Y-60416734D01*
X163032142Y-60405436D01*
X163359441Y-60345456D01*
X163677123Y-60246463D01*
X163980557Y-60109898D01*
X164265318Y-59937754D01*
X164527252Y-59732542D01*
X164762542Y-59497252D01*
X164967754Y-59235318D01*
X165139898Y-58950557D01*
X165276463Y-58647123D01*
X165375456Y-58329441D01*
X165435436Y-58002142D01*
X165455527Y-57670000D01*
X165435436Y-57337858D01*
X165375456Y-57010559D01*
X165312485Y-56808475D01*
X165276469Y-56692895D01*
X165276467Y-56692890D01*
X165276463Y-56692877D01*
X165139898Y-56389443D01*
X164967754Y-56104682D01*
X164967751Y-56104678D01*
X164967748Y-56104673D01*
X164762539Y-55842744D01*
X164527255Y-55607460D01*
X164265326Y-55402251D01*
X164265318Y-55402246D01*
X163980557Y-55230102D01*
X163677123Y-55093537D01*
X163677116Y-55093534D01*
X163677104Y-55093530D01*
X163359449Y-54994546D01*
X163359445Y-54994545D01*
X163359441Y-54994544D01*
X163032142Y-54934564D01*
X163032141Y-54934563D01*
X163032136Y-54934563D01*
X162783108Y-54919500D01*
X162783106Y-54919500D01*
X162616894Y-54919500D01*
X162616892Y-54919500D01*
X162367863Y-54934563D01*
X162367858Y-54934564D01*
X162040559Y-54994544D01*
X162040556Y-54994544D01*
X162040550Y-54994546D01*
X161722895Y-55093530D01*
X161722879Y-55093536D01*
X161722877Y-55093537D01*
X161658973Y-55122298D01*
X161462846Y-55210568D01*
X161419443Y-55230102D01*
X161409607Y-55236048D01*
X161134673Y-55402251D01*
X160872744Y-55607460D01*
X160637460Y-55842744D01*
X160432251Y-56104673D01*
X160260101Y-56389445D01*
X160260100Y-56389447D01*
X160246687Y-56419249D01*
X160127554Y-56683953D01*
X160123536Y-56692880D01*
X160123530Y-56692895D01*
X160024546Y-57010550D01*
X160024544Y-57010556D01*
X160024544Y-57010559D01*
X159980205Y-57252508D01*
X159964563Y-57337863D01*
X159944473Y-57670000D01*
X157671367Y-57670000D01*
X164805638Y-50535727D01*
X164819267Y-50523950D01*
X164838530Y-50509610D01*
X164838532Y-50509606D01*
X164838534Y-50509606D01*
X164856663Y-50487999D01*
X164872113Y-50469585D01*
X164875767Y-50465599D01*
X164881591Y-50459776D01*
X164901930Y-50434052D01*
X164951302Y-50375214D01*
X164951306Y-50375205D01*
X164955274Y-50369175D01*
X164955325Y-50369208D01*
X164959369Y-50362860D01*
X164959317Y-50362828D01*
X164963104Y-50356685D01*
X164963111Y-50356677D01*
X164995572Y-50287063D01*
X165030040Y-50218433D01*
X165030041Y-50218427D01*
X165032508Y-50211650D01*
X165032566Y-50211671D01*
X165035043Y-50204544D01*
X165034986Y-50204526D01*
X165037255Y-50197679D01*
X165037256Y-50197674D01*
X165037257Y-50197672D01*
X165052790Y-50122441D01*
X165070500Y-50047721D01*
X165070500Y-50047719D01*
X165071339Y-50040548D01*
X165071398Y-50040554D01*
X165072164Y-50033054D01*
X165072105Y-50033049D01*
X165072734Y-50025859D01*
X165070500Y-49949082D01*
X165070500Y-46806662D01*
X165090185Y-46739623D01*
X165123379Y-46705086D01*
X165159140Y-46680046D01*
X165320045Y-46519141D01*
X165320047Y-46519139D01*
X165450568Y-46332734D01*
X165546739Y-46126496D01*
X165605635Y-45906692D01*
X165625468Y-45680000D01*
X165605635Y-45453308D01*
X165550424Y-45247256D01*
X165546741Y-45233511D01*
X165546738Y-45233502D01*
X165525028Y-45186945D01*
X165450568Y-45027266D01*
X165335774Y-44863321D01*
X165320045Y-44840858D01*
X165159141Y-44679954D01*
X164972734Y-44549432D01*
X164972732Y-44549431D01*
X164766497Y-44453261D01*
X164766488Y-44453258D01*
X164546697Y-44394366D01*
X164546693Y-44394365D01*
X164546692Y-44394365D01*
X164546691Y-44394364D01*
X164546686Y-44394364D01*
X164320002Y-44374532D01*
X164319998Y-44374532D01*
X164093313Y-44394364D01*
X164093302Y-44394366D01*
X163873511Y-44453258D01*
X163873502Y-44453261D01*
X163667267Y-44549431D01*
X163667265Y-44549432D01*
X163480858Y-44679954D01*
X163319954Y-44840858D01*
X163189432Y-45027265D01*
X163189431Y-45027267D01*
X163093261Y-45233502D01*
X163093258Y-45233511D01*
X163034366Y-45453302D01*
X163034364Y-45453313D01*
X163014532Y-45679998D01*
X163014532Y-45680001D01*
X163034364Y-45906686D01*
X163034366Y-45906697D01*
X163093258Y-46126488D01*
X163093261Y-46126497D01*
X163189431Y-46332732D01*
X163189432Y-46332734D01*
X163319954Y-46519141D01*
X163480859Y-46680046D01*
X163516621Y-46705086D01*
X163560247Y-46759662D01*
X163569500Y-46806662D01*
X163569500Y-49597770D01*
X163549815Y-49664809D01*
X163533181Y-49685451D01*
X155494951Y-57723681D01*
X155433628Y-57757166D01*
X155407270Y-57760000D01*
X154584271Y-57760000D01*
X154578191Y-57759701D01*
X154542223Y-57756158D01*
X154533854Y-57755334D01*
X154568278Y-57717941D01*
X154618551Y-57603330D01*
X154628886Y-57478605D01*
X154598163Y-57357281D01*
X154534606Y-57260000D01*
X155470285Y-57260000D01*
X155426557Y-57115846D01*
X155331384Y-56937790D01*
X155331379Y-56937784D01*
X155203292Y-56781707D01*
X155047215Y-56653620D01*
X155047209Y-56653615D01*
X154869154Y-56558443D01*
X154675932Y-56499829D01*
X154525358Y-56485000D01*
X154500000Y-56485000D01*
X154500000Y-57229382D01*
X154430948Y-57175637D01*
X154312576Y-57135000D01*
X154218927Y-57135000D01*
X154126554Y-57150414D01*
X154016486Y-57209981D01*
X154000000Y-57227889D01*
X154000000Y-56485000D01*
X153974642Y-56485000D01*
X153824067Y-56499829D01*
X153630845Y-56558443D01*
X153452790Y-56653615D01*
X153452784Y-56653620D01*
X153296707Y-56781707D01*
X153168620Y-56937784D01*
X153168615Y-56937790D01*
X153073442Y-57115846D01*
X153029715Y-57260000D01*
X153970440Y-57260000D01*
X153931722Y-57302059D01*
X153881449Y-57416670D01*
X153871114Y-57541395D01*
X153901837Y-57662719D01*
X153962575Y-57755686D01*
X153957776Y-57756158D01*
X153921809Y-57759701D01*
X153915729Y-57760000D01*
X153029715Y-57760000D01*
X153073442Y-57904153D01*
X153170651Y-58086016D01*
X153184893Y-58154418D01*
X153170651Y-58202922D01*
X153072978Y-58385654D01*
X153014337Y-58578968D01*
X152994538Y-58780000D01*
X149157641Y-58780000D01*
X149164344Y-58760633D01*
X149194254Y-58552602D01*
X149184254Y-58342670D01*
X149134704Y-58138424D01*
X149134701Y-58138417D01*
X149047401Y-57947256D01*
X149047398Y-57947251D01*
X149047397Y-57947250D01*
X149047396Y-57947247D01*
X148925486Y-57776048D01*
X148925484Y-57776046D01*
X148925479Y-57776040D01*
X148773379Y-57631014D01*
X148596574Y-57517388D01*
X148401455Y-57439274D01*
X148195086Y-57399500D01*
X148195085Y-57399500D01*
X147237575Y-57399500D01*
X147080782Y-57414472D01*
X147080778Y-57414473D01*
X146879127Y-57473683D01*
X146692313Y-57569991D01*
X146527116Y-57699905D01*
X146527112Y-57699909D01*
X146389478Y-57858746D01*
X146284398Y-58040750D01*
X146215656Y-58239365D01*
X146215656Y-58239367D01*
X146192076Y-58403376D01*
X146185746Y-58447401D01*
X123789243Y-58447401D01*
X123784254Y-58342670D01*
X123734704Y-58138424D01*
X123734701Y-58138417D01*
X123647401Y-57947256D01*
X123647398Y-57947251D01*
X123647397Y-57947250D01*
X123647396Y-57947247D01*
X123525486Y-57776048D01*
X123525484Y-57776046D01*
X123525479Y-57776040D01*
X123373379Y-57631014D01*
X123196574Y-57517388D01*
X123001455Y-57439274D01*
X122795086Y-57399500D01*
X122795085Y-57399500D01*
X121837575Y-57399500D01*
X121680782Y-57414472D01*
X121680778Y-57414473D01*
X121479127Y-57473683D01*
X121292313Y-57569991D01*
X121127116Y-57699905D01*
X121127112Y-57699909D01*
X120989478Y-57858746D01*
X120884398Y-58040750D01*
X120815656Y-58239365D01*
X120815656Y-58239367D01*
X120792076Y-58403376D01*
X120785746Y-58447401D01*
X114480300Y-58447401D01*
X114511127Y-58403376D01*
X114565704Y-58359751D01*
X114612701Y-58350500D01*
X114846295Y-58350500D01*
X114864265Y-58351809D01*
X114888023Y-58355289D01*
X114940068Y-58350735D01*
X114945470Y-58350500D01*
X114953704Y-58350500D01*
X114953709Y-58350500D01*
X114965327Y-58349141D01*
X114986276Y-58346693D01*
X114999028Y-58345577D01*
X115062797Y-58339999D01*
X115062805Y-58339996D01*
X115069866Y-58338539D01*
X115069878Y-58338598D01*
X115077243Y-58336965D01*
X115077229Y-58336906D01*
X115084246Y-58335241D01*
X115084255Y-58335241D01*
X115156423Y-58308974D01*
X115229334Y-58284814D01*
X115229343Y-58284807D01*
X115235882Y-58281760D01*
X115235908Y-58281816D01*
X115242690Y-58278532D01*
X115242663Y-58278478D01*
X115249106Y-58275240D01*
X115249117Y-58275237D01*
X115313283Y-58233034D01*
X115378656Y-58192712D01*
X115378662Y-58192705D01*
X115384325Y-58188229D01*
X115384363Y-58188277D01*
X115390200Y-58183522D01*
X115390161Y-58183475D01*
X115395696Y-58178830D01*
X115448385Y-58122983D01*
X117466694Y-56104673D01*
X118164652Y-55406714D01*
X118225973Y-55373231D01*
X118263135Y-55370869D01*
X118406366Y-55383400D01*
X118429999Y-55385468D01*
X118430000Y-55385468D01*
X118430002Y-55385468D01*
X118486673Y-55380509D01*
X118656692Y-55365635D01*
X118876496Y-55306739D01*
X119082734Y-55210568D01*
X119269139Y-55080047D01*
X119430047Y-54919139D01*
X119455088Y-54883377D01*
X119509665Y-54839752D01*
X119556663Y-54830500D01*
X121187714Y-54830500D01*
X121254753Y-54850185D01*
X121300508Y-54902989D01*
X121310452Y-54972147D01*
X121281427Y-55035703D01*
X121264366Y-55051970D01*
X121127116Y-55159905D01*
X121127112Y-55159909D01*
X120989478Y-55318746D01*
X120884398Y-55500750D01*
X120815656Y-55699365D01*
X120815656Y-55699367D01*
X120795042Y-55842748D01*
X120785746Y-55907401D01*
X120795745Y-56117327D01*
X120845296Y-56321578D01*
X120845298Y-56321582D01*
X120932598Y-56512743D01*
X120932601Y-56512748D01*
X120932602Y-56512750D01*
X120932604Y-56512753D01*
X121032915Y-56653620D01*
X121054515Y-56683953D01*
X121054520Y-56683959D01*
X121206620Y-56828985D01*
X121301578Y-56890011D01*
X121383428Y-56942613D01*
X121578543Y-57020725D01*
X121681729Y-57040612D01*
X121784914Y-57060500D01*
X121784915Y-57060500D01*
X122742419Y-57060500D01*
X122742425Y-57060500D01*
X122899218Y-57045528D01*
X123100875Y-56986316D01*
X123287682Y-56890011D01*
X123452886Y-56760092D01*
X123590519Y-56601256D01*
X123613470Y-56561505D01*
X123695601Y-56419249D01*
X123695600Y-56419249D01*
X123695604Y-56419244D01*
X123764344Y-56220633D01*
X123794254Y-56012602D01*
X123789243Y-55907401D01*
X146185746Y-55907401D01*
X146195745Y-56117327D01*
X146245296Y-56321578D01*
X146245298Y-56321582D01*
X146332598Y-56512743D01*
X146332601Y-56512748D01*
X146332602Y-56512750D01*
X146332604Y-56512753D01*
X146432915Y-56653620D01*
X146454515Y-56683953D01*
X146454520Y-56683959D01*
X146606620Y-56828985D01*
X146701578Y-56890011D01*
X146783428Y-56942613D01*
X146978543Y-57020725D01*
X147081729Y-57040612D01*
X147184914Y-57060500D01*
X147184915Y-57060500D01*
X148142419Y-57060500D01*
X148142425Y-57060500D01*
X148299218Y-57045528D01*
X148500875Y-56986316D01*
X148687682Y-56890011D01*
X148852886Y-56760092D01*
X148990519Y-56601256D01*
X149013470Y-56561505D01*
X149095601Y-56419249D01*
X149095600Y-56419249D01*
X149095604Y-56419244D01*
X149164344Y-56220633D01*
X149194254Y-56012602D01*
X149184254Y-55802670D01*
X149134704Y-55598424D01*
X149117360Y-55560446D01*
X149047401Y-55407256D01*
X149047398Y-55407251D01*
X149047397Y-55407250D01*
X149047396Y-55407247D01*
X148925486Y-55236048D01*
X148925484Y-55236046D01*
X148925479Y-55236040D01*
X148773379Y-55091014D01*
X148596574Y-54977388D01*
X148401455Y-54899274D01*
X148195086Y-54859500D01*
X148195085Y-54859500D01*
X147237575Y-54859500D01*
X147080782Y-54874472D01*
X147080778Y-54874473D01*
X146879127Y-54933683D01*
X146692313Y-55029991D01*
X146527116Y-55159905D01*
X146527112Y-55159909D01*
X146389478Y-55318746D01*
X146284398Y-55500750D01*
X146215656Y-55699365D01*
X146215656Y-55699367D01*
X146195042Y-55842748D01*
X146185746Y-55907401D01*
X123789243Y-55907401D01*
X123784254Y-55802670D01*
X123734704Y-55598424D01*
X123717360Y-55560446D01*
X123647401Y-55407256D01*
X123647398Y-55407251D01*
X123647397Y-55407250D01*
X123647396Y-55407247D01*
X123525486Y-55236048D01*
X123525484Y-55236046D01*
X123525479Y-55236040D01*
X123373379Y-55091014D01*
X123196574Y-54977388D01*
X123001455Y-54899274D01*
X122795086Y-54859500D01*
X122795085Y-54859500D01*
X122213838Y-54859500D01*
X122146799Y-54839815D01*
X122101044Y-54787011D01*
X122091100Y-54717853D01*
X122120125Y-54654297D01*
X122123631Y-54650418D01*
X122138612Y-54634539D01*
X122168386Y-54602982D01*
X122214551Y-54556818D01*
X122275874Y-54523333D01*
X122302231Y-54520500D01*
X122742419Y-54520500D01*
X122742425Y-54520500D01*
X122899218Y-54505528D01*
X123100875Y-54446316D01*
X123287682Y-54350011D01*
X123293612Y-54345348D01*
X123365282Y-54288985D01*
X123452886Y-54220092D01*
X123590519Y-54061256D01*
X123695604Y-53879244D01*
X123764344Y-53680633D01*
X123794254Y-53472602D01*
X123789243Y-53367401D01*
X146185746Y-53367401D01*
X146195745Y-53577327D01*
X146245296Y-53781578D01*
X146245298Y-53781582D01*
X146332598Y-53972743D01*
X146332601Y-53972748D01*
X146332602Y-53972750D01*
X146332604Y-53972753D01*
X146454514Y-54143952D01*
X146454515Y-54143953D01*
X146454520Y-54143959D01*
X146606620Y-54288985D01*
X146701578Y-54350011D01*
X146783428Y-54402613D01*
X146978543Y-54480725D01*
X147081729Y-54500612D01*
X147184914Y-54520500D01*
X147184915Y-54520500D01*
X148142421Y-54520500D01*
X148142425Y-54520500D01*
X148180316Y-54516881D01*
X148244213Y-54510781D01*
X148250109Y-54510500D01*
X154650315Y-54510500D01*
X154717354Y-54530185D01*
X154754123Y-54566678D01*
X154791015Y-54623145D01*
X154791017Y-54623147D01*
X154791021Y-54623153D01*
X154948216Y-54793913D01*
X154948219Y-54793915D01*
X154948222Y-54793918D01*
X155131365Y-54936464D01*
X155131371Y-54936468D01*
X155131374Y-54936470D01*
X155335497Y-55046936D01*
X155431940Y-55080045D01*
X155555015Y-55122297D01*
X155555017Y-55122297D01*
X155555019Y-55122298D01*
X155783951Y-55160500D01*
X155783952Y-55160500D01*
X156016048Y-55160500D01*
X156016049Y-55160500D01*
X156244981Y-55122298D01*
X156464503Y-55046936D01*
X156668626Y-54936470D01*
X156672206Y-54933684D01*
X156798624Y-54835289D01*
X156851784Y-54793913D01*
X157008979Y-54623153D01*
X157135924Y-54428849D01*
X157229157Y-54216300D01*
X157286134Y-53991305D01*
X157286135Y-53991297D01*
X157305300Y-53760006D01*
X157305300Y-53759993D01*
X157286135Y-53528702D01*
X157286133Y-53528691D01*
X157229157Y-53303699D01*
X157135924Y-53091151D01*
X157008983Y-52896852D01*
X157008980Y-52896849D01*
X157008979Y-52896847D01*
X156914195Y-52793884D01*
X156883275Y-52731232D01*
X156891135Y-52661806D01*
X156935283Y-52607651D01*
X156962095Y-52593722D01*
X157042326Y-52563798D01*
X157042326Y-52563797D01*
X157042331Y-52563796D01*
X157157546Y-52477546D01*
X157243796Y-52362331D01*
X157294091Y-52227483D01*
X157300500Y-52167873D01*
X157300499Y-50272128D01*
X157294091Y-50212517D01*
X157293775Y-50211671D01*
X157243797Y-50077671D01*
X157243793Y-50077664D01*
X157157547Y-49962455D01*
X157157544Y-49962452D01*
X157042335Y-49876206D01*
X157042328Y-49876202D01*
X156907482Y-49825908D01*
X156907483Y-49825908D01*
X156847883Y-49819501D01*
X156847881Y-49819500D01*
X156847873Y-49819500D01*
X156847865Y-49819500D01*
X156774500Y-49819500D01*
X156707461Y-49799815D01*
X156661706Y-49747011D01*
X156650500Y-49695500D01*
X156650500Y-49603705D01*
X156651809Y-49585735D01*
X156655289Y-49561974D01*
X156651866Y-49522856D01*
X156650735Y-49509933D01*
X156650500Y-49504532D01*
X156650500Y-49496296D01*
X156650500Y-49496291D01*
X156646691Y-49463705D01*
X156639998Y-49387203D01*
X156639995Y-49387194D01*
X156638538Y-49380135D01*
X156638598Y-49380122D01*
X156636966Y-49372764D01*
X156636908Y-49372778D01*
X156635241Y-49365747D01*
X156635241Y-49365745D01*
X156608969Y-49293563D01*
X156601164Y-49270008D01*
X156584815Y-49220668D01*
X156581762Y-49214121D01*
X156581815Y-49214095D01*
X156578531Y-49207311D01*
X156578479Y-49207338D01*
X156575236Y-49200882D01*
X156575016Y-49200548D01*
X156533034Y-49136716D01*
X156517048Y-49110798D01*
X156492714Y-49071347D01*
X156488234Y-49065681D01*
X156488280Y-49065643D01*
X156483519Y-49059799D01*
X156483474Y-49059838D01*
X156478834Y-49054308D01*
X156422982Y-49001613D01*
X154856716Y-47435348D01*
X154823231Y-47374025D01*
X154820869Y-47336863D01*
X154835468Y-47170002D01*
X159845034Y-47170002D01*
X159864858Y-47396599D01*
X159864860Y-47396610D01*
X159923730Y-47616317D01*
X159923734Y-47616326D01*
X160019865Y-47822481D01*
X160019866Y-47822483D01*
X160070973Y-47895471D01*
X160070974Y-47895472D01*
X160752046Y-47214399D01*
X160764835Y-47295148D01*
X160822359Y-47408045D01*
X160911955Y-47497641D01*
X161024852Y-47555165D01*
X161105599Y-47567953D01*
X160424526Y-48249025D01*
X160424526Y-48249026D01*
X160497512Y-48300131D01*
X160497516Y-48300133D01*
X160703673Y-48396265D01*
X160703682Y-48396269D01*
X160923389Y-48455139D01*
X160923400Y-48455141D01*
X161149998Y-48474966D01*
X161150002Y-48474966D01*
X161376599Y-48455141D01*
X161376610Y-48455139D01*
X161596317Y-48396269D01*
X161596331Y-48396264D01*
X161802478Y-48300136D01*
X161875472Y-48249025D01*
X161194401Y-47567953D01*
X161275148Y-47555165D01*
X161388045Y-47497641D01*
X161477641Y-47408045D01*
X161535165Y-47295148D01*
X161547953Y-47214400D01*
X162229025Y-47895472D01*
X162280136Y-47822478D01*
X162376264Y-47616331D01*
X162376269Y-47616317D01*
X162435139Y-47396610D01*
X162435141Y-47396599D01*
X162454966Y-47170002D01*
X162454966Y-47169997D01*
X162435141Y-46943400D01*
X162435139Y-46943389D01*
X162376269Y-46723682D01*
X162376265Y-46723673D01*
X162280133Y-46517516D01*
X162280131Y-46517512D01*
X162229026Y-46444526D01*
X162229025Y-46444526D01*
X161547953Y-47125598D01*
X161535165Y-47044852D01*
X161477641Y-46931955D01*
X161388045Y-46842359D01*
X161275148Y-46784835D01*
X161194400Y-46772046D01*
X161875472Y-46090974D01*
X161875471Y-46090973D01*
X161802483Y-46039866D01*
X161802481Y-46039865D01*
X161596326Y-45943734D01*
X161596317Y-45943730D01*
X161376610Y-45884860D01*
X161376599Y-45884858D01*
X161150002Y-45865034D01*
X161149998Y-45865034D01*
X160923400Y-45884858D01*
X160923389Y-45884860D01*
X160703682Y-45943730D01*
X160703673Y-45943734D01*
X160497513Y-46039868D01*
X160424527Y-46090972D01*
X160424526Y-46090973D01*
X161105600Y-46772046D01*
X161024852Y-46784835D01*
X160911955Y-46842359D01*
X160822359Y-46931955D01*
X160764835Y-47044852D01*
X160752046Y-47125599D01*
X160070973Y-46444526D01*
X160070972Y-46444527D01*
X160019868Y-46517513D01*
X159923734Y-46723673D01*
X159923730Y-46723682D01*
X159864860Y-46943389D01*
X159864858Y-46943400D01*
X159845034Y-47169997D01*
X159845034Y-47170002D01*
X154835468Y-47170002D01*
X154835468Y-47170000D01*
X154815635Y-46943308D01*
X154756739Y-46723504D01*
X154660568Y-46517266D01*
X154562839Y-46377693D01*
X154530045Y-46330858D01*
X154369141Y-46169954D01*
X154182734Y-46039432D01*
X154182732Y-46039431D01*
X153976497Y-45943261D01*
X153976488Y-45943258D01*
X153756697Y-45884366D01*
X153756693Y-45884365D01*
X153756692Y-45884365D01*
X153756691Y-45884364D01*
X153756686Y-45884364D01*
X153530002Y-45864532D01*
X153529998Y-45864532D01*
X153303313Y-45884364D01*
X153303302Y-45884366D01*
X153083511Y-45943258D01*
X153083502Y-45943261D01*
X152877267Y-46039431D01*
X152877265Y-46039432D01*
X152690858Y-46169954D01*
X152529954Y-46330858D01*
X152399432Y-46517265D01*
X152399431Y-46517267D01*
X152303261Y-46723502D01*
X152303258Y-46723511D01*
X152244366Y-46943302D01*
X152244364Y-46943313D01*
X152224532Y-47169998D01*
X152224532Y-47170001D01*
X152244364Y-47396686D01*
X152244366Y-47396697D01*
X152303258Y-47616488D01*
X152303261Y-47616497D01*
X152399431Y-47822732D01*
X152399432Y-47822734D01*
X152529954Y-48009141D01*
X152690858Y-48170045D01*
X152737693Y-48202839D01*
X152877266Y-48300568D01*
X153083504Y-48396739D01*
X153303308Y-48455635D01*
X153465230Y-48469801D01*
X153529998Y-48475468D01*
X153530000Y-48475468D01*
X153530001Y-48475468D01*
X153550062Y-48473712D01*
X153696861Y-48460869D01*
X153765359Y-48474635D01*
X153795348Y-48496716D01*
X154435348Y-49136716D01*
X154925075Y-49626442D01*
X154958560Y-49687765D01*
X154953576Y-49757457D01*
X154911704Y-49813390D01*
X154880728Y-49830305D01*
X154757669Y-49876203D01*
X154757664Y-49876206D01*
X154642455Y-49962452D01*
X154642452Y-49962455D01*
X154556206Y-50077664D01*
X154556202Y-50077671D01*
X154505908Y-50212517D01*
X154500259Y-50265063D01*
X154499501Y-50272123D01*
X154499500Y-50272135D01*
X154499500Y-52167870D01*
X154499501Y-52167876D01*
X154505908Y-52227483D01*
X154556202Y-52362328D01*
X154556206Y-52362335D01*
X154642452Y-52477544D01*
X154642455Y-52477547D01*
X154757664Y-52563793D01*
X154757673Y-52563798D01*
X154837904Y-52593722D01*
X154893838Y-52635593D01*
X154918256Y-52701057D01*
X154903405Y-52769330D01*
X154885802Y-52793886D01*
X154791017Y-52896850D01*
X154754123Y-52953322D01*
X154700977Y-52998678D01*
X154650315Y-53009500D01*
X149192051Y-53009500D01*
X149125012Y-52989815D01*
X149079257Y-52937011D01*
X149079256Y-52937011D01*
X149047400Y-52867256D01*
X149047396Y-52867247D01*
X148925486Y-52696048D01*
X148925484Y-52696046D01*
X148925479Y-52696040D01*
X148773379Y-52551014D01*
X148596574Y-52437388D01*
X148401455Y-52359274D01*
X148195086Y-52319500D01*
X148195085Y-52319500D01*
X147237575Y-52319500D01*
X147080782Y-52334472D01*
X147080778Y-52334473D01*
X146879127Y-52393683D01*
X146692313Y-52489991D01*
X146527116Y-52619905D01*
X146527112Y-52619909D01*
X146389478Y-52778746D01*
X146284398Y-52960750D01*
X146215656Y-53159365D01*
X146215656Y-53159367D01*
X146194905Y-53303700D01*
X146185746Y-53367401D01*
X123789243Y-53367401D01*
X123784254Y-53262670D01*
X123734704Y-53058424D01*
X123707419Y-52998678D01*
X123647401Y-52867256D01*
X123647398Y-52867251D01*
X123647397Y-52867250D01*
X123647396Y-52867247D01*
X123525486Y-52696048D01*
X123525484Y-52696046D01*
X123525479Y-52696040D01*
X123373379Y-52551014D01*
X123196574Y-52437388D01*
X123001455Y-52359274D01*
X122795086Y-52319500D01*
X122795085Y-52319500D01*
X121837575Y-52319500D01*
X121680782Y-52334472D01*
X121680778Y-52334473D01*
X121479127Y-52393683D01*
X121292313Y-52489991D01*
X121127116Y-52619905D01*
X121127112Y-52619909D01*
X120989478Y-52778746D01*
X120884398Y-52960750D01*
X120815656Y-53159365D01*
X120815656Y-53159368D01*
X120806486Y-53223147D01*
X120777461Y-53286703D01*
X120718683Y-53324477D01*
X120683748Y-53329500D01*
X119556663Y-53329500D01*
X119489624Y-53309815D01*
X119455088Y-53276623D01*
X119430045Y-53240858D01*
X119269141Y-53079954D01*
X119082734Y-52949432D01*
X119082732Y-52949431D01*
X118876497Y-52853261D01*
X118876488Y-52853258D01*
X118656697Y-52794366D01*
X118656693Y-52794365D01*
X118656692Y-52794365D01*
X118656691Y-52794364D01*
X118656686Y-52794364D01*
X118430002Y-52774532D01*
X118429998Y-52774532D01*
X118203313Y-52794364D01*
X118203302Y-52794366D01*
X117983511Y-52853258D01*
X117983502Y-52853261D01*
X117777267Y-52949431D01*
X117777265Y-52949432D01*
X117590858Y-53079954D01*
X117429954Y-53240858D01*
X117299432Y-53427265D01*
X117299431Y-53427267D01*
X117203261Y-53633502D01*
X117203258Y-53633511D01*
X117144366Y-53853302D01*
X117144364Y-53853313D01*
X117124532Y-54079998D01*
X117124532Y-54080003D01*
X117139129Y-54246861D01*
X117125362Y-54315360D01*
X117103282Y-54345348D01*
X114673641Y-56774990D01*
X114612318Y-56808475D01*
X114542626Y-56803491D01*
X114486693Y-56761619D01*
X114484386Y-56758433D01*
X114463495Y-56728598D01*
X114315932Y-56581035D01*
X114282447Y-56519712D01*
X114287431Y-56450020D01*
X114329303Y-56394087D01*
X114338516Y-56387815D01*
X114493345Y-56292315D01*
X114617315Y-56168345D01*
X114709356Y-56019124D01*
X114709358Y-56019119D01*
X114764505Y-55852697D01*
X114764506Y-55852690D01*
X114774999Y-55749986D01*
X114775000Y-55749973D01*
X114775000Y-55350000D01*
X113703969Y-55350000D01*
X113736519Y-55299351D01*
X113775000Y-55168295D01*
X113775000Y-55031705D01*
X113736519Y-54900649D01*
X113703969Y-54850000D01*
X114774999Y-54850000D01*
X114774999Y-54450028D01*
X114774998Y-54450013D01*
X114764505Y-54347302D01*
X114709358Y-54180880D01*
X114709356Y-54180875D01*
X114617315Y-54031654D01*
X114493345Y-53907684D01*
X114344124Y-53815643D01*
X114344119Y-53815641D01*
X114177697Y-53760494D01*
X114177690Y-53760493D01*
X114074986Y-53750000D01*
X113550000Y-53750000D01*
X113550000Y-54691981D01*
X113435199Y-54639554D01*
X113333975Y-54625000D01*
X113266025Y-54625000D01*
X113164801Y-54639554D01*
X113050000Y-54691981D01*
X113050000Y-53750000D01*
X112525028Y-53750000D01*
X112525012Y-53750001D01*
X112422302Y-53760494D01*
X112255880Y-53815641D01*
X112255875Y-53815643D01*
X112106654Y-53907684D01*
X111982684Y-54031654D01*
X111890643Y-54180875D01*
X111890641Y-54180880D01*
X111835494Y-54347302D01*
X111835493Y-54347309D01*
X111825000Y-54450013D01*
X111825000Y-54850000D01*
X112896031Y-54850000D01*
X112863481Y-54900649D01*
X112825000Y-55031705D01*
X112825000Y-55168295D01*
X112863481Y-55299351D01*
X112896031Y-55350000D01*
X111825001Y-55350000D01*
X111825001Y-55749986D01*
X111835494Y-55852697D01*
X111890641Y-56019119D01*
X111890643Y-56019124D01*
X111982684Y-56168345D01*
X112106654Y-56292315D01*
X112261484Y-56387815D01*
X112308208Y-56439763D01*
X112319431Y-56508726D01*
X112291587Y-56572808D01*
X112284069Y-56581035D01*
X112136501Y-56728603D01*
X112136501Y-56728604D01*
X112000967Y-56922165D01*
X112000965Y-56922169D01*
X111943442Y-57045528D01*
X111901721Y-57135000D01*
X111901098Y-57136335D01*
X111901094Y-57136344D01*
X111839938Y-57364586D01*
X111839936Y-57364596D01*
X111819341Y-57599999D01*
X111819341Y-57600000D01*
X111839936Y-57835403D01*
X111839938Y-57835413D01*
X111901094Y-58063655D01*
X111901096Y-58063659D01*
X111901097Y-58063663D01*
X111935959Y-58138424D01*
X112000964Y-58277828D01*
X112000965Y-58277830D01*
X112136505Y-58471402D01*
X112303597Y-58638494D01*
X112460595Y-58748425D01*
X112504220Y-58803002D01*
X112511414Y-58872500D01*
X112479891Y-58934855D01*
X112460595Y-58951575D01*
X112303597Y-59061505D01*
X112136506Y-59228597D01*
X112136501Y-59228604D01*
X112000967Y-59422165D01*
X112000965Y-59422169D01*
X111901098Y-59636335D01*
X111901094Y-59636344D01*
X111839938Y-59864586D01*
X111839936Y-59864596D01*
X111819341Y-60099999D01*
X111819341Y-60100000D01*
X111839936Y-60335403D01*
X111839938Y-60335413D01*
X111901094Y-60563655D01*
X111901096Y-60563659D01*
X111901097Y-60563663D01*
X111909065Y-60580750D01*
X112000964Y-60777828D01*
X112000965Y-60777830D01*
X112136505Y-60971402D01*
X112303597Y-61138494D01*
X112497169Y-61274034D01*
X112497171Y-61274035D01*
X112711337Y-61373903D01*
X112939592Y-61435063D01*
X113116034Y-61450500D01*
X113483965Y-61450500D01*
X113483966Y-61450500D01*
X113523068Y-61447078D01*
X113591566Y-61460843D01*
X113621557Y-61482925D01*
X118663181Y-66524548D01*
X118696666Y-66585871D01*
X118699500Y-66612229D01*
X118699500Y-72026294D01*
X118698191Y-72044263D01*
X118694710Y-72068025D01*
X118699264Y-72120064D01*
X118699500Y-72125470D01*
X118699500Y-72133709D01*
X118703306Y-72166274D01*
X118710000Y-72242791D01*
X118711461Y-72249867D01*
X118711403Y-72249878D01*
X118713034Y-72257237D01*
X118713092Y-72257224D01*
X118714757Y-72264250D01*
X118741025Y-72336424D01*
X118765185Y-72409331D01*
X118768236Y-72415874D01*
X118768182Y-72415898D01*
X118771470Y-72422688D01*
X118771521Y-72422663D01*
X118774761Y-72429113D01*
X118774762Y-72429114D01*
X118774763Y-72429117D01*
X118792644Y-72456304D01*
X118816965Y-72493283D01*
X118857287Y-72558655D01*
X118861766Y-72564319D01*
X118861719Y-72564356D01*
X118866482Y-72570202D01*
X118866528Y-72570164D01*
X118871173Y-72575700D01*
X118927019Y-72628387D01*
X119235950Y-72937319D01*
X119269435Y-72998642D01*
X119264451Y-73068334D01*
X119235950Y-73112681D01*
X117774358Y-74574272D01*
X117760729Y-74586051D01*
X117741468Y-74600390D01*
X117707898Y-74640397D01*
X117704253Y-74644376D01*
X117698409Y-74650222D01*
X117678059Y-74675959D01*
X117628695Y-74734789D01*
X117624729Y-74740819D01*
X117624682Y-74740788D01*
X117620630Y-74747147D01*
X117620679Y-74747177D01*
X117616889Y-74753321D01*
X117584424Y-74822941D01*
X117549960Y-74891566D01*
X117547488Y-74898357D01*
X117547432Y-74898336D01*
X117544960Y-74905450D01*
X117545015Y-74905469D01*
X117542742Y-74912327D01*
X117534975Y-74949946D01*
X117527207Y-74987565D01*
X117514001Y-75043284D01*
X117509498Y-75062286D01*
X117508661Y-75069454D01*
X117508601Y-75069447D01*
X117507835Y-75076945D01*
X117507895Y-75076951D01*
X117507265Y-75084140D01*
X117509500Y-75160916D01*
X117509500Y-76244774D01*
X117489815Y-76311813D01*
X117461662Y-76342627D01*
X117272544Y-76489823D01*
X117272534Y-76489832D01*
X117109450Y-76666988D01*
X117109446Y-76666994D01*
X117093507Y-76691389D01*
X117040359Y-76736744D01*
X116971127Y-76746165D01*
X116907793Y-76716661D01*
X116885892Y-76691385D01*
X116870154Y-76667296D01*
X116707126Y-76490202D01*
X116707116Y-76490193D01*
X116517168Y-76342350D01*
X116517159Y-76342344D01*
X116305468Y-76227784D01*
X116305454Y-76227778D01*
X116077791Y-76149619D01*
X115970000Y-76131633D01*
X115970000Y-77118316D01*
X115941181Y-77100791D01*
X115795596Y-77060000D01*
X115682378Y-77060000D01*
X115570217Y-77075416D01*
X115470000Y-77118946D01*
X115470000Y-76131633D01*
X115469999Y-76131633D01*
X115362208Y-76149619D01*
X115134545Y-76227778D01*
X115134531Y-76227784D01*
X114922840Y-76342344D01*
X114922838Y-76342345D01*
X114780252Y-76453325D01*
X114715258Y-76478967D01*
X114646718Y-76465400D01*
X114596393Y-76416932D01*
X114587907Y-76398801D01*
X114576297Y-76367671D01*
X114576293Y-76367664D01*
X114490047Y-76252455D01*
X114490044Y-76252452D01*
X114374835Y-76166206D01*
X114374828Y-76166202D01*
X114239982Y-76115908D01*
X114239983Y-76115908D01*
X114180383Y-76109501D01*
X114180381Y-76109500D01*
X114180373Y-76109500D01*
X114180364Y-76109500D01*
X112179629Y-76109500D01*
X112179623Y-76109501D01*
X112120016Y-76115908D01*
X111985171Y-76166202D01*
X111985164Y-76166206D01*
X111869955Y-76252452D01*
X111869952Y-76252455D01*
X111783706Y-76367664D01*
X111783702Y-76367671D01*
X111733408Y-76502517D01*
X111727001Y-76562116D01*
X111727000Y-76562135D01*
X111727000Y-78657870D01*
X110460500Y-78657870D01*
X110460500Y-68560000D01*
X112384473Y-68560000D01*
X112404563Y-68892136D01*
X112404563Y-68892141D01*
X112404564Y-68892142D01*
X112464544Y-69219441D01*
X112464545Y-69219445D01*
X112464546Y-69219449D01*
X112563530Y-69537104D01*
X112563534Y-69537116D01*
X112563537Y-69537123D01*
X112700102Y-69840557D01*
X112865690Y-70114473D01*
X112872251Y-70125326D01*
X113077460Y-70387255D01*
X113312744Y-70622539D01*
X113574673Y-70827748D01*
X113574678Y-70827751D01*
X113574682Y-70827754D01*
X113859443Y-70999898D01*
X114162877Y-71136463D01*
X114162890Y-71136467D01*
X114162895Y-71136469D01*
X114374665Y-71202458D01*
X114480559Y-71235456D01*
X114807858Y-71295436D01*
X114985740Y-71306196D01*
X115056892Y-71310500D01*
X115056894Y-71310500D01*
X115223108Y-71310500D01*
X115285365Y-71306734D01*
X115472142Y-71295436D01*
X115799441Y-71235456D01*
X116074099Y-71149869D01*
X116117104Y-71136469D01*
X116117104Y-71136468D01*
X116117123Y-71136463D01*
X116420557Y-70999898D01*
X116705318Y-70827754D01*
X116967252Y-70622542D01*
X117202542Y-70387252D01*
X117369862Y-70173684D01*
X117407748Y-70125326D01*
X117407748Y-70125324D01*
X117407754Y-70125318D01*
X117579898Y-69840557D01*
X117716463Y-69537123D01*
X117815456Y-69219441D01*
X117875436Y-68892142D01*
X117895527Y-68560000D01*
X117875436Y-68227858D01*
X117815456Y-67900559D01*
X117745914Y-67677388D01*
X117716469Y-67582895D01*
X117716467Y-67582890D01*
X117716463Y-67582877D01*
X117579898Y-67279443D01*
X117407754Y-66994682D01*
X117407751Y-66994678D01*
X117407748Y-66994673D01*
X117202539Y-66732744D01*
X116967255Y-66497460D01*
X116705326Y-66292251D01*
X116705318Y-66292246D01*
X116420557Y-66120102D01*
X116117123Y-65983537D01*
X116117116Y-65983534D01*
X116117104Y-65983530D01*
X115799449Y-65884546D01*
X115799445Y-65884545D01*
X115799441Y-65884544D01*
X115472142Y-65824564D01*
X115472141Y-65824563D01*
X115472136Y-65824563D01*
X115223108Y-65809500D01*
X115223106Y-65809500D01*
X115056894Y-65809500D01*
X115056892Y-65809500D01*
X114807863Y-65824563D01*
X114754709Y-65834304D01*
X114480559Y-65884544D01*
X114480556Y-65884544D01*
X114480550Y-65884546D01*
X114162895Y-65983530D01*
X114162879Y-65983536D01*
X114162877Y-65983537D01*
X114054462Y-66032331D01*
X113910325Y-66097202D01*
X113859443Y-66120102D01*
X113793242Y-66160122D01*
X113574673Y-66292251D01*
X113312744Y-66497460D01*
X113077460Y-66732744D01*
X112872251Y-66994673D01*
X112806999Y-67102613D01*
X112700102Y-67279443D01*
X112567320Y-67574473D01*
X112563536Y-67582880D01*
X112563530Y-67582895D01*
X112464546Y-67900550D01*
X112464544Y-67900556D01*
X112464544Y-67900559D01*
X112426667Y-68107247D01*
X112404563Y-68227863D01*
X112384473Y-68560000D01*
X110460500Y-68560000D01*
X110460500Y-50827401D01*
X120785746Y-50827401D01*
X120795745Y-51037327D01*
X120845296Y-51241578D01*
X120845298Y-51241582D01*
X120932598Y-51432743D01*
X120932601Y-51432748D01*
X120932602Y-51432750D01*
X120932604Y-51432753D01*
X121054514Y-51603952D01*
X121054515Y-51603953D01*
X121054520Y-51603959D01*
X121206620Y-51748985D01*
X121301578Y-51810011D01*
X121383428Y-51862613D01*
X121578543Y-51940725D01*
X121681729Y-51960612D01*
X121784914Y-51980500D01*
X121784915Y-51980500D01*
X122742419Y-51980500D01*
X122742425Y-51980500D01*
X122899218Y-51965528D01*
X123100875Y-51906316D01*
X123287682Y-51810011D01*
X123452886Y-51680092D01*
X123590519Y-51521256D01*
X123618546Y-51472713D01*
X123695601Y-51339249D01*
X123695600Y-51339249D01*
X123695604Y-51339244D01*
X123764344Y-51140633D01*
X123794254Y-50932602D01*
X123789243Y-50827401D01*
X146185746Y-50827401D01*
X146195745Y-51037327D01*
X146245296Y-51241578D01*
X146245298Y-51241582D01*
X146332598Y-51432743D01*
X146332601Y-51432748D01*
X146332602Y-51432750D01*
X146332604Y-51432753D01*
X146454514Y-51603952D01*
X146454515Y-51603953D01*
X146454520Y-51603959D01*
X146606620Y-51748985D01*
X146701578Y-51810011D01*
X146783428Y-51862613D01*
X146978543Y-51940725D01*
X147081729Y-51960612D01*
X147184914Y-51980500D01*
X147184915Y-51980500D01*
X148142419Y-51980500D01*
X148142425Y-51980500D01*
X148299218Y-51965528D01*
X148500875Y-51906316D01*
X148687682Y-51810011D01*
X148852886Y-51680092D01*
X148868149Y-51662477D01*
X148926921Y-51624703D01*
X148951063Y-51620150D01*
X148952797Y-51619999D01*
X148952803Y-51619996D01*
X148959866Y-51618539D01*
X148959878Y-51618598D01*
X148967243Y-51616965D01*
X148967229Y-51616906D01*
X148974246Y-51615241D01*
X148974255Y-51615241D01*
X149046423Y-51588974D01*
X149119334Y-51564814D01*
X149119343Y-51564807D01*
X149125882Y-51561760D01*
X149125908Y-51561816D01*
X149132690Y-51558532D01*
X149132663Y-51558478D01*
X149139106Y-51555240D01*
X149139117Y-51555237D01*
X149203283Y-51513034D01*
X149268656Y-51472712D01*
X149268662Y-51472705D01*
X149274325Y-51468229D01*
X149274363Y-51468277D01*
X149280200Y-51463522D01*
X149280161Y-51463475D01*
X149285696Y-51458830D01*
X149338385Y-51402983D01*
X150585327Y-50156040D01*
X151045642Y-49695724D01*
X151059271Y-49683947D01*
X151060950Y-49682697D01*
X151078530Y-49669610D01*
X151112101Y-49629601D01*
X151115761Y-49625606D01*
X151121590Y-49619778D01*
X151141941Y-49594039D01*
X151153733Y-49579986D01*
X151191302Y-49535214D01*
X151191306Y-49535205D01*
X151195274Y-49529175D01*
X151195325Y-49529208D01*
X151199372Y-49522856D01*
X151199320Y-49522824D01*
X151203112Y-49516675D01*
X151235575Y-49447058D01*
X151258844Y-49400725D01*
X151270040Y-49378433D01*
X151270042Y-49378421D01*
X151272509Y-49371646D01*
X151272567Y-49371667D01*
X151275043Y-49364546D01*
X151274986Y-49364528D01*
X151277257Y-49357673D01*
X151292792Y-49282434D01*
X151310498Y-49207728D01*
X151310500Y-49207721D01*
X151310500Y-49207710D01*
X151311338Y-49200548D01*
X151311398Y-49200555D01*
X151312164Y-49193055D01*
X151312105Y-49193050D01*
X151312734Y-49185860D01*
X151310500Y-49109082D01*
X151310500Y-45622228D01*
X151330185Y-45555189D01*
X151346815Y-45534551D01*
X152160752Y-44720613D01*
X152222073Y-44687130D01*
X152268836Y-44685987D01*
X152475665Y-44720500D01*
X152475666Y-44720500D01*
X152724335Y-44720500D01*
X152969614Y-44679571D01*
X153204810Y-44598828D01*
X153423509Y-44480474D01*
X153619744Y-44327738D01*
X153788164Y-44144785D01*
X153924173Y-43936607D01*
X154024063Y-43708881D01*
X154085108Y-43467821D01*
X154090238Y-43405915D01*
X154105643Y-43220005D01*
X155594859Y-43220005D01*
X155615385Y-43467729D01*
X155615387Y-43467738D01*
X155676412Y-43708717D01*
X155776266Y-43936364D01*
X155876564Y-44089882D01*
X156574070Y-43392376D01*
X156576884Y-43405915D01*
X156646442Y-43540156D01*
X156749638Y-43650652D01*
X156878819Y-43729209D01*
X156930002Y-43743549D01*
X156229942Y-44443609D01*
X156276768Y-44480055D01*
X156276770Y-44480056D01*
X156495385Y-44598364D01*
X156495396Y-44598369D01*
X156730506Y-44679083D01*
X156975707Y-44720000D01*
X157224293Y-44720000D01*
X157469493Y-44679083D01*
X157704603Y-44598369D01*
X157704614Y-44598364D01*
X157923228Y-44480057D01*
X157923231Y-44480055D01*
X157970056Y-44443609D01*
X157271568Y-43745121D01*
X157388458Y-43694349D01*
X157505739Y-43598934D01*
X157592928Y-43475415D01*
X157623354Y-43389802D01*
X158323434Y-44089882D01*
X158423731Y-43936369D01*
X158523587Y-43708717D01*
X158584612Y-43467738D01*
X158584614Y-43467729D01*
X158605141Y-43220005D01*
X158605141Y-43219994D01*
X158584614Y-42972270D01*
X158584612Y-42972261D01*
X158523587Y-42731282D01*
X158423731Y-42503630D01*
X158323434Y-42350116D01*
X157625929Y-43047622D01*
X157623116Y-43034085D01*
X157553558Y-42899844D01*
X157450362Y-42789348D01*
X157321181Y-42710791D01*
X157269997Y-42696450D01*
X157970057Y-41996390D01*
X157970056Y-41996389D01*
X157923229Y-41959943D01*
X157704614Y-41841635D01*
X157704603Y-41841630D01*
X157469493Y-41760916D01*
X157224293Y-41720000D01*
X156975707Y-41720000D01*
X156730506Y-41760916D01*
X156495396Y-41841630D01*
X156495390Y-41841632D01*
X156276761Y-41959949D01*
X156229942Y-41996388D01*
X156229942Y-41996390D01*
X156928431Y-42694878D01*
X156811542Y-42745651D01*
X156694261Y-42841066D01*
X156607072Y-42964585D01*
X156576645Y-43050197D01*
X155876564Y-42350116D01*
X155776267Y-42503632D01*
X155676412Y-42731282D01*
X155615387Y-42972261D01*
X155615385Y-42972270D01*
X155594859Y-43219994D01*
X155594859Y-43220005D01*
X154105643Y-43220005D01*
X154105643Y-43219994D01*
X154085109Y-42972187D01*
X154085107Y-42972175D01*
X154024063Y-42731118D01*
X153924173Y-42503393D01*
X153788166Y-42295217D01*
X153733622Y-42235967D01*
X153619744Y-42112262D01*
X153423509Y-41959526D01*
X153415477Y-41955179D01*
X153365891Y-41905961D01*
X153350500Y-41846128D01*
X153350500Y-38093872D01*
X153370185Y-38026833D01*
X153415487Y-37984815D01*
X153423509Y-37980474D01*
X153619744Y-37827738D01*
X153788164Y-37644785D01*
X153924173Y-37436607D01*
X154024063Y-37208881D01*
X154085108Y-36967821D01*
X154096258Y-36833261D01*
X154105643Y-36720005D01*
X155594859Y-36720005D01*
X155615385Y-36967729D01*
X155615387Y-36967738D01*
X155676412Y-37208717D01*
X155776266Y-37436364D01*
X155876564Y-37589882D01*
X156574070Y-36892376D01*
X156576884Y-36905915D01*
X156646442Y-37040156D01*
X156749638Y-37150652D01*
X156878819Y-37229209D01*
X156930002Y-37243549D01*
X156229942Y-37943609D01*
X156276768Y-37980055D01*
X156276770Y-37980056D01*
X156495385Y-38098364D01*
X156495396Y-38098369D01*
X156730506Y-38179083D01*
X156975707Y-38220000D01*
X157224293Y-38220000D01*
X157469493Y-38179083D01*
X157704603Y-38098369D01*
X157704614Y-38098364D01*
X157923228Y-37980057D01*
X157923231Y-37980055D01*
X157970056Y-37943609D01*
X157271568Y-37245121D01*
X157388458Y-37194349D01*
X157505739Y-37098934D01*
X157592928Y-36975415D01*
X157623354Y-36889802D01*
X158323434Y-37589882D01*
X158423731Y-37436369D01*
X158523587Y-37208717D01*
X158584612Y-36967738D01*
X158584614Y-36967729D01*
X158605141Y-36720005D01*
X158605141Y-36719994D01*
X158584614Y-36472270D01*
X158584612Y-36472261D01*
X158523587Y-36231282D01*
X158423731Y-36003630D01*
X158323434Y-35850116D01*
X157625929Y-36547622D01*
X157623116Y-36534085D01*
X157553558Y-36399844D01*
X157450362Y-36289348D01*
X157321181Y-36210791D01*
X157269997Y-36196450D01*
X157970057Y-35496390D01*
X157970056Y-35496389D01*
X157923229Y-35459943D01*
X157704614Y-35341635D01*
X157704603Y-35341630D01*
X157469493Y-35260916D01*
X157224293Y-35220000D01*
X156975707Y-35220000D01*
X156730506Y-35260916D01*
X156495396Y-35341630D01*
X156495390Y-35341632D01*
X156276761Y-35459949D01*
X156229942Y-35496388D01*
X156229942Y-35496390D01*
X156928431Y-36194878D01*
X156811542Y-36245651D01*
X156694261Y-36341066D01*
X156607072Y-36464585D01*
X156576645Y-36550197D01*
X155876564Y-35850116D01*
X155776267Y-36003632D01*
X155676412Y-36231282D01*
X155615387Y-36472261D01*
X155615385Y-36472270D01*
X155594859Y-36719994D01*
X155594859Y-36720005D01*
X154105643Y-36720005D01*
X154105643Y-36719994D01*
X154085109Y-36472187D01*
X154085107Y-36472175D01*
X154024063Y-36231118D01*
X153924173Y-36003393D01*
X153788166Y-35795217D01*
X153693698Y-35692598D01*
X153619744Y-35612262D01*
X153423509Y-35459526D01*
X153423507Y-35459525D01*
X153423506Y-35459524D01*
X153204811Y-35341172D01*
X153204802Y-35341169D01*
X152969616Y-35260429D01*
X152724335Y-35219500D01*
X152475665Y-35219500D01*
X152230383Y-35260429D01*
X151995197Y-35341169D01*
X151995188Y-35341172D01*
X151776493Y-35459524D01*
X151580257Y-35612261D01*
X151411833Y-35795217D01*
X151275826Y-36003393D01*
X151175936Y-36231118D01*
X151114892Y-36472175D01*
X151114890Y-36472187D01*
X151094357Y-36719994D01*
X151094357Y-36720005D01*
X151114890Y-36967812D01*
X151114892Y-36967824D01*
X151175936Y-37208881D01*
X151275826Y-37436606D01*
X151411833Y-37644782D01*
X151442291Y-37677868D01*
X151580256Y-37827738D01*
X151587419Y-37833313D01*
X151775952Y-37980055D01*
X151776491Y-37980474D01*
X151784513Y-37984815D01*
X151834106Y-38034032D01*
X151849500Y-38093872D01*
X151849500Y-41846128D01*
X151829815Y-41913167D01*
X151784522Y-41955179D01*
X151776491Y-41959526D01*
X151654673Y-42054341D01*
X151580257Y-42112261D01*
X151411833Y-42295217D01*
X151275826Y-42503393D01*
X151175936Y-42731118D01*
X151114892Y-42972175D01*
X151114890Y-42972187D01*
X151094357Y-43219994D01*
X151094357Y-43220005D01*
X151114891Y-43467817D01*
X151114891Y-43467820D01*
X151114892Y-43467821D01*
X151128236Y-43520517D01*
X151133143Y-43539892D01*
X151130518Y-43609712D01*
X151100618Y-43658013D01*
X150074358Y-44684272D01*
X150060729Y-44696051D01*
X150041468Y-44710390D01*
X150007898Y-44750397D01*
X150004253Y-44754376D01*
X149998409Y-44760222D01*
X149978059Y-44785959D01*
X149928695Y-44844789D01*
X149924729Y-44850819D01*
X149924682Y-44850788D01*
X149920630Y-44857147D01*
X149920679Y-44857177D01*
X149916889Y-44863321D01*
X149884424Y-44932941D01*
X149849960Y-45001566D01*
X149847488Y-45008357D01*
X149847432Y-45008336D01*
X149844960Y-45015450D01*
X149845015Y-45015469D01*
X149842742Y-45022327D01*
X149835811Y-45055896D01*
X149827207Y-45097565D01*
X149814001Y-45153284D01*
X149809498Y-45172286D01*
X149808661Y-45179454D01*
X149808601Y-45179447D01*
X149807835Y-45186945D01*
X149807895Y-45186951D01*
X149807265Y-45194140D01*
X149809500Y-45270916D01*
X149809500Y-48757769D01*
X149789815Y-48824808D01*
X149773181Y-48845450D01*
X148742858Y-49875772D01*
X148681535Y-49909257D01*
X148611843Y-49904273D01*
X148598367Y-49898312D01*
X148596578Y-49897390D01*
X148596574Y-49897388D01*
X148596572Y-49897387D01*
X148418028Y-49825909D01*
X148401455Y-49819274D01*
X148195086Y-49779500D01*
X148195085Y-49779500D01*
X147237575Y-49779500D01*
X147080782Y-49794472D01*
X147080778Y-49794473D01*
X146879127Y-49853683D01*
X146692313Y-49949991D01*
X146527116Y-50079905D01*
X146527112Y-50079909D01*
X146389478Y-50238746D01*
X146284398Y-50420750D01*
X146215656Y-50619365D01*
X146215656Y-50619367D01*
X146200804Y-50722670D01*
X146185746Y-50827401D01*
X123789243Y-50827401D01*
X123784254Y-50722670D01*
X123734704Y-50518424D01*
X123710580Y-50465599D01*
X123647401Y-50327256D01*
X123647398Y-50327251D01*
X123647397Y-50327250D01*
X123647396Y-50327247D01*
X123525486Y-50156048D01*
X123525484Y-50156046D01*
X123525479Y-50156040D01*
X123373379Y-50011014D01*
X123196574Y-49897388D01*
X123001455Y-49819274D01*
X122795086Y-49779500D01*
X122795085Y-49779500D01*
X121837575Y-49779500D01*
X121680782Y-49794472D01*
X121680778Y-49794473D01*
X121479127Y-49853683D01*
X121292313Y-49949991D01*
X121127116Y-50079905D01*
X121127112Y-50079909D01*
X120989478Y-50238746D01*
X120884398Y-50420750D01*
X120815656Y-50619365D01*
X120815656Y-50619367D01*
X120800804Y-50722670D01*
X120785746Y-50827401D01*
X110460500Y-50827401D01*
X110460500Y-48530000D01*
X112150000Y-48530000D01*
X113066314Y-48530000D01*
X113040507Y-48570156D01*
X113000000Y-48708111D01*
X113000000Y-48851889D01*
X113040507Y-48989844D01*
X113066314Y-49030000D01*
X112150001Y-49030000D01*
X112150001Y-49579986D01*
X112160494Y-49682697D01*
X112215641Y-49849119D01*
X112215643Y-49849124D01*
X112307684Y-49998345D01*
X112431654Y-50122315D01*
X112580875Y-50214356D01*
X112580880Y-50214358D01*
X112747302Y-50269505D01*
X112747309Y-50269506D01*
X112850019Y-50279999D01*
X113249999Y-50279999D01*
X113250000Y-50279998D01*
X113250000Y-49215501D01*
X113357685Y-49264680D01*
X113464237Y-49280000D01*
X113535763Y-49280000D01*
X113642315Y-49264680D01*
X113750000Y-49215501D01*
X113750000Y-50279999D01*
X114149972Y-50279999D01*
X114149986Y-50279998D01*
X114252697Y-50269505D01*
X114419119Y-50214358D01*
X114419124Y-50214356D01*
X114568345Y-50122315D01*
X114692315Y-49998345D01*
X114787815Y-49843516D01*
X114839763Y-49796792D01*
X114908726Y-49785569D01*
X114972808Y-49813413D01*
X114981035Y-49820931D01*
X115128599Y-49968495D01*
X115128602Y-49968497D01*
X115128603Y-49968498D01*
X115322165Y-50104032D01*
X115322167Y-50104033D01*
X115322170Y-50104035D01*
X115536337Y-50203903D01*
X115536343Y-50203904D01*
X115536344Y-50203905D01*
X115575356Y-50214358D01*
X115764592Y-50265063D01*
X115952918Y-50281539D01*
X115999999Y-50285659D01*
X116000000Y-50285659D01*
X116000001Y-50285659D01*
X116039234Y-50282226D01*
X116235408Y-50265063D01*
X116463663Y-50203903D01*
X116677829Y-50104035D01*
X116871401Y-49968495D01*
X117038495Y-49801401D01*
X117174035Y-49607829D01*
X117273903Y-49393663D01*
X117330508Y-49182406D01*
X117366873Y-49122746D01*
X117429719Y-49092217D01*
X117450283Y-49090500D01*
X121032715Y-49090500D01*
X121099754Y-49110185D01*
X121118285Y-49124757D01*
X121206623Y-49208987D01*
X121301578Y-49270011D01*
X121383428Y-49322613D01*
X121578543Y-49400725D01*
X121681729Y-49420612D01*
X121784914Y-49440500D01*
X121784915Y-49440500D01*
X122742419Y-49440500D01*
X122742425Y-49440500D01*
X122899218Y-49425528D01*
X123100875Y-49366316D01*
X123287682Y-49270011D01*
X123452886Y-49140092D01*
X123590519Y-48981256D01*
X123695604Y-48799244D01*
X123764344Y-48600633D01*
X123794254Y-48392602D01*
X123789243Y-48287401D01*
X146185746Y-48287401D01*
X146195745Y-48497327D01*
X146245296Y-48701578D01*
X146245298Y-48701582D01*
X146332598Y-48892743D01*
X146332601Y-48892748D01*
X146332602Y-48892750D01*
X146332604Y-48892753D01*
X146454514Y-49063952D01*
X146454515Y-49063953D01*
X146454520Y-49063959D01*
X146606620Y-49208985D01*
X146701578Y-49270011D01*
X146783428Y-49322613D01*
X146978543Y-49400725D01*
X147081729Y-49420612D01*
X147184914Y-49440500D01*
X147184915Y-49440500D01*
X148142419Y-49440500D01*
X148142425Y-49440500D01*
X148299218Y-49425528D01*
X148500875Y-49366316D01*
X148687682Y-49270011D01*
X148852886Y-49140092D01*
X148990519Y-48981256D01*
X149095604Y-48799244D01*
X149164344Y-48600633D01*
X149194254Y-48392602D01*
X149184254Y-48182670D01*
X149134704Y-47978424D01*
X149096821Y-47895472D01*
X149047401Y-47787256D01*
X149047398Y-47787251D01*
X149047397Y-47787250D01*
X149047396Y-47787247D01*
X148925486Y-47616048D01*
X148925484Y-47616046D01*
X148925479Y-47616040D01*
X148773379Y-47471014D01*
X148596574Y-47357388D01*
X148593349Y-47356097D01*
X148441106Y-47295148D01*
X148401455Y-47279274D01*
X148195086Y-47239500D01*
X148195085Y-47239500D01*
X147237575Y-47239500D01*
X147080782Y-47254472D01*
X147080778Y-47254473D01*
X146879127Y-47313683D01*
X146692313Y-47409991D01*
X146527116Y-47539905D01*
X146527112Y-47539909D01*
X146389478Y-47698746D01*
X146284398Y-47880750D01*
X146215656Y-48079365D01*
X146215656Y-48079367D01*
X146191264Y-48249025D01*
X146185746Y-48287401D01*
X123789243Y-48287401D01*
X123784254Y-48182670D01*
X123734704Y-47978424D01*
X123696821Y-47895472D01*
X123647401Y-47787256D01*
X123647398Y-47787251D01*
X123647397Y-47787250D01*
X123647396Y-47787247D01*
X123525486Y-47616048D01*
X123525484Y-47616046D01*
X123525479Y-47616040D01*
X123373379Y-47471014D01*
X123196574Y-47357388D01*
X123193349Y-47356097D01*
X123041106Y-47295148D01*
X123001455Y-47279274D01*
X122795086Y-47239500D01*
X122795085Y-47239500D01*
X121837575Y-47239500D01*
X121680782Y-47254472D01*
X121680778Y-47254473D01*
X121479127Y-47313683D01*
X121292313Y-47409991D01*
X121127116Y-47539905D01*
X121127113Y-47539909D01*
X121121226Y-47546703D01*
X121062448Y-47584477D01*
X121027513Y-47589500D01*
X116907635Y-47589500D01*
X116840596Y-47569815D01*
X116836512Y-47567075D01*
X116677834Y-47455967D01*
X116677830Y-47455965D01*
X116633617Y-47435348D01*
X116463663Y-47356097D01*
X116463659Y-47356096D01*
X116463655Y-47356094D01*
X116235413Y-47294938D01*
X116235403Y-47294936D01*
X116000001Y-47274341D01*
X115999999Y-47274341D01*
X115764596Y-47294936D01*
X115764586Y-47294938D01*
X115536344Y-47356094D01*
X115536337Y-47356096D01*
X115536337Y-47356097D01*
X115522816Y-47362401D01*
X115322171Y-47455964D01*
X115322169Y-47455965D01*
X115128597Y-47591505D01*
X114981035Y-47739068D01*
X114919712Y-47772553D01*
X114850020Y-47767569D01*
X114794087Y-47725697D01*
X114787815Y-47716484D01*
X114692315Y-47561654D01*
X114568345Y-47437684D01*
X114419124Y-47345643D01*
X114419119Y-47345641D01*
X114252697Y-47290494D01*
X114252690Y-47290493D01*
X114149986Y-47280000D01*
X113750000Y-47280000D01*
X113750000Y-48344498D01*
X113642315Y-48295320D01*
X113535763Y-48280000D01*
X113464237Y-48280000D01*
X113357685Y-48295320D01*
X113250000Y-48344498D01*
X113250000Y-47280000D01*
X112850028Y-47280000D01*
X112850012Y-47280001D01*
X112747302Y-47290494D01*
X112580880Y-47345641D01*
X112580875Y-47345643D01*
X112431654Y-47437684D01*
X112307684Y-47561654D01*
X112215643Y-47710875D01*
X112215641Y-47710880D01*
X112160494Y-47877302D01*
X112160493Y-47877309D01*
X112150000Y-47980013D01*
X112150000Y-48530000D01*
X110460500Y-48530000D01*
X110460500Y-43310000D01*
X112170000Y-43310000D01*
X113086314Y-43310000D01*
X113060507Y-43350156D01*
X113020000Y-43488111D01*
X113020000Y-43631889D01*
X113060507Y-43769844D01*
X113086314Y-43810000D01*
X112170001Y-43810000D01*
X112170001Y-44359986D01*
X112180494Y-44462697D01*
X112235641Y-44629119D01*
X112235643Y-44629124D01*
X112327684Y-44778345D01*
X112451654Y-44902315D01*
X112600875Y-44994356D01*
X112600880Y-44994358D01*
X112767302Y-45049505D01*
X112767309Y-45049506D01*
X112870019Y-45059999D01*
X113269999Y-45059999D01*
X113270000Y-45059998D01*
X113270000Y-43995501D01*
X113377685Y-44044680D01*
X113484237Y-44060000D01*
X113555763Y-44060000D01*
X113662315Y-44044680D01*
X113770000Y-43995501D01*
X113770000Y-45059999D01*
X114169972Y-45059999D01*
X114169986Y-45059998D01*
X114272697Y-45049505D01*
X114439119Y-44994358D01*
X114439124Y-44994356D01*
X114588345Y-44902315D01*
X114712315Y-44778345D01*
X114807815Y-44623516D01*
X114859763Y-44576792D01*
X114928726Y-44565569D01*
X114992808Y-44593413D01*
X115001035Y-44600931D01*
X115148599Y-44748495D01*
X115148602Y-44748497D01*
X115148603Y-44748498D01*
X115342165Y-44884032D01*
X115342167Y-44884033D01*
X115342170Y-44884035D01*
X115556337Y-44983903D01*
X115556343Y-44983904D01*
X115556344Y-44983905D01*
X115595356Y-44994358D01*
X115784592Y-45045063D01*
X115972918Y-45061539D01*
X116019999Y-45065659D01*
X116020000Y-45065659D01*
X116020001Y-45065659D01*
X116059234Y-45062226D01*
X116255408Y-45045063D01*
X116334754Y-45023802D01*
X116404603Y-45025465D01*
X116454528Y-45055896D01*
X117684267Y-46285634D01*
X117696048Y-46299266D01*
X117710390Y-46318530D01*
X117750420Y-46352119D01*
X117754392Y-46355759D01*
X117760223Y-46361590D01*
X117760222Y-46361590D01*
X117785944Y-46381927D01*
X117844786Y-46431302D01*
X117844794Y-46431306D01*
X117850824Y-46435273D01*
X117850790Y-46435323D01*
X117857137Y-46439366D01*
X117857169Y-46439316D01*
X117863318Y-46443108D01*
X117863320Y-46443109D01*
X117863323Y-46443111D01*
X117932930Y-46475569D01*
X118001567Y-46510040D01*
X118001576Y-46510042D01*
X118008355Y-46512510D01*
X118008334Y-46512567D01*
X118015451Y-46515040D01*
X118015470Y-46514984D01*
X118022330Y-46517257D01*
X118097532Y-46532784D01*
X118172279Y-46550500D01*
X118172288Y-46550500D01*
X118179452Y-46551338D01*
X118179445Y-46551397D01*
X118186946Y-46552163D01*
X118186952Y-46552104D01*
X118194140Y-46552733D01*
X118194143Y-46552732D01*
X118194144Y-46552733D01*
X118270898Y-46550500D01*
X121032715Y-46550500D01*
X121099754Y-46570185D01*
X121118285Y-46584757D01*
X121206623Y-46668987D01*
X121347716Y-46759662D01*
X121383428Y-46782613D01*
X121578543Y-46860725D01*
X121681729Y-46880612D01*
X121784914Y-46900500D01*
X121784915Y-46900500D01*
X122742419Y-46900500D01*
X122742425Y-46900500D01*
X122899218Y-46885528D01*
X123100875Y-46826316D01*
X123287682Y-46730011D01*
X123295742Y-46723673D01*
X123452883Y-46600094D01*
X123452886Y-46600092D01*
X123590519Y-46441256D01*
X123593404Y-46436260D01*
X123695601Y-46259249D01*
X123695600Y-46259249D01*
X123695604Y-46259244D01*
X123764344Y-46060633D01*
X123794254Y-45852602D01*
X123789243Y-45747401D01*
X146185746Y-45747401D01*
X146195745Y-45957327D01*
X146245296Y-46161578D01*
X146245298Y-46161582D01*
X146332598Y-46352743D01*
X146332601Y-46352748D01*
X146332602Y-46352750D01*
X146332604Y-46352753D01*
X146449753Y-46517266D01*
X146454515Y-46523953D01*
X146454520Y-46523959D01*
X146606620Y-46668985D01*
X146701578Y-46730011D01*
X146783428Y-46782613D01*
X146978543Y-46860725D01*
X147081729Y-46880612D01*
X147184914Y-46900500D01*
X147184915Y-46900500D01*
X148142419Y-46900500D01*
X148142425Y-46900500D01*
X148299218Y-46885528D01*
X148500875Y-46826316D01*
X148687682Y-46730011D01*
X148695742Y-46723673D01*
X148852883Y-46600094D01*
X148852886Y-46600092D01*
X148990519Y-46441256D01*
X148993404Y-46436260D01*
X149095601Y-46259249D01*
X149095600Y-46259249D01*
X149095604Y-46259244D01*
X149164344Y-46060633D01*
X149194254Y-45852602D01*
X149184254Y-45642670D01*
X149134704Y-45438424D01*
X149134701Y-45438417D01*
X149047401Y-45247256D01*
X149047398Y-45247251D01*
X149047397Y-45247250D01*
X149047396Y-45247247D01*
X148925486Y-45076048D01*
X148925484Y-45076046D01*
X148925479Y-45076040D01*
X148773379Y-44931014D01*
X148596574Y-44817388D01*
X148401455Y-44739274D01*
X148195086Y-44699500D01*
X148195085Y-44699500D01*
X147237575Y-44699500D01*
X147080782Y-44714472D01*
X147080778Y-44714473D01*
X146879127Y-44773683D01*
X146692313Y-44869991D01*
X146527116Y-44999905D01*
X146527112Y-44999909D01*
X146389478Y-45158746D01*
X146284398Y-45340750D01*
X146215656Y-45539365D01*
X146215656Y-45539367D01*
X146195437Y-45680000D01*
X146185746Y-45747401D01*
X123789243Y-45747401D01*
X123784254Y-45642670D01*
X123734704Y-45438424D01*
X123734701Y-45438417D01*
X123647401Y-45247256D01*
X123647398Y-45247251D01*
X123647397Y-45247250D01*
X123647396Y-45247247D01*
X123525486Y-45076048D01*
X123525484Y-45076046D01*
X123525479Y-45076040D01*
X123373379Y-44931014D01*
X123196574Y-44817388D01*
X123001455Y-44739274D01*
X122795086Y-44699500D01*
X122795085Y-44699500D01*
X121837575Y-44699500D01*
X121680782Y-44714472D01*
X121680778Y-44714473D01*
X121479127Y-44773683D01*
X121292313Y-44869991D01*
X121127116Y-44999905D01*
X121127113Y-44999909D01*
X121121226Y-45006703D01*
X121062448Y-45044477D01*
X121027513Y-45049500D01*
X118622229Y-45049500D01*
X118555190Y-45029815D01*
X118534548Y-45013181D01*
X117404937Y-43883569D01*
X117371452Y-43822246D01*
X117369090Y-43785078D01*
X117370500Y-43768967D01*
X117370500Y-43351034D01*
X117368918Y-43332953D01*
X117355063Y-43174592D01*
X117300826Y-42972175D01*
X117293905Y-42946344D01*
X117293904Y-42946343D01*
X117293903Y-42946337D01*
X117194035Y-42732171D01*
X117193299Y-42731119D01*
X117058494Y-42538597D01*
X116891402Y-42371506D01*
X116891395Y-42371501D01*
X116697834Y-42235967D01*
X116697830Y-42235965D01*
X116658626Y-42217684D01*
X116483663Y-42136097D01*
X116483659Y-42136096D01*
X116483655Y-42136094D01*
X116255413Y-42074938D01*
X116255403Y-42074936D01*
X116020001Y-42054341D01*
X116019999Y-42054341D01*
X115784596Y-42074936D01*
X115784586Y-42074938D01*
X115556344Y-42136094D01*
X115556335Y-42136098D01*
X115342171Y-42235964D01*
X115342169Y-42235965D01*
X115148597Y-42371505D01*
X115001035Y-42519068D01*
X114939712Y-42552553D01*
X114870020Y-42547569D01*
X114814087Y-42505697D01*
X114807815Y-42496484D01*
X114712315Y-42341654D01*
X114588345Y-42217684D01*
X114439124Y-42125643D01*
X114439119Y-42125641D01*
X114272697Y-42070494D01*
X114272690Y-42070493D01*
X114169986Y-42060000D01*
X113770000Y-42060000D01*
X113770000Y-43124498D01*
X113662315Y-43075320D01*
X113555763Y-43060000D01*
X113484237Y-43060000D01*
X113377685Y-43075320D01*
X113270000Y-43124498D01*
X113270000Y-42060000D01*
X112870028Y-42060000D01*
X112870012Y-42060001D01*
X112767302Y-42070494D01*
X112600880Y-42125641D01*
X112600875Y-42125643D01*
X112451654Y-42217684D01*
X112327684Y-42341654D01*
X112235643Y-42490875D01*
X112235641Y-42490880D01*
X112180494Y-42657302D01*
X112180493Y-42657309D01*
X112170000Y-42760013D01*
X112170000Y-43310000D01*
X110460500Y-43310000D01*
X110460500Y-38300000D01*
X112200000Y-38300000D01*
X113116314Y-38300000D01*
X113090507Y-38340156D01*
X113050000Y-38478111D01*
X113050000Y-38621889D01*
X113090507Y-38759844D01*
X113116314Y-38800000D01*
X112200001Y-38800000D01*
X112200001Y-39349986D01*
X112210494Y-39452697D01*
X112265641Y-39619119D01*
X112265643Y-39619124D01*
X112357684Y-39768345D01*
X112481654Y-39892315D01*
X112630875Y-39984356D01*
X112630880Y-39984358D01*
X112797302Y-40039505D01*
X112797309Y-40039506D01*
X112900019Y-40049999D01*
X113299999Y-40049999D01*
X113300000Y-40049998D01*
X113300000Y-38985501D01*
X113407685Y-39034680D01*
X113514237Y-39050000D01*
X113585763Y-39050000D01*
X113692315Y-39034680D01*
X113800000Y-38985501D01*
X113800000Y-40049999D01*
X114199972Y-40049999D01*
X114199986Y-40049998D01*
X114302697Y-40039505D01*
X114469119Y-39984358D01*
X114469124Y-39984356D01*
X114618345Y-39892315D01*
X114742315Y-39768345D01*
X114837815Y-39613516D01*
X114889763Y-39566792D01*
X114958726Y-39555569D01*
X115022808Y-39583413D01*
X115031035Y-39590931D01*
X115178599Y-39738495D01*
X115178602Y-39738497D01*
X115178603Y-39738498D01*
X115372165Y-39874032D01*
X115372167Y-39874033D01*
X115372170Y-39874035D01*
X115586337Y-39973903D01*
X115586343Y-39973904D01*
X115586344Y-39973905D01*
X115625356Y-39984358D01*
X115814592Y-40035063D01*
X116002918Y-40051539D01*
X116049999Y-40055659D01*
X116050000Y-40055659D01*
X116050001Y-40055659D01*
X116089234Y-40052226D01*
X116285408Y-40035063D01*
X116513663Y-39973903D01*
X116520435Y-39970744D01*
X116550139Y-39956894D01*
X116619216Y-39946401D01*
X116683000Y-39974920D01*
X116690226Y-39981594D01*
X120454270Y-43745638D01*
X120466051Y-43759270D01*
X120480388Y-43778528D01*
X120520409Y-43812111D01*
X120524397Y-43815766D01*
X120530216Y-43821585D01*
X120530220Y-43821588D01*
X120530223Y-43821591D01*
X120555959Y-43841940D01*
X120614786Y-43891302D01*
X120614787Y-43891302D01*
X120614789Y-43891304D01*
X120620818Y-43895270D01*
X120620785Y-43895319D01*
X120627147Y-43899372D01*
X120627179Y-43899321D01*
X120633319Y-43903108D01*
X120633323Y-43903111D01*
X120668132Y-43919343D01*
X120702941Y-43935575D01*
X120771565Y-43970039D01*
X120771567Y-43970040D01*
X120771569Y-43970040D01*
X120778357Y-43972511D01*
X120778336Y-43972567D01*
X120785457Y-43975043D01*
X120785476Y-43974986D01*
X120792322Y-43977254D01*
X120792327Y-43977257D01*
X120792332Y-43977258D01*
X120792335Y-43977259D01*
X120867565Y-43992792D01*
X120942279Y-44010500D01*
X120942282Y-44010500D01*
X120942286Y-44010501D01*
X120949453Y-44011339D01*
X120949446Y-44011398D01*
X120956944Y-44012164D01*
X120956950Y-44012105D01*
X120964142Y-44012733D01*
X120964144Y-44012734D01*
X120964145Y-44012733D01*
X120964146Y-44012734D01*
X121001579Y-44011644D01*
X121029403Y-44010835D01*
X121096987Y-44028560D01*
X121118578Y-44045037D01*
X121134366Y-44060090D01*
X121206623Y-44128987D01*
X121301578Y-44190011D01*
X121383428Y-44242613D01*
X121578543Y-44320725D01*
X121614930Y-44327738D01*
X121784914Y-44360500D01*
X121784915Y-44360500D01*
X122742419Y-44360500D01*
X122742425Y-44360500D01*
X122899218Y-44345528D01*
X123100875Y-44286316D01*
X123287682Y-44190011D01*
X123288223Y-44189586D01*
X123452883Y-44060094D01*
X123452886Y-44060092D01*
X123590519Y-43901256D01*
X123593404Y-43896260D01*
X123695601Y-43719249D01*
X123695600Y-43719249D01*
X123695604Y-43719244D01*
X123764344Y-43520633D01*
X123794254Y-43312602D01*
X123784254Y-43102670D01*
X123761772Y-43010000D01*
X146214632Y-43010000D01*
X147374314Y-43010000D01*
X147362359Y-43021955D01*
X147304835Y-43134852D01*
X147285014Y-43260000D01*
X147304835Y-43385148D01*
X147362359Y-43498045D01*
X147374314Y-43510000D01*
X146218742Y-43510000D01*
X146245770Y-43621409D01*
X146333040Y-43812507D01*
X146454889Y-43983619D01*
X146454895Y-43983625D01*
X146606932Y-44128592D01*
X146783657Y-44242166D01*
X146978685Y-44320244D01*
X147184962Y-44360000D01*
X147440000Y-44360000D01*
X147440000Y-43575686D01*
X147451955Y-43587641D01*
X147564852Y-43645165D01*
X147658519Y-43660000D01*
X147721481Y-43660000D01*
X147815148Y-43645165D01*
X147928045Y-43587641D01*
X147940000Y-43575686D01*
X147940000Y-44360000D01*
X148142398Y-44360000D01*
X148299122Y-44345034D01*
X148299126Y-44345033D01*
X148500686Y-44285850D01*
X148687414Y-44189586D01*
X148852537Y-44059731D01*
X148852540Y-44059728D01*
X148990105Y-43900969D01*
X148990114Y-43900958D01*
X149095144Y-43719039D01*
X149095147Y-43719032D01*
X149163855Y-43520517D01*
X149163855Y-43520515D01*
X149165368Y-43510000D01*
X148005686Y-43510000D01*
X148017641Y-43498045D01*
X148075165Y-43385148D01*
X148094986Y-43260000D01*
X148075165Y-43134852D01*
X148017641Y-43021955D01*
X148005686Y-43010000D01*
X149161257Y-43010000D01*
X149134229Y-42898590D01*
X149046959Y-42707492D01*
X148925110Y-42536380D01*
X148925104Y-42536374D01*
X148773067Y-42391407D01*
X148596342Y-42277833D01*
X148401314Y-42199755D01*
X148195038Y-42160000D01*
X147940000Y-42160000D01*
X147940000Y-42944314D01*
X147928045Y-42932359D01*
X147815148Y-42874835D01*
X147721481Y-42860000D01*
X147658519Y-42860000D01*
X147564852Y-42874835D01*
X147451955Y-42932359D01*
X147440000Y-42944314D01*
X147440000Y-42160000D01*
X147237602Y-42160000D01*
X147080877Y-42174965D01*
X147080873Y-42174966D01*
X146879313Y-42234149D01*
X146692585Y-42330413D01*
X146527462Y-42460268D01*
X146527459Y-42460271D01*
X146389894Y-42619030D01*
X146389885Y-42619041D01*
X146284855Y-42800960D01*
X146284852Y-42800967D01*
X146216144Y-42999482D01*
X146216144Y-42999484D01*
X146214632Y-43010000D01*
X123761772Y-43010000D01*
X123734704Y-42898424D01*
X123720101Y-42866447D01*
X123647401Y-42707256D01*
X123647398Y-42707251D01*
X123647397Y-42707250D01*
X123647396Y-42707247D01*
X123525486Y-42536048D01*
X123525484Y-42536046D01*
X123525479Y-42536040D01*
X123373379Y-42391014D01*
X123196574Y-42277388D01*
X123001455Y-42199274D01*
X122795086Y-42159500D01*
X122795085Y-42159500D01*
X121837575Y-42159500D01*
X121680782Y-42174472D01*
X121680778Y-42174473D01*
X121479127Y-42233683D01*
X121479125Y-42233683D01*
X121479125Y-42233684D01*
X121292318Y-42329989D01*
X121292316Y-42329990D01*
X121287068Y-42332696D01*
X121285878Y-42330388D01*
X121229503Y-42346886D01*
X121162482Y-42327141D01*
X121141934Y-42310567D01*
X119498768Y-40667401D01*
X120785746Y-40667401D01*
X120795745Y-40877327D01*
X120845296Y-41081578D01*
X120845298Y-41081582D01*
X120932598Y-41272743D01*
X120932601Y-41272748D01*
X120932602Y-41272750D01*
X120932604Y-41272753D01*
X120995627Y-41361256D01*
X121054515Y-41443953D01*
X121054520Y-41443959D01*
X121206620Y-41588985D01*
X121301578Y-41650011D01*
X121383428Y-41702613D01*
X121578543Y-41780725D01*
X121681729Y-41800612D01*
X121784914Y-41820500D01*
X121784915Y-41820500D01*
X122742419Y-41820500D01*
X122742425Y-41820500D01*
X122899218Y-41805528D01*
X123100875Y-41746316D01*
X123287682Y-41650011D01*
X123452886Y-41520092D01*
X123590519Y-41361256D01*
X123695604Y-41179244D01*
X123764344Y-40980633D01*
X123794254Y-40772602D01*
X123789243Y-40667401D01*
X146185746Y-40667401D01*
X146195745Y-40877327D01*
X146245296Y-41081578D01*
X146245298Y-41081582D01*
X146332598Y-41272743D01*
X146332601Y-41272748D01*
X146332602Y-41272750D01*
X146332604Y-41272753D01*
X146395627Y-41361256D01*
X146454515Y-41443953D01*
X146454520Y-41443959D01*
X146606620Y-41588985D01*
X146701578Y-41650011D01*
X146783428Y-41702613D01*
X146978543Y-41780725D01*
X147081729Y-41800612D01*
X147184914Y-41820500D01*
X147184915Y-41820500D01*
X148142419Y-41820500D01*
X148142425Y-41820500D01*
X148299218Y-41805528D01*
X148500875Y-41746316D01*
X148687682Y-41650011D01*
X148852886Y-41520092D01*
X148990519Y-41361256D01*
X149095604Y-41179244D01*
X149164344Y-40980633D01*
X149194254Y-40772602D01*
X149184254Y-40562670D01*
X149134704Y-40358424D01*
X149134701Y-40358417D01*
X149047401Y-40167256D01*
X149047398Y-40167251D01*
X149047397Y-40167250D01*
X149047396Y-40167247D01*
X148925486Y-39996048D01*
X148925484Y-39996046D01*
X148925479Y-39996040D01*
X148773379Y-39851014D01*
X148596574Y-39737388D01*
X148401455Y-39659274D01*
X148195086Y-39619500D01*
X148195085Y-39619500D01*
X147237575Y-39619500D01*
X147080782Y-39634472D01*
X147080778Y-39634473D01*
X146879127Y-39693683D01*
X146692313Y-39789991D01*
X146527116Y-39919905D01*
X146527112Y-39919909D01*
X146389478Y-40078746D01*
X146284398Y-40260750D01*
X146215656Y-40459365D01*
X146215656Y-40459367D01*
X146200804Y-40562670D01*
X146185746Y-40667401D01*
X123789243Y-40667401D01*
X123784254Y-40562670D01*
X123734704Y-40358424D01*
X123734701Y-40358417D01*
X123647401Y-40167256D01*
X123647398Y-40167251D01*
X123647397Y-40167250D01*
X123647396Y-40167247D01*
X123525486Y-39996048D01*
X123525484Y-39996046D01*
X123525479Y-39996040D01*
X123373379Y-39851014D01*
X123196574Y-39737388D01*
X123001455Y-39659274D01*
X122795086Y-39619500D01*
X122795085Y-39619500D01*
X121837575Y-39619500D01*
X121680782Y-39634472D01*
X121680778Y-39634473D01*
X121479127Y-39693683D01*
X121292313Y-39789991D01*
X121127116Y-39919905D01*
X121127112Y-39919909D01*
X120989478Y-40078746D01*
X120884398Y-40260750D01*
X120815656Y-40459365D01*
X120815656Y-40459367D01*
X120800804Y-40562670D01*
X120785746Y-40667401D01*
X119498768Y-40667401D01*
X119290735Y-40459368D01*
X117436819Y-38605451D01*
X117403334Y-38544128D01*
X117400500Y-38517770D01*
X117400500Y-38341034D01*
X117395746Y-38286697D01*
X117385063Y-38164592D01*
X117375098Y-38127401D01*
X120785746Y-38127401D01*
X120795745Y-38337327D01*
X120845296Y-38541578D01*
X120845298Y-38541582D01*
X120932598Y-38732743D01*
X120932601Y-38732748D01*
X120932602Y-38732750D01*
X120932604Y-38732753D01*
X120995627Y-38821256D01*
X121054515Y-38903953D01*
X121054520Y-38903959D01*
X121206620Y-39048985D01*
X121301578Y-39110011D01*
X121383428Y-39162613D01*
X121578543Y-39240725D01*
X121681729Y-39260612D01*
X121784914Y-39280500D01*
X121784915Y-39280500D01*
X122742419Y-39280500D01*
X122742425Y-39280500D01*
X122899218Y-39265528D01*
X123100875Y-39206316D01*
X123287682Y-39110011D01*
X123452886Y-38980092D01*
X123590519Y-38821256D01*
X123595769Y-38812164D01*
X123695601Y-38639249D01*
X123695600Y-38639249D01*
X123695604Y-38639244D01*
X123764344Y-38440633D01*
X123794254Y-38232602D01*
X123789243Y-38127401D01*
X146185746Y-38127401D01*
X146195745Y-38337327D01*
X146245296Y-38541578D01*
X146245298Y-38541582D01*
X146332598Y-38732743D01*
X146332601Y-38732748D01*
X146332602Y-38732750D01*
X146332604Y-38732753D01*
X146395627Y-38821256D01*
X146454515Y-38903953D01*
X146454520Y-38903959D01*
X146606620Y-39048985D01*
X146701578Y-39110011D01*
X146783428Y-39162613D01*
X146978543Y-39240725D01*
X147081729Y-39260612D01*
X147184914Y-39280500D01*
X147184915Y-39280500D01*
X148142419Y-39280500D01*
X148142425Y-39280500D01*
X148299218Y-39265528D01*
X148500875Y-39206316D01*
X148687682Y-39110011D01*
X148852886Y-38980092D01*
X148990519Y-38821256D01*
X148995769Y-38812164D01*
X149095601Y-38639249D01*
X149095600Y-38639249D01*
X149095604Y-38639244D01*
X149164344Y-38440633D01*
X149194254Y-38232602D01*
X149184254Y-38022670D01*
X149134704Y-37818424D01*
X149090746Y-37722169D01*
X149047401Y-37627256D01*
X149047398Y-37627251D01*
X149047397Y-37627250D01*
X149047396Y-37627247D01*
X148925486Y-37456048D01*
X148925484Y-37456046D01*
X148925479Y-37456040D01*
X148773379Y-37311014D01*
X148596574Y-37197388D01*
X148401455Y-37119274D01*
X148195086Y-37079500D01*
X148195085Y-37079500D01*
X147237575Y-37079500D01*
X147080782Y-37094472D01*
X147080778Y-37094473D01*
X146879127Y-37153683D01*
X146692313Y-37249991D01*
X146527116Y-37379905D01*
X146527112Y-37379909D01*
X146389478Y-37538746D01*
X146284398Y-37720750D01*
X146215656Y-37919365D01*
X146215656Y-37919367D01*
X146189921Y-38098364D01*
X146185746Y-38127401D01*
X123789243Y-38127401D01*
X123784254Y-38022670D01*
X123734704Y-37818424D01*
X123690746Y-37722169D01*
X123647401Y-37627256D01*
X123647398Y-37627251D01*
X123647397Y-37627250D01*
X123647396Y-37627247D01*
X123525486Y-37456048D01*
X123525484Y-37456046D01*
X123525479Y-37456040D01*
X123373379Y-37311014D01*
X123196574Y-37197388D01*
X123001455Y-37119274D01*
X122795086Y-37079500D01*
X122795085Y-37079500D01*
X121837575Y-37079500D01*
X121680782Y-37094472D01*
X121680778Y-37094473D01*
X121479127Y-37153683D01*
X121292313Y-37249991D01*
X121127116Y-37379905D01*
X121127112Y-37379909D01*
X120989478Y-37538746D01*
X120884398Y-37720750D01*
X120815656Y-37919365D01*
X120815656Y-37919367D01*
X120789921Y-38098364D01*
X120785746Y-38127401D01*
X117375098Y-38127401D01*
X117323903Y-37936337D01*
X117224035Y-37722171D01*
X117223045Y-37720756D01*
X117088494Y-37528597D01*
X116921402Y-37361506D01*
X116921395Y-37361501D01*
X116727834Y-37225967D01*
X116727830Y-37225965D01*
X116691193Y-37208881D01*
X116513663Y-37126097D01*
X116513659Y-37126096D01*
X116513655Y-37126094D01*
X116285413Y-37064938D01*
X116285403Y-37064936D01*
X116050001Y-37044341D01*
X116049999Y-37044341D01*
X115814596Y-37064936D01*
X115814586Y-37064938D01*
X115586344Y-37126094D01*
X115586335Y-37126098D01*
X115372171Y-37225964D01*
X115372169Y-37225965D01*
X115178597Y-37361505D01*
X115031035Y-37509068D01*
X114969712Y-37542553D01*
X114900020Y-37537569D01*
X114844087Y-37495697D01*
X114837815Y-37486484D01*
X114742315Y-37331654D01*
X114618345Y-37207684D01*
X114469124Y-37115643D01*
X114469119Y-37115641D01*
X114302697Y-37060494D01*
X114302690Y-37060493D01*
X114199986Y-37050000D01*
X113800000Y-37050000D01*
X113800000Y-38114498D01*
X113692315Y-38065320D01*
X113585763Y-38050000D01*
X113514237Y-38050000D01*
X113407685Y-38065320D01*
X113300000Y-38114498D01*
X113300000Y-37050000D01*
X112900028Y-37050000D01*
X112900012Y-37050001D01*
X112797302Y-37060494D01*
X112630880Y-37115641D01*
X112630875Y-37115643D01*
X112481654Y-37207684D01*
X112357684Y-37331654D01*
X112265643Y-37480875D01*
X112265641Y-37480880D01*
X112210494Y-37647302D01*
X112210493Y-37647309D01*
X112200000Y-37750013D01*
X112200000Y-38300000D01*
X110460500Y-38300000D01*
X110460500Y-35587401D01*
X120785746Y-35587401D01*
X120795745Y-35797327D01*
X120845296Y-36001578D01*
X120845298Y-36001582D01*
X120932598Y-36192743D01*
X120932601Y-36192748D01*
X120932602Y-36192750D01*
X120932604Y-36192753D01*
X120995627Y-36281256D01*
X121054515Y-36363953D01*
X121054520Y-36363959D01*
X121206620Y-36508985D01*
X121301578Y-36570011D01*
X121383428Y-36622613D01*
X121578543Y-36700725D01*
X121678520Y-36719994D01*
X121784914Y-36740500D01*
X121784915Y-36740500D01*
X122742419Y-36740500D01*
X122742425Y-36740500D01*
X122899218Y-36725528D01*
X123100875Y-36666316D01*
X123287682Y-36570011D01*
X123452886Y-36440092D01*
X123590519Y-36281256D01*
X123695604Y-36099244D01*
X123764344Y-35900633D01*
X123794254Y-35692602D01*
X123789243Y-35587401D01*
X146185746Y-35587401D01*
X146195745Y-35797327D01*
X146245296Y-36001578D01*
X146245298Y-36001582D01*
X146332598Y-36192743D01*
X146332601Y-36192748D01*
X146332602Y-36192750D01*
X146332604Y-36192753D01*
X146395627Y-36281256D01*
X146454515Y-36363953D01*
X146454520Y-36363959D01*
X146606620Y-36508985D01*
X146701578Y-36570011D01*
X146783428Y-36622613D01*
X146978543Y-36700725D01*
X147078520Y-36719994D01*
X147184914Y-36740500D01*
X147184915Y-36740500D01*
X148142419Y-36740500D01*
X148142425Y-36740500D01*
X148299218Y-36725528D01*
X148500875Y-36666316D01*
X148687682Y-36570011D01*
X148852886Y-36440092D01*
X148990519Y-36281256D01*
X149095604Y-36099244D01*
X149164344Y-35900633D01*
X149194254Y-35692602D01*
X149184254Y-35482670D01*
X149134704Y-35278424D01*
X149134701Y-35278417D01*
X149047401Y-35087256D01*
X149047398Y-35087251D01*
X149047397Y-35087250D01*
X149047396Y-35087247D01*
X148925486Y-34916048D01*
X148925484Y-34916046D01*
X148925479Y-34916040D01*
X148773379Y-34771014D01*
X148596574Y-34657388D01*
X148401455Y-34579274D01*
X148195086Y-34539500D01*
X148195085Y-34539500D01*
X147237575Y-34539500D01*
X147080782Y-34554472D01*
X147080778Y-34554473D01*
X146879127Y-34613683D01*
X146692313Y-34709991D01*
X146527116Y-34839905D01*
X146527112Y-34839909D01*
X146389478Y-34998746D01*
X146284398Y-35180750D01*
X146215656Y-35379365D01*
X146215656Y-35379367D01*
X146200804Y-35482670D01*
X146185746Y-35587401D01*
X123789243Y-35587401D01*
X123784254Y-35482670D01*
X123734704Y-35278424D01*
X123734701Y-35278417D01*
X123647401Y-35087256D01*
X123647398Y-35087251D01*
X123647397Y-35087250D01*
X123647396Y-35087247D01*
X123525486Y-34916048D01*
X123525484Y-34916046D01*
X123525479Y-34916040D01*
X123373379Y-34771014D01*
X123196574Y-34657388D01*
X123001455Y-34579274D01*
X122795086Y-34539500D01*
X122795085Y-34539500D01*
X121837575Y-34539500D01*
X121680782Y-34554472D01*
X121680778Y-34554473D01*
X121479127Y-34613683D01*
X121292313Y-34709991D01*
X121127116Y-34839905D01*
X121127112Y-34839909D01*
X120989478Y-34998746D01*
X120884398Y-35180750D01*
X120815656Y-35379365D01*
X120815656Y-35379367D01*
X120800804Y-35482670D01*
X120785746Y-35587401D01*
X110460500Y-35587401D01*
X110460500Y-31160000D01*
X112134473Y-31160000D01*
X112154563Y-31492136D01*
X112154563Y-31492141D01*
X112154564Y-31492142D01*
X112214544Y-31819441D01*
X112214545Y-31819445D01*
X112214546Y-31819449D01*
X112313530Y-32137104D01*
X112313534Y-32137116D01*
X112313537Y-32137123D01*
X112450102Y-32440557D01*
X112622246Y-32725318D01*
X112622251Y-32725326D01*
X112827460Y-32987255D01*
X113062744Y-33222539D01*
X113324673Y-33427748D01*
X113324678Y-33427751D01*
X113324682Y-33427754D01*
X113609443Y-33599898D01*
X113912877Y-33736463D01*
X113912890Y-33736467D01*
X113912895Y-33736469D01*
X114124665Y-33802458D01*
X114230559Y-33835456D01*
X114557858Y-33895436D01*
X114735740Y-33906196D01*
X114806892Y-33910500D01*
X114806894Y-33910500D01*
X114973108Y-33910500D01*
X115035365Y-33906734D01*
X115222142Y-33895436D01*
X115549441Y-33835456D01*
X115867123Y-33736463D01*
X116170557Y-33599898D01*
X116455318Y-33427754D01*
X116717252Y-33222542D01*
X116892393Y-33047401D01*
X120785746Y-33047401D01*
X120795745Y-33257327D01*
X120845296Y-33461578D01*
X120845298Y-33461582D01*
X120932598Y-33652743D01*
X120932601Y-33652748D01*
X120932602Y-33652750D01*
X120932604Y-33652753D01*
X120995627Y-33741256D01*
X121054515Y-33823953D01*
X121054520Y-33823959D01*
X121206620Y-33968985D01*
X121301578Y-34030011D01*
X121383428Y-34082613D01*
X121578543Y-34160725D01*
X121681729Y-34180612D01*
X121784914Y-34200500D01*
X121784915Y-34200500D01*
X122742419Y-34200500D01*
X122742425Y-34200500D01*
X122899218Y-34185528D01*
X123100875Y-34126316D01*
X123287682Y-34030011D01*
X123452886Y-33900092D01*
X123590519Y-33741256D01*
X123593287Y-33736463D01*
X123695601Y-33559249D01*
X123695600Y-33559249D01*
X123695604Y-33559244D01*
X123764344Y-33360633D01*
X123794254Y-33152602D01*
X123789243Y-33047401D01*
X146185746Y-33047401D01*
X146195745Y-33257327D01*
X146245296Y-33461578D01*
X146245298Y-33461582D01*
X146332598Y-33652743D01*
X146332601Y-33652748D01*
X146332602Y-33652750D01*
X146332604Y-33652753D01*
X146395627Y-33741256D01*
X146454515Y-33823953D01*
X146454520Y-33823959D01*
X146606620Y-33968985D01*
X146701578Y-34030011D01*
X146783428Y-34082613D01*
X146978543Y-34160725D01*
X147081729Y-34180612D01*
X147184914Y-34200500D01*
X147184915Y-34200500D01*
X148142419Y-34200500D01*
X148142425Y-34200500D01*
X148299218Y-34185528D01*
X148500875Y-34126316D01*
X148687682Y-34030011D01*
X148852886Y-33900092D01*
X148990519Y-33741256D01*
X148993287Y-33736463D01*
X149095601Y-33559249D01*
X149095600Y-33559249D01*
X149095604Y-33559244D01*
X149164344Y-33360633D01*
X149194254Y-33152602D01*
X149184254Y-32942670D01*
X149134704Y-32738424D01*
X149134701Y-32738417D01*
X149047401Y-32547256D01*
X149047398Y-32547251D01*
X149047397Y-32547250D01*
X149047396Y-32547247D01*
X148925486Y-32376048D01*
X148925484Y-32376046D01*
X148925479Y-32376040D01*
X148773379Y-32231014D01*
X148596574Y-32117388D01*
X148401455Y-32039274D01*
X148195086Y-31999500D01*
X148195085Y-31999500D01*
X147237575Y-31999500D01*
X147080782Y-32014472D01*
X147080778Y-32014473D01*
X146879127Y-32073683D01*
X146692313Y-32169991D01*
X146527116Y-32299905D01*
X146527112Y-32299909D01*
X146389478Y-32458746D01*
X146284398Y-32640750D01*
X146215656Y-32839365D01*
X146215656Y-32839367D01*
X146194394Y-32987255D01*
X146185746Y-33047401D01*
X123789243Y-33047401D01*
X123784254Y-32942670D01*
X123734704Y-32738424D01*
X123734701Y-32738417D01*
X123647401Y-32547256D01*
X123647398Y-32547251D01*
X123647397Y-32547250D01*
X123647396Y-32547247D01*
X123525486Y-32376048D01*
X123525484Y-32376046D01*
X123525479Y-32376040D01*
X123373379Y-32231014D01*
X123196574Y-32117388D01*
X123001455Y-32039274D01*
X122795086Y-31999500D01*
X122795085Y-31999500D01*
X121837575Y-31999500D01*
X121680782Y-32014472D01*
X121680778Y-32014473D01*
X121479127Y-32073683D01*
X121292313Y-32169991D01*
X121127116Y-32299905D01*
X121127112Y-32299909D01*
X120989478Y-32458746D01*
X120884398Y-32640750D01*
X120815656Y-32839365D01*
X120815656Y-32839367D01*
X120794394Y-32987255D01*
X120785746Y-33047401D01*
X116892393Y-33047401D01*
X116952542Y-32987252D01*
X117147486Y-32738424D01*
X117157748Y-32725326D01*
X117157748Y-32725324D01*
X117157754Y-32725318D01*
X117329898Y-32440557D01*
X117466463Y-32137123D01*
X117565456Y-31819441D01*
X117625436Y-31492142D01*
X117645527Y-31160000D01*
X117625436Y-30827858D01*
X117566710Y-30507401D01*
X120785746Y-30507401D01*
X120795745Y-30717327D01*
X120845296Y-30921578D01*
X120845298Y-30921582D01*
X120932598Y-31112743D01*
X120932601Y-31112748D01*
X120932602Y-31112750D01*
X120932604Y-31112753D01*
X120995627Y-31201256D01*
X121054515Y-31283953D01*
X121054520Y-31283959D01*
X121206620Y-31428985D01*
X121301578Y-31490011D01*
X121383428Y-31542613D01*
X121578543Y-31620725D01*
X121681729Y-31640612D01*
X121784914Y-31660500D01*
X121784915Y-31660500D01*
X122742419Y-31660500D01*
X122742425Y-31660500D01*
X122899218Y-31645528D01*
X123100875Y-31586316D01*
X123287682Y-31490011D01*
X123452886Y-31360092D01*
X123590519Y-31201256D01*
X123695604Y-31019244D01*
X123764344Y-30820633D01*
X123794254Y-30612602D01*
X123789243Y-30507401D01*
X146185746Y-30507401D01*
X146195745Y-30717327D01*
X146245296Y-30921578D01*
X146245298Y-30921582D01*
X146332598Y-31112743D01*
X146332601Y-31112748D01*
X146332602Y-31112750D01*
X146332604Y-31112753D01*
X146395627Y-31201256D01*
X146454515Y-31283953D01*
X146454520Y-31283959D01*
X146606620Y-31428985D01*
X146701578Y-31490011D01*
X146783428Y-31542613D01*
X146978543Y-31620725D01*
X147081729Y-31640612D01*
X147184914Y-31660500D01*
X147184915Y-31660500D01*
X148142419Y-31660500D01*
X148142425Y-31660500D01*
X148299218Y-31645528D01*
X148500875Y-31586316D01*
X148687682Y-31490011D01*
X148852886Y-31360092D01*
X148858774Y-31353297D01*
X148917552Y-31315523D01*
X148952487Y-31310500D01*
X155237770Y-31310500D01*
X155304809Y-31330185D01*
X155325451Y-31346819D01*
X162524270Y-38545638D01*
X162536051Y-38559270D01*
X162550388Y-38578528D01*
X162590409Y-38612111D01*
X162594397Y-38615766D01*
X162600216Y-38621585D01*
X162600220Y-38621588D01*
X162600223Y-38621591D01*
X162625959Y-38641940D01*
X162684786Y-38691302D01*
X162684787Y-38691302D01*
X162684789Y-38691304D01*
X162690818Y-38695270D01*
X162690785Y-38695319D01*
X162697147Y-38699372D01*
X162697179Y-38699321D01*
X162703319Y-38703108D01*
X162703323Y-38703111D01*
X162723960Y-38712734D01*
X162772941Y-38735575D01*
X162819517Y-38758966D01*
X162841567Y-38770040D01*
X162841569Y-38770040D01*
X162848357Y-38772511D01*
X162848336Y-38772567D01*
X162855455Y-38775042D01*
X162855474Y-38774986D01*
X162862329Y-38777258D01*
X162937562Y-38792791D01*
X163012279Y-38810500D01*
X163012289Y-38810500D01*
X163019452Y-38811338D01*
X163019444Y-38811397D01*
X163026945Y-38812164D01*
X163026951Y-38812105D01*
X163034140Y-38812734D01*
X163034144Y-38812733D01*
X163034145Y-38812734D01*
X163110918Y-38810500D01*
X163193337Y-38810500D01*
X163260376Y-38830185D01*
X163294912Y-38863377D01*
X163319954Y-38899141D01*
X163480858Y-39060045D01*
X163480861Y-39060047D01*
X163667266Y-39190568D01*
X163873504Y-39286739D01*
X164093308Y-39345635D01*
X164255230Y-39359801D01*
X164319998Y-39365468D01*
X164320000Y-39365468D01*
X164320002Y-39365468D01*
X164376673Y-39360509D01*
X164546692Y-39345635D01*
X164766496Y-39286739D01*
X164972734Y-39190568D01*
X165159139Y-39060047D01*
X165320047Y-38899139D01*
X165450568Y-38712734D01*
X165546739Y-38506496D01*
X165605635Y-38286692D01*
X165625468Y-38060000D01*
X165605635Y-37833308D01*
X165550424Y-37627256D01*
X165546741Y-37613511D01*
X165546738Y-37613502D01*
X165513654Y-37542553D01*
X165450568Y-37407266D01*
X165320047Y-37220861D01*
X165320045Y-37220858D01*
X165159141Y-37059954D01*
X164972734Y-36929432D01*
X164972732Y-36929431D01*
X164766497Y-36833261D01*
X164766488Y-36833258D01*
X164546697Y-36774366D01*
X164546693Y-36774365D01*
X164546692Y-36774365D01*
X164546691Y-36774364D01*
X164546686Y-36774364D01*
X164320002Y-36754532D01*
X164319998Y-36754532D01*
X164093313Y-36774364D01*
X164093302Y-36774366D01*
X163873511Y-36833258D01*
X163873502Y-36833261D01*
X163667267Y-36929431D01*
X163667265Y-36929432D01*
X163480858Y-37059954D01*
X163408769Y-37132042D01*
X163347445Y-37165527D01*
X163277754Y-37160541D01*
X163233408Y-37132041D01*
X157771368Y-31670000D01*
X159804473Y-31670000D01*
X159824563Y-32002136D01*
X159824563Y-32002141D01*
X159824564Y-32002142D01*
X159884544Y-32329441D01*
X159884545Y-32329445D01*
X159884546Y-32329449D01*
X159983530Y-32647104D01*
X159983534Y-32647116D01*
X159983537Y-32647123D01*
X160120102Y-32950557D01*
X160284521Y-33222539D01*
X160292251Y-33235326D01*
X160497460Y-33497255D01*
X160732744Y-33732539D01*
X160994673Y-33937748D01*
X160994678Y-33937751D01*
X160994682Y-33937754D01*
X161279443Y-34109898D01*
X161582877Y-34246463D01*
X161582890Y-34246467D01*
X161582895Y-34246469D01*
X161794665Y-34312458D01*
X161900559Y-34345456D01*
X162227858Y-34405436D01*
X162405740Y-34416196D01*
X162476892Y-34420500D01*
X162476894Y-34420500D01*
X162643108Y-34420500D01*
X162705365Y-34416734D01*
X162892142Y-34405436D01*
X163219441Y-34345456D01*
X163537123Y-34246463D01*
X163840557Y-34109898D01*
X164125318Y-33937754D01*
X164173388Y-33900094D01*
X164255892Y-33835456D01*
X164387252Y-33732542D01*
X164622542Y-33497252D01*
X164827754Y-33235318D01*
X164999898Y-32950557D01*
X165136463Y-32647123D01*
X165235456Y-32329441D01*
X165295436Y-32002142D01*
X165315527Y-31670000D01*
X165295436Y-31337858D01*
X165235456Y-31010559D01*
X165178526Y-30827863D01*
X165136469Y-30692895D01*
X165136467Y-30692890D01*
X165136463Y-30692877D01*
X164999898Y-30389443D01*
X164827754Y-30104682D01*
X164827751Y-30104678D01*
X164827748Y-30104673D01*
X164622539Y-29842744D01*
X164387255Y-29607460D01*
X164125326Y-29402251D01*
X164010354Y-29332748D01*
X163840557Y-29230102D01*
X163537123Y-29093537D01*
X163537116Y-29093534D01*
X163537104Y-29093530D01*
X163219449Y-28994546D01*
X163219445Y-28994545D01*
X163219441Y-28994544D01*
X162892142Y-28934564D01*
X162892141Y-28934563D01*
X162892136Y-28934563D01*
X162643108Y-28919500D01*
X162643106Y-28919500D01*
X162476894Y-28919500D01*
X162476892Y-28919500D01*
X162227863Y-28934563D01*
X162227858Y-28934564D01*
X161900559Y-28994544D01*
X161900556Y-28994544D01*
X161900550Y-28994546D01*
X161582895Y-29093530D01*
X161582879Y-29093536D01*
X161582877Y-29093537D01*
X161522968Y-29120500D01*
X161279447Y-29230100D01*
X161279445Y-29230101D01*
X160994673Y-29402251D01*
X160732744Y-29607460D01*
X160497460Y-29842744D01*
X160292251Y-30104673D01*
X160120101Y-30389445D01*
X160120100Y-30389447D01*
X159983536Y-30692880D01*
X159983530Y-30692895D01*
X159884546Y-31010550D01*
X159884544Y-31010556D01*
X159884544Y-31010559D01*
X159865818Y-31112743D01*
X159824563Y-31337863D01*
X159804473Y-31670000D01*
X157771368Y-31670000D01*
X156175729Y-30074361D01*
X156163949Y-30060730D01*
X156156482Y-30050701D01*
X156149612Y-30041472D01*
X156149610Y-30041470D01*
X156109587Y-30007886D01*
X156105612Y-30004244D01*
X156102690Y-30001322D01*
X156099780Y-29998411D01*
X156074040Y-29978059D01*
X156015209Y-29928694D01*
X156009180Y-29924729D01*
X156009212Y-29924680D01*
X156002853Y-29920628D01*
X156002822Y-29920679D01*
X155996680Y-29916891D01*
X155996678Y-29916890D01*
X155996677Y-29916889D01*
X155957474Y-29898608D01*
X155927058Y-29884424D01*
X155892894Y-29867267D01*
X155858433Y-29849960D01*
X155858431Y-29849959D01*
X155858430Y-29849959D01*
X155851645Y-29847489D01*
X155851665Y-29847433D01*
X155844549Y-29844959D01*
X155844531Y-29845015D01*
X155837671Y-29842742D01*
X155809841Y-29836996D01*
X155762434Y-29827207D01*
X155713472Y-29815603D01*
X155687719Y-29809499D01*
X155680547Y-29808661D01*
X155680553Y-29808601D01*
X155673055Y-29807835D01*
X155673050Y-29807895D01*
X155665860Y-29807265D01*
X155589083Y-29809500D01*
X148947285Y-29809500D01*
X148880246Y-29789815D01*
X148861715Y-29775243D01*
X148773376Y-29691012D01*
X148596574Y-29577388D01*
X148401455Y-29499274D01*
X148195086Y-29459500D01*
X148195085Y-29459500D01*
X147237575Y-29459500D01*
X147080782Y-29474472D01*
X147080778Y-29474473D01*
X146879127Y-29533683D01*
X146692313Y-29629991D01*
X146527116Y-29759905D01*
X146527112Y-29759909D01*
X146389478Y-29918746D01*
X146284398Y-30100750D01*
X146215656Y-30299365D01*
X146215656Y-30299367D01*
X146186730Y-30500559D01*
X146185746Y-30507401D01*
X123789243Y-30507401D01*
X123784254Y-30402670D01*
X123734704Y-30198424D01*
X123727612Y-30182895D01*
X123647401Y-30007256D01*
X123647398Y-30007251D01*
X123647397Y-30007250D01*
X123647396Y-30007247D01*
X123525486Y-29836048D01*
X123525484Y-29836046D01*
X123525479Y-29836040D01*
X123373379Y-29691014D01*
X123196574Y-29577388D01*
X123001455Y-29499274D01*
X122795086Y-29459500D01*
X122795085Y-29459500D01*
X121837575Y-29459500D01*
X121680782Y-29474472D01*
X121680778Y-29474473D01*
X121479127Y-29533683D01*
X121292313Y-29629991D01*
X121127116Y-29759905D01*
X121127112Y-29759909D01*
X120989478Y-29918746D01*
X120884398Y-30100750D01*
X120815656Y-30299365D01*
X120815656Y-30299367D01*
X120786730Y-30500559D01*
X120785746Y-30507401D01*
X117566710Y-30507401D01*
X117565456Y-30500559D01*
X117502763Y-30299368D01*
X117466469Y-30182895D01*
X117466467Y-30182890D01*
X117466463Y-30182877D01*
X117329898Y-29879443D01*
X117157754Y-29594682D01*
X117157751Y-29594678D01*
X117157748Y-29594673D01*
X116952539Y-29332744D01*
X116717255Y-29097460D01*
X116455326Y-28892251D01*
X116455318Y-28892246D01*
X116170557Y-28720102D01*
X115867123Y-28583537D01*
X115867116Y-28583534D01*
X115867104Y-28583530D01*
X115549449Y-28484546D01*
X115549445Y-28484545D01*
X115549441Y-28484544D01*
X115222142Y-28424564D01*
X115222141Y-28424563D01*
X115222136Y-28424563D01*
X114973108Y-28409500D01*
X114973106Y-28409500D01*
X114806894Y-28409500D01*
X114806892Y-28409500D01*
X114557863Y-28424563D01*
X114557858Y-28424564D01*
X114230559Y-28484544D01*
X114230556Y-28484544D01*
X114230550Y-28484546D01*
X113912895Y-28583530D01*
X113912879Y-28583536D01*
X113912877Y-28583537D01*
X113609443Y-28720102D01*
X113570541Y-28743619D01*
X113324673Y-28892251D01*
X113062744Y-29097460D01*
X112827460Y-29332744D01*
X112622251Y-29594673D01*
X112614521Y-29607460D01*
X112450102Y-29879443D01*
X112350500Y-30100750D01*
X112313536Y-30182880D01*
X112313530Y-30182895D01*
X112214546Y-30500550D01*
X112154563Y-30827863D01*
X112134473Y-31160000D01*
X110460500Y-31160000D01*
X110460500Y-26864500D01*
X110480185Y-26797461D01*
X110532989Y-26751706D01*
X110584500Y-26740500D01*
X120993501Y-26740500D01*
X121060540Y-26760185D01*
G37*
%TD.AperFunction*%
%TD*%
M02*
