M48
; DRILL file {KiCad 7.0.9-1.fc39} date Mon 27 Nov 2023 01:07:50 AM -03
; FORMAT={-:-/ absolute / inch / decimal}
; #@! TF.CreationDate,2023-11-27T01:07:50-03:00
; #@! TF.GenerationSoftware,Kicad,Pcbnew,7.0.9-1.fc39
; #@! TF.FileFunction,Plated,1,2,PTH
FMAT,2
INCH
; #@! TA.AperFunction,Plated,PTH,ComponentDrill
T1C0.0295
; #@! TA.AperFunction,Plated,PTH,ComponentDrill
T2C0.0315
; #@! TA.AperFunction,Plated,PTH,ComponentDrill
T3C0.0354
; #@! TA.AperFunction,Plated,PTH,ComponentDrill
T4C0.0374
; #@! TA.AperFunction,Plated,PTH,ComponentDrill
T5C0.0394
; #@! TA.AperFunction,Plated,PTH,ComponentDrill
T6C0.0433
; #@! TA.AperFunction,Plated,PTH,ComponentDrill
T7C0.0512
; #@! TA.AperFunction,Plated,PTH,ComponentDrill
T8C0.0551
%
G90
G05
T1
X6.0728Y-2.2642
X6.0728Y-2.3142
X6.0728Y-2.3642
T2
X4.6626Y-2.1291
X4.6626Y-2.4291
X4.8146Y-1.1031
X4.8146Y-1.2031
X4.8146Y-1.3031
X4.8146Y-1.4031
X4.8146Y-1.5031
X4.8146Y-1.6031
X4.8146Y-1.7031
X4.8146Y-1.8031
X4.8146Y-1.9031
X4.8146Y-2.0031
X4.8146Y-2.1031
X4.8146Y-2.2031
X4.8146Y-2.3031
X4.8146Y-2.4031
X4.8146Y-2.5031
X4.8146Y-2.6031
X4.8146Y-2.7031
X4.8146Y-2.8031
X4.8146Y-2.9031
X4.915Y-3.0307
X4.915Y-3.1094
X4.9583Y-3.3063
X4.9583Y-3.4047
X5.8144Y-2.803
X5.8144Y-2.903
X5.8146Y-1.1031
X5.8146Y-1.2031
X5.8146Y-1.3031
X5.8146Y-1.4031
X5.8146Y-1.5031
X5.8146Y-1.6031
X5.8146Y-1.7031
X5.8146Y-1.8031
X5.8146Y-1.9031
X5.8146Y-2.0031
X5.8146Y-2.1031
X5.8146Y-2.2031
X5.8146Y-2.3031
X5.8146Y-2.4031
X5.8146Y-2.5031
X5.8146Y-2.6031
X5.8146Y-2.7031
X6.0445Y-1.8571
X6.3445Y-1.8571
X6.4693Y-1.4984
X6.4693Y-1.7984
T3
X6.1378Y-2.0165
X6.1378Y-2.1165
T4
X4.4606Y-2.1693
X4.4606Y-2.2677
X4.4606Y-2.3661
T5
X4.4685Y-1.9205
X4.4693Y-1.715
X4.4705Y-1.5177
X4.5669Y-1.9205
X4.5677Y-1.715
X4.5689Y-1.5177
T6
X4.4559Y-3.0555
X4.5559Y-3.0555
X4.6559Y-3.0555
X6.0079Y-1.4457
X6.0079Y-1.7016
X6.0228Y-2.5469
X6.185Y-1.4457
X6.185Y-1.7016
X6.3228Y-2.5469
T7
X6.087Y-2.8622
X6.087Y-3.3425
X6.3232Y-2.7835
X6.5594Y-2.8622
X6.5594Y-3.3425
T8
X4.489Y-3.3335
X4.6858Y-3.3335
X5.6516Y-3.335
X5.8484Y-3.335
T0
M30
